<svg width="880" height="345" viewBox="0 0 880 345" fill="none" xmlns="http://www.w3.org/2000/svg">
<g filter="url(#filter0_d_817_2064)">
<rect x="4" width="872" height="337" rx="12" fill="#1D1E22" shape-rendering="crispEdges"/>
<path d="M338.759 37.12C338.327 36.288 337.727 35.664 336.959 35.248C336.191 34.816 335.303 34.6 334.295 34.6C333.191 34.6 332.207 34.848 331.343 35.344C330.479 35.84 329.799 36.544 329.303 37.456C328.823 38.368 328.583 39.424 328.583 40.624C328.583 41.824 328.823 42.888 329.303 43.816C329.799 44.728 330.479 45.432 331.343 45.928C332.207 46.424 333.191 46.672 334.295 46.672C335.783 46.672 336.991 46.256 337.919 45.424C338.847 44.592 339.415 43.464 339.623 42.04H333.359V39.856H342.551V41.992C342.375 43.288 341.911 44.48 341.159 45.568C340.423 46.656 339.455 47.528 338.255 48.184C337.071 48.824 335.751 49.144 334.295 49.144C332.727 49.144 331.295 48.784 329.999 48.064C328.703 47.328 327.671 46.312 326.903 45.016C326.151 43.72 325.775 42.256 325.775 40.624C325.775 38.992 326.151 37.528 326.903 36.232C327.671 34.936 328.703 33.928 329.999 33.208C331.311 32.472 332.743 32.104 334.295 32.104C336.071 32.104 337.647 32.544 339.023 33.424C340.415 34.288 341.423 35.52 342.047 37.12H338.759ZM343.858 42.328C343.858 41 344.13 39.824 344.674 38.8C345.234 37.776 345.986 36.984 346.93 36.424C347.89 35.848 348.946 35.56 350.098 35.56C351.138 35.56 352.042 35.768 352.81 36.184C353.594 36.584 354.218 37.088 354.682 37.696V35.776H357.442V49H354.682V47.032C354.218 47.656 353.586 48.176 352.786 48.592C351.986 49.008 351.074 49.216 350.05 49.216C348.914 49.216 347.874 48.928 346.93 48.352C345.986 47.76 345.234 46.944 344.674 45.904C344.13 44.848 343.858 43.656 343.858 42.328ZM354.682 42.376C354.682 41.464 354.49 40.672 354.106 40C353.738 39.328 353.25 38.816 352.642 38.464C352.034 38.112 351.378 37.936 350.674 37.936C349.97 37.936 349.314 38.112 348.706 38.464C348.098 38.8 347.602 39.304 347.218 39.976C346.85 40.632 346.666 41.416 346.666 42.328C346.666 43.24 346.85 44.04 347.218 44.728C347.602 45.416 348.098 45.944 348.706 46.312C349.33 46.664 349.986 46.84 350.674 46.84C351.378 46.84 352.034 46.664 352.642 46.312C353.25 45.96 353.738 45.448 354.106 44.776C354.49 44.088 354.682 43.288 354.682 42.376ZM376.563 35.56C377.603 35.56 378.531 35.776 379.347 36.208C380.179 36.64 380.827 37.28 381.291 38.128C381.771 38.976 382.011 40 382.011 41.2V49H379.299V41.608C379.299 40.424 379.003 39.52 378.411 38.896C377.819 38.256 377.011 37.936 375.987 37.936C374.963 37.936 374.147 38.256 373.539 38.896C372.947 39.52 372.651 40.424 372.651 41.608V49H369.939V41.608C369.939 40.424 369.643 39.52 369.051 38.896C368.459 38.256 367.651 37.936 366.627 37.936C365.603 37.936 364.787 38.256 364.179 38.896C363.587 39.52 363.291 40.424 363.291 41.608V49H360.555V35.776H363.291V37.288C363.739 36.744 364.307 36.32 364.995 36.016C365.683 35.712 366.419 35.56 367.203 35.56C368.259 35.56 369.203 35.784 370.035 36.232C370.867 36.68 371.507 37.328 371.955 38.176C372.355 37.376 372.979 36.744 373.827 36.28C374.675 35.8 375.587 35.56 376.563 35.56ZM397.133 42.064C397.133 42.56 397.101 43.008 397.037 43.408H386.933C387.013 44.464 387.405 45.312 388.109 45.952C388.813 46.592 389.677 46.912 390.701 46.912C392.173 46.912 393.213 46.296 393.821 45.064H396.773C396.373 46.28 395.645 47.28 394.589 48.064C393.549 48.832 392.253 49.216 390.701 49.216C389.437 49.216 388.301 48.936 387.293 48.376C386.301 47.8 385.517 47 384.941 45.976C384.381 44.936 384.101 43.736 384.101 42.376C384.101 41.016 384.373 39.824 384.917 38.8C385.477 37.76 386.253 36.96 387.245 36.4C388.253 35.84 389.405 35.56 390.701 35.56C391.949 35.56 393.061 35.832 394.037 36.376C395.013 36.92 395.773 37.688 396.317 38.68C396.861 39.656 397.133 40.784 397.133 42.064ZM394.277 41.2C394.261 40.192 393.901 39.384 393.197 38.776C392.493 38.168 391.621 37.864 390.581 37.864C389.637 37.864 388.829 38.168 388.157 38.776C387.485 39.368 387.085 40.176 386.957 41.2H394.277ZM404.145 49.216C403.105 49.216 402.169 49.032 401.337 48.664C400.521 48.28 399.873 47.768 399.393 47.128C398.913 46.472 398.657 45.744 398.625 44.944H401.457C401.505 45.504 401.769 45.976 402.249 46.36C402.745 46.728 403.361 46.912 404.097 46.912C404.865 46.912 405.457 46.768 405.873 46.48C406.305 46.176 406.521 45.792 406.521 45.328C406.521 44.832 406.281 44.464 405.801 44.224C405.337 43.984 404.593 43.72 403.569 43.432C402.577 43.16 401.769 42.896 401.145 42.64C400.521 42.384 399.977 41.992 399.513 41.464C399.065 40.936 398.841 40.24 398.841 39.376C398.841 38.672 399.049 38.032 399.465 37.456C399.881 36.864 400.473 36.4 401.241 36.064C402.025 35.728 402.921 35.56 403.929 35.56C405.433 35.56 406.641 35.944 407.553 36.712C408.481 37.464 408.977 38.496 409.041 39.808H406.305C406.257 39.216 406.017 38.744 405.585 38.392C405.153 38.04 404.569 37.864 403.833 37.864C403.113 37.864 402.561 38 402.177 38.272C401.793 38.544 401.601 38.904 401.601 39.352C401.601 39.704 401.729 40 401.985 40.24C402.241 40.48 402.553 40.672 402.921 40.816C403.289 40.944 403.833 41.112 404.553 41.32C405.513 41.576 406.297 41.84 406.905 42.112C407.529 42.368 408.065 42.752 408.513 43.264C408.961 43.776 409.193 44.456 409.209 45.304C409.209 46.056 409.001 46.728 408.585 47.32C408.169 47.912 407.577 48.376 406.809 48.712C406.057 49.048 405.169 49.216 404.145 49.216ZM435.2 35.776L431.096 49H428.216L425.552 39.232L422.888 49H420.008L415.88 35.776H418.664L421.424 46.408L424.232 35.776H427.088L429.776 46.36L432.512 35.776H435.2ZM442.501 49.216C441.253 49.216 440.125 48.936 439.117 48.376C438.109 47.8 437.317 47 436.741 45.976C436.165 44.936 435.877 43.736 435.877 42.376C435.877 41.032 436.173 39.84 436.765 38.8C437.357 37.76 438.165 36.96 439.189 36.4C440.213 35.84 441.357 35.56 442.621 35.56C443.885 35.56 445.029 35.84 446.053 36.4C447.077 36.96 447.885 37.76 448.477 38.8C449.069 39.84 449.365 41.032 449.365 42.376C449.365 43.72 449.061 44.912 448.453 45.952C447.845 46.992 447.013 47.8 445.957 48.376C444.917 48.936 443.765 49.216 442.501 49.216ZM442.501 46.84C443.205 46.84 443.861 46.672 444.469 46.336C445.093 46 445.597 45.496 445.981 44.824C446.365 44.152 446.557 43.336 446.557 42.376C446.557 41.416 446.373 40.608 446.005 39.952C445.637 39.28 445.149 38.776 444.541 38.44C443.933 38.104 443.277 37.936 442.573 37.936C441.869 37.936 441.213 38.104 440.605 38.44C440.013 38.776 439.541 39.28 439.189 39.952C438.837 40.608 438.661 41.416 438.661 42.376C438.661 43.8 439.021 44.904 439.741 45.688C440.477 46.456 441.397 46.84 442.501 46.84ZM458.262 35.56C459.302 35.56 460.23 35.776 461.046 36.208C461.878 36.64 462.526 37.28 462.99 38.128C463.454 38.976 463.686 40 463.686 41.2V49H460.974V41.608C460.974 40.424 460.678 39.52 460.086 38.896C459.494 38.256 458.686 37.936 457.662 37.936C456.638 37.936 455.822 38.256 455.214 38.896C454.622 39.52 454.326 40.424 454.326 41.608V49H451.59V35.776H454.326V37.288C454.774 36.744 455.342 36.32 456.03 36.016C456.734 35.712 457.478 35.56 458.262 35.56ZM471.538 42.376C471.538 41.016 471.81 39.824 472.354 38.8C472.914 37.76 473.682 36.96 474.658 36.4C475.634 35.84 476.754 35.56 478.018 35.56C479.618 35.56 480.938 35.944 481.978 36.712C483.034 37.464 483.746 38.544 484.114 39.952H481.162C480.922 39.296 480.538 38.784 480.01 38.416C479.482 38.048 478.818 37.864 478.018 37.864C476.898 37.864 476.002 38.264 475.33 39.064C474.674 39.848 474.346 40.952 474.346 42.376C474.346 43.8 474.674 44.912 475.33 45.712C476.002 46.512 476.898 46.912 478.018 46.912C479.602 46.912 480.65 46.216 481.162 44.824H484.114C483.73 46.168 483.01 47.24 481.954 48.04C480.898 48.824 479.586 49.216 478.018 49.216C476.754 49.216 475.634 48.936 474.658 48.376C473.682 47.8 472.914 47 472.354 45.976C471.81 44.936 471.538 43.736 471.538 42.376ZM493.2 35.56C494.208 35.56 495.104 35.776 495.888 36.208C496.688 36.64 497.312 37.28 497.76 38.128C498.224 38.976 498.456 40 498.456 41.2V49H495.744V41.608C495.744 40.424 495.448 39.52 494.856 38.896C494.264 38.256 493.456 37.936 492.432 37.936C491.408 37.936 490.592 38.256 489.984 38.896C489.392 39.52 489.096 40.424 489.096 41.608V49H486.36V31.24H489.096V37.312C489.56 36.752 490.144 36.32 490.848 36.016C491.568 35.712 492.352 35.56 493.2 35.56ZM500.554 42.328C500.554 41 500.826 39.824 501.37 38.8C501.93 37.776 502.682 36.984 503.626 36.424C504.586 35.848 505.642 35.56 506.794 35.56C507.834 35.56 508.738 35.768 509.506 36.184C510.29 36.584 510.914 37.088 511.378 37.696V35.776H514.138V49H511.378V47.032C510.914 47.656 510.282 48.176 509.482 48.592C508.682 49.008 507.77 49.216 506.746 49.216C505.61 49.216 504.57 48.928 503.626 48.352C502.682 47.76 501.93 46.944 501.37 45.904C500.826 44.848 500.554 43.656 500.554 42.328ZM511.378 42.376C511.378 41.464 511.186 40.672 510.802 40C510.434 39.328 509.946 38.816 509.338 38.464C508.73 38.112 508.074 37.936 507.37 37.936C506.666 37.936 506.01 38.112 505.402 38.464C504.794 38.8 504.298 39.304 503.914 39.976C503.546 40.632 503.362 41.416 503.362 42.328C503.362 43.24 503.546 44.04 503.914 44.728C504.298 45.416 504.794 45.944 505.402 46.312C506.026 46.664 506.682 46.84 507.37 46.84C508.074 46.84 508.73 46.664 509.338 46.312C509.946 45.96 510.434 45.448 510.802 44.776C511.186 44.088 511.378 43.288 511.378 42.376ZM519.988 37.696C520.388 37.024 520.916 36.504 521.572 36.136C522.244 35.752 523.036 35.56 523.948 35.56V38.392H523.252C522.18 38.392 521.364 38.664 520.804 39.208C520.26 39.752 519.988 40.696 519.988 42.04V49H517.252V35.776H519.988V37.696ZM529.175 38.008V45.328C529.175 45.824 529.287 46.184 529.511 46.408C529.751 46.616 530.151 46.72 530.711 46.72H532.391V49H530.231C528.999 49 528.055 48.712 527.399 48.136C526.743 47.56 526.415 46.624 526.415 45.328V38.008H524.855V35.776H526.415V32.488H529.175V35.776H532.391V38.008H529.175Z" fill="white"/>
<path d="M89.4609 186.889L104.182 148.699L139.934 176.088L153.604 156.028L168.326 173.388L193.562 163.358L217.747 178.402L232.469 163.358L264.015 173.388L272.427 156.028L306.076 171.073L317.643 145.998L341.828 168.373L353.395 145.998L358.652 163.358L395.456 178.402L409.126 163.358L422.795 176.088L450.135 168.373C457.846 169.144 473.479 171.227 474.32 173.388C475.161 175.548 487.289 174.288 493.248 173.388V160.272L514.278 168.373L531.103 148.699L543.721 173.388L559.494 153.714L567.906 171.073L584.731 160.272L597.349 186.889L634.153 178.402L650.977 127.096L667.801 160.272L735.099 142.141L747.718 163.358L793.985 142.141L823.5 139.566" stroke="#5E97A9" stroke-width="2" stroke-dasharray="3 3"/>
<path d="M73.356 304.58H74.543L77.5708 312.115L80.5923 304.58H81.7856L78.0278 313.823H77.1011L73.356 304.58ZM72.9688 304.58H74.0161L74.1875 310.217V313.823H72.9688V304.58ZM81.1191 304.58H82.1665V313.823H80.9478V310.217L81.1191 304.58ZM84.3296 310.465V310.319C84.3296 309.824 84.4015 309.364 84.5454 308.941C84.6893 308.514 84.8966 308.144 85.1675 307.83C85.4383 307.513 85.7663 307.268 86.1514 307.094C86.5365 306.916 86.9681 306.828 87.4463 306.828C87.9287 306.828 88.3625 306.916 88.7476 307.094C89.1369 307.268 89.467 307.513 89.7378 307.83C90.0129 308.144 90.2223 308.514 90.3662 308.941C90.5101 309.364 90.582 309.824 90.582 310.319V310.465C90.582 310.96 90.5101 311.419 90.3662 311.842C90.2223 312.265 90.0129 312.636 89.7378 312.953C89.467 313.266 89.139 313.512 88.7539 313.689C88.373 313.863 87.9414 313.95 87.459 313.95C86.9766 313.95 86.5428 313.863 86.1577 313.689C85.7726 313.512 85.4425 313.266 85.1675 312.953C84.8966 312.636 84.6893 312.265 84.5454 311.842C84.4015 311.419 84.3296 310.96 84.3296 310.465ZM85.5039 310.319V310.465C85.5039 310.807 85.5441 311.131 85.6245 311.436C85.7049 311.736 85.8255 312.003 85.9863 312.236C86.1514 312.468 86.3566 312.653 86.6021 312.788C86.8475 312.919 87.1331 312.985 87.459 312.985C87.7806 312.985 88.062 312.919 88.3032 312.788C88.5487 312.653 88.7518 312.468 88.9126 312.236C89.0734 312.003 89.194 311.736 89.2744 311.436C89.359 311.131 89.4014 310.807 89.4014 310.465V310.319C89.4014 309.98 89.359 309.661 89.2744 309.36C89.194 309.056 89.0713 308.787 88.9062 308.554C88.7454 308.317 88.5423 308.131 88.2969 307.995C88.0557 307.86 87.7721 307.792 87.4463 307.792C87.1247 307.792 86.8411 307.86 86.5957 307.995C86.3545 308.131 86.1514 308.317 85.9863 308.554C85.8255 308.787 85.7049 309.056 85.6245 309.36C85.5441 309.661 85.5039 309.98 85.5039 310.319ZM93.729 308.421V313.823H92.5547V306.954H93.6655L93.729 308.421ZM93.4497 310.128L92.9609 310.109C92.9652 309.64 93.035 309.206 93.1704 308.808C93.3058 308.406 93.4963 308.057 93.7417 307.761C93.9871 307.464 94.2791 307.236 94.6177 307.075C94.9604 306.91 95.3392 306.828 95.7539 306.828C96.0924 306.828 96.3971 306.874 96.668 306.967C96.9388 307.056 97.1694 307.2 97.3599 307.399C97.5545 307.598 97.7026 307.856 97.8042 308.173C97.9058 308.486 97.9565 308.869 97.9565 309.322V313.823H96.7759V309.309C96.7759 308.95 96.723 308.662 96.6172 308.446C96.5114 308.226 96.3569 308.067 96.1538 307.97C95.9507 307.869 95.701 307.818 95.4048 307.818C95.1128 307.818 94.8462 307.879 94.605 308.002C94.368 308.125 94.1628 308.294 93.9893 308.51C93.82 308.725 93.6867 308.973 93.5894 309.252C93.4963 309.527 93.4497 309.819 93.4497 310.128Z" fill="#FFFEFE"/>
<path d="M205.901 304.58V313.823H204.695V304.58H205.901ZM208.872 304.58V305.583H201.731V304.58H208.872ZM214.158 312.236V306.954H215.339V313.823H214.215L214.158 312.236ZM214.38 310.788L214.869 310.776C214.869 311.233 214.82 311.656 214.723 312.045C214.63 312.43 214.477 312.765 214.266 313.048C214.054 313.332 213.777 313.554 213.434 313.715C213.092 313.871 212.675 313.95 212.184 313.95C211.85 313.95 211.543 313.901 211.263 313.804C210.988 313.706 210.751 313.556 210.552 313.353C210.354 313.15 210.199 312.885 210.089 312.559C209.983 312.234 209.93 311.842 209.93 311.385V306.954H211.105V311.398C211.105 311.707 211.139 311.963 211.206 312.166C211.278 312.365 211.373 312.523 211.492 312.642C211.615 312.756 211.75 312.837 211.898 312.883C212.051 312.93 212.207 312.953 212.368 312.953C212.867 312.953 213.263 312.858 213.555 312.667C213.847 312.473 214.056 312.212 214.183 311.887C214.315 311.557 214.38 311.19 214.38 310.788ZM220.479 313.95C220.001 313.95 219.567 313.869 219.177 313.708C218.792 313.543 218.46 313.313 218.181 313.016C217.906 312.72 217.694 312.369 217.546 311.963C217.398 311.557 217.324 311.112 217.324 310.63V310.363C217.324 309.805 217.406 309.307 217.572 308.871C217.737 308.431 217.961 308.059 218.244 307.754C218.528 307.45 218.85 307.219 219.209 307.062C219.569 306.906 219.941 306.828 220.326 306.828C220.817 306.828 221.24 306.912 221.596 307.081C221.956 307.251 222.25 307.488 222.478 307.792C222.707 308.093 222.876 308.448 222.986 308.859C223.096 309.265 223.151 309.709 223.151 310.192V310.719H218.022V309.76H221.977V309.671C221.96 309.367 221.896 309.07 221.786 308.783C221.681 308.495 221.511 308.258 221.279 308.072C221.046 307.885 220.728 307.792 220.326 307.792C220.06 307.792 219.814 307.849 219.59 307.964C219.366 308.074 219.173 308.239 219.012 308.459C218.852 308.679 218.727 308.948 218.638 309.265C218.549 309.582 218.505 309.948 218.505 310.363V310.63C218.505 310.956 218.549 311.262 218.638 311.55C218.731 311.834 218.864 312.083 219.038 312.299C219.216 312.515 219.429 312.684 219.679 312.807C219.933 312.93 220.221 312.991 220.542 312.991C220.957 312.991 221.308 312.906 221.596 312.737C221.884 312.568 222.135 312.342 222.351 312.058L223.062 312.623C222.914 312.847 222.726 313.061 222.497 313.264C222.269 313.467 221.987 313.632 221.653 313.759C221.323 313.886 220.932 313.95 220.479 313.95Z" fill="#FFFEFE"/>
<path d="M330.435 311.03L332.269 304.58H333.158L332.644 307.088L330.669 313.823H329.787L330.435 311.03ZM328.537 304.58L329.997 310.903L330.435 313.823H329.559L327.318 304.58H328.537ZM335.532 310.896L336.96 304.58H338.185L335.951 313.823H335.075L335.532 310.896ZM333.291 304.58L335.075 311.03L335.722 313.823H334.84L332.936 307.088L332.415 304.58H333.291ZM342.513 313.95C342.035 313.95 341.601 313.869 341.211 313.708C340.826 313.543 340.494 313.313 340.215 313.016C339.94 312.72 339.728 312.369 339.58 311.963C339.432 311.557 339.358 311.112 339.358 310.63V310.363C339.358 309.805 339.44 309.307 339.605 308.871C339.771 308.431 339.995 308.059 340.278 307.754C340.562 307.45 340.883 307.219 341.243 307.062C341.603 306.906 341.975 306.828 342.36 306.828C342.851 306.828 343.274 306.912 343.63 307.081C343.99 307.251 344.284 307.488 344.512 307.792C344.741 308.093 344.91 308.448 345.02 308.859C345.13 309.265 345.185 309.709 345.185 310.192V310.719H340.056V309.76H344.011V309.671C343.994 309.367 343.93 309.07 343.82 308.783C343.715 308.495 343.545 308.258 343.312 308.072C343.08 307.885 342.762 307.792 342.36 307.792C342.094 307.792 341.848 307.849 341.624 307.964C341.4 308.074 341.207 308.239 341.046 308.459C340.886 308.679 340.761 308.948 340.672 309.265C340.583 309.582 340.539 309.948 340.539 310.363V310.63C340.539 310.956 340.583 311.262 340.672 311.55C340.765 311.834 340.898 312.083 341.072 312.299C341.25 312.515 341.463 312.684 341.713 312.807C341.967 312.93 342.255 312.991 342.576 312.991C342.991 312.991 343.342 312.906 343.63 312.737C343.918 312.568 344.169 312.342 344.385 312.058L345.096 312.623C344.948 312.847 344.76 313.061 344.531 313.264C344.303 313.467 344.021 313.632 343.687 313.759C343.357 313.886 342.965 313.95 342.513 313.95ZM351.385 312.49V304.073H352.566V313.823H351.487L351.385 312.49ZM346.764 310.465V310.331C346.764 309.807 346.828 309.331 346.955 308.903C347.086 308.472 347.27 308.101 347.507 307.792C347.748 307.483 348.034 307.246 348.364 307.081C348.698 306.912 349.07 306.828 349.481 306.828C349.913 306.828 350.289 306.904 350.611 307.056C350.937 307.204 351.212 307.422 351.436 307.71C351.665 307.993 351.844 308.336 351.976 308.738C352.107 309.14 352.198 309.595 352.249 310.103V310.687C352.202 311.19 352.111 311.643 351.976 312.045C351.844 312.447 351.665 312.79 351.436 313.074C351.212 313.357 350.937 313.575 350.611 313.727C350.285 313.876 349.904 313.95 349.468 313.95C349.066 313.95 348.698 313.863 348.364 313.689C348.034 313.516 347.748 313.273 347.507 312.959C347.27 312.646 347.086 312.278 346.955 311.855C346.828 311.427 346.764 310.964 346.764 310.465ZM347.945 310.331V310.465C347.945 310.807 347.979 311.129 348.046 311.43C348.118 311.73 348.228 311.995 348.376 312.223C348.525 312.452 348.713 312.631 348.941 312.763C349.17 312.89 349.443 312.953 349.76 312.953C350.15 312.953 350.469 312.87 350.719 312.705C350.973 312.54 351.176 312.322 351.328 312.052C351.48 311.781 351.599 311.487 351.684 311.169V309.64C351.633 309.407 351.559 309.182 351.461 308.967C351.368 308.747 351.246 308.552 351.093 308.383C350.945 308.209 350.761 308.072 350.541 307.97C350.325 307.869 350.069 307.818 349.773 307.818C349.451 307.818 349.174 307.885 348.941 308.021C348.713 308.152 348.525 308.334 348.376 308.567C348.228 308.795 348.118 309.062 348.046 309.367C347.979 309.667 347.945 309.989 347.945 310.331Z" fill="#FFFEFE"/>
<path d="M460.936 304.58V313.823H459.73V304.58H460.936ZM463.906 304.58V305.583H456.765V304.58H463.906ZM466.774 304.073V313.823H465.6V304.073H466.774ZM466.495 310.128L466.006 310.109C466.01 309.64 466.08 309.206 466.216 308.808C466.351 308.406 466.541 308.057 466.787 307.761C467.032 307.464 467.324 307.236 467.663 307.075C468.006 306.91 468.384 306.828 468.799 306.828C469.138 306.828 469.442 306.874 469.713 306.967C469.984 307.056 470.215 307.2 470.405 307.399C470.6 307.598 470.748 307.856 470.849 308.173C470.951 308.486 471.002 308.869 471.002 309.322V313.823H469.821V309.309C469.821 308.95 469.768 308.662 469.662 308.446C469.557 308.226 469.402 308.067 469.199 307.97C468.996 307.869 468.746 307.818 468.45 307.818C468.158 307.818 467.891 307.879 467.65 308.002C467.413 308.125 467.208 308.294 467.034 308.51C466.865 308.725 466.732 308.973 466.635 309.252C466.541 309.527 466.495 309.819 466.495 310.128ZM477.462 312.236V306.954H478.643V313.823H477.519L477.462 312.236ZM477.684 310.788L478.173 310.776C478.173 311.233 478.124 311.656 478.027 312.045C477.934 312.43 477.782 312.765 477.57 313.048C477.358 313.332 477.081 313.554 476.739 313.715C476.396 313.871 475.979 313.95 475.488 313.95C475.154 313.95 474.847 313.901 474.568 313.804C474.293 313.706 474.056 313.556 473.857 313.353C473.658 313.15 473.503 312.885 473.393 312.559C473.288 312.234 473.235 311.842 473.235 311.385V306.954H474.409V311.398C474.409 311.707 474.443 311.963 474.51 312.166C474.582 312.365 474.678 312.523 474.796 312.642C474.919 312.756 475.054 312.837 475.202 312.883C475.355 312.93 475.511 312.953 475.672 312.953C476.171 312.953 476.567 312.858 476.859 312.667C477.151 312.473 477.361 312.212 477.488 311.887C477.619 311.557 477.684 311.19 477.684 310.788Z" fill="#FFFEFE"/>
<path d="M585.263 304.58V313.823H584.038V304.58H585.263ZM589.135 308.738V309.741H584.997V308.738H589.135ZM589.764 304.58V305.583H584.997V304.58H589.764ZM592.555 308.034V313.823H591.381V306.954H592.523L592.555 308.034ZM594.701 306.916L594.694 308.008C594.597 307.987 594.504 307.974 594.415 307.97C594.33 307.962 594.233 307.957 594.123 307.957C593.852 307.957 593.613 308 593.406 308.084C593.198 308.169 593.023 308.287 592.879 308.44C592.735 308.592 592.621 308.774 592.536 308.986C592.456 309.193 592.403 309.422 592.377 309.671L592.047 309.862C592.047 309.447 592.088 309.058 592.168 308.694C592.253 308.33 592.382 308.008 592.555 307.729C592.729 307.445 592.949 307.225 593.215 307.069C593.486 306.908 593.808 306.828 594.18 306.828C594.265 306.828 594.362 306.838 594.472 306.859C594.582 306.876 594.658 306.895 594.701 306.916ZM597.562 306.954V313.823H596.381V306.954H597.562ZM596.292 305.133C596.292 304.942 596.35 304.781 596.464 304.65C596.582 304.519 596.756 304.453 596.984 304.453C597.209 304.453 597.38 304.519 597.499 304.65C597.621 304.781 597.683 304.942 597.683 305.133C597.683 305.315 597.621 305.471 597.499 305.602C597.38 305.729 597.209 305.793 596.984 305.793C596.756 305.793 596.582 305.729 596.464 305.602C596.35 305.471 596.292 305.315 596.292 305.133Z" fill="#FFFEFE"/>
<path d="M707.481 311.487C707.481 311.271 707.447 311.08 707.379 310.915C707.316 310.746 707.202 310.594 707.037 310.458C706.876 310.323 706.652 310.194 706.364 310.071C706.08 309.948 705.721 309.824 705.285 309.697C704.828 309.561 704.415 309.411 704.047 309.246C703.679 309.077 703.363 308.884 703.101 308.668C702.839 308.453 702.638 308.205 702.498 307.926C702.358 307.646 702.289 307.327 702.289 306.967C702.289 306.607 702.363 306.275 702.511 305.971C702.659 305.666 702.87 305.401 703.146 305.177C703.425 304.949 703.757 304.771 704.142 304.644C704.527 304.517 704.957 304.453 705.431 304.453C706.125 304.453 706.713 304.587 707.195 304.853C707.682 305.116 708.052 305.461 708.306 305.888C708.56 306.311 708.687 306.764 708.687 307.246H707.468C707.468 306.899 707.394 306.593 707.246 306.326C707.098 306.055 706.874 305.844 706.573 305.691C706.273 305.535 705.892 305.456 705.431 305.456C704.995 305.456 704.635 305.522 704.352 305.653C704.068 305.784 703.856 305.962 703.717 306.186C703.581 306.411 703.514 306.667 703.514 306.954C703.514 307.149 703.554 307.327 703.634 307.488C703.719 307.644 703.848 307.79 704.021 307.926C704.199 308.061 704.424 308.186 704.694 308.3C704.969 308.414 705.297 308.524 705.678 308.63C706.203 308.778 706.656 308.943 707.037 309.125C707.417 309.307 707.731 309.513 707.976 309.741C708.226 309.965 708.41 310.221 708.528 310.509C708.651 310.793 708.712 311.114 708.712 311.474C708.712 311.851 708.636 312.191 708.484 312.496C708.332 312.801 708.114 313.061 707.83 313.277C707.547 313.493 707.206 313.66 706.808 313.778C706.415 313.892 705.974 313.95 705.488 313.95C705.06 313.95 704.639 313.89 704.225 313.772C703.814 313.653 703.44 313.476 703.101 313.239C702.767 313.002 702.498 312.71 702.295 312.363C702.096 312.011 701.997 311.605 701.997 311.144H703.215C703.215 311.461 703.277 311.734 703.399 311.963C703.522 312.187 703.689 312.373 703.901 312.521C704.117 312.669 704.36 312.78 704.631 312.851C704.906 312.919 705.192 312.953 705.488 312.953C705.915 312.953 706.277 312.894 706.573 312.775C706.869 312.657 707.094 312.488 707.246 312.267C707.403 312.047 707.481 311.787 707.481 311.487ZM714.646 312.648V309.113C714.646 308.842 714.591 308.607 714.481 308.408C714.375 308.205 714.214 308.048 713.999 307.938C713.783 307.828 713.516 307.773 713.199 307.773C712.903 307.773 712.642 307.824 712.418 307.926C712.198 308.027 712.024 308.161 711.897 308.326C711.775 308.491 711.713 308.668 711.713 308.859H710.539C710.539 308.613 710.603 308.37 710.729 308.129C710.856 307.888 711.038 307.67 711.275 307.475C711.517 307.276 711.804 307.12 712.139 307.005C712.477 306.887 712.854 306.828 713.269 306.828C713.768 306.828 714.208 306.912 714.589 307.081C714.974 307.251 715.274 307.507 715.49 307.849C715.71 308.188 715.82 308.613 715.82 309.125V312.325C715.82 312.553 715.839 312.796 715.877 313.055C715.92 313.313 715.981 313.535 716.062 313.721V313.823H714.836C714.777 313.687 714.731 313.507 714.697 313.283C714.663 313.055 714.646 312.843 714.646 312.648ZM714.849 309.659L714.862 310.484H713.675C713.34 310.484 713.042 310.511 712.78 310.566C712.517 310.617 712.297 310.695 712.12 310.801C711.942 310.907 711.806 311.04 711.713 311.201C711.62 311.358 711.574 311.542 711.574 311.753C711.574 311.969 711.622 312.166 711.72 312.344C711.817 312.521 711.963 312.663 712.158 312.769C712.357 312.87 712.6 312.921 712.888 312.921C713.247 312.921 713.565 312.845 713.84 312.693C714.115 312.54 714.333 312.354 714.494 312.134C714.659 311.914 714.748 311.7 714.76 311.493L715.262 312.058C715.232 312.236 715.152 312.432 715.021 312.648C714.889 312.864 714.714 313.071 714.494 313.27C714.278 313.465 714.02 313.628 713.719 313.759C713.423 313.886 713.089 313.95 712.716 313.95C712.251 313.95 711.842 313.859 711.491 313.677C711.144 313.495 710.873 313.251 710.679 312.947C710.488 312.638 710.393 312.293 710.393 311.912C710.393 311.544 710.465 311.22 710.609 310.941C710.753 310.657 710.96 310.422 711.231 310.236C711.502 310.046 711.828 309.902 712.208 309.805C712.589 309.707 713.015 309.659 713.484 309.659H714.849ZM721.043 306.954V307.856H717.33V306.954H721.043ZM718.586 305.285H719.761V312.121C719.761 312.354 719.797 312.53 719.869 312.648C719.941 312.767 720.034 312.845 720.148 312.883C720.262 312.921 720.385 312.94 720.516 312.94C720.613 312.94 720.715 312.932 720.821 312.915C720.931 312.894 721.013 312.877 721.068 312.864L721.075 313.823C720.982 313.852 720.859 313.88 720.707 313.905C720.558 313.935 720.379 313.95 720.167 313.95C719.879 313.95 719.615 313.892 719.374 313.778C719.132 313.664 718.94 313.474 718.796 313.207C718.656 312.936 718.586 312.572 718.586 312.115V305.285Z" fill="#FFFEFE"/>
<path d="M830.999 311.487C830.999 311.271 830.965 311.08 830.897 310.915C830.833 310.746 830.719 310.594 830.554 310.458C830.393 310.323 830.169 310.194 829.881 310.071C829.598 309.948 829.238 309.824 828.802 309.697C828.345 309.561 827.933 309.411 827.564 309.246C827.196 309.077 826.881 308.884 826.619 308.668C826.356 308.453 826.155 308.205 826.016 307.926C825.876 307.646 825.806 307.327 825.806 306.967C825.806 306.607 825.88 306.275 826.028 305.971C826.176 305.666 826.388 305.401 826.663 305.177C826.942 304.949 827.275 304.771 827.66 304.644C828.045 304.517 828.474 304.453 828.948 304.453C829.642 304.453 830.23 304.587 830.713 304.853C831.2 305.116 831.57 305.461 831.824 305.888C832.078 306.311 832.205 306.764 832.205 307.246H830.986C830.986 306.899 830.912 306.593 830.764 306.326C830.616 306.055 830.391 305.844 830.091 305.691C829.79 305.535 829.41 305.456 828.948 305.456C828.512 305.456 828.153 305.522 827.869 305.653C827.586 305.784 827.374 305.962 827.234 306.186C827.099 306.411 827.031 306.667 827.031 306.954C827.031 307.149 827.071 307.327 827.152 307.488C827.236 307.644 827.366 307.79 827.539 307.926C827.717 308.061 827.941 308.186 828.212 308.3C828.487 308.414 828.815 308.524 829.196 308.63C829.721 308.778 830.173 308.943 830.554 309.125C830.935 309.307 831.248 309.513 831.494 309.741C831.743 309.965 831.927 310.221 832.046 310.509C832.169 310.793 832.23 311.114 832.23 311.474C832.23 311.851 832.154 312.191 832.001 312.496C831.849 312.801 831.631 313.061 831.348 313.277C831.064 313.493 830.723 313.66 830.326 313.778C829.932 313.892 829.492 313.95 829.005 313.95C828.578 313.95 828.157 313.89 827.742 313.772C827.332 313.653 826.957 313.476 826.619 313.239C826.284 313.002 826.016 312.71 825.812 312.363C825.614 312.011 825.514 311.605 825.514 311.144H826.733C826.733 311.461 826.794 311.734 826.917 311.963C827.04 312.187 827.207 312.373 827.418 312.521C827.634 312.669 827.878 312.78 828.148 312.851C828.424 312.919 828.709 312.953 829.005 312.953C829.433 312.953 829.795 312.894 830.091 312.775C830.387 312.657 830.611 312.488 830.764 312.267C830.92 312.047 830.999 311.787 830.999 311.487ZM838.316 312.236V306.954H839.497V313.823H838.373L838.316 312.236ZM838.538 310.788L839.027 310.776C839.027 311.233 838.978 311.656 838.881 312.045C838.788 312.43 838.635 312.765 838.424 313.048C838.212 313.332 837.935 313.554 837.592 313.715C837.25 313.871 836.833 313.95 836.342 313.95C836.007 313.95 835.701 313.901 835.421 313.804C835.146 313.706 834.909 313.556 834.71 313.353C834.512 313.15 834.357 312.885 834.247 312.559C834.141 312.234 834.088 311.842 834.088 311.385V306.954H835.263V311.398C835.263 311.707 835.297 311.963 835.364 312.166C835.436 312.365 835.531 312.523 835.65 312.642C835.773 312.756 835.908 312.837 836.056 312.883C836.208 312.93 836.365 312.953 836.526 312.953C837.025 312.953 837.421 312.858 837.713 312.667C838.005 312.473 838.214 312.212 838.341 311.887C838.472 311.557 838.538 311.19 838.538 310.788ZM842.961 308.421V313.823H841.787V306.954H842.897L842.961 308.421ZM842.682 310.128L842.193 310.109C842.197 309.64 842.267 309.206 842.402 308.808C842.538 308.406 842.728 308.057 842.974 307.761C843.219 307.464 843.511 307.236 843.85 307.075C844.192 306.91 844.571 306.828 844.986 306.828C845.324 306.828 845.629 306.874 845.9 306.967C846.171 307.056 846.401 307.2 846.592 307.399C846.786 307.598 846.935 307.856 847.036 308.173C847.138 308.486 847.188 308.869 847.188 309.322V313.823H846.008V309.309C846.008 308.95 845.955 308.662 845.849 308.446C845.743 308.226 845.589 308.067 845.386 307.97C845.183 307.869 844.933 307.818 844.637 307.818C844.345 307.818 844.078 307.879 843.837 308.002C843.6 308.125 843.395 308.294 843.221 308.51C843.052 308.725 842.919 308.973 842.821 309.252C842.728 309.527 842.682 309.819 842.682 310.128Z" fill="#FFFEFE"/>
<path d="M30.1631 33.7578V34.418L26.3354 43H25.0977L28.9189 34.7227H23.917V33.7578H30.1631ZM33.4878 38.6011L32.5483 38.3599L33.0117 33.7578H37.7534V34.8433H34.0083L33.729 37.3569C33.8983 37.2596 34.112 37.1686 34.3701 37.084C34.6325 36.9993 34.9329 36.957 35.2715 36.957C35.6989 36.957 36.0819 37.0311 36.4204 37.1792C36.759 37.3231 37.0467 37.5304 37.2837 37.8013C37.5249 38.0721 37.709 38.3979 37.8359 38.7788C37.9629 39.1597 38.0264 39.585 38.0264 40.0547C38.0264 40.499 37.965 40.9074 37.8423 41.2798C37.7238 41.6522 37.5439 41.978 37.3027 42.2573C37.0615 42.5324 36.7568 42.7461 36.3887 42.8984C36.0247 43.0508 35.5952 43.127 35.1001 43.127C34.7277 43.127 34.3743 43.0762 34.04 42.9746C33.71 42.8688 33.4137 42.7101 33.1514 42.4985C32.8932 42.2827 32.6816 42.0161 32.5166 41.6987C32.3558 41.3771 32.2542 41.0005 32.2119 40.5688H33.3291C33.3799 40.9159 33.4814 41.2078 33.6338 41.4448C33.7861 41.6818 33.985 41.8617 34.2305 41.9844C34.4801 42.1029 34.77 42.1621 35.1001 42.1621C35.3794 42.1621 35.627 42.1134 35.8428 42.0161C36.0586 41.9188 36.2406 41.7791 36.3887 41.5972C36.5368 41.4152 36.6489 41.1951 36.7251 40.937C36.8055 40.6789 36.8457 40.389 36.8457 40.0674C36.8457 39.7754 36.8055 39.5046 36.7251 39.2549C36.6447 39.0052 36.5241 38.7873 36.3633 38.6011C36.2067 38.4149 36.0142 38.271 35.7856 38.1694C35.5571 38.0636 35.2948 38.0107 34.9985 38.0107C34.605 38.0107 34.3066 38.0636 34.1035 38.1694C33.9046 38.2752 33.6994 38.4191 33.4878 38.6011Z" fill="#FFFEFE"/>
<path d="M25.6753 120.443L24.7358 120.202L25.1992 115.6H29.9409V116.686H26.1958L25.9165 119.199C26.0858 119.102 26.2995 119.011 26.5576 118.926C26.82 118.842 27.1204 118.799 27.459 118.799C27.8864 118.799 28.2694 118.873 28.6079 119.022C28.9465 119.165 29.2342 119.373 29.4712 119.644C29.7124 119.915 29.8965 120.24 30.0234 120.621C30.1504 121.002 30.2139 121.427 30.2139 121.897C30.2139 122.341 30.1525 122.75 30.0298 123.122C29.9113 123.495 29.7314 123.82 29.4902 124.1C29.249 124.375 28.9443 124.589 28.5762 124.741C28.2122 124.893 27.7827 124.969 27.2876 124.969C26.9152 124.969 26.5618 124.919 26.2275 124.817C25.8975 124.711 25.6012 124.553 25.3389 124.341C25.0807 124.125 24.8691 123.859 24.7041 123.541C24.5433 123.22 24.4417 122.843 24.3994 122.411H25.5166C25.5674 122.758 25.6689 123.05 25.8213 123.287C25.9736 123.524 26.1725 123.704 26.418 123.827C26.6676 123.945 26.9575 124.005 27.2876 124.005C27.5669 124.005 27.8145 123.956 28.0303 123.859C28.2461 123.761 28.4281 123.622 28.5762 123.44C28.7243 123.258 28.8364 123.038 28.9126 122.779C28.993 122.521 29.0332 122.231 29.0332 121.91C29.0332 121.618 28.993 121.347 28.9126 121.097C28.8322 120.848 28.7116 120.63 28.5508 120.443C28.3942 120.257 28.2017 120.113 27.9731 120.012C27.7446 119.906 27.4823 119.853 27.186 119.853C26.7925 119.853 26.4941 119.906 26.291 120.012C26.0921 120.118 25.8869 120.262 25.6753 120.443ZM37.8042 119.485V120.894C37.8042 121.652 37.7365 122.291 37.6011 122.811C37.4657 123.332 37.271 123.751 37.0171 124.068C36.7632 124.385 36.4564 124.616 36.0967 124.76C35.7412 124.9 35.3392 124.969 34.8906 124.969C34.5352 124.969 34.2072 124.925 33.9067 124.836C33.6063 124.747 33.3354 124.605 33.0942 124.411C32.8573 124.212 32.6541 123.954 32.4849 123.636C32.3156 123.319 32.1865 122.934 32.0977 122.481C32.0088 122.028 31.9644 121.499 31.9644 120.894V119.485C31.9644 118.727 32.0321 118.093 32.1675 117.581C32.3071 117.069 32.5039 116.658 32.7578 116.349C33.0117 116.036 33.3164 115.812 33.6719 115.676C34.0316 115.541 34.4336 115.473 34.8779 115.473C35.2376 115.473 35.5677 115.518 35.8682 115.607C36.1729 115.691 36.4437 115.829 36.6807 116.019C36.9176 116.205 37.1187 116.455 37.2837 116.768C37.453 117.077 37.582 117.456 37.6709 117.904C37.7598 118.353 37.8042 118.88 37.8042 119.485ZM36.6235 121.085V119.288C36.6235 118.873 36.5981 118.51 36.5474 118.196C36.5008 117.879 36.431 117.608 36.3379 117.384C36.2448 117.16 36.1263 116.978 35.9824 116.838C35.8428 116.698 35.6799 116.597 35.4937 116.533C35.3117 116.466 35.1064 116.432 34.8779 116.432C34.5986 116.432 34.3511 116.485 34.1353 116.59C33.9194 116.692 33.7375 116.855 33.5894 117.079C33.4455 117.304 33.3354 117.598 33.2593 117.962C33.1831 118.325 33.145 118.768 33.145 119.288V121.085C33.145 121.499 33.1683 121.865 33.2148 122.183C33.2656 122.5 33.3397 122.775 33.437 123.008C33.5343 123.236 33.6528 123.425 33.7925 123.573C33.9321 123.721 34.0929 123.831 34.2749 123.903C34.4611 123.971 34.6663 124.005 34.8906 124.005C35.1784 124.005 35.4302 123.95 35.646 123.839C35.8618 123.729 36.0417 123.558 36.1855 123.325C36.3337 123.088 36.4437 122.786 36.5156 122.418C36.5876 122.045 36.6235 121.601 36.6235 121.085Z" fill="#FFFEFE"/>
<path d="M30.2456 205.72V206.685H24.1963V205.84L27.2241 202.47C27.5965 202.055 27.8843 201.704 28.0874 201.416C28.2948 201.124 28.4386 200.864 28.519 200.635C28.6037 200.403 28.646 200.166 28.646 199.924C28.646 199.62 28.5825 199.345 28.4556 199.099C28.3328 198.85 28.1509 198.651 27.9097 198.503C27.6685 198.354 27.3765 198.28 27.0337 198.28C26.6232 198.28 26.2804 198.361 26.0054 198.522C25.7345 198.678 25.5314 198.898 25.396 199.182C25.2606 199.465 25.1929 199.791 25.1929 200.159H24.0186C24.0186 199.639 24.1328 199.163 24.3613 198.731C24.5898 198.299 24.9284 197.957 25.377 197.703C25.8255 197.445 26.3778 197.316 27.0337 197.316C27.6177 197.316 28.117 197.419 28.5317 197.627C28.9465 197.83 29.2638 198.117 29.4839 198.49C29.7082 198.858 29.8203 199.29 29.8203 199.785C29.8203 200.056 29.7738 200.331 29.6807 200.61C29.5918 200.885 29.467 201.16 29.3062 201.435C29.1496 201.71 28.9655 201.981 28.7539 202.248C28.5465 202.514 28.3244 202.777 28.0874 203.035L25.6118 205.72H30.2456ZM33.4878 202.286L32.5483 202.045L33.0117 197.443H37.7534V198.528H34.0083L33.729 201.042C33.8983 200.944 34.112 200.853 34.3701 200.769C34.6325 200.684 34.9329 200.642 35.2715 200.642C35.6989 200.642 36.0819 200.716 36.4204 200.864C36.759 201.008 37.0467 201.215 37.2837 201.486C37.5249 201.757 37.709 202.083 37.8359 202.464C37.9629 202.844 38.0264 203.27 38.0264 203.739C38.0264 204.184 37.965 204.592 37.8423 204.964C37.7238 205.337 37.5439 205.663 37.3027 205.942C37.0615 206.217 36.7568 206.431 36.3887 206.583C36.0247 206.735 35.5952 206.812 35.1001 206.812C34.7277 206.812 34.3743 206.761 34.04 206.659C33.71 206.554 33.4137 206.395 33.1514 206.183C32.8932 205.967 32.6816 205.701 32.5166 205.383C32.3558 205.062 32.2542 204.685 32.2119 204.254H33.3291C33.3799 204.601 33.4814 204.893 33.6338 205.13C33.7861 205.366 33.985 205.546 34.2305 205.669C34.4801 205.788 34.77 205.847 35.1001 205.847C35.3794 205.847 35.627 205.798 35.8428 205.701C36.0586 205.603 36.2406 205.464 36.3887 205.282C36.5368 205.1 36.6489 204.88 36.7251 204.622C36.8055 204.364 36.8457 204.074 36.8457 203.752C36.8457 203.46 36.8055 203.189 36.7251 202.94C36.6447 202.69 36.5241 202.472 36.3633 202.286C36.2067 202.1 36.0142 201.956 35.7856 201.854C35.5571 201.748 35.2948 201.695 34.9985 201.695C34.605 201.695 34.3066 201.748 34.1035 201.854C33.9046 201.96 33.6994 202.104 33.4878 202.286Z" fill="#FFFEFE"/>
<path d="M29.9917 283.17V284.579C29.9917 285.336 29.924 285.975 29.7886 286.496C29.6532 287.016 29.4585 287.435 29.2046 287.753C28.9507 288.07 28.6439 288.301 28.2842 288.445C27.9287 288.584 27.5267 288.654 27.0781 288.654C26.7227 288.654 26.3947 288.61 26.0942 288.521C25.7938 288.432 25.5229 288.29 25.2817 288.095C25.0448 287.897 24.8416 287.638 24.6724 287.321C24.5031 287.004 24.374 286.619 24.2852 286.166C24.1963 285.713 24.1519 285.184 24.1519 284.579V283.17C24.1519 282.412 24.2196 281.777 24.355 281.265C24.4946 280.753 24.6914 280.343 24.9453 280.034C25.1992 279.721 25.5039 279.497 25.8594 279.361C26.2191 279.226 26.6211 279.158 27.0654 279.158C27.4251 279.158 27.7552 279.202 28.0557 279.291C28.3604 279.376 28.6312 279.513 28.8682 279.704C29.1051 279.89 29.3062 280.14 29.4712 280.453C29.6405 280.762 29.7695 281.141 29.8584 281.589C29.9473 282.038 29.9917 282.565 29.9917 283.17ZM28.811 284.769V282.973C28.811 282.558 28.7856 282.194 28.7349 281.881C28.6883 281.564 28.6185 281.293 28.5254 281.069C28.4323 280.844 28.3138 280.662 28.1699 280.523C28.0303 280.383 27.8674 280.281 27.6812 280.218C27.4992 280.15 27.2939 280.116 27.0654 280.116C26.7861 280.116 26.5386 280.169 26.3228 280.275C26.1069 280.377 25.925 280.54 25.7769 280.764C25.633 280.988 25.5229 281.282 25.4468 281.646C25.3706 282.01 25.3325 282.452 25.3325 282.973V284.769C25.3325 285.184 25.3558 285.55 25.4023 285.867C25.4531 286.185 25.5272 286.46 25.6245 286.693C25.7218 286.921 25.8403 287.109 25.98 287.258C26.1196 287.406 26.2804 287.516 26.4624 287.588C26.6486 287.655 26.8538 287.689 27.0781 287.689C27.3659 287.689 27.6177 287.634 27.8335 287.524C28.0493 287.414 28.2292 287.243 28.373 287.01C28.5212 286.773 28.6312 286.47 28.7031 286.102C28.7751 285.73 28.811 285.286 28.811 284.769Z" fill="#FFFEFE"/>
<g filter="url(#filter1_d_817_2064)">
<rect x="492.208" y="108.5" width="35" height="25" rx="12.5" fill="#023E8A"/>
<path d="M505.768 121.455L505.118 121.288L505.438 118.102H508.721V118.853H506.128L505.935 120.593C506.052 120.526 506.2 120.463 506.379 120.404C506.561 120.346 506.769 120.316 507.003 120.316C507.299 120.316 507.564 120.368 507.798 120.47C508.033 120.57 508.232 120.713 508.396 120.901C508.563 121.088 508.69 121.314 508.778 121.578C508.866 121.841 508.91 122.136 508.91 122.461C508.91 122.769 508.868 123.051 508.783 123.309C508.701 123.567 508.576 123.792 508.409 123.986C508.242 124.176 508.031 124.324 507.776 124.43C507.524 124.535 507.227 124.588 506.884 124.588C506.626 124.588 506.382 124.553 506.15 124.482C505.922 124.409 505.717 124.299 505.535 124.153C505.356 124.003 505.21 123.819 505.096 123.599C504.984 123.376 504.914 123.116 504.885 122.817H505.658C505.693 123.057 505.764 123.259 505.869 123.423C505.975 123.587 506.112 123.712 506.282 123.797C506.455 123.879 506.656 123.92 506.884 123.92C507.078 123.92 507.249 123.886 507.398 123.819C507.548 123.751 507.674 123.655 507.776 123.529C507.879 123.403 507.957 123.25 508.009 123.072C508.065 122.893 508.093 122.692 508.093 122.47C508.093 122.268 508.065 122.08 508.009 121.907C507.954 121.734 507.87 121.583 507.759 121.455C507.65 121.326 507.517 121.226 507.359 121.156C507.201 121.083 507.019 121.046 506.814 121.046C506.542 121.046 506.335 121.083 506.194 121.156C506.057 121.229 505.915 121.329 505.768 121.455ZM514.626 122.347V123.015H510.003V122.536L512.869 118.102H513.532L512.82 119.385L510.926 122.347H514.626ZM513.734 118.102V124.5H512.921V118.102H513.734Z" fill="white"/>
</g>
</g>
<defs>
<filter id="filter0_d_817_2064" x="0" y="0" width="880" height="345" filterUnits="userSpaceOnUse" color-interpolation-filters="sRGB">
<feFlood flood-opacity="0" result="BackgroundImageFix"/>
<feColorMatrix in="SourceAlpha" type="matrix" values="0 0 0 0 0 0 0 0 0 0 0 0 0 0 0 0 0 0 127 0" result="hardAlpha"/>
<feOffset dy="4"/>
<feGaussianBlur stdDeviation="2"/>
<feComposite in2="hardAlpha" operator="out"/>
<feColorMatrix type="matrix" values="0 0 0 0 0 0 0 0 0 0 0 0 0 0 0 0 0 0 0.25 0"/>
<feBlend mode="normal" in2="BackgroundImageFix" result="effect1_dropShadow_817_2064"/>
<feBlend mode="normal" in="SourceGraphic" in2="effect1_dropShadow_817_2064" result="shape"/>
</filter>
<filter id="filter1_d_817_2064" x="470.208" y="88.5" width="79" height="69" filterUnits="userSpaceOnUse" color-interpolation-filters="sRGB">
<feFlood flood-opacity="0" result="BackgroundImageFix"/>
<feColorMatrix in="SourceAlpha" type="matrix" values="0 0 0 0 0 0 0 0 0 0 0 0 0 0 0 0 0 0 127 0" result="hardAlpha"/>
<feOffset dy="2"/>
<feGaussianBlur stdDeviation="11"/>
<feComposite in2="hardAlpha" operator="out"/>
<feColorMatrix type="matrix" values="0 0 0 0 0 0 0 0 0 0 0 0 0 0 0 0 0 0 0.17 0"/>
<feBlend mode="normal" in2="BackgroundImageFix" result="effect1_dropShadow_817_2064"/>
<feBlend mode="normal" in="SourceGraphic" in2="effect1_dropShadow_817_2064" result="shape"/>
</filter>
</defs>
</svg>
