<svg width="369" height="343" viewBox="0 0 369 343" fill="none" xmlns="http://www.w3.org/2000/svg">
<g filter="url(#filter0_d_70_301)">
<rect x="4" width="361" height="335" rx="12" fill="#1D1E22" shape-rendering="crispEdges"/>
<path d="M134.137 23.49V31.464C134.137 32.412 134.383 33.126 134.875 33.606C135.379 34.086 136.075 34.326 136.963 34.326C137.863 34.326 138.559 34.086 139.051 33.606C139.555 33.126 139.807 32.412 139.807 31.464V23.49H141.859V31.428C141.859 32.448 141.637 33.312 141.193 34.02C140.749 34.728 140.155 35.256 139.411 35.604C138.667 35.952 137.845 36.126 136.945 36.126C136.045 36.126 135.223 35.952 134.479 35.604C133.747 35.256 133.165 34.728 132.733 34.02C132.301 33.312 132.085 32.448 132.085 31.428V23.49H134.137ZM147.771 36.162C146.991 36.162 146.289 36.024 145.665 35.748C145.053 35.46 144.567 35.076 144.207 34.596C143.847 34.104 143.655 33.558 143.631 32.958H145.755C145.791 33.378 145.989 33.732 146.349 34.02C146.721 34.296 147.183 34.434 147.735 34.434C148.311 34.434 148.755 34.326 149.067 34.11C149.391 33.882 149.553 33.594 149.553 33.246C149.553 32.874 149.373 32.598 149.013 32.418C148.665 32.238 148.107 32.04 147.339 31.824C146.595 31.62 145.989 31.422 145.521 31.23C145.053 31.038 144.645 30.744 144.297 30.348C143.961 29.952 143.793 29.43 143.793 28.782C143.793 28.254 143.949 27.774 144.261 27.342C144.573 26.898 145.017 26.55 145.593 26.298C146.181 26.046 146.853 25.92 147.609 25.92C148.737 25.92 149.643 26.208 150.327 26.784C151.023 27.348 151.395 28.122 151.443 29.106H149.391C149.355 28.662 149.175 28.308 148.851 28.044C148.527 27.78 148.089 27.648 147.537 27.648C146.997 27.648 146.583 27.75 146.295 27.954C146.007 28.158 145.863 28.428 145.863 28.764C145.863 29.028 145.959 29.25 146.151 29.43C146.343 29.61 146.577 29.754 146.853 29.862C147.129 29.958 147.537 30.084 148.077 30.24C148.797 30.432 149.385 30.63 149.841 30.834C150.309 31.026 150.711 31.314 151.047 31.698C151.383 32.082 151.557 32.592 151.569 33.228C151.569 33.792 151.413 34.296 151.101 34.74C150.789 35.184 150.345 35.532 149.769 35.784C149.205 36.036 148.539 36.162 147.771 36.162ZM162.516 30.798C162.516 31.17 162.492 31.506 162.444 31.806H154.866C154.926 32.598 155.22 33.234 155.748 33.714C156.276 34.194 156.924 34.434 157.692 34.434C158.796 34.434 159.576 33.972 160.032 33.048H162.246C161.946 33.96 161.4 34.71 160.608 35.298C159.828 35.874 158.856 36.162 157.692 36.162C156.744 36.162 155.892 35.952 155.136 35.532C154.392 35.1 153.804 34.5 153.372 33.732C152.952 32.952 152.742 32.052 152.742 31.032C152.742 30.012 152.946 29.118 153.354 28.35C153.774 27.57 154.356 26.97 155.1 26.55C155.856 26.13 156.72 25.92 157.692 25.92C158.628 25.92 159.462 26.124 160.194 26.532C160.926 26.94 161.496 27.516 161.904 28.26C162.312 28.992 162.516 29.838 162.516 30.798ZM160.374 30.15C160.362 29.394 160.092 28.788 159.564 28.332C159.036 27.876 158.382 27.648 157.602 27.648C156.894 27.648 156.288 27.876 155.784 28.332C155.28 28.776 154.98 29.382 154.884 30.15H160.374ZM166.227 27.522C166.527 27.018 166.923 26.628 167.415 26.352C167.919 26.064 168.513 25.92 169.197 25.92V28.044H168.675C167.871 28.044 167.259 28.248 166.839 28.656C166.431 29.064 166.227 29.772 166.227 30.78V36H164.175V26.082H166.227V27.522ZM182.581 33.444H177.343L176.443 36H174.301L178.783 23.472H181.159L185.641 36H183.481L182.581 33.444ZM182.005 31.77L179.971 25.956L177.919 31.77H182.005ZM186.546 31.032C186.546 30.012 186.75 29.118 187.158 28.35C187.578 27.57 188.154 26.97 188.886 26.55C189.618 26.13 190.458 25.92 191.406 25.92C192.606 25.92 193.596 26.208 194.376 26.784C195.168 27.348 195.702 28.158 195.978 29.214H193.764C193.584 28.722 193.296 28.338 192.9 28.062C192.504 27.786 192.006 27.648 191.406 27.648C190.566 27.648 189.894 27.948 189.39 28.548C188.898 29.136 188.652 29.964 188.652 31.032C188.652 32.1 188.898 32.934 189.39 33.534C189.894 34.134 190.566 34.434 191.406 34.434C192.594 34.434 193.38 33.912 193.764 32.868H195.978C195.69 33.876 195.15 34.68 194.358 35.28C193.566 35.868 192.582 36.162 191.406 36.162C190.458 36.162 189.618 35.952 188.886 35.532C188.154 35.1 187.578 34.5 187.158 33.732C186.75 32.952 186.546 32.052 186.546 31.032ZM200.057 27.756V33.246C200.057 33.618 200.141 33.888 200.309 34.056C200.489 34.212 200.789 34.29 201.209 34.29H202.469V36H200.849C199.925 36 199.217 35.784 198.725 35.352C198.233 34.92 197.987 34.218 197.987 33.246V27.756H196.817V26.082H197.987V23.616H200.057V26.082H202.469V27.756H200.057ZM205.044 24.768C204.672 24.768 204.36 24.642 204.108 24.39C203.856 24.138 203.73 23.826 203.73 23.454C203.73 23.082 203.856 22.77 204.108 22.518C204.36 22.266 204.672 22.14 205.044 22.14C205.404 22.14 205.71 22.266 205.962 22.518C206.214 22.77 206.34 23.082 206.34 23.454C206.34 23.826 206.214 24.138 205.962 24.39C205.71 24.642 205.404 24.768 205.044 24.768ZM206.052 26.082V36H204V26.082H206.052ZM212.22 34.164L215.028 26.082H217.206L213.426 36H210.978L207.216 26.082H209.412L212.22 34.164ZM219.441 24.768C219.069 24.768 218.757 24.642 218.505 24.39C218.253 24.138 218.127 23.826 218.127 23.454C218.127 23.082 218.253 22.77 218.505 22.518C218.757 22.266 219.069 22.14 219.441 22.14C219.801 22.14 220.107 22.266 220.359 22.518C220.611 22.77 220.737 23.082 220.737 23.454C220.737 23.826 220.611 24.138 220.359 24.39C220.107 24.642 219.801 24.768 219.441 24.768ZM220.449 26.082V36H218.397V26.082H220.449ZM225.177 27.756V33.246C225.177 33.618 225.261 33.888 225.429 34.056C225.609 34.212 225.909 34.29 226.329 34.29H227.589V36H225.969C225.045 36 224.337 35.784 223.845 35.352C223.353 34.92 223.107 34.218 223.107 33.246V27.756H221.937V26.082H223.107V23.616H225.177V26.082H227.589V27.756H225.177ZM238.049 26.082L231.965 40.662H229.841L231.857 35.838L227.951 26.082H230.237L233.027 33.642L235.925 26.082H238.049Z" fill="white"/>
<g clip-path="url(#clip0_70_301)">
<rect x="29.5" y="141.532" width="42" height="112" rx="8" fill="#E4E4E4"/>
<rect x="74.1666" y="92.5317" width="42" height="161" rx="8" fill="#E4E4E4"/>
<rect x="118.833" y="214.532" width="42" height="39" rx="8" fill="#E4E4E4"/>
<rect x="163.5" y="141.532" width="42" height="112" rx="8" fill="#E4E4E4"/>
<rect x="208.167" y="190.532" width="42" height="63" rx="8" fill="#E4E4E4"/>
<rect x="252.833" y="141.532" width="42" height="112" rx="8" fill="#E4E4E4"/>
<rect x="297.5" y="190.532" width="42" height="63" rx="8" fill="#E4E4E4"/>
<path d="M38.2225 277.532V269.132H39.7225L42.5665 274.724L45.3985 269.132H46.8985V277.532H45.6265V271.328L43.0585 276.332H42.0745L39.4945 271.34V277.532H38.2225ZM51.1013 277.676C50.5333 277.676 50.0213 277.548 49.5653 277.292C49.1173 277.028 48.7613 276.664 48.4973 276.2C48.2333 275.728 48.1013 275.18 48.1013 274.556C48.1013 273.932 48.2333 273.388 48.4973 272.924C48.7693 272.452 49.1333 272.088 49.5893 271.832C50.0453 271.568 50.5533 271.436 51.1133 271.436C51.6813 271.436 52.1893 271.568 52.6373 271.832C53.0933 272.088 53.4533 272.452 53.7173 272.924C53.9893 273.388 54.1253 273.932 54.1253 274.556C54.1253 275.18 53.9893 275.728 53.7173 276.2C53.4533 276.664 53.0933 277.028 52.6373 277.292C52.1813 277.548 51.6693 277.676 51.1013 277.676ZM51.1013 276.584C51.4053 276.584 51.6853 276.508 51.9413 276.356C52.2053 276.204 52.4173 275.98 52.5773 275.684C52.7373 275.38 52.8173 275.004 52.8173 274.556C52.8173 274.108 52.7373 273.736 52.5773 273.44C52.4253 273.136 52.2173 272.908 51.9533 272.756C51.6973 272.604 51.4173 272.528 51.1133 272.528C50.8093 272.528 50.5253 272.604 50.2613 272.756C50.0053 272.908 49.7973 273.136 49.6373 273.44C49.4773 273.736 49.3973 274.108 49.3973 274.556C49.3973 275.004 49.4773 275.38 49.6373 275.684C49.7973 275.98 50.0053 276.204 50.2613 276.356C50.5173 276.508 50.7973 276.584 51.1013 276.584ZM55.2609 277.532V271.58H56.3889L56.4849 272.624C56.6689 272.256 56.9369 271.968 57.2889 271.76C57.6489 271.544 58.0609 271.436 58.5249 271.436C59.2449 271.436 59.8089 271.66 60.2169 272.108C60.6329 272.556 60.8409 273.224 60.8409 274.112V277.532H59.5809V274.244C59.5809 273.092 59.1089 272.516 58.1649 272.516C57.6929 272.516 57.3009 272.684 56.9889 273.02C56.6849 273.356 56.5329 273.836 56.5329 274.46V277.532H55.2609Z" fill="white"/>
<path d="M87.3332 277.532V270.164H84.8492V269.132H91.0772V270.164H88.6052V277.532H87.3332ZM93.5779 277.676C92.8579 277.676 92.2899 277.452 91.8739 277.004C91.4659 276.556 91.2619 275.888 91.2619 275V271.58H92.5339V274.868C92.5339 276.02 93.0059 276.596 93.9499 276.596C94.4219 276.596 94.8099 276.428 95.1139 276.092C95.4179 275.756 95.5699 275.276 95.5699 274.652V271.58H96.8419V277.532H95.7139L95.6179 276.488C95.4339 276.856 95.1619 277.148 94.8019 277.364C94.4499 277.572 94.0419 277.676 93.5779 277.676ZM101.004 277.676C100.42 277.676 99.9 277.548 99.444 277.292C98.996 277.028 98.644 276.664 98.388 276.2C98.132 275.736 98.004 275.196 98.004 274.58C98.004 273.956 98.128 273.408 98.376 272.936C98.632 272.464 98.984 272.096 99.432 271.832C99.888 271.568 100.416 271.436 101.016 271.436C101.6 271.436 102.108 271.568 102.54 271.832C102.972 272.088 103.308 272.432 103.548 272.864C103.788 273.296 103.908 273.772 103.908 274.292C103.908 274.372 103.904 274.46 103.896 274.556C103.896 274.644 103.892 274.744 103.884 274.856H99.252C99.292 275.432 99.48 275.872 99.816 276.176C100.16 276.472 100.556 276.62 101.004 276.62C101.364 276.62 101.664 276.54 101.904 276.38C102.152 276.212 102.336 275.988 102.456 275.708H103.728C103.568 276.268 103.248 276.736 102.768 277.112C102.296 277.488 101.708 277.676 101.004 277.676ZM101.004 272.48C100.58 272.48 100.204 272.608 99.876 272.864C99.548 273.112 99.348 273.488 99.276 273.992H102.636C102.612 273.528 102.448 273.16 102.144 272.888C101.84 272.616 101.46 272.48 101.004 272.48Z" fill="#FBFBFB"/>
<path d="M129.325 277.544L127.057 269.132H128.425L130.093 276.092L132.013 269.132H133.417L135.277 276.092L136.945 269.132H138.313L136.009 277.532H134.521L132.685 270.944L130.789 277.532L129.325 277.544ZM141.355 277.676C140.771 277.676 140.251 277.548 139.795 277.292C139.347 277.028 138.995 276.664 138.739 276.2C138.483 275.736 138.355 275.196 138.355 274.58C138.355 273.956 138.479 273.408 138.727 272.936C138.983 272.464 139.335 272.096 139.783 271.832C140.239 271.568 140.767 271.436 141.367 271.436C141.951 271.436 142.459 271.568 142.891 271.832C143.323 272.088 143.659 272.432 143.899 272.864C144.139 273.296 144.259 273.772 144.259 274.292C144.259 274.372 144.255 274.46 144.247 274.556C144.247 274.644 144.243 274.744 144.235 274.856H139.603C139.643 275.432 139.831 275.872 140.167 276.176C140.511 276.472 140.907 276.62 141.355 276.62C141.715 276.62 142.015 276.54 142.255 276.38C142.503 276.212 142.687 275.988 142.807 275.708H144.079C143.919 276.268 143.599 276.736 143.119 277.112C142.647 277.488 142.059 277.676 141.355 277.676ZM141.355 272.48C140.931 272.48 140.555 272.608 140.227 272.864C139.899 273.112 139.699 273.488 139.627 273.992H142.987C142.963 273.528 142.799 273.16 142.495 272.888C142.191 272.616 141.811 272.48 141.355 272.48ZM148.051 277.676C147.475 277.676 146.967 277.54 146.527 277.268C146.087 276.996 145.743 276.624 145.495 276.152C145.247 275.68 145.123 275.144 145.123 274.544C145.123 273.944 145.247 273.412 145.495 272.948C145.743 272.476 146.087 272.108 146.527 271.844C146.975 271.572 147.487 271.436 148.063 271.436C148.535 271.436 148.947 271.528 149.299 271.712C149.659 271.896 149.939 272.156 150.139 272.492V268.892H151.411V277.532H150.271L150.139 276.608C149.947 276.888 149.683 277.136 149.347 277.352C149.011 277.568 148.579 277.676 148.051 277.676ZM148.279 276.572C148.823 276.572 149.267 276.384 149.611 276.008C149.963 275.632 150.139 275.148 150.139 274.556C150.139 273.956 149.963 273.472 149.611 273.104C149.267 272.728 148.823 272.54 148.279 272.54C147.735 272.54 147.287 272.728 146.935 273.104C146.583 273.472 146.407 273.956 146.407 274.556C146.407 274.948 146.487 275.296 146.647 275.6C146.807 275.904 147.027 276.144 147.307 276.32C147.595 276.488 147.919 276.572 148.279 276.572Z" fill="white"/>
<path d="M177.031 277.532V270.164H174.547V269.132H180.775V270.164H178.303V277.532H177.031ZM181.677 277.532V268.892H182.949V272.54C183.149 272.196 183.425 271.928 183.777 271.736C184.137 271.536 184.533 271.436 184.965 271.436C185.677 271.436 186.237 271.66 186.645 272.108C187.053 272.556 187.257 273.224 187.257 274.112V277.532H185.997V274.244C185.997 273.092 185.537 272.516 184.617 272.516C184.137 272.516 183.737 272.684 183.417 273.02C183.105 273.356 182.949 273.836 182.949 274.46V277.532H181.677ZM190.711 277.676C189.991 277.676 189.423 277.452 189.007 277.004C188.599 276.556 188.395 275.888 188.395 275V271.58H189.667V274.868C189.667 276.02 190.139 276.596 191.083 276.596C191.555 276.596 191.943 276.428 192.247 276.092C192.551 275.756 192.703 275.276 192.703 274.652V271.58H193.975V277.532H192.847L192.751 276.488C192.567 276.856 192.295 277.148 191.935 277.364C191.583 277.572 191.175 277.676 190.711 277.676Z" fill="white"/>
<path d="M223.553 277.532V269.132H228.821V270.164H224.825V272.816H228.137V273.836H224.825V277.532H223.553ZM229.781 277.532V271.58H230.921L231.029 272.708C231.237 272.316 231.525 272.008 231.893 271.784C232.269 271.552 232.721 271.436 233.249 271.436V272.768H232.901C232.549 272.768 232.233 272.828 231.953 272.948C231.681 273.06 231.461 273.256 231.293 273.536C231.133 273.808 231.053 274.188 231.053 274.676V277.532H229.781ZM234.819 270.452C234.579 270.452 234.379 270.38 234.219 270.236C234.067 270.084 233.991 269.896 233.991 269.672C233.991 269.448 234.067 269.264 234.219 269.12C234.379 268.968 234.579 268.892 234.819 268.892C235.059 268.892 235.255 268.968 235.407 269.12C235.567 269.264 235.647 269.448 235.647 269.672C235.647 269.896 235.567 270.084 235.407 270.236C235.255 270.38 235.059 270.452 234.819 270.452ZM234.183 277.532V271.58H235.455V277.532H234.183Z" fill="white"/>
<path d="M269.149 277.676C268.533 277.676 267.993 277.568 267.529 277.352C267.065 277.136 266.701 276.828 266.437 276.428C266.181 276.028 266.049 275.552 266.041 275H267.385C267.393 275.448 267.549 275.828 267.853 276.14C268.157 276.452 268.585 276.608 269.137 276.608C269.625 276.608 270.005 276.492 270.277 276.26C270.557 276.02 270.697 275.716 270.697 275.348C270.697 275.052 270.629 274.812 270.493 274.628C270.365 274.444 270.185 274.292 269.953 274.172C269.729 274.052 269.469 273.944 269.173 273.848C268.877 273.752 268.565 273.648 268.237 273.536C267.589 273.32 267.101 273.04 266.773 272.696C266.453 272.352 266.293 271.9 266.293 271.34C266.285 270.868 266.393 270.456 266.617 270.104C266.849 269.752 267.169 269.48 267.577 269.288C267.993 269.088 268.477 268.988 269.029 268.988C269.573 268.988 270.049 269.088 270.457 269.288C270.873 269.488 271.197 269.768 271.429 270.128C271.661 270.48 271.781 270.892 271.789 271.364H270.445C270.445 271.148 270.389 270.944 270.277 270.752C270.165 270.552 270.001 270.388 269.785 270.26C269.569 270.132 269.305 270.068 268.993 270.068C268.593 270.06 268.261 270.16 267.997 270.368C267.741 270.576 267.613 270.864 267.613 271.232C267.613 271.56 267.709 271.812 267.901 271.988C268.093 272.164 268.357 272.312 268.693 272.432C269.029 272.544 269.413 272.676 269.845 272.828C270.261 272.964 270.633 273.128 270.961 273.32C271.289 273.512 271.549 273.764 271.741 274.076C271.941 274.388 272.041 274.784 272.041 275.264C272.041 275.688 271.933 276.084 271.717 276.452C271.501 276.812 271.177 277.108 270.745 277.34C270.313 277.564 269.781 277.676 269.149 277.676ZM275.16 277.676C274.656 277.676 274.24 277.592 273.912 277.424C273.584 277.256 273.34 277.036 273.18 276.764C273.02 276.484 272.94 276.18 272.94 275.852C272.94 275.276 273.164 274.82 273.612 274.484C274.06 274.148 274.7 273.98 275.532 273.98H277.092V273.872C277.092 273.408 276.964 273.06 276.708 272.828C276.46 272.596 276.136 272.48 275.736 272.48C275.384 272.48 275.076 272.568 274.812 272.744C274.556 272.912 274.4 273.164 274.344 273.5H273.072C273.112 273.068 273.256 272.7 273.504 272.396C273.76 272.084 274.08 271.848 274.464 271.688C274.856 271.52 275.284 271.436 275.748 271.436C276.58 271.436 277.224 271.656 277.68 272.096C278.136 272.528 278.364 273.12 278.364 273.872V277.532H277.26L277.152 276.512C276.984 276.84 276.74 277.116 276.42 277.34C276.1 277.564 275.68 277.676 275.16 277.676ZM275.412 276.644C275.756 276.644 276.044 276.564 276.276 276.404C276.516 276.236 276.7 276.016 276.828 275.744C276.964 275.472 277.048 275.172 277.08 274.844H275.664C275.16 274.844 274.8 274.932 274.584 275.108C274.376 275.284 274.272 275.504 274.272 275.768C274.272 276.04 274.372 276.256 274.572 276.416C274.78 276.568 275.06 276.644 275.412 276.644ZM281.986 277.532C281.402 277.532 280.938 277.392 280.594 277.112C280.25 276.824 280.078 276.316 280.078 275.588V272.648H279.058V271.58H280.078L280.234 270.068H281.35V271.58H283.03V272.648H281.35V275.588C281.35 275.916 281.418 276.144 281.554 276.272C281.698 276.392 281.942 276.452 282.286 276.452H282.97V277.532H281.986Z" fill="white"/>
<path d="M312.806 277.676C312.19 277.676 311.65 277.568 311.186 277.352C310.722 277.136 310.358 276.828 310.094 276.428C309.838 276.028 309.706 275.552 309.698 275H311.042C311.05 275.448 311.206 275.828 311.51 276.14C311.814 276.452 312.242 276.608 312.794 276.608C313.282 276.608 313.662 276.492 313.934 276.26C314.214 276.02 314.354 275.716 314.354 275.348C314.354 275.052 314.286 274.812 314.15 274.628C314.022 274.444 313.842 274.292 313.61 274.172C313.386 274.052 313.126 273.944 312.83 273.848C312.534 273.752 312.222 273.648 311.894 273.536C311.246 273.32 310.758 273.04 310.43 272.696C310.11 272.352 309.95 271.9 309.95 271.34C309.942 270.868 310.05 270.456 310.274 270.104C310.506 269.752 310.826 269.48 311.234 269.288C311.65 269.088 312.134 268.988 312.686 268.988C313.23 268.988 313.706 269.088 314.114 269.288C314.53 269.488 314.854 269.768 315.086 270.128C315.318 270.48 315.438 270.892 315.446 271.364H314.102C314.102 271.148 314.046 270.944 313.934 270.752C313.822 270.552 313.658 270.388 313.442 270.26C313.226 270.132 312.962 270.068 312.65 270.068C312.25 270.06 311.918 270.16 311.654 270.368C311.398 270.576 311.27 270.864 311.27 271.232C311.27 271.56 311.366 271.812 311.558 271.988C311.75 272.164 312.014 272.312 312.35 272.432C312.686 272.544 313.07 272.676 313.502 272.828C313.918 272.964 314.29 273.128 314.618 273.32C314.946 273.512 315.206 273.764 315.398 274.076C315.598 274.388 315.698 274.784 315.698 275.264C315.698 275.688 315.59 276.084 315.374 276.452C315.158 276.812 314.834 277.108 314.402 277.34C313.97 277.564 313.438 277.676 312.806 277.676ZM318.996 277.676C318.276 277.676 317.708 277.452 317.292 277.004C316.884 276.556 316.68 275.888 316.68 275V271.58H317.952V274.868C317.952 276.02 318.424 276.596 319.368 276.596C319.84 276.596 320.228 276.428 320.532 276.092C320.836 275.756 320.988 275.276 320.988 274.652V271.58H322.26V277.532H321.132L321.036 276.488C320.852 276.856 320.58 277.148 320.22 277.364C319.868 277.572 319.46 277.676 318.996 277.676ZM323.639 277.532V271.58H324.767L324.863 272.624C325.047 272.256 325.315 271.968 325.667 271.76C326.027 271.544 326.439 271.436 326.903 271.436C327.623 271.436 328.187 271.66 328.595 272.108C329.011 272.556 329.219 273.224 329.219 274.112V277.532H327.959V274.244C327.959 273.092 327.487 272.516 326.543 272.516C326.071 272.516 325.679 272.684 325.367 273.02C325.063 273.356 324.911 273.836 324.911 274.46V277.532H323.639Z" fill="white"/>
</g>
</g>
<defs>
<filter id="filter0_d_70_301" x="0" y="0" width="369" height="343" filterUnits="userSpaceOnUse" color-interpolation-filters="sRGB">
<feFlood flood-opacity="0" result="BackgroundImageFix"/>
<feColorMatrix in="SourceAlpha" type="matrix" values="0 0 0 0 0 0 0 0 0 0 0 0 0 0 0 0 0 0 127 0" result="hardAlpha"/>
<feOffset dy="4"/>
<feGaussianBlur stdDeviation="2"/>
<feComposite in2="hardAlpha" operator="out"/>
<feColorMatrix type="matrix" values="0 0 0 0 0 0 0 0 0 0 0 0 0 0 0 0 0 0 0.25 0"/>
<feBlend mode="normal" in2="BackgroundImageFix" result="effect1_dropShadow_70_301"/>
<feBlend mode="normal" in="SourceGraphic" in2="effect1_dropShadow_70_301" result="shape"/>
</filter>
<clipPath id="clip0_70_301">
<rect width="310" height="252" fill="white" transform="translate(29.5 63)"/>
</clipPath>
</defs>
</svg>
