<svg width="398" height="496" viewBox="0 0 398 496" fill="none" xmlns="http://www.w3.org/2000/svg">
<g filter="url(#filter0_d_773_574)">
<rect x="4" width="390" height="488" rx="12" fill="#1D1E22"/>
<path d="M326 166C326 234.483 268.916 290 198.5 290C128.084 290 71 234.483 71 166C71 97.5167 128.084 42 198.5 42C268.916 42 326 97.5167 326 166ZM93.1425 166C93.1425 222.59 140.313 268.465 198.5 268.465C256.687 268.465 303.857 222.59 303.857 166C303.857 109.41 256.687 63.5347 198.5 63.5347C140.313 63.5347 93.1425 109.41 93.1425 166Z" fill="#444444"/>
<g filter="url(#filter1_d_773_574)">
<path d="M155.811 271.51C153.589 277.133 156.406 283.531 162.228 285.161C176.73 289.221 191.888 290.753 206.996 289.656C225.781 288.291 244.021 282.896 260.406 273.857C276.791 264.818 290.912 252.361 301.756 237.381C312.6 222.401 319.896 205.27 323.119 187.22C326.343 169.171 325.414 150.65 320.4 132.991C315.385 115.332 306.41 98.9735 294.119 85.0908C281.828 71.208 266.526 60.1464 249.315 52.7013C235.394 46.6796 220.503 43.1448 205.354 42.2355C199.413 41.8789 194.691 46.8604 194.832 52.8108C194.972 58.7505 199.907 63.3985 205.831 63.8555C217.714 64.7721 229.377 67.6457 240.316 72.3775C254.539 78.5296 267.183 87.6702 277.339 99.142C287.496 110.614 294.912 124.132 299.056 138.724C303.2 153.316 303.967 168.62 301.303 183.535C298.64 198.45 292.611 212.606 283.65 224.984C274.69 237.363 263.02 247.657 249.481 255.126C235.942 262.595 220.869 267.053 205.347 268.181C193.367 269.051 181.35 267.92 169.809 264.863C164.117 263.355 157.975 266.033 155.811 271.51Z" fill="#5E97A9"/>
</g>
<g filter="url(#filter2_d_773_574)">
<path d="M245 165C245 188.748 223.957 208 198 208C172.043 208 151 188.748 151 165C151 141.252 172.043 122 198 122C223.957 122 245 141.252 245 165Z" fill="#5E97A9"/>
</g>
<path d="M187.822 151.84H181.342V155.26C181.622 154.913 182.022 154.633 182.542 154.42C183.062 154.193 183.615 154.08 184.202 154.08C185.269 154.08 186.142 154.313 186.822 154.78C187.502 155.247 187.995 155.847 188.302 156.58C188.609 157.3 188.762 158.073 188.762 158.9C188.762 160.433 188.322 161.667 187.442 162.6C186.575 163.533 185.335 164 183.722 164C182.202 164 180.989 163.62 180.082 162.86C179.175 162.1 178.662 161.107 178.542 159.88H181.262C181.382 160.413 181.649 160.84 182.062 161.16C182.489 161.48 183.029 161.64 183.682 161.64C184.469 161.64 185.062 161.393 185.462 160.9C185.862 160.407 186.062 159.753 186.062 158.94C186.062 158.113 185.855 157.487 185.442 157.06C185.042 156.62 184.449 156.4 183.662 156.4C183.102 156.4 182.635 156.54 182.262 156.82C181.889 157.1 181.622 157.473 181.462 157.94H178.782V149.38H187.822V151.84ZM190.973 161.16V158.96L197.513 149.6H200.773V158.72H202.533V161.16H200.773V164H197.973V161.16H190.973ZM198.153 152.6L194.053 158.72H198.153V152.6ZM204.196 153C204.196 151.987 204.489 151.193 205.076 150.62C205.676 150.047 206.443 149.76 207.376 149.76C208.309 149.76 209.069 150.047 209.656 150.62C210.256 151.193 210.556 151.987 210.556 153C210.556 154.027 210.256 154.827 209.656 155.4C209.069 155.973 208.309 156.26 207.376 156.26C206.443 156.26 205.676 155.973 205.076 155.4C204.489 154.827 204.196 154.027 204.196 153ZM217.036 150L209.176 164H206.456L214.296 150H217.036ZM207.356 151.44C206.623 151.44 206.256 151.96 206.256 153C206.256 154.053 206.623 154.58 207.356 154.58C207.716 154.58 207.996 154.453 208.196 154.2C208.396 153.933 208.496 153.533 208.496 153C208.496 151.96 208.116 151.44 207.356 151.44ZM212.976 160.98C212.976 159.953 213.269 159.16 213.856 158.6C214.456 158.027 215.223 157.74 216.156 157.74C217.089 157.74 217.843 158.027 218.416 158.6C219.003 159.16 219.296 159.953 219.296 160.98C219.296 162.007 219.003 162.807 218.416 163.38C217.843 163.953 217.089 164.24 216.156 164.24C215.209 164.24 214.443 163.953 213.856 163.38C213.269 162.807 212.976 162.007 212.976 160.98ZM216.136 159.42C215.376 159.42 214.996 159.94 214.996 160.98C214.996 162.033 215.376 162.56 216.136 162.56C216.883 162.56 217.256 162.033 217.256 160.98C217.256 159.94 216.883 159.42 216.136 159.42ZM193.152 173.04L189.252 187H185.952L183.332 177.06L180.592 187L177.312 187.02L173.552 173.04H176.552L179.012 183.88L181.852 173.04H184.972L187.652 183.82L190.132 173.04H193.152ZM196.6 174.6C196.107 174.6 195.694 174.447 195.36 174.14C195.04 173.82 194.88 173.427 194.88 172.96C194.88 172.493 195.04 172.107 195.36 171.8C195.694 171.48 196.107 171.32 196.6 171.32C197.094 171.32 197.5 171.48 197.82 171.8C198.154 172.107 198.32 172.493 198.32 172.96C198.32 173.427 198.154 173.82 197.82 174.14C197.5 174.447 197.094 174.6 196.6 174.6ZM197.98 175.92V187H195.18V175.92H197.98ZM207.087 175.76C208.407 175.76 209.473 176.18 210.287 177.02C211.1 177.847 211.507 179.007 211.507 180.5V187H208.707V180.88C208.707 180 208.487 179.327 208.047 178.86C207.607 178.38 207.007 178.14 206.247 178.14C205.473 178.14 204.86 178.38 204.407 178.86C203.967 179.327 203.747 180 203.747 180.88V187H200.947V175.92H203.747V177.3C204.12 176.82 204.593 176.447 205.167 176.18C205.753 175.9 206.393 175.76 207.087 175.76ZM218.609 187.18C217.703 187.18 216.889 187.02 216.169 186.7C215.449 186.367 214.876 185.92 214.449 185.36C214.036 184.8 213.809 184.18 213.769 183.5H216.589C216.643 183.927 216.849 184.28 217.209 184.56C217.583 184.84 218.043 184.98 218.589 184.98C219.123 184.98 219.536 184.873 219.829 184.66C220.136 184.447 220.289 184.173 220.289 183.84C220.289 183.48 220.103 183.213 219.729 183.04C219.369 182.853 218.789 182.653 217.989 182.44C217.163 182.24 216.483 182.033 215.949 181.82C215.429 181.607 214.976 181.28 214.589 180.84C214.216 180.4 214.029 179.807 214.029 179.06C214.029 178.447 214.203 177.887 214.549 177.38C214.909 176.873 215.416 176.473 216.069 176.18C216.736 175.887 217.516 175.74 218.409 175.74C219.729 175.74 220.783 176.073 221.569 176.74C222.356 177.393 222.789 178.28 222.869 179.4H220.189C220.149 178.96 219.963 178.613 219.629 178.36C219.309 178.093 218.876 177.96 218.329 177.96C217.823 177.96 217.429 178.053 217.149 178.24C216.883 178.427 216.749 178.687 216.749 179.02C216.749 179.393 216.936 179.68 217.309 179.88C217.683 180.067 218.263 180.26 219.049 180.46C219.849 180.66 220.509 180.867 221.029 181.08C221.549 181.293 221.996 181.627 222.369 182.08C222.756 182.52 222.956 183.107 222.969 183.84C222.969 184.48 222.789 185.053 222.429 185.56C222.083 186.067 221.576 186.467 220.909 186.76C220.256 187.04 219.489 187.18 218.609 187.18Z" fill="white"/>
<path d="M297 165.5C297 218.243 252.9 261 198.5 261C144.1 261 100 218.243 100 165.5C100 112.757 144.1 70 198.5 70C252.9 70 297 112.757 297 165.5ZM145.474 165.5C145.474 193.894 169.214 216.911 198.5 216.911C227.786 216.911 251.526 193.894 251.526 165.5C251.526 137.106 227.786 114.089 198.5 114.089C169.214 114.089 145.474 137.106 145.474 165.5Z" fill="#444444"/>
<path d="M217.175 236.352C220.317 248.27 213.036 260.707 200.714 260.976C193.327 261.137 185.921 260.492 178.637 259.038C163.999 256.116 150.238 250.003 138.397 241.161C126.557 232.32 116.946 220.981 110.294 208.006C103.642 195.03 100.123 180.756 100.003 166.266C99.8832 151.777 103.166 137.45 109.602 124.373C116.038 111.295 125.46 99.8086 137.153 90.7838C148.846 81.759 162.503 75.4323 177.092 72.2829C184.359 70.714 191.763 69.954 199.161 70.0021C211.475 70.0822 218.947 82.3897 216.005 94.3481C213.12 106.073 201.078 112.829 189.181 114.889C188.444 115.016 187.708 115.159 186.975 115.318C179.122 117.013 171.769 120.419 165.474 125.277C159.18 130.136 154.108 136.319 150.643 143.359C147.178 150.4 145.411 158.112 145.475 165.913C145.54 173.713 147.434 181.397 151.015 188.382C154.596 195.368 159.77 201.472 166.144 206.231C172.519 210.991 179.927 214.282 187.807 215.855C188.547 216.003 189.289 216.135 190.033 216.252C201.957 218.122 214.099 224.681 217.175 236.352Z" fill="#5E97A9"/>
<rect x="81" y="331" width="235" height="118" rx="8" fill="#2B2F32"/>
<rect x="93" y="360" width="124" height="23" rx="11.5" fill="#5E97A9"/>
<rect x="94" y="397" width="91" height="23" rx="11.5" fill="#444444"/>
<path d="M112.791 367.624L110.451 376H108.471L106.899 370.036L105.255 376L103.287 376.012L101.031 367.624H102.831L104.307 374.128L106.011 367.624H107.883L109.491 374.092L110.979 367.624H112.791ZM114.86 368.56C114.564 368.56 114.316 368.468 114.116 368.284C113.924 368.092 113.828 367.856 113.828 367.576C113.828 367.296 113.924 367.064 114.116 366.88C114.316 366.688 114.564 366.592 114.86 366.592C115.156 366.592 115.4 366.688 115.592 366.88C115.792 367.064 115.892 367.296 115.892 367.576C115.892 367.856 115.792 368.092 115.592 368.284C115.4 368.468 115.156 368.56 114.86 368.56ZM115.688 369.352V376H114.008V369.352H115.688ZM121.152 369.256C121.944 369.256 122.584 369.508 123.072 370.012C123.56 370.508 123.804 371.204 123.804 372.1V376H122.124V372.328C122.124 371.8 121.992 371.396 121.728 371.116C121.464 370.828 121.104 370.684 120.648 370.684C120.184 370.684 119.816 370.828 119.544 371.116C119.28 371.396 119.148 371.8 119.148 372.328V376H117.468V369.352H119.148V370.18C119.372 369.892 119.656 369.668 120 369.508C120.352 369.34 120.736 369.256 121.152 369.256ZM128.066 376.108C127.522 376.108 127.034 376.012 126.602 375.82C126.17 375.62 125.826 375.352 125.57 375.016C125.322 374.68 125.186 374.308 125.162 373.9H126.854C126.886 374.156 127.01 374.368 127.226 374.536C127.45 374.704 127.726 374.788 128.054 374.788C128.374 374.788 128.622 374.724 128.798 374.596C128.982 374.468 129.074 374.304 129.074 374.104C129.074 373.888 128.962 373.728 128.738 373.624C128.522 373.512 128.174 373.392 127.694 373.264C127.198 373.144 126.79 373.02 126.47 372.892C126.158 372.764 125.886 372.568 125.654 372.304C125.43 372.04 125.318 371.684 125.318 371.236C125.318 370.868 125.422 370.532 125.63 370.228C125.846 369.924 126.15 369.684 126.542 369.508C126.942 369.332 127.41 369.244 127.946 369.244C128.738 369.244 129.37 369.444 129.842 369.844C130.314 370.236 130.574 370.768 130.622 371.44H129.014C128.99 371.176 128.878 370.968 128.678 370.816C128.486 370.656 128.226 370.576 127.898 370.576C127.594 370.576 127.358 370.632 127.19 370.744C127.03 370.856 126.95 371.012 126.95 371.212C126.95 371.436 127.062 371.608 127.286 371.728C127.51 371.84 127.858 371.956 128.33 372.076C128.81 372.196 129.206 372.32 129.518 372.448C129.83 372.576 130.098 372.776 130.322 373.048C130.554 373.312 130.674 373.664 130.682 374.104C130.682 374.488 130.574 374.832 130.358 375.136C130.15 375.44 129.846 375.68 129.446 375.856C129.054 376.024 128.594 376.108 128.066 376.108Z" fill="white"/>
<path d="M105.446 411.668H108.206V413H103.766V404.624H105.446V411.668ZM112.346 413.108C111.706 413.108 111.13 412.968 110.618 412.688C110.106 412.4 109.702 411.996 109.406 411.476C109.118 410.956 108.974 410.356 108.974 409.676C108.974 408.996 109.122 408.396 109.418 407.876C109.722 407.356 110.134 406.956 110.654 406.676C111.174 406.388 111.754 406.244 112.394 406.244C113.034 406.244 113.614 406.388 114.134 406.676C114.654 406.956 115.062 407.356 115.358 407.876C115.662 408.396 115.814 408.996 115.814 409.676C115.814 410.356 115.658 410.956 115.346 411.476C115.042 411.996 114.626 412.4 114.098 412.688C113.578 412.968 112.994 413.108 112.346 413.108ZM112.346 411.644C112.65 411.644 112.934 411.572 113.198 411.428C113.47 411.276 113.686 411.052 113.846 410.756C114.006 410.46 114.086 410.1 114.086 409.676C114.086 409.044 113.918 408.56 113.582 408.224C113.254 407.88 112.85 407.708 112.37 407.708C111.89 407.708 111.486 407.88 111.158 408.224C110.838 408.56 110.678 409.044 110.678 409.676C110.678 410.308 110.834 410.796 111.146 411.14C111.466 411.476 111.866 411.644 112.346 411.644ZM119.71 413.108C119.166 413.108 118.678 413.012 118.246 412.82C117.814 412.62 117.47 412.352 117.214 412.016C116.966 411.68 116.83 411.308 116.806 410.9H118.498C118.53 411.156 118.654 411.368 118.87 411.536C119.094 411.704 119.37 411.788 119.698 411.788C120.018 411.788 120.266 411.724 120.442 411.596C120.626 411.468 120.718 411.304 120.718 411.104C120.718 410.888 120.606 410.728 120.382 410.624C120.166 410.512 119.818 410.392 119.338 410.264C118.842 410.144 118.434 410.02 118.114 409.892C117.802 409.764 117.53 409.568 117.298 409.304C117.074 409.04 116.962 408.684 116.962 408.236C116.962 407.868 117.066 407.532 117.274 407.228C117.49 406.924 117.794 406.684 118.186 406.508C118.586 406.332 119.054 406.244 119.59 406.244C120.382 406.244 121.014 406.444 121.486 406.844C121.958 407.236 122.218 407.768 122.266 408.44H120.658C120.634 408.176 120.522 407.968 120.322 407.816C120.13 407.656 119.87 407.576 119.542 407.576C119.238 407.576 119.002 407.632 118.834 407.744C118.674 407.856 118.594 408.012 118.594 408.212C118.594 408.436 118.706 408.608 118.93 408.728C119.154 408.84 119.502 408.956 119.974 409.076C120.454 409.196 120.85 409.32 121.162 409.448C121.474 409.576 121.742 409.776 121.966 410.048C122.198 410.312 122.318 410.664 122.326 411.104C122.326 411.488 122.218 411.832 122.002 412.136C121.794 412.44 121.49 412.68 121.09 412.856C120.698 413.024 120.238 413.108 119.71 413.108ZM130.005 409.532C130.005 409.772 129.989 409.988 129.957 410.18H125.097C125.137 410.66 125.305 411.036 125.601 411.308C125.897 411.58 126.261 411.716 126.693 411.716C127.317 411.716 127.761 411.448 128.025 410.912H129.837C129.645 411.552 129.277 412.08 128.733 412.496C128.189 412.904 127.521 413.108 126.729 413.108C126.089 413.108 125.513 412.968 125.001 412.688C124.497 412.4 124.101 411.996 123.813 411.476C123.533 410.956 123.393 410.356 123.393 409.676C123.393 408.988 123.533 408.384 123.813 407.864C124.093 407.344 124.485 406.944 124.989 406.664C125.493 406.384 126.073 406.244 126.729 406.244C127.361 406.244 127.925 406.38 128.421 406.652C128.925 406.924 129.313 407.312 129.585 407.816C129.865 408.312 130.005 408.884 130.005 409.532ZM128.265 409.052C128.257 408.62 128.101 408.276 127.797 408.02C127.493 407.756 127.121 407.624 126.681 407.624C126.265 407.624 125.913 407.752 125.625 408.008C125.345 408.256 125.173 408.604 125.109 409.052H128.265ZM133.895 413.108C133.351 413.108 132.863 413.012 132.431 412.82C131.999 412.62 131.655 412.352 131.399 412.016C131.151 411.68 131.015 411.308 130.991 410.9H132.683C132.715 411.156 132.839 411.368 133.055 411.536C133.279 411.704 133.555 411.788 133.883 411.788C134.203 411.788 134.451 411.724 134.627 411.596C134.811 411.468 134.903 411.304 134.903 411.104C134.903 410.888 134.791 410.728 134.567 410.624C134.351 410.512 134.003 410.392 133.523 410.264C133.027 410.144 132.619 410.02 132.299 409.892C131.987 409.764 131.715 409.568 131.483 409.304C131.259 409.04 131.147 408.684 131.147 408.236C131.147 407.868 131.251 407.532 131.459 407.228C131.675 406.924 131.979 406.684 132.371 406.508C132.771 406.332 133.239 406.244 133.775 406.244C134.567 406.244 135.199 406.444 135.671 406.844C136.143 407.236 136.403 407.768 136.451 408.44H134.843C134.819 408.176 134.707 407.968 134.507 407.816C134.315 407.656 134.055 407.576 133.727 407.576C133.423 407.576 133.187 407.632 133.019 407.744C132.859 407.856 132.779 408.012 132.779 408.212C132.779 408.436 132.891 408.608 133.115 408.728C133.339 408.84 133.687 408.956 134.159 409.076C134.639 409.196 135.035 409.32 135.347 409.448C135.659 409.576 135.927 409.776 136.151 410.048C136.383 410.312 136.503 410.664 136.511 411.104C136.511 411.488 136.403 411.832 136.187 412.136C135.979 412.44 135.675 412.68 135.275 412.856C134.883 413.024 134.423 413.108 133.895 413.108Z" fill="white"/>
<path d="M277.958 367.272H272.774V370.008C272.998 369.731 273.318 369.507 273.734 369.336C274.15 369.155 274.592 369.064 275.062 369.064C275.915 369.064 276.614 369.251 277.158 369.624C277.702 369.997 278.096 370.477 278.342 371.064C278.587 371.64 278.71 372.259 278.71 372.92C278.71 374.147 278.358 375.133 277.654 375.88C276.96 376.627 275.968 377 274.678 377C273.462 377 272.491 376.696 271.766 376.088C271.04 375.48 270.63 374.685 270.534 373.704H272.71C272.806 374.131 273.019 374.472 273.35 374.728C273.691 374.984 274.123 375.112 274.646 375.112C275.275 375.112 275.75 374.915 276.07 374.52C276.39 374.125 276.55 373.603 276.55 372.952C276.55 372.291 276.384 371.789 276.054 371.448C275.734 371.096 275.259 370.92 274.63 370.92C274.182 370.92 273.808 371.032 273.51 371.256C273.211 371.48 272.998 371.779 272.87 372.152H270.726V365.304H277.958V367.272ZM280.479 374.728V372.968L285.711 365.48H288.319V372.776H289.727V374.728H288.319V377H286.079V374.728H280.479ZM286.223 367.88L282.943 372.776H286.223V367.88ZM291.057 368.2C291.057 367.389 291.291 366.755 291.761 366.296C292.241 365.837 292.854 365.608 293.601 365.608C294.347 365.608 294.955 365.837 295.425 366.296C295.905 366.755 296.145 367.389 296.145 368.2C296.145 369.021 295.905 369.661 295.425 370.12C294.955 370.579 294.347 370.808 293.601 370.808C292.854 370.808 292.241 370.579 291.761 370.12C291.291 369.661 291.057 369.021 291.057 368.2ZM301.329 365.8L295.041 377H292.865L299.137 365.8H301.329ZM293.585 366.952C292.998 366.952 292.705 367.368 292.705 368.2C292.705 369.043 292.998 369.464 293.585 369.464C293.873 369.464 294.097 369.363 294.257 369.16C294.417 368.947 294.497 368.627 294.497 368.2C294.497 367.368 294.193 366.952 293.585 366.952ZM298.081 374.584C298.081 373.763 298.315 373.128 298.785 372.68C299.265 372.221 299.878 371.992 300.625 371.992C301.371 371.992 301.974 372.221 302.433 372.68C302.902 373.128 303.137 373.763 303.137 374.584C303.137 375.405 302.902 376.045 302.433 376.504C301.974 376.963 301.371 377.192 300.625 377.192C299.867 377.192 299.254 376.963 298.785 376.504C298.315 376.045 298.081 375.405 298.081 374.584ZM300.609 373.336C300.001 373.336 299.697 373.752 299.697 374.584C299.697 375.427 300.001 375.848 300.609 375.848C301.206 375.848 301.505 375.427 301.505 374.584C301.505 373.752 301.206 373.336 300.609 373.336Z" fill="#E0E0E0"/>
<path d="M270.053 411.728V409.968L275.285 402.48H277.893V409.776H279.301V411.728H277.893V414H275.653V411.728H270.053ZM275.797 404.88L272.517 409.776H275.797V404.88ZM286.935 405.248C286.828 404.8 286.642 404.464 286.375 404.24C286.119 404.016 285.746 403.904 285.255 403.904C284.519 403.904 283.975 404.203 283.623 404.8C283.282 405.387 283.106 406.347 283.095 407.68C283.351 407.253 283.724 406.923 284.215 406.688C284.706 406.443 285.239 406.32 285.815 406.32C286.508 406.32 287.122 406.469 287.655 406.768C288.188 407.067 288.604 407.504 288.903 408.08C289.202 408.645 289.351 409.328 289.351 410.128C289.351 410.885 289.196 411.563 288.887 412.16C288.588 412.747 288.146 413.205 287.559 413.536C286.972 413.867 286.274 414.032 285.463 414.032C284.354 414.032 283.479 413.787 282.839 413.296C282.21 412.805 281.767 412.123 281.511 411.248C281.266 410.363 281.143 409.275 281.143 407.984C281.143 406.032 281.479 404.56 282.151 403.568C282.823 402.565 283.884 402.064 285.335 402.064C286.455 402.064 287.324 402.368 287.943 402.976C288.562 403.584 288.919 404.341 289.015 405.248H286.935ZM285.303 408.16C284.738 408.16 284.263 408.325 283.879 408.656C283.495 408.987 283.303 409.467 283.303 410.096C283.303 410.725 283.479 411.221 283.831 411.584C284.194 411.947 284.7 412.128 285.351 412.128C285.927 412.128 286.38 411.952 286.711 411.6C287.052 411.248 287.223 410.773 287.223 410.176C287.223 409.557 287.058 409.067 286.727 408.704C286.407 408.341 285.932 408.16 285.303 408.16ZM291.025 405.2C291.025 404.389 291.26 403.755 291.729 403.296C292.209 402.837 292.823 402.608 293.569 402.608C294.316 402.608 294.924 402.837 295.393 403.296C295.873 403.755 296.113 404.389 296.113 405.2C296.113 406.021 295.873 406.661 295.393 407.12C294.924 407.579 294.316 407.808 293.569 407.808C292.823 407.808 292.209 407.579 291.729 407.12C291.26 406.661 291.025 406.021 291.025 405.2ZM301.297 402.8L295.009 414H292.833L299.105 402.8H301.297ZM293.553 403.952C292.967 403.952 292.673 404.368 292.673 405.2C292.673 406.043 292.967 406.464 293.553 406.464C293.841 406.464 294.065 406.363 294.225 406.16C294.385 405.947 294.465 405.627 294.465 405.2C294.465 404.368 294.161 403.952 293.553 403.952ZM298.049 411.584C298.049 410.763 298.284 410.128 298.753 409.68C299.233 409.221 299.847 408.992 300.593 408.992C301.34 408.992 301.943 409.221 302.401 409.68C302.871 410.128 303.105 410.763 303.105 411.584C303.105 412.405 302.871 413.045 302.401 413.504C301.943 413.963 301.34 414.192 300.593 414.192C299.836 414.192 299.223 413.963 298.753 413.504C298.284 413.045 298.049 412.405 298.049 411.584ZM300.577 410.336C299.969 410.336 299.665 410.752 299.665 411.584C299.665 412.427 299.969 412.848 300.577 412.848C301.175 412.848 301.473 412.427 301.473 411.584C301.473 410.752 301.175 410.336 300.577 410.336Z" fill="#E0E0E0"/>
</g>
<defs>
<filter id="filter0_d_773_574" x="0" y="0" width="398" height="496" filterUnits="userSpaceOnUse" color-interpolation-filters="sRGB">
<feFlood flood-opacity="0" result="BackgroundImageFix"/>
<feColorMatrix in="SourceAlpha" type="matrix" values="0 0 0 0 0 0 0 0 0 0 0 0 0 0 0 0 0 0 127 0" result="hardAlpha"/>
<feOffset dy="4"/>
<feGaussianBlur stdDeviation="2"/>
<feComposite in2="hardAlpha" operator="out"/>
<feColorMatrix type="matrix" values="0 0 0 0 0 0 0 0 0 0 0 0 0 0 0 0 0 0 0.25 0"/>
<feBlend mode="normal" in2="BackgroundImageFix" result="effect1_dropShadow_773_574"/>
<feBlend mode="normal" in="SourceGraphic" in2="effect1_dropShadow_773_574" result="shape"/>
</filter>
<filter id="filter1_d_773_574" x="144.752" y="31.9174" width="190.548" height="268.383" filterUnits="userSpaceOnUse" color-interpolation-filters="sRGB">
<feFlood flood-opacity="0" result="BackgroundImageFix"/>
<feColorMatrix in="SourceAlpha" type="matrix" values="0 0 0 0 0 0 0 0 0 0 0 0 0 0 0 0 0 0 127 0" result="hardAlpha"/>
<feOffset/>
<feGaussianBlur stdDeviation="5.15"/>
<feComposite in2="hardAlpha" operator="out"/>
<feColorMatrix type="matrix" values="0 0 0 0 0.368627 0 0 0 0 0.592157 0 0 0 0 0.662745 0 0 0 0.53 0"/>
<feBlend mode="normal" in2="BackgroundImageFix" result="effect1_dropShadow_773_574"/>
<feBlend mode="normal" in="SourceGraphic" in2="effect1_dropShadow_773_574" result="shape"/>
</filter>
<filter id="filter2_d_773_574" x="133.1" y="104.1" width="129.8" height="121.8" filterUnits="userSpaceOnUse" color-interpolation-filters="sRGB">
<feFlood flood-opacity="0" result="BackgroundImageFix"/>
<feColorMatrix in="SourceAlpha" type="matrix" values="0 0 0 0 0 0 0 0 0 0 0 0 0 0 0 0 0 0 127 0" result="hardAlpha"/>
<feOffset/>
<feGaussianBlur stdDeviation="8.95"/>
<feComposite in2="hardAlpha" operator="out"/>
<feColorMatrix type="matrix" values="0 0 0 0 0.368627 0 0 0 0 0.592157 0 0 0 0 0.662745 0 0 0 0.53 0"/>
<feBlend mode="normal" in2="BackgroundImageFix" result="effect1_dropShadow_773_574"/>
<feBlend mode="normal" in="SourceGraphic" in2="effect1_dropShadow_773_574" result="shape"/>
</filter>
</defs>
</svg>
