<svg width="18" height="19" viewBox="0 0 18 19" fill="none" xmlns="http://www.w3.org/2000/svg">
<path d="M9.00004 13.1C8.47504 13.1 7.95004 12.8975 7.55254 12.5L2.66254 7.60998C2.55793 7.50413 2.49927 7.3613 2.49927 7.21248C2.49927 7.06366 2.55793 6.92083 2.66254 6.81498C2.88004 6.59748 3.24004 6.59748 3.45754 6.81498L8.34754 11.705C8.70754 12.065 9.29254 12.065 9.65254 11.705L14.5425 6.81498C14.76 6.59748 15.12 6.59748 15.3375 6.81498C15.555 7.03248 15.555 7.39248 15.3375 7.60998L10.4475 12.5C10.05 12.8975 9.52504 13.1 9.00004 13.1Z" fill="black"/>
</svg>
