<svg width="56" height="62" viewBox="0 0 56 62" fill="none" xmlns="http://www.w3.org/2000/svg">
<path d="M33.6781 23.551L34.1023 24.3421H35H54.5V53.9737H32.3977L29.3219 48.2384L28.8977 47.4474H28H10.5H9V48.9474V60.5H5V12.1389V11.235L4.2007 10.8127C2.54121 9.93592 1.5 8.3294 1.5 6.52632C1.5 3.86253 3.8777 1.5 7 1.5C10.1223 1.5 12.5 3.86253 12.5 6.52632C12.5 8.3294 11.4588 9.93592 9.7993 10.8127L9 11.235V12.1389V16.3158V17.8158H10.5H30.6023L33.6781 23.551ZM49 50.4474H50.5V48.9474V29.3684V27.8684H49H32.3977L29.3219 22.1332L28.8977 21.3421H28H10.5H9V22.8421V42.4211V43.9211H10.5H30.6023L33.6781 49.6563L34.1023 50.4474H35H49Z" stroke="#5E97A9" stroke-width="3"/>
</svg>
