<svg width="266" height="270" viewBox="0 0 266 270" fill="none" xmlns="http://www.w3.org/2000/svg">
<path d="M256 135C256 203.483 198.916 259 128.5 259C58.0837 259 1 203.483 1 135C1 66.5167 58.0837 11 128.5 11C198.916 11 256 66.5167 256 135ZM23.1425 135C23.1425 191.59 70.3127 237.465 128.5 237.465C186.687 237.465 233.857 191.59 233.857 135C233.857 78.41 186.687 32.5347 128.5 32.5347C70.3127 32.5347 23.1425 78.41 23.1425 135Z" fill="#444444"/>
<g filter="url(#filter0_d_1092_803)">
<path d="M85.8107 240.51C83.5888 246.133 86.4057 252.531 92.228 254.161C106.73 258.221 121.888 259.753 136.996 258.656C155.781 257.291 174.021 251.896 190.406 242.857C206.791 233.818 220.912 221.361 231.756 206.381C242.6 191.401 249.896 174.27 253.119 156.22C256.343 138.171 255.414 119.65 250.4 101.991C245.385 84.3325 236.41 67.9735 224.119 54.0908C211.828 40.208 196.526 29.1464 179.315 21.7013C165.394 15.6796 150.503 12.1448 135.354 11.2355C129.413 10.8789 124.691 15.8604 124.832 21.8108C124.972 27.7505 129.907 32.3985 135.831 32.8555C147.714 33.7721 159.377 36.6457 170.316 41.3775C184.539 47.5296 197.183 56.6702 207.339 68.142C217.496 79.6138 224.912 93.1317 229.056 107.724C233.2 122.316 233.967 137.62 231.303 152.535C228.64 167.45 222.611 181.606 213.65 193.984C204.69 206.363 193.02 216.657 179.481 224.126C165.942 231.595 150.869 236.053 135.347 237.181C123.367 238.051 111.35 236.92 99.8094 233.863C94.1169 232.355 87.9747 235.033 85.8107 240.51Z" fill="#5E97A9"/>
</g>
<g filter="url(#filter1_d_1092_803)">
<path d="M175 134C175 157.748 153.957 177 128 177C102.043 177 81 157.748 81 134C81 110.252 102.043 91 128 91C153.957 91 175 110.252 175 134Z" fill="#5E97A9"/>
</g>
<path d="M117.822 120.84H111.342V124.26C111.622 123.913 112.022 123.633 112.542 123.42C113.062 123.193 113.615 123.08 114.202 123.08C115.269 123.08 116.142 123.313 116.822 123.78C117.502 124.247 117.995 124.847 118.302 125.58C118.609 126.3 118.762 127.073 118.762 127.9C118.762 129.433 118.322 130.667 117.442 131.6C116.575 132.533 115.335 133 113.722 133C112.202 133 110.989 132.62 110.082 131.86C109.175 131.1 108.662 130.107 108.542 128.88H111.262C111.382 129.413 111.649 129.84 112.062 130.16C112.489 130.48 113.029 130.64 113.682 130.64C114.469 130.64 115.062 130.393 115.462 129.9C115.862 129.407 116.062 128.753 116.062 127.94C116.062 127.113 115.855 126.487 115.442 126.06C115.042 125.62 114.449 125.4 113.662 125.4C113.102 125.4 112.635 125.54 112.262 125.82C111.889 126.1 111.622 126.473 111.462 126.94H108.782V118.38H117.822V120.84ZM120.973 130.16V127.96L127.513 118.6H130.773V127.72H132.533V130.16H130.773V133H127.973V130.16H120.973ZM128.153 121.6L124.053 127.72H128.153V121.6ZM134.196 122C134.196 120.987 134.489 120.193 135.076 119.62C135.676 119.047 136.443 118.76 137.376 118.76C138.309 118.76 139.069 119.047 139.656 119.62C140.256 120.193 140.556 120.987 140.556 122C140.556 123.027 140.256 123.827 139.656 124.4C139.069 124.973 138.309 125.26 137.376 125.26C136.443 125.26 135.676 124.973 135.076 124.4C134.489 123.827 134.196 123.027 134.196 122ZM147.036 119L139.176 133H136.456L144.296 119H147.036ZM137.356 120.44C136.623 120.44 136.256 120.96 136.256 122C136.256 123.053 136.623 123.58 137.356 123.58C137.716 123.58 137.996 123.453 138.196 123.2C138.396 122.933 138.496 122.533 138.496 122C138.496 120.96 138.116 120.44 137.356 120.44ZM142.976 129.98C142.976 128.953 143.269 128.16 143.856 127.6C144.456 127.027 145.223 126.74 146.156 126.74C147.089 126.74 147.843 127.027 148.416 127.6C149.003 128.16 149.296 128.953 149.296 129.98C149.296 131.007 149.003 131.807 148.416 132.38C147.843 132.953 147.089 133.24 146.156 133.24C145.209 133.24 144.443 132.953 143.856 132.38C143.269 131.807 142.976 131.007 142.976 129.98ZM146.136 128.42C145.376 128.42 144.996 128.94 144.996 129.98C144.996 131.033 145.376 131.56 146.136 131.56C146.883 131.56 147.256 131.033 147.256 129.98C147.256 128.94 146.883 128.42 146.136 128.42ZM123.152 142.04L119.252 156H115.952L113.332 146.06L110.592 156L107.312 156.02L103.552 142.04H106.552L109.012 152.88L111.852 142.04H114.972L117.652 152.82L120.132 142.04H123.152ZM126.6 143.6C126.107 143.6 125.694 143.447 125.36 143.14C125.04 142.82 124.88 142.427 124.88 141.96C124.88 141.493 125.04 141.107 125.36 140.8C125.694 140.48 126.107 140.32 126.6 140.32C127.094 140.32 127.5 140.48 127.82 140.8C128.154 141.107 128.32 141.493 128.32 141.96C128.32 142.427 128.154 142.82 127.82 143.14C127.5 143.447 127.094 143.6 126.6 143.6ZM127.98 144.92V156H125.18V144.92H127.98ZM137.087 144.76C138.407 144.76 139.473 145.18 140.287 146.02C141.1 146.847 141.507 148.007 141.507 149.5V156H138.707V149.88C138.707 149 138.487 148.327 138.047 147.86C137.607 147.38 137.007 147.14 136.247 147.14C135.473 147.14 134.86 147.38 134.407 147.86C133.967 148.327 133.747 149 133.747 149.88V156H130.947V144.92H133.747V146.3C134.12 145.82 134.593 145.447 135.167 145.18C135.753 144.9 136.393 144.76 137.087 144.76ZM148.609 156.18C147.703 156.18 146.889 156.02 146.169 155.7C145.449 155.367 144.876 154.92 144.449 154.36C144.036 153.8 143.809 153.18 143.769 152.5H146.589C146.643 152.927 146.849 153.28 147.209 153.56C147.583 153.84 148.043 153.98 148.589 153.98C149.123 153.98 149.536 153.873 149.829 153.66C150.136 153.447 150.289 153.173 150.289 152.84C150.289 152.48 150.103 152.213 149.729 152.04C149.369 151.853 148.789 151.653 147.989 151.44C147.163 151.24 146.483 151.033 145.949 150.82C145.429 150.607 144.976 150.28 144.589 149.84C144.216 149.4 144.029 148.807 144.029 148.06C144.029 147.447 144.203 146.887 144.549 146.38C144.909 145.873 145.416 145.473 146.069 145.18C146.736 144.887 147.516 144.74 148.409 144.74C149.729 144.74 150.783 145.073 151.569 145.74C152.356 146.393 152.789 147.28 152.869 148.4H150.189C150.149 147.96 149.963 147.613 149.629 147.36C149.309 147.093 148.876 146.96 148.329 146.96C147.823 146.96 147.429 147.053 147.149 147.24C146.883 147.427 146.749 147.687 146.749 148.02C146.749 148.393 146.936 148.68 147.309 148.88C147.683 149.067 148.263 149.26 149.049 149.46C149.849 149.66 150.509 149.867 151.029 150.08C151.549 150.293 151.996 150.627 152.369 151.08C152.756 151.52 152.956 152.107 152.969 152.84C152.969 153.48 152.789 154.053 152.429 154.56C152.083 155.067 151.576 155.467 150.909 155.76C150.256 156.04 149.489 156.18 148.609 156.18Z" fill="white"/>
<path d="M227 134.5C227 187.243 182.9 230 128.5 230C74.1 230 30 187.243 30 134.5C30 81.7568 74.1 39 128.5 39C182.9 39 227 81.7568 227 134.5ZM75.4735 134.5C75.4735 162.894 99.2143 185.911 128.5 185.911C157.786 185.911 181.526 162.894 181.526 134.5C181.526 106.106 157.786 83.0885 128.5 83.0885C99.2143 83.0885 75.4735 106.106 75.4735 134.5Z" fill="#444444"/>
<path d="M147.175 205.352C150.317 217.27 143.036 229.707 130.714 229.976C123.327 230.137 115.921 229.492 108.637 228.038C93.9989 225.116 80.2382 219.003 68.3974 210.161C56.5567 201.32 46.9463 189.981 40.2943 177.006C33.6423 164.03 30.1231 149.756 30.0032 135.266C29.8832 120.777 33.1657 106.45 39.6021 93.3725C46.0384 80.2948 55.4598 68.8086 67.1527 59.7838C78.8456 50.759 92.5033 44.4323 107.092 41.2829C114.359 39.714 121.763 38.954 129.161 39.0021C141.475 39.0822 148.947 51.3897 146.005 63.3481C143.12 75.0727 131.078 81.8294 119.181 83.8887C118.444 84.0163 117.708 84.1593 116.975 84.3175C109.122 86.013 101.769 89.4189 95.4743 94.2773C89.1795 99.1357 84.1076 105.319 80.6427 112.359C77.1778 119.4 75.4107 127.112 75.4752 134.913C75.5398 142.713 77.4343 150.397 81.0154 157.382C84.5964 164.368 89.77 170.472 96.1444 175.231C102.519 179.991 109.927 183.282 117.807 184.855C118.547 185.003 119.289 185.135 120.033 185.252C131.957 187.122 144.099 193.681 147.175 205.352Z" fill="#5E97A9"/>
<defs>
<filter id="filter0_d_1092_803" x="74.7525" y="0.917438" width="190.548" height="268.383" filterUnits="userSpaceOnUse" color-interpolation-filters="sRGB">
<feFlood flood-opacity="0" result="BackgroundImageFix"/>
<feColorMatrix in="SourceAlpha" type="matrix" values="0 0 0 0 0 0 0 0 0 0 0 0 0 0 0 0 0 0 127 0" result="hardAlpha"/>
<feOffset/>
<feGaussianBlur stdDeviation="5.15"/>
<feComposite in2="hardAlpha" operator="out"/>
<feColorMatrix type="matrix" values="0 0 0 0 0.368627 0 0 0 0 0.592157 0 0 0 0 0.662745 0 0 0 0.53 0"/>
<feBlend mode="normal" in2="BackgroundImageFix" result="effect1_dropShadow_1092_803"/>
<feBlend mode="normal" in="SourceGraphic" in2="effect1_dropShadow_1092_803" result="shape"/>
</filter>
<filter id="filter1_d_1092_803" x="63.1" y="73.1" width="129.8" height="121.8" filterUnits="userSpaceOnUse" color-interpolation-filters="sRGB">
<feFlood flood-opacity="0" result="BackgroundImageFix"/>
<feColorMatrix in="SourceAlpha" type="matrix" values="0 0 0 0 0 0 0 0 0 0 0 0 0 0 0 0 0 0 127 0" result="hardAlpha"/>
<feOffset/>
<feGaussianBlur stdDeviation="8.95"/>
<feComposite in2="hardAlpha" operator="out"/>
<feColorMatrix type="matrix" values="0 0 0 0 0.368627 0 0 0 0 0.592157 0 0 0 0 0.662745 0 0 0 0.53 0"/>
<feBlend mode="normal" in2="BackgroundImageFix" result="effect1_dropShadow_1092_803"/>
<feBlend mode="normal" in="SourceGraphic" in2="effect1_dropShadow_1092_803" result="shape"/>
</filter>
</defs>
</svg>
