<svg width="271" height="88" viewBox="0 0 271 88" fill="none" xmlns="http://www.w3.org/2000/svg">
<path d="M30.402 79.1962H34.632V80.8522H28.35V68.3422H30.402V79.1962ZM40.65 81.0142C39.714 81.0142 38.868 80.8042 38.112 80.3842C37.356 79.9522 36.762 79.3522 36.33 78.5842C35.898 77.8042 35.682 76.9042 35.682 75.8842C35.682 74.8762 35.904 73.9822 36.348 73.2022C36.792 72.4222 37.398 71.8222 38.166 71.4022C38.934 70.9822 39.792 70.7722 40.74 70.7722C41.688 70.7722 42.546 70.9822 43.314 71.4022C44.082 71.8222 44.688 72.4222 45.132 73.2022C45.576 73.9822 45.798 74.8762 45.798 75.8842C45.798 76.8922 45.57 77.7862 45.114 78.5662C44.658 79.3462 44.034 79.9522 43.242 80.3842C42.462 80.8042 41.598 81.0142 40.65 81.0142ZM40.65 79.2322C41.178 79.2322 41.67 79.1062 42.126 78.8542C42.594 78.6022 42.972 78.2242 43.26 77.7202C43.548 77.2162 43.692 76.6042 43.692 75.8842C43.692 75.1642 43.554 74.5582 43.278 74.0662C43.002 73.5622 42.636 73.1842 42.18 72.9322C41.724 72.6802 41.232 72.5542 40.704 72.5542C40.176 72.5542 39.684 72.6802 39.228 72.9322C38.784 73.1842 38.43 73.5622 38.166 74.0662C37.902 74.5582 37.77 75.1642 37.77 75.8842C37.77 76.9522 38.04 77.7802 38.58 78.3682C39.132 78.9442 39.822 79.2322 40.65 79.2322ZM51.8226 70.7722C52.5906 70.7722 53.2686 70.9282 53.8566 71.2402C54.4566 71.5402 54.9246 71.9182 55.2606 72.3742V70.9342H57.3306V81.0142C57.3306 81.9262 57.1386 82.7362 56.7546 83.4442C56.3706 84.1642 55.8126 84.7282 55.0806 85.1362C54.3606 85.5442 53.4966 85.7482 52.4886 85.7482C51.1446 85.7482 50.0286 85.4302 49.1406 84.7942C48.2526 84.1702 47.7486 83.3182 47.6286 82.2382H49.6626C49.8186 82.7542 50.1486 83.1682 50.6526 83.4802C51.1686 83.8042 51.7806 83.9662 52.4886 83.9662C53.3166 83.9662 53.9826 83.7142 54.4866 83.2102C55.0026 82.7062 55.2606 81.9742 55.2606 81.0142V79.3582C54.9126 79.8262 54.4386 80.2222 53.8386 80.5462C53.2506 80.8582 52.5786 81.0142 51.8226 81.0142C50.9586 81.0142 50.1666 80.7982 49.4466 80.3662C48.7386 79.9222 48.1746 79.3102 47.7546 78.5302C47.3466 77.7382 47.1426 76.8442 47.1426 75.8482C47.1426 74.8522 47.3466 73.9702 47.7546 73.2022C48.1746 72.4342 48.7386 71.8402 49.4466 71.4202C50.1666 70.9882 50.9586 70.7722 51.8226 70.7722ZM55.2606 75.8842C55.2606 75.2002 55.1166 74.6062 54.8286 74.1022C54.5526 73.5982 54.1866 73.2142 53.7306 72.9502C53.2746 72.6862 52.7826 72.5542 52.2546 72.5542C51.7266 72.5542 51.2346 72.6862 50.7786 72.9502C50.3226 73.2022 49.9506 73.5802 49.6626 74.0842C49.3866 74.5762 49.2486 75.1642 49.2486 75.8482C49.2486 76.5322 49.3866 77.1322 49.6626 77.6482C49.9506 78.1642 50.3226 78.5602 50.7786 78.8362C51.2466 79.1002 51.7386 79.2322 52.2546 79.2322C52.7826 79.2322 53.2746 79.1002 53.7306 78.8362C54.1866 78.5722 54.5526 78.1882 54.8286 77.6842C55.1166 77.1682 55.2606 76.5682 55.2606 75.8842ZM69.0036 81.0142C68.0676 81.0142 67.2216 80.8042 66.4656 80.3842C65.7096 79.9522 65.1156 79.3522 64.6836 78.5842C64.2516 77.8042 64.0356 76.9042 64.0356 75.8842C64.0356 74.8762 64.2576 73.9822 64.7016 73.2022C65.1456 72.4222 65.7516 71.8222 66.5196 71.4022C67.2876 70.9822 68.1456 70.7722 69.0936 70.7722C70.0416 70.7722 70.8996 70.9822 71.6676 71.4022C72.4356 71.8222 73.0416 72.4222 73.4856 73.2022C73.9296 73.9822 74.1516 74.8762 74.1516 75.8842C74.1516 76.8922 73.9236 77.7862 73.4676 78.5662C73.0116 79.3462 72.3876 79.9522 71.5956 80.3842C70.8156 80.8042 69.9516 81.0142 69.0036 81.0142ZM69.0036 79.2322C69.5316 79.2322 70.0236 79.1062 70.4796 78.8542C70.9476 78.6022 71.3256 78.2242 71.6136 77.7202C71.9016 77.2162 72.0456 76.6042 72.0456 75.8842C72.0456 75.1642 71.9076 74.5582 71.6316 74.0662C71.3556 73.5622 70.9896 73.1842 70.5336 72.9322C70.0776 72.6802 69.5856 72.5542 69.0576 72.5542C68.5296 72.5542 68.0376 72.6802 67.5816 72.9322C67.1376 73.1842 66.7836 73.5622 66.5196 74.0662C66.2556 74.5582 66.1236 75.1642 66.1236 75.8842C66.1236 76.9522 66.3936 77.7802 66.9336 78.3682C67.4856 78.9442 68.1756 79.2322 69.0036 79.2322ZM85.1621 70.9342V80.8522H83.1101V79.6822C82.7861 80.0902 82.3601 80.4142 81.8321 80.6542C81.3161 80.8822 80.7641 80.9962 80.1761 80.9962C79.3961 80.9962 78.6941 80.8342 78.0701 80.5102C77.4581 80.1862 76.9721 79.7062 76.6121 79.0702C76.2641 78.4342 76.0901 77.6662 76.0901 76.7662V70.9342H78.1241V76.4602C78.1241 77.3482 78.3461 78.0322 78.7901 78.5122C79.2341 78.9802 79.8401 79.2142 80.6081 79.2142C81.3761 79.2142 81.9821 78.9802 82.4261 78.5122C82.8821 78.0322 83.1101 77.3482 83.1101 76.4602V70.9342H85.1621ZM90.2635 72.6082V78.0982C90.2635 78.4702 90.3475 78.7402 90.5155 78.9082C90.6955 79.0642 90.9955 79.1422 91.4155 79.1422H92.6755V80.8522H91.0555C90.1315 80.8522 89.4235 80.6362 88.9315 80.2042C88.4395 79.7722 88.1935 79.0702 88.1935 78.0982V72.6082H87.0235V70.9342H88.1935V68.4682H90.2635V70.9342H92.6755V72.6082H90.2635Z" fill="white" fill-opacity="0.65"/>
<g opacity="0.65">
<path d="M66.2478 50.933C65.8861 54.843 63.7278 56.4396 59.0028 56.4396H58.8511C53.6361 56.4396 51.5478 54.4954 51.5478 49.6405V42.559C51.5478 37.7041 53.6361 35.76 58.8511 35.76H59.0028C63.6928 35.76 65.8511 37.3348 66.2361 41.1797M59.1311 46.1106H72.4078M69.8061 49.7491L73.7145 46.1106L69.8061 42.4721" stroke="#FFFDFD" stroke-width="1.5" stroke-linecap="round" stroke-linejoin="round"/>
</g>
</svg>
