<svg width="68" height="53" viewBox="0 0 68 53" fill="none" xmlns="http://www.w3.org/2000/svg">
<path d="M3.402 44.344H7.632V46H1.35V33.49H3.402V44.344ZM13.65 46.162C12.714 46.162 11.868 45.952 11.112 45.532C10.356 45.1 9.76205 44.5 9.33005 43.732C8.89805 42.952 8.68205 42.052 8.68205 41.032C8.68205 40.024 8.90405 39.13 9.34805 38.35C9.79205 37.57 10.398 36.97 11.166 36.55C11.934 36.13 12.792 35.92 13.74 35.92C14.688 35.92 15.546 36.13 16.314 36.55C17.082 36.97 17.688 37.57 18.132 38.35C18.576 39.13 18.798 40.024 18.798 41.032C18.798 42.04 18.57 42.934 18.114 43.714C17.658 44.494 17.034 45.1 16.242 45.532C15.462 45.952 14.598 46.162 13.65 46.162ZM13.65 44.38C14.178 44.38 14.67 44.254 15.126 44.002C15.594 43.75 15.972 43.372 16.26 42.868C16.548 42.364 16.692 41.752 16.692 41.032C16.692 40.312 16.554 39.706 16.278 39.214C16.002 38.71 15.636 38.332 15.18 38.08C14.724 37.828 14.232 37.702 13.704 37.702C13.176 37.702 12.684 37.828 12.228 38.08C11.784 38.332 11.43 38.71 11.166 39.214C10.902 39.706 10.77 40.312 10.77 41.032C10.77 42.1 11.04 42.928 11.58 43.516C12.132 44.092 12.822 44.38 13.65 44.38ZM24.8226 35.92C25.5906 35.92 26.2686 36.076 26.8566 36.388C27.4566 36.688 27.9246 37.066 28.2606 37.522V36.082H30.3306V46.162C30.3306 47.074 30.1386 47.884 29.7546 48.592C29.3706 49.312 28.8126 49.876 28.0806 50.284C27.3606 50.692 26.4966 50.896 25.4886 50.896C24.1446 50.896 23.0286 50.578 22.1406 49.942C21.2526 49.318 20.7486 48.466 20.6286 47.386H22.6626C22.8186 47.902 23.1486 48.316 23.6526 48.628C24.1686 48.952 24.7806 49.114 25.4886 49.114C26.3166 49.114 26.9826 48.862 27.4866 48.358C28.0026 47.854 28.2606 47.122 28.2606 46.162V44.506C27.9126 44.974 27.4386 45.37 26.8386 45.694C26.2506 46.006 25.5786 46.162 24.8226 46.162C23.9586 46.162 23.1666 45.946 22.4466 45.514C21.7386 45.07 21.1746 44.458 20.7546 43.678C20.3466 42.886 20.1426 41.992 20.1426 40.996C20.1426 40 20.3466 39.118 20.7546 38.35C21.1746 37.582 21.7386 36.988 22.4466 36.568C23.1666 36.136 23.9586 35.92 24.8226 35.92ZM28.2606 41.032C28.2606 40.348 28.1166 39.754 27.8286 39.25C27.5526 38.746 27.1866 38.362 26.7306 38.098C26.2746 37.834 25.7826 37.702 25.2546 37.702C24.7266 37.702 24.2346 37.834 23.7786 38.098C23.3226 38.35 22.9506 38.728 22.6626 39.232C22.3866 39.724 22.2486 40.312 22.2486 40.996C22.2486 41.68 22.3866 42.28 22.6626 42.796C22.9506 43.312 23.3226 43.708 23.7786 43.984C24.2466 44.248 24.7386 44.38 25.2546 44.38C25.7826 44.38 26.2746 44.248 26.7306 43.984C27.1866 43.72 27.5526 43.336 27.8286 42.832C28.1166 42.316 28.2606 41.716 28.2606 41.032ZM42.0036 46.162C41.0676 46.162 40.2216 45.952 39.4656 45.532C38.7096 45.1 38.1156 44.5 37.6836 43.732C37.2516 42.952 37.0356 42.052 37.0356 41.032C37.0356 40.024 37.2576 39.13 37.7016 38.35C38.1456 37.57 38.7516 36.97 39.5196 36.55C40.2876 36.13 41.1456 35.92 42.0936 35.92C43.0416 35.92 43.8996 36.13 44.6676 36.55C45.4356 36.97 46.0416 37.57 46.4856 38.35C46.9296 39.13 47.1516 40.024 47.1516 41.032C47.1516 42.04 46.9236 42.934 46.4676 43.714C46.0116 44.494 45.3876 45.1 44.5956 45.532C43.8156 45.952 42.9516 46.162 42.0036 46.162ZM42.0036 44.38C42.5316 44.38 43.0236 44.254 43.4796 44.002C43.9476 43.75 44.3256 43.372 44.6136 42.868C44.9016 42.364 45.0456 41.752 45.0456 41.032C45.0456 40.312 44.9076 39.706 44.6316 39.214C44.3556 38.71 43.9896 38.332 43.5336 38.08C43.0776 37.828 42.5856 37.702 42.0576 37.702C41.5296 37.702 41.0376 37.828 40.5816 38.08C40.1376 38.332 39.7836 38.71 39.5196 39.214C39.2556 39.706 39.1236 40.312 39.1236 41.032C39.1236 42.1 39.3936 42.928 39.9336 43.516C40.4856 44.092 41.1756 44.38 42.0036 44.38ZM58.1621 36.082V46H56.1101V44.83C55.7861 45.238 55.3601 45.562 54.8321 45.802C54.3161 46.03 53.7641 46.144 53.1761 46.144C52.3961 46.144 51.6941 45.982 51.0701 45.658C50.4581 45.334 49.9721 44.854 49.6121 44.218C49.2641 43.582 49.0901 42.814 49.0901 41.914V36.082H51.1241V41.608C51.1241 42.496 51.3461 43.18 51.7901 43.66C52.2341 44.128 52.8401 44.362 53.6081 44.362C54.3761 44.362 54.9821 44.128 55.4261 43.66C55.8821 43.18 56.1101 42.496 56.1101 41.608V36.082H58.1621ZM63.2635 37.756V43.246C63.2635 43.618 63.3475 43.888 63.5155 44.056C63.6955 44.212 63.9955 44.29 64.4155 44.29H65.6755V46H64.0555C63.1315 46 62.4235 45.784 61.9315 45.352C61.4395 44.92 61.1935 44.218 61.1935 43.246V37.756H60.0235V36.082H61.1935V33.616H63.2635V36.082H65.6755V37.756H63.2635Z" fill="white" fill-opacity="0.65"/>
<path d="M39.2478 15.933C38.8861 19.843 36.7278 21.4396 32.0028 21.4396H31.8511C26.6361 21.4396 24.5478 19.4955 24.5478 14.6405L24.5478 7.55908C24.5478 2.70415 26.6361 0.760008 31.8511 0.760008H32.0028C36.6928 0.760008 38.8511 2.33487 39.2361 6.17972M32.1311 11.1107L45.4078 11.1107M42.8061 14.7492L46.7145 11.1107L42.8061 7.47219" stroke="#FFFDFD" stroke-width="1.5" stroke-linecap="round" stroke-linejoin="round"/>
</svg>
