<svg width="101" height="64" viewBox="0 0 101 64" fill="none" xmlns="http://www.w3.org/2000/svg">
<path d="M68.646 27.835L65.487 37H62.224L59.052 27.835H61.782L63.862 34.452L65.929 27.835H68.646ZM76.4079 33.269C76.4079 33.4683 76.3949 33.6677 76.3689 33.867H71.5459C71.5719 34.2657 71.6802 34.5647 71.8709 34.764C72.0702 34.9547 72.3216 35.05 72.6249 35.05C73.0496 35.05 73.3529 34.8593 73.5349 34.478H76.2519C76.1392 34.9807 75.9182 35.4313 75.5889 35.83C75.2682 36.22 74.8609 36.5277 74.3669 36.753C73.8729 36.9783 73.3269 37.091 72.7289 37.091C72.0096 37.091 71.3682 36.9393 70.8049 36.636C70.2502 36.3327 69.8126 35.8993 69.4919 35.336C69.1799 34.7727 69.0239 34.1097 69.0239 33.347C69.0239 32.5843 69.1799 31.9257 69.4919 31.371C69.8039 30.8077 70.2372 30.3743 70.7919 30.071C71.3552 29.7677 72.0009 29.616 72.7289 29.616C73.4482 29.616 74.0852 29.7633 74.6399 30.058C75.1946 30.3527 75.6279 30.7773 75.9399 31.332C76.2519 31.878 76.4079 32.5237 76.4079 33.269ZM73.8079 32.632C73.8079 32.32 73.7039 32.0773 73.4959 31.904C73.2879 31.722 73.0279 31.631 72.7159 31.631C72.4039 31.631 72.1482 31.7177 71.9489 31.891C71.7496 32.0557 71.6196 32.3027 71.5589 32.632H73.8079ZM79.9987 30.994C80.2847 30.578 80.6313 30.2487 81.0387 30.006C81.446 29.7633 81.8837 29.642 82.3517 29.642V32.359H81.6367C81.082 32.359 80.6703 32.4673 80.4017 32.684C80.133 32.9007 79.9987 33.2777 79.9987 33.815V37H77.4507V29.707H79.9987V30.994ZM86.3721 37.091C85.7134 37.091 85.1241 36.9827 84.6041 36.766C84.0928 36.5407 83.6854 36.2373 83.3821 35.856C83.0874 35.466 82.9228 35.0283 82.8881 34.543H85.3581C85.3928 34.777 85.5011 34.959 85.6831 35.089C85.8651 35.219 86.0904 35.284 86.3591 35.284C86.5671 35.284 86.7318 35.2407 86.8531 35.154C86.9744 35.0673 87.0351 34.9547 87.0351 34.816C87.0351 34.634 86.9354 34.4997 86.7361 34.413C86.5368 34.3263 86.2074 34.231 85.7481 34.127C85.2281 34.023 84.7948 33.906 84.4481 33.776C84.1014 33.646 83.7981 33.4337 83.5381 33.139C83.2868 32.8443 83.1611 32.4457 83.1611 31.943C83.1611 31.5097 83.2781 31.1197 83.5121 30.773C83.7461 30.4177 84.0884 30.136 84.5391 29.928C84.9984 29.72 85.5488 29.616 86.1901 29.616C87.1434 29.616 87.8931 29.85 88.4391 30.318C88.9851 30.786 89.3014 31.4013 89.3881 32.164H87.0871C87.0438 31.93 86.9398 31.7523 86.7751 31.631C86.6191 31.501 86.4068 31.436 86.1381 31.436C85.9301 31.436 85.7698 31.475 85.6571 31.553C85.5531 31.631 85.5011 31.7393 85.5011 31.878C85.5011 32.0513 85.6008 32.1857 85.8001 32.281C85.9994 32.3677 86.3201 32.4587 86.7621 32.554C87.2908 32.6667 87.7284 32.7923 88.0751 32.931C88.4304 33.0697 88.7381 33.295 88.9981 33.607C89.2668 33.9103 89.4011 34.3263 89.4011 34.855C89.4011 35.2797 89.2754 35.661 89.0241 35.999C88.7814 36.337 88.4304 36.6057 87.9711 36.805C87.5204 36.9957 86.9874 37.091 86.3721 37.091ZM97.6218 33.269C97.6218 33.4683 97.6088 33.6677 97.5828 33.867H92.7598C92.7858 34.2657 92.8941 34.5647 93.0848 34.764C93.2841 34.9547 93.5354 35.05 93.8388 35.05C94.2634 35.05 94.5668 34.8593 94.7488 34.478H97.4658C97.3531 34.9807 97.1321 35.4313 96.8028 35.83C96.4821 36.22 96.0748 36.5277 95.5808 36.753C95.0868 36.9783 94.5408 37.091 93.9428 37.091C93.2234 37.091 92.5821 36.9393 92.0188 36.636C91.4641 36.3327 91.0264 35.8993 90.7058 35.336C90.3938 34.7727 90.2378 34.1097 90.2378 33.347C90.2378 32.5843 90.3938 31.9257 90.7058 31.371C91.0178 30.8077 91.4511 30.3743 92.0058 30.071C92.5691 29.7677 93.2148 29.616 93.9428 29.616C94.6621 29.616 95.2991 29.7633 95.8538 30.058C96.4084 30.3527 96.8418 30.7773 97.1538 31.332C97.4658 31.878 97.6218 32.5237 97.6218 33.269ZM95.0218 32.632C95.0218 32.32 94.9178 32.0773 94.7098 31.904C94.5018 31.722 94.2418 31.631 93.9298 31.631C93.6178 31.631 93.3621 31.7177 93.1628 31.891C92.9634 32.0557 92.8334 32.3027 92.7728 32.632H95.0218Z" fill="white"/>
<path d="M39.5945 28.3034C41.7846 23.0146 40.693 16.7264 36.3129 12.4368C30.4798 6.7197 21.0174 6.7197 15.1842 12.4368L11.2908 16.2505L25.9954 30.6284C29.2005 26.4068 35.138 25.3667 39.5945 28.3034ZM24.445 33.7215L9.12162 18.7454C7.22358 21.8249 7.61292 25.8833 10.3244 28.5414L12.723 30.8935L5.56192 36.9709C4.96401 37.4808 4.92924 38.3781 5.4924 38.9287L9.20505 42.5657C9.76125 43.1163 10.679 43.0823 11.2004 42.4977L17.409 35.4753L19.8911 37.9022C21.2607 39.2414 22.9919 39.9756 24.7787 40.166C24.2851 39.0103 24.0139 37.7459 24.0139 36.4203C24.007 35.4821 24.1877 34.5848 24.445 33.7215ZM34.0186 29.901C30.3338 29.901 27.3442 32.8241 27.3442 36.4271C27.3442 40.03 30.3338 42.9532 34.0186 42.9532C37.7034 42.9532 40.693 40.03 40.693 36.4271C40.693 32.8241 37.7034 29.901 34.0186 29.901Z" fill="white"/>
<path d="M58.26 12.6C58.26 13.4533 58.06 14.2333 57.66 14.94C57.2733 15.6333 56.68 16.1933 55.88 16.62C55.0933 17.0333 54.1267 17.24 52.98 17.24H51.04V22H47.12V7.9H52.98C54.1133 7.9 55.0733 8.1 55.86 8.5C56.66 8.9 57.26 9.45333 57.66 10.16C58.06 10.8667 58.26 11.68 58.26 12.6ZM52.6 14.12C53.7067 14.12 54.26 13.6133 54.26 12.6C54.26 11.5733 53.7067 11.06 52.6 11.06H51.04V14.12H52.6ZM65.0548 22.14C63.9348 22.14 62.9282 21.9067 62.0348 21.44C61.1548 20.9733 60.4615 20.3067 59.9548 19.44C59.4482 18.5733 59.1948 17.5533 59.1948 16.38C59.1948 15.22 59.4482 14.2067 59.9548 13.34C60.4748 12.4733 61.1748 11.8067 62.0548 11.34C62.9482 10.8733 63.9548 10.64 65.0748 10.64C66.1948 10.64 67.1948 10.8733 68.0748 11.34C68.9682 11.8067 69.6682 12.4733 70.1748 13.34C70.6948 14.2067 70.9548 15.22 70.9548 16.38C70.9548 17.54 70.6948 18.56 70.1748 19.44C69.6682 20.3067 68.9682 20.9733 68.0748 21.44C67.1815 21.9067 66.1748 22.14 65.0548 22.14ZM65.0548 18.74C65.6015 18.74 66.0548 18.54 66.4148 18.14C66.7882 17.7267 66.9748 17.14 66.9748 16.38C66.9748 15.62 66.7882 15.04 66.4148 14.64C66.0548 14.24 65.6082 14.04 65.0748 14.04C64.5415 14.04 64.0948 14.24 63.7348 14.64C63.3748 15.04 63.1948 15.62 63.1948 16.38C63.1948 17.1533 63.3682 17.74 63.7148 18.14C64.0615 18.54 64.5082 18.74 65.0548 18.74ZM79.8897 10.68C81.183 10.68 82.2097 11.1133 82.9697 11.98C83.7297 12.8333 84.1097 13.9933 84.1097 15.46V22H80.1897V15.98C80.1897 15.34 80.023 14.84 79.6897 14.48C79.3564 14.1067 78.9097 13.92 78.3497 13.92C77.763 13.92 77.303 14.1067 76.9697 14.48C76.6364 14.84 76.4697 15.34 76.4697 15.98V22H72.5497V10.78H76.4697V12.38C76.8164 11.8733 77.283 11.4667 77.8697 11.16C78.4564 10.84 79.1297 10.68 79.8897 10.68ZM90.4006 10.64C91.1606 10.64 91.8206 10.7933 92.3806 11.1C92.954 11.4067 93.394 11.82 93.7006 12.34V10.78H97.6206V21.88C97.6206 22.9333 97.4206 23.88 97.0206 24.72C96.6206 25.5733 95.994 26.2533 95.1406 26.76C94.3006 27.2667 93.234 27.52 91.9406 27.52C90.2073 27.52 88.8206 27.1133 87.7806 26.3C86.7406 25.4867 86.1473 24.38 86.0006 22.98H89.8606C89.9406 23.34 90.1406 23.62 90.4606 23.82C90.7806 24.02 91.194 24.12 91.7006 24.12C93.034 24.12 93.7006 23.3733 93.7006 21.88V20.44C93.394 20.96 92.954 21.3733 92.3806 21.68C91.8206 21.9867 91.1606 22.14 90.4006 22.14C89.5073 22.14 88.694 21.9067 87.9606 21.44C87.2406 20.9733 86.6673 20.3067 86.2406 19.44C85.8273 18.56 85.6206 17.54 85.6206 16.38C85.6206 15.22 85.8273 14.2067 86.2406 13.34C86.6673 12.4733 87.2406 11.8067 87.9606 11.34C88.694 10.8733 89.5073 10.64 90.4006 10.64ZM93.7006 16.38C93.7006 15.66 93.5006 15.0933 93.1006 14.68C92.714 14.2667 92.234 14.06 91.6606 14.06C91.074 14.06 90.5873 14.2667 90.2006 14.68C89.814 15.08 89.6206 15.6467 89.6206 16.38C89.6206 17.1 89.814 17.6733 90.2006 18.1C90.5873 18.5133 91.074 18.72 91.6606 18.72C92.234 18.72 92.714 18.5133 93.1006 18.1C93.5006 17.6867 93.7006 17.1133 93.7006 16.38Z" fill="#F5F5F5"/>
<line x1="0.6268" y1="62.9817" x2="100.624" y2="62.2674" stroke="white"/>
</svg>
