<svg width="123" height="64" viewBox="0 0 123 64" fill="none" xmlns="http://www.w3.org/2000/svg">
<path d="M68.2835 28.2699L65.1245 37.4349H61.8615L58.6895 28.2699H61.4195L63.4995 34.8869L65.5665 28.2699H68.2835ZM76.0454 33.7039C76.0454 33.9032 76.0324 34.1025 76.0064 34.3019H71.1834C71.2094 34.7005 71.3177 34.9995 71.5084 35.1989C71.7077 35.3895 71.959 35.4849 72.2624 35.4849C72.687 35.4849 72.9904 35.2942 73.1724 34.9129H75.8894C75.7767 35.4155 75.5557 35.8662 75.2264 36.2649C74.9057 36.6549 74.4984 36.9625 74.0044 37.1879C73.5104 37.4132 72.9644 37.5259 72.3664 37.5259C71.647 37.5259 71.0057 37.3742 70.4424 37.0709C69.8877 36.7675 69.45 36.3342 69.1294 35.7709C68.8174 35.2075 68.6614 34.5445 68.6614 33.7819C68.6614 33.0192 68.8174 32.3605 69.1294 31.8059C69.4414 31.2425 69.8747 30.8092 70.4294 30.5059C70.9927 30.2025 71.6384 30.0509 72.3664 30.0509C73.0857 30.0509 73.7227 30.1982 74.2774 30.4929C74.832 30.7875 75.2654 31.2122 75.5774 31.7669C75.8894 32.3129 76.0454 32.9585 76.0454 33.7039ZM73.4454 33.0669C73.4454 32.7549 73.3414 32.5122 73.1334 32.3389C72.9254 32.1569 72.6654 32.0659 72.3534 32.0659C72.0414 32.0659 71.7857 32.1525 71.5864 32.3259C71.387 32.4905 71.257 32.7375 71.1964 33.0669H73.4454ZM79.6361 31.4289C79.9221 31.0129 80.2688 30.6835 80.6761 30.4409C81.0834 30.1982 81.5211 30.0769 81.9891 30.0769V32.7939H81.2741C80.7194 32.7939 80.3078 32.9022 80.0391 33.1189C79.7704 33.3355 79.6361 33.7125 79.6361 34.2499V37.4349H77.0881V30.1419H79.6361V31.4289ZM86.0096 37.5259C85.3509 37.5259 84.7616 37.4175 84.2416 37.2009C83.7302 36.9755 83.3229 36.6722 83.0196 36.2909C82.7249 35.9009 82.5602 35.4632 82.5256 34.9779H84.9956C85.0302 35.2119 85.1386 35.3939 85.3206 35.5239C85.5026 35.6539 85.7279 35.7189 85.9966 35.7189C86.2046 35.7189 86.3692 35.6755 86.4906 35.5889C86.6119 35.5022 86.6726 35.3895 86.6726 35.2509C86.6726 35.0689 86.5729 34.9345 86.3736 34.8479C86.1742 34.7612 85.8449 34.6659 85.3856 34.5619C84.8656 34.4579 84.4322 34.3409 84.0856 34.2109C83.7389 34.0809 83.4356 33.8685 83.1756 33.5739C82.9242 33.2792 82.7986 32.8805 82.7986 32.3779C82.7986 31.9445 82.9156 31.5545 83.1496 31.2079C83.3836 30.8525 83.7259 30.5709 84.1766 30.3629C84.6359 30.1549 85.1862 30.0509 85.8276 30.0509C86.7809 30.0509 87.5306 30.2849 88.0766 30.7529C88.6226 31.2209 88.9389 31.8362 89.0256 32.5989H86.7246C86.6812 32.3649 86.5772 32.1872 86.4126 32.0659C86.2566 31.9359 86.0442 31.8709 85.7756 31.8709C85.5676 31.8709 85.4072 31.9099 85.2946 31.9879C85.1906 32.0659 85.1386 32.1742 85.1386 32.3129C85.1386 32.4862 85.2382 32.6205 85.4376 32.7159C85.6369 32.8025 85.9576 32.8935 86.3996 32.9889C86.9282 33.1015 87.3659 33.2272 87.7126 33.3659C88.0679 33.5045 88.3756 33.7299 88.6356 34.0419C88.9042 34.3452 89.0386 34.7612 89.0386 35.2899C89.0386 35.7145 88.9129 36.0959 88.6616 36.4339C88.4189 36.7719 88.0679 37.0405 87.6086 37.2399C87.1579 37.4305 86.6249 37.5259 86.0096 37.5259ZM97.2592 33.7039C97.2592 33.9032 97.2462 34.1025 97.2202 34.3019H92.3972C92.4232 34.7005 92.5316 34.9995 92.7222 35.1989C92.9216 35.3895 93.1729 35.4849 93.4762 35.4849C93.9009 35.4849 94.2042 35.2942 94.3862 34.9129H97.1032C96.9906 35.4155 96.7696 35.8662 96.4402 36.2649C96.1196 36.6549 95.7122 36.9625 95.2182 37.1879C94.7242 37.4132 94.1782 37.5259 93.5802 37.5259C92.8609 37.5259 92.2196 37.3742 91.6562 37.0709C91.1016 36.7675 90.6639 36.3342 90.3432 35.7709C90.0312 35.2075 89.8752 34.5445 89.8752 33.7819C89.8752 33.0192 90.0312 32.3605 90.3432 31.8059C90.6552 31.2425 91.0886 30.8092 91.6432 30.5059C92.2066 30.2025 92.8522 30.0509 93.5802 30.0509C94.2996 30.0509 94.9366 30.1982 95.4912 30.4929C96.0459 30.7875 96.4792 31.2122 96.7912 31.7669C97.1032 32.3129 97.2592 32.9585 97.2592 33.7039ZM94.6592 33.0669C94.6592 32.7549 94.5552 32.5122 94.3472 32.3389C94.1392 32.1569 93.8792 32.0659 93.5672 32.0659C93.2552 32.0659 92.9996 32.1525 92.8002 32.3259C92.6009 32.4905 92.4709 32.7375 92.4102 33.0669H94.6592Z" fill="white"/>
<path d="M39.5945 28.3034C41.7845 23.0146 40.693 16.7264 36.3129 12.4368C30.4797 6.7197 21.0173 6.7197 15.1842 12.4368L11.2907 16.2505L25.9953 30.6284C29.2004 26.4068 35.1379 25.3667 39.5945 28.3034ZM24.4449 33.7215L9.12156 18.7454C7.22352 21.8249 7.61286 25.8833 10.3243 28.5414L12.723 30.8935L5.56186 36.9709C4.96395 37.4808 4.92918 38.3781 5.49234 38.9287L9.20499 42.5657C9.76119 43.1163 10.6789 43.0823 11.2004 42.4977L17.409 35.4753L19.891 37.9022C21.2607 39.2414 22.9918 39.9756 24.7786 40.166C24.285 39.0103 24.0139 37.7459 24.0139 36.4203C24.0069 35.4821 24.1877 34.5848 24.4449 33.7215ZM34.0185 29.901C30.3337 29.901 27.3441 32.8241 27.3441 36.4271C27.3441 40.03 30.3337 42.9532 34.0185 42.9532C37.7034 42.9532 40.693 40.03 40.693 36.4271C40.693 32.8241 37.7034 29.901 34.0185 29.901Z" fill="white"/>
<path d="M58.2971 12.6C58.2971 13.4533 58.0971 14.2333 57.6971 14.94C57.3104 15.6333 56.7171 16.1933 55.9171 16.62C55.1304 17.0333 54.1638 17.24 53.0171 17.24H51.0771V22H47.1571V7.9H53.0171C54.1504 7.9 55.1104 8.1 55.8971 8.5C56.6971 8.9 57.2971 9.45333 57.6971 10.16C58.0971 10.8667 58.2971 11.68 58.2971 12.6ZM52.6371 14.12C53.7438 14.12 54.2971 13.6133 54.2971 12.6C54.2971 11.5733 53.7438 11.06 52.6371 11.06H51.0771V14.12H52.6371ZM65.092 22.14C63.972 22.14 62.9653 21.9067 62.072 21.44C61.192 20.9733 60.4986 20.3067 59.992 19.44C59.4853 18.5733 59.232 17.5533 59.232 16.38C59.232 15.22 59.4853 14.2067 59.992 13.34C60.512 12.4733 61.212 11.8067 62.092 11.34C62.9853 10.8733 63.992 10.64 65.112 10.64C66.232 10.64 67.232 10.8733 68.112 11.34C69.0053 11.8067 69.7053 12.4733 70.212 13.34C70.732 14.2067 70.992 15.22 70.992 16.38C70.992 17.54 70.732 18.56 70.212 19.44C69.7053 20.3067 69.0053 20.9733 68.112 21.44C67.2186 21.9067 66.212 22.14 65.092 22.14ZM65.092 18.74C65.6386 18.74 66.092 18.54 66.452 18.14C66.8253 17.7267 67.012 17.14 67.012 16.38C67.012 15.62 66.8253 15.04 66.452 14.64C66.092 14.24 65.6453 14.04 65.112 14.04C64.5786 14.04 64.132 14.24 63.772 14.64C63.412 15.04 63.232 15.62 63.232 16.38C63.232 17.1533 63.4053 17.74 63.752 18.14C64.0986 18.54 64.5453 18.74 65.092 18.74ZM79.9268 10.68C81.2201 10.68 82.2468 11.1133 83.0068 11.98C83.7668 12.8333 84.1468 13.9933 84.1468 15.46V22H80.2268V15.98C80.2268 15.34 80.0601 14.84 79.7268 14.48C79.3935 14.1067 78.9468 13.92 78.3868 13.92C77.8001 13.92 77.3401 14.1067 77.0068 14.48C76.6735 14.84 76.5068 15.34 76.5068 15.98V22H72.5868V10.78H76.5068V12.38C76.8535 11.8733 77.3201 11.4667 77.9068 11.16C78.4935 10.84 79.1668 10.68 79.9268 10.68ZM90.4377 10.64C91.1977 10.64 91.8577 10.7933 92.4177 11.1C92.9911 11.4067 93.4311 11.82 93.7377 12.34V10.78H97.6577V21.88C97.6577 22.9333 97.4577 23.88 97.0577 24.72C96.6577 25.5733 96.0311 26.2533 95.1777 26.76C94.3377 27.2667 93.2711 27.52 91.9777 27.52C90.2444 27.52 88.8577 27.1133 87.8177 26.3C86.7777 25.4867 86.1844 24.38 86.0377 22.98H89.8977C89.9777 23.34 90.1777 23.62 90.4977 23.82C90.8177 24.02 91.2311 24.12 91.7377 24.12C93.0711 24.12 93.7377 23.3733 93.7377 21.88V20.44C93.4311 20.96 92.9911 21.3733 92.4177 21.68C91.8577 21.9867 91.1977 22.14 90.4377 22.14C89.5444 22.14 88.7311 21.9067 87.9977 21.44C87.2777 20.9733 86.7044 20.3067 86.2777 19.44C85.8644 18.56 85.6577 17.54 85.6577 16.38C85.6577 15.22 85.8644 14.2067 86.2777 13.34C86.7044 12.4733 87.2777 11.8067 87.9977 11.34C88.7311 10.8733 89.5444 10.64 90.4377 10.64ZM93.7377 16.38C93.7377 15.66 93.5377 15.0933 93.1377 14.68C92.7511 14.2667 92.2711 14.06 91.6977 14.06C91.1111 14.06 90.6244 14.2667 90.2377 14.68C89.8511 15.08 89.6577 15.6467 89.6577 16.38C89.6577 17.1 89.8511 17.6733 90.2377 18.1C90.6244 18.5133 91.1111 18.72 91.6977 18.72C92.2711 18.72 92.7511 18.5133 93.1377 18.1C93.5377 17.6867 93.7377 17.1133 93.7377 16.38Z" fill="#F5F5F5"/>
<line x1="0.6268" y1="62.9817" x2="100.624" y2="62.2674" stroke="white"/>
</svg>
