<svg width="29" height="58" viewBox="0 0 29 58" fill="none" xmlns="http://www.w3.org/2000/svg">
<path d="M18.2299 42.5006L24.5734 43.0401L19.7538 47.2085L19.0676 47.8019L19.2745 48.6851L20.7243 54.8746L15.2756 51.5831L14.5 51.1145L13.7244 51.5831L8.28783 54.8673L9.75349 48.6892L9.96356 47.8038L9.27523 47.2085L4.45555 43.0401L10.7991 42.5006L11.7008 42.4239L12.0535 41.5905L14.5145 35.7734L16.9755 41.5905L17.3282 42.4239L18.2299 42.5006ZM26.8358 25.655L18.9 30.4203V29.667V2.9V1.5H27.5V24.447C27.5 24.9762 27.2442 25.41 26.8363 25.6548L26.8358 25.655ZM1.5 1.5H10.1V2.9V29.667V30.4029L2.1932 25.655L2.18374 25.6494L2.1742 25.6438C1.75645 25.4013 1.5 24.9497 1.5 24.447V1.5Z" stroke="#5E97A9" stroke-width="3"/>
</svg>
