<svg width="35" height="35" viewBox="0 0 35 35" fill="none" xmlns="http://www.w3.org/2000/svg">
<path d="M32.0834 15.3611V22.4908C32.0834 27.4815 29.1667 29.6204 24.7917 29.6204H10.2084C5.83341 29.6204 2.91675 27.4815 2.91675 22.4908V12.5093C2.91675 7.51853 5.83341 5.37964 10.2084 5.37964H20.4167" stroke="white" stroke-width="1.5" stroke-miterlimit="10" stroke-linecap="round" stroke-linejoin="round"/>
<path d="M10.2083 13.2222L14.7728 16.7871C16.2749 17.9563 18.7395 17.9563 20.2416 16.7871L21.9624 15.4467M28.4374 11.7963C29.4044 11.7963 30.3317 11.4207 31.0154 10.7522C31.6991 10.0837 32.0833 9.17695 32.0833 8.2315C32.0833 7.28605 31.6991 6.37933 31.0154 5.7108C30.3317 5.04226 29.4044 4.66669 28.4374 4.66669C27.4705 4.66669 26.5432 5.04226 25.8594 5.7108C25.1757 6.37933 24.7916 7.28605 24.7916 8.2315C24.7916 9.17695 25.1757 10.0837 25.8594 10.7522C26.5432 11.4207 27.4705 11.7963 28.4374 11.7963Z" stroke="white" stroke-width="1.5" stroke-miterlimit="10" stroke-linecap="round" stroke-linejoin="round"/>
<circle cx="18.5" cy="5.5556" r="3" fill="#FF0000" stroke="#FF0202"/>
</svg>
