<svg width="36" height="37" viewBox="0 0 36 37" fill="none" xmlns="http://www.w3.org/2000/svg">
<circle cx="25.5" cy="32" r="3" fill="#F80000" stroke="#F80000"/>
<path d="M18.0299 4.86499C13.0649 4.86499 9.02989 8.89999 9.02989 13.865V18.2C9.02989 19.115 8.63989 20.51 8.17489 21.29L6.44989 24.155C5.38489 25.925 6.11989 27.89 8.06989 28.55C14.5349 30.71 21.5099 30.71 27.9749 28.55C29.7899 27.95 30.5849 25.805 29.5949 24.155L27.8699 21.29C27.4199 20.51 27.0299 19.115 27.0299 18.2V13.865C27.0299 8.91499 22.9799 4.86499 18.0299 4.86499Z" stroke="white" stroke-width="1.5" stroke-miterlimit="10" stroke-linecap="round"/>
<path d="M20.8049 5.29997C18.9909 4.78336 17.0688 4.78336 15.2549 5.29997C15.6899 4.18997 16.7699 3.40997 18.0299 3.40997C19.2899 3.40997 20.3699 4.18997 20.8049 5.29997V5.29997Z" stroke="white" stroke-width="1.5" stroke-miterlimit="10" stroke-linecap="round" stroke-linejoin="round"/>
<path d="M22.53 29.09C22.53 31.565 20.505 33.59 18.03 33.59C16.8 33.59 15.66 33.08 14.85 32.27C14.0073 31.426 13.5327 30.2828 13.53 29.09" stroke="white" stroke-width="1.5" stroke-miterlimit="10"/>
</svg>
