<svg width="45" height="59" viewBox="0 0 45 59" fill="none" xmlns="http://www.w3.org/2000/svg">
<path d="M16.7117 42.0284C17.1341 41.1055 18.1255 41.2647 18.1255 41.2647L18.1936 41.2724C24.0424 42.6035 29.5488 42.334 33.8862 39.1732" stroke="#5E97A9" stroke-width="3" stroke-miterlimit="10" stroke-linecap="round" stroke-linejoin="round"/>
<path d="M10.6538 38.8763C11.1965 38.0156 10.5555 37.3504 10.5555 37.3504L10.5237 37.3179C4.19389 31.6349 0.979467 24.629 5.53207 16.2156C10.8393 6.40744 21.1552 -2.32466 33.4003 4.01001C43.2347 9.0975 44.2591 17.8939 41.8111 26.1414" stroke="#5E97A9" stroke-width="3" stroke-miterlimit="10" stroke-linecap="round" stroke-linejoin="round"/>
<path d="M30.7741 40.8888L3.71655 26.8914" stroke="#5E97A9" stroke-width="3" stroke-miterlimit="10" stroke-linecap="round" stroke-linejoin="round"/>
<path d="M9.72037 57.4368L13.195 49.7381L19.8242 35.2243L14.6626 32.5542L6.10415 46.0699L2.22363 52.1531C1.98223 52.5521 1.97527 52.7655 2.024 53.0915C2.07439 53.4285 2.35078 53.7728 2.71915 54.0936C2.71915 54.0936 4.16063 55.3877 6.34712 56.3169" stroke="#5E97A9" stroke-width="3" stroke-miterlimit="10" stroke-linecap="round" stroke-linejoin="round"/>
<path d="M38.8468 37.4957C41.25 37.4957 43.1981 35.5909 43.1981 33.2412C43.1981 30.8915 41.25 28.9866 38.8468 28.9866C36.4437 28.9866 34.4956 30.8915 34.4956 33.2412C34.4956 35.5909 36.4437 37.4957 38.8468 37.4957Z" stroke="#5E97A9" stroke-width="3" stroke-miterlimit="10" stroke-linecap="round" stroke-linejoin="round"/>
</svg>
