<svg width="17" height="21" viewBox="0 0 17 21" fill="none" xmlns="http://www.w3.org/2000/svg">
<path d="M15.1786 18.9875H15.6786V18.4875V17.4675C15.6786 15.3181 14.0051 13.525 11.9 13.525C11.6776 13.525 11.454 13.5869 11.2604 13.6473C11.1661 13.6767 11.0815 13.7048 10.9955 13.7334C10.8725 13.7742 10.7463 13.8161 10.5838 13.8646C10.0837 14.0135 9.42202 14.1625 8.5 14.1625C7.58583 14.1625 6.92311 14.0136 6.41992 13.8644C6.25667 13.816 6.1295 13.774 6.00572 13.7331C5.91903 13.7045 5.83399 13.6764 5.73939 13.6471C5.54549 13.5869 5.32137 13.525 5.1 13.525C2.9949 13.525 1.32143 15.3181 1.32143 17.4675V18.4875V18.9875H1.82143H15.1786ZM8.5 13.25C9.46389 13.25 10.0963 13.0758 10.6164 12.9068C10.6802 12.886 10.7409 12.866 10.7992 12.8467C11.2172 12.7086 11.5079 12.6125 11.9 12.6125C14.4168 12.6125 16.5 14.764 16.5 17.4675V18.4875C16.5 19.2905 15.8853 19.9 15.1786 19.9H1.82143C1.1147 19.9 0.5 19.2905 0.5 18.4875V17.4675C0.5 14.764 2.58323 12.6125 5.1 12.6125C5.49419 12.6125 5.78554 12.7089 6.20373 12.8471C6.26151 12.8663 6.32171 12.8862 6.38494 12.9067C6.90453 13.0757 7.53605 13.25 8.5 13.25ZM13.4643 5.7375C13.4643 8.6522 11.2179 10.975 8.5 10.975C5.78211 10.975 3.53571 8.6522 3.53571 5.7375C3.53571 2.8228 5.78211 0.5 8.5 0.5C11.2179 0.5 13.4643 2.8228 13.4643 5.7375ZM12.6429 5.7375C12.6429 3.37689 10.8062 1.4125 8.5 1.4125C6.19378 1.4125 4.35714 3.37689 4.35714 5.7375C4.35714 8.09811 6.19378 10.0625 8.5 10.0625C10.8062 10.0625 12.6429 8.09811 12.6429 5.7375Z" stroke="white"/>
</svg>
