<svg width="24" height="23" viewBox="0 0 24 23" fill="none" xmlns="http://www.w3.org/2000/svg">
<path d="M14.4886 21.4861H8.69319C3.44831 21.4861 1.2074 19.295 1.2074 14.1667V8.49999C1.2074 3.37165 3.44831 1.18054 8.69319 1.18054H14.4886C19.7335 1.18054 21.9744 3.37165 21.9744 8.49999V14.1667C21.9744 19.295 19.7335 21.4861 14.4886 21.4861ZM8.69319 2.59721C4.24035 2.59721 2.65626 4.1461 2.65626 8.49999V14.1667C2.65626 18.5205 4.24035 20.0694 8.69319 20.0694H14.4886C18.9415 20.0694 20.5256 18.5205 20.5256 14.1667V8.49999C20.5256 4.1461 18.9415 2.59721 14.4886 2.59721H8.69319Z" fill="#FFF9F9"/>
<path d="M15.0488 18.1824C14.6528 18.1824 14.3244 17.8613 14.3244 17.4741V13.7908C14.3244 13.4035 14.6528 13.0824 15.0488 13.0824C15.4449 13.0824 15.7733 13.4035 15.7733 13.7908V17.4741C15.7733 17.8613 15.4449 18.1824 15.0488 18.1824ZM15.0488 7.74442C14.6528 7.74442 14.3244 7.42331 14.3244 7.03608V5.19442C14.3244 4.8072 14.6528 4.48608 15.0488 4.48608C15.4449 4.48608 15.7733 4.8072 15.7733 5.19442V7.03608C15.7733 7.42331 15.4449 7.74442 15.0488 7.74442Z" fill="#FFF9F9"/>
<path d="M15.0488 12.6555C14.4089 12.6555 13.7833 12.47 13.2511 12.1223C12.719 11.7747 12.3043 11.2805 12.0594 10.7024C11.8145 10.1243 11.7504 9.48813 11.8752 8.8744C12.0001 8.26066 12.3083 7.69691 12.7608 7.25443C13.2133 6.81195 13.7899 6.51062 14.4176 6.38854C15.0453 6.26646 15.6959 6.32912 16.2871 6.56859C16.8784 6.80805 17.3838 7.21358 17.7393 7.73388C18.0949 8.25418 18.2846 8.86588 18.2846 9.49164C18.2846 11.2389 16.8261 12.6555 15.0488 12.6555ZM15.0488 7.74442C14.0636 7.74442 13.2619 8.52831 13.2619 9.49164C13.2619 10.455 14.0636 11.2389 15.0488 11.2389C16.0341 11.2389 16.8358 10.455 16.8358 9.49164C16.8358 8.52831 16.0244 7.74442 15.0488 7.74442ZM8.13294 18.1805C7.73692 18.1805 7.40851 17.8594 7.40851 17.4722V15.6305C7.40851 15.2433 7.73692 14.9222 8.13294 14.9222C8.52896 14.9222 8.85737 15.2433 8.85737 15.6305V17.4722C8.85737 17.8594 8.53862 18.1805 8.13294 18.1805ZM8.13294 9.58608C7.73692 9.58608 7.40851 9.26497 7.40851 8.87775V5.19442C7.40851 4.8072 7.73692 4.48608 8.13294 4.48608C8.52896 4.48608 8.85737 4.8072 8.85737 5.19442V8.87775C8.85737 9.26497 8.53862 9.58608 8.13294 9.58608Z" fill="#FFF9F9"/>
<path d="M8.13295 16.3408C7.70802 16.3408 7.28725 16.2589 6.89467 16.0999C6.50208 15.9409 6.14537 15.7079 5.8449 15.4141C5.54443 15.1203 5.30608 14.7715 5.14347 14.3877C4.98085 14.0038 4.89716 13.5924 4.89716 13.1769C4.89716 12.7614 4.98085 12.35 5.14347 11.9661C5.30608 11.5823 5.54443 11.2335 5.8449 10.9397C6.14537 10.6459 6.50208 10.4128 6.89467 10.2538C7.28725 10.0948 7.70802 10.013 8.13295 10.013C8.99114 10.013 9.81418 10.3463 10.421 10.9397C11.0278 11.533 11.3687 12.3378 11.3687 13.1769C11.3687 14.016 11.0278 14.8208 10.421 15.4141C9.81418 16.0074 8.99114 16.3408 8.13295 16.3408ZM8.13295 11.4297C7.14772 11.4297 6.34602 12.2136 6.34602 13.1769C6.34602 14.1402 7.14772 14.9241 8.13295 14.9241C9.11818 14.9241 9.91988 14.1402 9.91988 13.1769C9.91988 12.2136 9.12784 11.4297 8.13295 11.4297Z" fill="#FFF9F9"/>
</svg>
