<svg width="29" height="39" viewBox="0 0 29 39" fill="none" xmlns="http://www.w3.org/2000/svg">
<path d="M10.5144 27.5068C10.7933 26.8975 11.4478 27.0026 11.4478 27.0026L11.4927 27.0077C15.354 27.8865 18.9892 27.7086 21.8527 25.6218" stroke="#FFFCFC" stroke-width="1.23" stroke-miterlimit="10" stroke-linecap="round" stroke-linejoin="round"/>
<path d="M6.51516 25.4258C6.87343 24.8576 6.45024 24.4184 6.45024 24.4184L6.42927 24.397C2.25046 20.6452 0.128367 16.02 3.1339 10.4657C6.63759 3.99056 13.448 -1.77417 21.5319 2.40783C28.0243 5.76648 28.7007 11.5737 27.0845 17.0185" stroke="#FFFCFC" stroke-width="1.23" stroke-miterlimit="10" stroke-linecap="round" stroke-linejoin="round"/>
<path d="M19.7981 26.7544L1.9353 17.5137" stroke="#FFFCFC" stroke-width="1.23" stroke-miterlimit="10" stroke-linecap="round" stroke-linejoin="round"/>
<path d="M5.89882 37.679L8.19269 32.5965L12.5691 23.0148L9.16156 21.2521L3.51147 30.1749L0.949641 34.1909C0.79027 34.4543 0.785674 34.5952 0.817847 34.8104C0.851111 35.0328 1.03358 35.2602 1.27677 35.4719C1.27677 35.4719 2.2284 36.3262 3.67188 36.9397" stroke="#FFFCFC" stroke-width="1.23" stroke-miterlimit="10" stroke-linecap="round" stroke-linejoin="round"/>
<path d="M25.1275 24.5144C26.714 24.5144 28.0001 23.2568 28.0001 21.7056C28.0001 20.1544 26.714 18.8969 25.1275 18.8969C23.541 18.8969 22.2549 20.1544 22.2549 21.7056C22.2549 23.2568 23.541 24.5144 25.1275 24.5144Z" stroke="#FFFCFC" stroke-width="1.23" stroke-miterlimit="10" stroke-linecap="round" stroke-linejoin="round"/>
</svg>
