<svg width="339" height="140" viewBox="0 0 339 140" fill="none" xmlns="http://www.w3.org/2000/svg">
<path d="M200.808 70.08L194.976 87H188.952L183.096 70.08H188.136L191.976 82.296L195.792 70.08H200.808ZM215.138 80.112C215.138 80.48 215.114 80.848 215.066 81.216H206.162C206.21 81.952 206.41 82.504 206.762 82.872C207.13 83.224 207.594 83.4 208.154 83.4C208.938 83.4 209.498 83.048 209.834 82.344H214.85C214.642 83.272 214.234 84.104 213.626 84.84C213.034 85.56 212.282 86.128 211.37 86.544C210.458 86.96 209.45 87.168 208.346 87.168C207.018 87.168 205.834 86.888 204.794 86.328C203.77 85.768 202.962 84.968 202.37 83.928C201.794 82.888 201.506 81.664 201.506 80.256C201.506 78.848 201.794 77.632 202.37 76.608C202.946 75.568 203.746 74.768 204.77 74.208C205.81 73.648 207.002 73.368 208.346 73.368C209.674 73.368 210.85 73.64 211.874 74.184C212.898 74.728 213.698 75.512 214.274 76.536C214.85 77.544 215.138 78.736 215.138 80.112ZM210.338 78.936C210.338 78.36 210.146 77.912 209.762 77.592C209.378 77.256 208.898 77.088 208.322 77.088C207.746 77.088 207.274 77.248 206.906 77.568C206.538 77.872 206.298 78.328 206.186 78.936H210.338ZM221.767 75.912C222.295 75.144 222.935 74.536 223.687 74.088C224.439 73.64 225.247 73.416 226.111 73.416V78.432H224.791C223.767 78.432 223.007 78.632 222.511 79.032C222.015 79.432 221.767 80.128 221.767 81.12V87H217.063V73.536H221.767V75.912ZM233.533 87.168C232.317 87.168 231.229 86.968 230.269 86.568C229.325 86.152 228.573 85.592 228.013 84.888C227.469 84.168 227.165 83.36 227.101 82.464H231.661C231.725 82.896 231.925 83.232 232.261 83.472C232.597 83.712 233.013 83.832 233.509 83.832C233.893 83.832 234.197 83.752 234.421 83.592C234.645 83.432 234.757 83.224 234.757 82.968C234.757 82.632 234.573 82.384 234.205 82.224C233.837 82.064 233.229 81.888 232.381 81.696C231.421 81.504 230.621 81.288 229.981 81.048C229.341 80.808 228.781 80.416 228.301 79.872C227.837 79.328 227.605 78.592 227.605 77.664C227.605 76.864 227.821 76.144 228.253 75.504C228.685 74.848 229.317 74.328 230.149 73.944C230.997 73.56 232.013 73.368 233.197 73.368C234.957 73.368 236.341 73.8 237.349 74.664C238.357 75.528 238.941 76.664 239.101 78.072H234.853C234.773 77.64 234.581 77.312 234.277 77.088C233.989 76.848 233.597 76.728 233.101 76.728C232.717 76.728 232.421 76.8 232.213 76.944C232.021 77.088 231.925 77.288 231.925 77.544C231.925 77.864 232.109 78.112 232.477 78.288C232.845 78.448 233.437 78.616 234.253 78.792C235.229 79 236.037 79.232 236.677 79.488C237.333 79.744 237.901 80.16 238.381 80.736C238.877 81.296 239.125 82.064 239.125 83.04C239.125 83.824 238.893 84.528 238.429 85.152C237.981 85.776 237.333 86.272 236.485 86.64C235.653 86.992 234.669 87.168 233.533 87.168ZM254.302 80.112C254.302 80.48 254.278 80.848 254.23 81.216H245.326C245.374 81.952 245.574 82.504 245.926 82.872C246.294 83.224 246.758 83.4 247.318 83.4C248.102 83.4 248.662 83.048 248.998 82.344H254.014C253.806 83.272 253.398 84.104 252.79 84.84C252.198 85.56 251.446 86.128 250.534 86.544C249.622 86.96 248.614 87.168 247.51 87.168C246.182 87.168 244.998 86.888 243.958 86.328C242.934 85.768 242.126 84.968 241.534 83.928C240.958 82.888 240.67 81.664 240.67 80.256C240.67 78.848 240.958 77.632 241.534 76.608C242.11 75.568 242.91 74.768 243.934 74.208C244.974 73.648 246.166 73.368 247.51 73.368C248.838 73.368 250.014 73.64 251.038 74.184C252.062 74.728 252.862 75.512 253.438 76.536C254.014 77.544 254.302 78.736 254.302 80.112ZM249.502 78.936C249.502 78.36 249.31 77.912 248.926 77.592C248.542 77.256 248.062 77.088 247.486 77.088C246.91 77.088 246.438 77.248 246.07 77.568C245.702 77.872 245.462 78.328 245.35 78.936H249.502Z" fill="white"/>
<path d="M123.902 87.3745C131.767 68.3822 127.847 45.8014 112.118 30.3977C91.1714 9.86744 57.192 9.86744 36.2451 30.3977L22.2639 44.0926L75.068 95.7233C86.5776 80.5637 107.899 76.8287 123.902 87.3745ZM69.5005 106.831L14.4744 53.0517C7.6585 64.1102 9.05662 78.684 18.7936 88.2289L27.407 96.6754L1.69151 118.499C-0.455607 120.33 -0.58044 123.553 1.44185 125.53L14.7739 138.59C16.7713 140.568 20.0668 140.445 21.9393 138.346L44.2344 113.129L53.1474 121.844C58.0658 126.653 64.2825 129.289 70.6989 129.973C68.9263 125.823 67.9526 121.282 67.9526 116.522C67.9276 113.153 68.5767 109.931 69.5005 106.831ZM103.879 93.1113C90.6471 93.1113 79.9115 103.608 79.9115 116.546C79.9115 129.485 90.6471 139.982 103.879 139.982C117.112 139.982 127.847 129.485 127.847 116.546C127.847 103.608 117.112 93.1113 103.879 93.1113Z" fill="white"/>
<path d="M166.424 30.44C166.424 32.488 165.944 34.36 164.984 36.056C164.056 37.72 162.632 39.064 160.712 40.088C158.824 41.08 156.504 41.576 153.752 41.576H149.096V53H139.688V19.16H153.752C156.472 19.16 158.776 19.64 160.664 20.6C162.584 21.56 164.024 22.888 164.984 24.584C165.944 26.28 166.424 28.232 166.424 30.44ZM152.84 34.088C155.496 34.088 156.824 32.872 156.824 30.44C156.824 27.976 155.496 26.744 152.84 26.744H149.096V34.088H152.84ZM182.732 53.336C180.044 53.336 177.628 52.776 175.484 51.656C173.372 50.536 171.708 48.936 170.492 46.856C169.276 44.776 168.668 42.328 168.668 39.512C168.668 36.728 169.276 34.296 170.492 32.216C171.74 30.136 173.42 28.536 175.532 27.416C177.676 26.296 180.092 25.736 182.78 25.736C185.468 25.736 187.868 26.296 189.98 27.416C192.124 28.536 193.804 30.136 195.02 32.216C196.268 34.296 196.892 36.728 196.892 39.512C196.892 42.296 196.268 44.744 195.02 46.856C193.804 48.936 192.124 50.536 189.98 51.656C187.836 52.776 185.42 53.336 182.732 53.336ZM182.732 45.176C184.044 45.176 185.132 44.696 185.996 43.736C186.892 42.744 187.34 41.336 187.34 39.512C187.34 37.688 186.892 36.296 185.996 35.336C185.132 34.376 184.06 33.896 182.78 33.896C181.5 33.896 180.428 34.376 179.564 35.336C178.7 36.296 178.268 37.688 178.268 39.512C178.268 41.368 178.684 42.776 179.516 43.736C180.348 44.696 181.42 45.176 182.732 45.176ZM218.335 25.832C221.439 25.832 223.903 26.872 225.727 28.952C227.551 31 228.463 33.784 228.463 37.304V53H219.055V38.552C219.055 37.016 218.655 35.816 217.855 34.952C217.055 34.056 215.983 33.608 214.639 33.608C213.231 33.608 212.127 34.056 211.327 34.952C210.527 35.816 210.127 37.016 210.127 38.552V53H200.719V26.072H210.127V29.912C210.959 28.696 212.079 27.72 213.487 26.984C214.895 26.216 216.511 25.832 218.335 25.832ZM243.562 25.736C245.386 25.736 246.97 26.104 248.314 26.84C249.69 27.576 250.746 28.568 251.482 29.816V26.072H260.89V52.712C260.89 55.24 260.41 57.512 259.45 59.528C258.49 61.576 256.986 63.208 254.938 64.424C252.922 65.64 250.362 66.248 247.258 66.248C243.098 66.248 239.77 65.272 237.273 63.32C234.778 61.368 233.354 58.712 233.002 55.352H242.266C242.458 56.216 242.938 56.888 243.706 57.368C244.474 57.848 245.466 58.088 246.682 58.088C249.882 58.088 251.482 56.296 251.482 52.712V49.256C250.746 50.504 249.69 51.496 248.314 52.232C246.97 52.968 245.386 53.336 243.562 53.336C241.418 53.336 239.466 52.776 237.706 51.656C235.978 50.536 234.602 48.936 233.578 46.856C232.586 44.744 232.09 42.296 232.09 39.512C232.09 36.728 232.586 34.296 233.578 32.216C234.602 30.136 235.978 28.536 237.706 27.416C239.466 26.296 241.418 25.736 243.562 25.736ZM251.482 39.512C251.482 37.784 251.002 36.424 250.042 35.432C249.114 34.44 247.962 33.944 246.586 33.944C245.178 33.944 244.01 34.44 243.082 35.432C242.154 36.392 241.69 37.752 241.69 39.512C241.69 41.24 242.154 42.616 243.082 43.64C244.01 44.632 245.178 45.128 246.586 45.128C247.962 45.128 249.114 44.632 250.042 43.64C251.002 42.648 251.482 41.272 251.482 39.512Z" fill="#F5F5F5"/>
</svg>
