<svg xmlns="http://www.w3.org/2000/svg" xmlns:xlink="http://www.w3.org/1999/xlink" width="500" zoomAndPan="magnify" viewBox="0 0 375 374.999991" height="500" preserveAspectRatio="xMidYMid meet" version="1.0"><defs><g/><clipPath id="452bc150cf"><path d="M 52.222656 39 L 322.773438 39 L 322.773438 309.550781 L 52.222656 309.550781 Z M 52.222656 39 " clip-rule="nonzero"/></clipPath><clipPath id="7c70dbef89"><path d="M 187.496094 39 C 112.785156 39 52.222656 99.566406 52.222656 174.273438 C 52.222656 248.984375 112.785156 309.550781 187.496094 309.550781 C 262.207031 309.550781 322.773438 248.984375 322.773438 174.273438 C 322.773438 99.566406 262.207031 39 187.496094 39 Z M 187.496094 39 " clip-rule="nonzero"/></clipPath><clipPath id="15135c2be9"><path d="M 67 53.023438 L 308 53.023438 L 308 295 L 67 295 Z M 67 53.023438 " clip-rule="nonzero"/></clipPath><clipPath id="341aea6065"><path d="M 193.472656 56.148438 C 197.074219 59.199219 202.175781 59.734375 206.335938 57.5 L 206.355469 57.488281 C 210.328125 55.351562 215.261719 56.398438 218.023438 59.964844 C 220.914062 63.691406 225.785156 65.269531 230.308594 63.949219 L 230.363281 63.933594 C 234.6875 62.667969 239.289062 64.714844 241.246094 68.773438 C 243.289062 73.011719 247.722656 75.566406 252.417969 75.210938 L 252.492188 75.203125 C 256.976562 74.863281 261.050781 77.820312 262.113281 82.191406 C 263.226562 86.757812 267.03125 90.175781 271.691406 90.796875 L 271.773438 90.808594 C 276.226562 91.398438 279.597656 95.136719 279.722656 99.628906 C 279.855469 104.328125 282.863281 108.457031 287.292969 110.027344 L 287.363281 110.054688 C 291.597656 111.554688 294.117188 115.910156 293.300781 120.328125 C 292.449219 124.949219 294.535156 129.617188 298.539062 132.070312 L 298.585938 132.097656 C 302.417969 134.445312 303.976562 139.230469 302.257812 143.382812 C 300.457031 147.726562 301.523438 152.726562 304.933594 155.960938 L 304.953125 155.976562 C 308.21875 159.070312 308.746094 164.082031 306.195312 167.785156 C 303.527344 171.660156 303.527344 176.78125 306.195312 180.65625 C 308.746094 184.359375 308.21875 189.371094 304.953125 192.464844 L 304.933594 192.480469 C 301.523438 195.714844 300.457031 200.714844 302.257812 205.058594 C 303.976562 209.210938 302.417969 213.996094 298.585938 216.34375 L 298.539062 216.371094 C 294.535156 218.824219 292.449219 223.492188 293.300781 228.113281 C 294.117188 232.53125 291.597656 236.886719 287.363281 238.386719 L 287.292969 238.414062 C 282.863281 239.984375 279.855469 244.113281 279.722656 248.8125 C 279.597656 253.304688 276.226562 257.042969 271.773438 257.632812 L 271.691406 257.644531 C 267.03125 258.265625 263.226562 261.683594 262.113281 266.25 C 261.050781 270.621094 256.976562 273.578125 252.492188 273.238281 L 252.417969 273.230469 C 247.722656 272.875 243.289062 275.429688 241.246094 279.667969 C 239.289062 283.726562 234.6875 285.773438 230.363281 284.507812 L 230.308594 284.492188 C 225.785156 283.171875 220.914062 284.75 218.023438 288.476562 C 215.261719 292.042969 210.328125 293.089844 206.355469 290.957031 L 206.335938 290.941406 C 202.175781 288.710938 197.074219 289.242188 193.472656 292.292969 C 190.023438 295.207031 184.976562 295.207031 181.527344 292.292969 C 177.925781 289.242188 172.824219 288.710938 168.664062 290.941406 L 168.644531 290.957031 C 164.671875 293.089844 159.738281 292.042969 156.976562 288.476562 C 154.085938 284.75 149.214844 283.171875 144.691406 284.492188 L 144.636719 284.507812 C 140.3125 285.773438 135.710938 283.726562 133.753906 279.667969 C 131.710938 275.429688 127.277344 272.875 122.582031 273.230469 L 122.507812 273.238281 C 118.023438 273.578125 113.949219 270.621094 112.886719 266.25 C 111.773438 261.683594 107.96875 258.265625 103.308594 257.644531 L 103.226562 257.632812 C 98.773438 257.042969 95.402344 253.304688 95.277344 248.8125 C 95.144531 244.113281 92.136719 239.984375 87.707031 238.414062 L 87.636719 238.386719 C 83.402344 236.886719 80.882812 232.53125 81.699219 228.113281 C 82.550781 223.492188 80.464844 218.824219 76.460938 216.371094 L 76.414062 216.34375 C 72.582031 213.996094 71.023438 209.210938 72.742188 205.058594 C 74.542969 200.714844 73.476562 195.714844 70.066406 192.480469 L 70.046875 192.464844 C 66.78125 189.371094 66.253906 184.359375 68.804688 180.65625 C 71.472656 176.78125 71.472656 171.660156 68.804688 167.785156 C 66.253906 164.082031 66.78125 159.070312 70.046875 155.976562 L 70.066406 155.960938 C 73.476562 152.726562 74.542969 147.726562 72.742188 143.382812 C 71.023438 139.230469 72.582031 134.445312 76.414062 132.097656 L 76.460938 132.070312 C 80.464844 129.617188 82.550781 124.949219 81.699219 120.328125 C 80.882812 115.910156 83.402344 111.554688 87.636719 110.054688 L 87.707031 110.027344 C 92.136719 108.457031 95.144531 104.328125 95.277344 99.628906 C 95.402344 95.136719 98.773438 91.398438 103.226562 90.808594 L 103.308594 90.796875 C 107.96875 90.175781 111.773438 86.757812 112.886719 82.191406 C 113.949219 77.820312 118.023438 74.863281 122.507812 75.203125 L 122.582031 75.210938 C 127.277344 75.566406 131.710938 73.011719 133.753906 68.773438 C 135.710938 64.714844 140.3125 62.667969 144.636719 63.933594 L 144.691406 63.949219 C 149.214844 65.269531 154.085938 63.691406 156.976562 59.964844 C 159.738281 56.398438 164.671875 55.351562 168.644531 57.488281 L 168.664062 57.5 C 172.824219 59.734375 177.925781 59.199219 181.527344 56.148438 C 184.976562 53.234375 190.023438 53.234375 193.472656 56.148438 Z M 193.472656 56.148438 " clip-rule="nonzero"/></clipPath><clipPath id="eb498c4855"><path d="M 67 53 L 308 53 L 308 295 L 67 295 Z M 67 53 " clip-rule="nonzero"/></clipPath><clipPath id="faab071687"><path d="M 193.464844 56.148438 C 197.070312 59.195312 202.171875 59.730469 206.328125 57.5 L 206.351562 57.484375 C 210.324219 55.351562 215.257812 56.398438 218.019531 59.964844 C 220.90625 63.691406 225.777344 65.269531 230.300781 63.949219 L 230.355469 63.933594 C 234.679688 62.667969 239.28125 64.714844 241.234375 68.773438 C 243.28125 73.011719 247.714844 75.566406 252.40625 75.210938 L 252.484375 75.203125 C 256.96875 74.863281 261.039062 77.820312 262.105469 82.1875 C 263.21875 86.757812 267.019531 90.175781 271.683594 90.792969 L 271.761719 90.804688 C 276.21875 91.398438 279.585938 95.132812 279.714844 99.628906 C 279.847656 104.324219 282.855469 108.457031 287.285156 110.027344 L 287.355469 110.050781 C 291.589844 111.550781 294.105469 115.90625 293.292969 120.324219 C 292.441406 124.945312 294.523438 129.613281 298.527344 132.066406 L 298.574219 132.09375 C 302.410156 134.441406 303.964844 139.226562 302.246094 143.378906 C 300.449219 147.722656 301.511719 152.722656 304.925781 155.957031 L 304.941406 155.972656 C 308.207031 159.066406 308.734375 164.074219 306.183594 167.78125 C 303.519531 171.65625 303.519531 176.773438 306.183594 180.648438 C 308.734375 184.355469 308.207031 189.363281 304.941406 192.457031 L 304.925781 192.472656 C 301.511719 195.707031 300.449219 200.707031 302.246094 205.050781 C 303.964844 209.203125 302.410156 213.988281 298.574219 216.335938 L 298.527344 216.363281 C 294.523438 218.816406 292.441406 223.484375 293.292969 228.105469 C 294.105469 232.523438 291.589844 236.878906 287.355469 238.378906 L 287.285156 238.402344 C 282.855469 239.972656 279.847656 244.105469 279.714844 248.804688 C 279.585938 253.296875 276.21875 257.03125 271.761719 257.625 L 271.683594 257.636719 C 267.019531 258.253906 263.21875 261.671875 262.105469 266.242188 C 261.039062 270.613281 256.96875 273.566406 252.484375 273.226562 L 252.40625 273.21875 C 247.714844 272.863281 243.28125 275.417969 241.234375 279.65625 C 239.28125 283.714844 234.675781 285.761719 230.355469 284.5 L 230.300781 284.484375 C 225.777344 283.160156 220.90625 284.738281 218.019531 288.464844 C 215.257812 292.03125 210.324219 293.078125 206.351562 290.945312 L 206.328125 290.933594 C 202.171875 288.699219 197.070312 289.234375 193.464844 292.28125 C 190.019531 295.195312 184.96875 295.195312 181.523438 292.28125 C 177.917969 289.234375 172.816406 288.699219 168.660156 290.933594 L 168.636719 290.945312 C 164.664062 293.078125 159.734375 292.03125 156.96875 288.464844 C 154.082031 284.738281 149.210938 283.160156 144.6875 284.484375 L 144.632812 284.5 C 140.3125 285.761719 135.707031 283.714844 133.753906 279.65625 C 131.707031 275.417969 127.273438 272.863281 122.582031 273.21875 L 122.503906 273.226562 C 118.019531 273.566406 113.949219 270.613281 112.882812 266.242188 C 111.769531 261.671875 107.96875 258.253906 103.304688 257.636719 L 103.226562 257.625 C 98.769531 257.03125 95.402344 253.296875 95.273438 248.804688 C 95.140625 244.105469 92.132812 239.972656 87.703125 238.402344 L 87.632812 238.378906 C 83.398438 236.878906 80.882812 232.523438 81.695312 228.105469 C 82.546875 223.484375 80.464844 218.816406 76.460938 216.363281 L 76.414062 216.335938 C 72.578125 213.988281 71.023438 209.203125 72.742188 205.050781 C 74.539062 200.707031 73.476562 195.707031 70.066406 192.472656 L 70.046875 192.457031 C 66.78125 189.363281 66.253906 184.355469 68.804688 180.648438 C 71.46875 176.773438 71.46875 171.65625 68.804688 167.78125 C 66.253906 164.074219 66.78125 159.066406 70.046875 155.972656 L 70.066406 155.957031 C 73.476562 152.722656 74.539062 147.722656 72.742188 143.378906 C 71.023438 139.226562 72.578125 134.441406 76.414062 132.09375 L 76.460938 132.066406 C 80.464844 129.613281 82.546875 124.945312 81.695312 120.324219 C 80.882812 115.90625 83.398438 111.550781 87.632812 110.050781 L 87.703125 110.027344 C 92.132812 108.457031 95.140625 104.324219 95.273438 99.628906 C 95.402344 95.132812 98.769531 91.398438 103.226562 90.804688 L 103.304688 90.792969 C 107.96875 90.175781 111.769531 86.757812 112.882812 82.1875 C 113.949219 77.820312 118.019531 74.863281 122.507812 75.203125 L 122.582031 75.210938 C 127.273438 75.566406 131.707031 73.011719 133.753906 68.773438 C 135.707031 64.714844 140.3125 62.667969 144.632812 63.933594 L 144.6875 63.949219 C 149.210938 65.269531 154.082031 63.691406 156.96875 59.964844 C 159.734375 56.398438 164.664062 55.351562 168.636719 57.484375 L 168.660156 57.5 C 172.816406 59.730469 177.917969 59.195312 181.523438 56.148438 C 184.96875 53.234375 190.019531 53.234375 193.464844 56.148438 Z M 193.464844 56.148438 " clip-rule="nonzero"/></clipPath><clipPath id="15a4e5deee"><path d="M 85.335938 72.058594 L 289.664062 72.058594 L 289.664062 276.382812 L 85.335938 276.382812 Z M 85.335938 72.058594 " clip-rule="nonzero"/></clipPath><clipPath id="0e0288324f"><path d="M 187.5 72.058594 C 131.078125 72.058594 85.335938 117.796875 85.335938 174.222656 C 85.335938 230.644531 131.078125 276.382812 187.5 276.382812 C 243.921875 276.382812 289.664062 230.644531 289.664062 174.222656 C 289.664062 117.796875 243.921875 72.058594 187.5 72.058594 Z M 187.5 72.058594 " clip-rule="nonzero"/></clipPath><clipPath id="fcbee1b0cb"><path d="M 88.808594 75.53125 L 286.058594 75.53125 L 286.058594 272.78125 L 88.808594 272.78125 Z M 88.808594 75.53125 " clip-rule="nonzero"/></clipPath><clipPath id="1540d68e86"><path d="M 187.5 75.53125 C 132.992188 75.53125 88.808594 119.714844 88.808594 174.21875 C 88.808594 228.722656 132.992188 272.910156 187.5 272.910156 C 242.003906 272.910156 286.1875 228.722656 286.1875 174.21875 C 286.1875 119.714844 242.003906 75.53125 187.5 75.53125 Z M 187.5 75.53125 " clip-rule="nonzero"/></clipPath><clipPath id="467069f844"><path d="M 178 145 L 244 145 L 244 210.804688 L 178 210.804688 Z M 178 145 " clip-rule="nonzero"/></clipPath><clipPath id="d0e6cd209e"><path d="M 131 145 L 197 145 L 197 210.804688 L 131 210.804688 Z M 131 145 " clip-rule="nonzero"/></clipPath><clipPath id="9115130dcb"><path d="M 176.148438 125.90625 L 197.375 125.90625 L 197.375 147.132812 L 176.148438 147.132812 Z M 176.148438 125.90625 " clip-rule="nonzero"/></clipPath><clipPath id="c312690f11"><path d="M 186.761719 125.90625 C 180.902344 125.90625 176.148438 130.65625 176.148438 136.519531 C 176.148438 142.382812 180.902344 147.132812 186.761719 147.132812 C 192.625 147.132812 197.375 142.382812 197.375 136.519531 C 197.375 130.65625 192.625 125.90625 186.761719 125.90625 Z M 186.761719 125.90625 " clip-rule="nonzero"/></clipPath><clipPath id="1baf584bcb"><path d="M 176.148438 125.90625 L 197.117188 125.90625 L 197.117188 146.875 L 176.148438 146.875 Z M 176.148438 125.90625 " clip-rule="nonzero"/></clipPath><clipPath id="f168a2227f"><path d="M 186.757812 125.90625 C 180.898438 125.90625 176.148438 130.65625 176.148438 136.515625 C 176.148438 142.378906 180.898438 147.128906 186.757812 147.128906 C 192.621094 147.128906 197.371094 142.378906 197.371094 136.515625 C 197.371094 130.65625 192.621094 125.90625 186.757812 125.90625 Z M 186.757812 125.90625 " clip-rule="nonzero"/></clipPath></defs><rect x="-37.5" width="450" fill="#ffffff" y="-37.499999" height="449.999989" fill-opacity="1"/><rect x="-37.5" width="450" fill="#ffffff" y="-37.499999" height="449.999989" fill-opacity="1"/><g clip-path="url(#452bc150cf)"><g clip-path="url(#7c70dbef89)"><path stroke-linecap="butt" transform="matrix(0.75, 0, 0, 0.75, 52.221308, 38.999997)" fill="none" stroke-linejoin="miter" d="M 180.366392 0.00000341467 C 80.751803 0.00000341467 0.00179731 80.755217 0.00179731 180.364599 C 0.00179731 279.979188 80.751803 360.734402 180.366392 360.734402 C 279.980982 360.734402 360.736196 279.979188 360.736196 180.364599 C 360.736196 80.755217 279.980982 0.00000341467 180.366392 0.00000341467 Z M 180.366392 0.00000341467 " stroke="#ffffff" stroke-width="4" stroke-opacity="1" stroke-miterlimit="4"/></g></g><g clip-path="url(#15135c2be9)"><g clip-path="url(#341aea6065)"><path fill="#5e97a9" d="M 64.378906 51.097656 L 310.621094 51.097656 L 310.621094 297.34375 L 64.378906 297.34375 Z M 64.378906 51.097656 " fill-opacity="1" fill-rule="nonzero"/></g></g><g clip-path="url(#eb498c4855)"><g clip-path="url(#faab071687)"><path stroke-linecap="butt" transform="matrix(0.75, 0, 0, 0.75, 64.377041, 51.097914)" fill="none" stroke-linejoin="miter" d="M 172.117082 6.734031 C 176.924374 10.796532 183.726457 11.510073 189.268124 8.536115 L 189.299374 8.515282 C 194.59625 5.671531 201.174375 7.067365 204.856667 11.822573 C 208.705626 16.791324 215.200418 18.895491 221.231668 17.135074 L 221.304585 17.11424 C 227.07021 15.42674 233.205627 18.155907 235.809794 23.567366 C 238.538961 29.218408 244.45042 32.624658 250.705628 32.1507 L 250.809795 32.140283 C 256.788962 31.687158 262.216046 35.629867 263.637921 41.452784 C 265.122296 47.546534 270.190005 52.103826 276.408755 52.926743 L 276.512922 52.942368 C 282.45563 53.734035 286.945214 58.713202 287.117089 64.707994 C 287.294172 70.968411 291.304589 76.478828 297.21084 78.572578 L 297.30459 78.603828 C 302.950423 80.603828 306.30459 86.41112 305.221257 92.301745 C 304.08584 98.463204 306.861882 104.687163 312.200424 107.957996 L 312.262924 107.994455 C 317.377508 111.124663 319.450425 117.504872 317.158758 123.041331 C 314.762924 128.832998 316.179591 135.499665 320.731675 139.812165 L 320.752508 139.832999 C 325.106675 143.957999 325.8098 150.635083 322.408758 155.577791 C 318.856675 160.744458 318.856675 167.567375 322.408758 172.734042 C 325.8098 177.676751 325.106675 184.353835 320.752508 188.478835 L 320.731675 188.499668 C 316.179591 192.812169 314.762924 199.478836 317.158758 205.270503 C 319.450425 210.806962 317.377508 217.18717 312.262924 220.317379 L 312.200424 220.353837 C 306.861882 223.624671 304.08584 229.848629 305.221257 236.010088 C 306.30459 241.900714 302.950423 247.708006 297.30459 249.708006 L 297.21084 249.739256 C 291.304589 251.833006 287.294172 257.343423 287.117089 263.609048 C 286.945214 269.598632 282.45563 274.577799 276.512922 275.369466 L 276.408755 275.385091 C 270.190005 276.208007 265.122296 280.765299 263.637921 286.85905 C 262.216046 292.687175 256.788962 296.624675 250.809795 296.17155 L 250.705628 296.161134 C 244.45042 295.687175 238.538961 299.093426 235.809794 304.744468 C 233.205627 310.155926 227.07021 312.885093 221.304585 311.202801 L 221.231668 311.181968 C 215.200418 309.416343 208.705626 311.52051 204.856667 316.48926 C 201.174375 321.244469 194.59625 322.640302 189.299374 319.796552 L 189.268124 319.780927 C 183.726457 316.80176 176.924374 317.515302 172.117082 321.577802 C 167.523331 325.463219 160.788956 325.463219 156.195205 321.577802 C 151.387914 317.515302 144.58583 316.80176 139.044163 319.780927 L 139.012913 319.796552 C 133.716037 322.640302 127.14312 321.244469 123.45562 316.48926 C 119.606661 311.52051 113.111869 309.416343 107.080619 311.181968 L 107.007702 311.202801 C 101.247285 312.885093 95.10666 310.155926 92.502493 304.744468 C 89.773326 299.093426 83.861867 295.687175 77.606659 296.161134 L 77.502492 296.17155 C 71.523325 296.624675 66.096241 292.687175 64.674366 286.85905 C 63.189991 280.765299 58.122282 276.208007 51.903532 275.385091 L 51.799365 275.369466 C 45.856657 274.577799 41.367073 269.598632 41.195198 263.609048 C 41.018115 257.343423 37.007698 251.833006 31.101447 249.739256 L 31.007697 249.708006 C 25.361864 247.708006 22.007697 241.900714 23.09103 236.010088 C 24.226447 229.848629 21.450405 223.624671 16.111863 220.353837 L 16.049363 220.317379 C 10.934779 217.18717 8.861862 210.806962 11.153529 205.270503 C 13.549363 199.478836 12.132696 192.812169 7.585821 188.499668 L 7.559779 188.478835 C 3.205612 184.353835 2.502487 177.676751 5.903529 172.734042 C 9.455613 167.567375 9.455613 160.744458 5.903529 155.577791 C 2.502487 150.635083 3.205612 143.957999 7.559779 139.832999 L 7.585821 139.812165 C 12.132696 135.499665 13.549363 128.832998 11.153529 123.041331 C 8.861862 117.504872 10.934779 111.124663 16.049363 107.994455 L 16.111863 107.957996 C 21.450405 104.687163 24.226447 98.463204 23.09103 92.301745 C 22.007697 86.41112 25.361864 80.603828 31.007697 78.603828 L 31.101447 78.572578 C 37.007698 76.478828 41.018115 70.968411 41.195198 64.707994 C 41.367073 58.713202 45.856657 53.734035 51.799365 52.942368 L 51.903532 52.926743 C 58.122282 52.103826 63.189991 47.546534 64.674366 41.452784 C 66.096241 35.629867 71.523325 31.687158 77.5077 32.140283 L 77.606659 32.1507 C 83.861867 32.624658 89.773326 29.218408 92.502493 23.567366 C 95.10666 18.155907 101.247285 15.42674 107.007702 17.11424 L 107.080619 17.135074 C 113.111869 18.895491 119.606661 16.791324 123.45562 11.822573 C 127.14312 7.067365 133.716037 5.671531 139.012913 8.515282 L 139.044163 8.536115 C 144.58583 11.510073 151.387914 10.796532 156.195205 6.734031 C 160.788956 2.848615 167.523331 2.848615 172.117082 6.734031 Z M 172.117082 6.734031 " stroke="#ffffff" stroke-width="4" stroke-opacity="1" stroke-miterlimit="4"/></g></g><g clip-path="url(#15a4e5deee)"><g clip-path="url(#0e0288324f)"><path fill="#ffffff" d="M 85.335938 72.058594 L 289.664062 72.058594 L 289.664062 276.382812 L 85.335938 276.382812 Z M 85.335938 72.058594 " fill-opacity="1" fill-rule="nonzero"/></g></g><g clip-path="url(#fcbee1b0cb)"><g clip-path="url(#1540d68e86)"><path stroke-linecap="butt" transform="matrix(0.75, 0, 0, 0.75, 88.808802, 75.529661)" fill="none" stroke-linejoin="miter" d="M 131.588273 0.00211915 C 58.911185 0.00211915 -0.000277491 58.913581 -0.000277491 131.585461 C -0.000277491 204.257341 58.911185 263.174011 131.588273 263.174011 C 204.260153 263.174011 263.171615 204.257341 263.171615 131.585461 C 263.171615 58.913581 204.260153 0.00211915 131.588273 0.00211915 Z M 131.588273 0.00211915 " stroke="#1d1e22" stroke-width="6" stroke-opacity="1" stroke-miterlimit="4"/></g></g><path stroke-linecap="butt" transform="matrix(0.57089, -0.362757, 0.362757, 0.57089, 129.463136, 99.41929)" fill="none" stroke-linejoin="miter" d="M 2.722721 35.002298 C 2.77173 32.782294 2.799921 30.562747 2.81349 28.333908 C 2.827058 26.105069 2.835346 23.927613 2.830381 21.803318 C 2.831926 17.493596 2.797525 13.078924 2.723621 8.543357 L 13.417753 8.544175 C 16.546617 8.541195 18.94382 9.291246 20.617333 10.792549 C 22.293943 12.288977 23.13384 14.423787 23.137025 17.196977 C 23.135486 20.192965 22.264391 22.403775 20.520642 23.834281 C 18.791059 25.253261 16.230507 25.966322 12.858028 25.965035 L 6.8036 25.963328 C 6.803794 27.578255 6.80795 29.154644 6.819163 30.687622 C 6.832153 32.228571 6.85083 33.663656 6.876972 35.000847 Z M 6.724056 22.265791 L 13.456168 22.267045 C 14.970106 22.26426 16.202145 21.972873 17.157162 21.39598 C 18.115276 20.814213 18.596013 19.723838 18.594955 18.142574 C 18.59481 16.602945 18.156481 15.537546 17.275094 14.943279 C 16.395483 14.356984 15.283527 14.060964 13.944102 14.058316 L 6.73141 14.059599 Z M 6.724056 22.265791 " stroke="#1e337d" stroke-width="2.835098" stroke-opacity="1" stroke-miterlimit="4"/><path stroke-linecap="butt" transform="matrix(0.638468, -0.223309, 0.223309, 0.638468, 148.136757, 88.305441)" fill="none" stroke-linejoin="miter" d="M 19.463181 34.998721 L 17.544773 28.833632 L 6.580579 28.834906 L 4.650657 35.000007 L 0.268959 35.003132 C 1.749315 30.71814 3.210578 26.365288 4.641845 21.940764 C 6.078564 17.518146 7.530536 13.051918 8.997762 8.54208 L 15.152908 8.541298 C 16.617171 13.048596 18.063711 17.519105 19.501793 21.943829 C 20.941781 26.363101 22.391839 30.718595 23.855782 34.999409 Z M 8.352276 23.244635 L 15.762216 23.242219 L 13.004075 14.44017 L 11.113706 14.43976 Z M 8.352276 23.244635 " stroke="#1e337d" stroke-width="2.835098" stroke-opacity="1" stroke-miterlimit="4"/><path stroke-linecap="butt" transform="matrix(0.673071, -0.0669593, 0.0669593, 0.673071, 169.183558, 81.606381)" fill="none" stroke-linejoin="miter" d="M 2.722377 34.998356 C 2.747755 32.934791 2.771358 30.772388 2.79779 28.523211 C 2.819619 26.26197 2.833414 24.023144 2.834001 21.800414 C 2.831759 19.664458 2.828885 17.41817 2.812172 15.077647 C 2.801777 12.73195 2.769057 10.552336 2.719756 8.539378 L 11.59918 8.54058 C 14.170144 8.540989 16.410322 8.949565 18.307647 9.770912 C 20.217038 10.587655 21.693432 11.9649 22.737402 13.896899 C 23.782516 15.817404 24.309093 18.458205 24.307356 21.800919 C 24.310133 24.981581 23.822996 27.54475 22.852835 29.479503 C 21.876355 31.419431 20.453679 32.827466 18.57963 33.697289 C 16.699835 34.566541 14.387682 34.998133 11.648347 34.998386 Z M 6.798789 29.141781 L 12.063115 29.137363 C 13.647413 29.138277 15.052901 28.953096 16.268658 28.574932 C 17.495908 28.197911 18.443705 27.479694 19.121829 26.438664 C 19.806271 25.392459 20.145671 23.847638 20.145775 21.804773 C 20.144706 19.715362 19.784175 18.147339 19.065327 17.08921 C 18.352797 16.025905 17.373808 15.307525 16.12147 14.94499 C 14.874878 14.583026 13.453687 14.401016 11.869389 14.400103 L 6.802739 14.400971 Z M 6.798789 29.141781 " stroke="#1e337d" stroke-width="2.835098" stroke-opacity="1" stroke-miterlimit="4"/><path stroke-linecap="butt" transform="matrix(0.669354, 0.0973339, -0.0973339, 0.669354, 192.307696, 80.022232)" fill="none" stroke-linejoin="miter" d="M 2.721576 35.000501 C 2.747426 32.93085 2.77224 30.773811 2.795187 28.52367 C 2.822188 26.261268 2.835367 24.024219 2.833064 21.801094 C 2.830965 19.65964 2.826169 17.41937 2.812128 15.075398 C 2.803803 12.730595 2.773027 10.55246 2.7198 8.540995 L 11.601704 8.539158 C 14.170325 8.544973 16.405904 8.949369 18.310933 9.76949 C 20.215963 10.589611 21.693594 11.962094 22.738944 13.893485 C 23.783463 15.81916 24.30706 18.456694 24.308904 21.800371 C 24.31117 24.986418 23.819375 27.544006 22.852325 29.482073 C 21.879561 31.42097 20.455438 32.824409 18.575073 33.698935 C 16.699592 34.566915 14.393427 35.001475 11.644316 34.998562 Z M 6.800323 29.137614 L 12.058412 29.137507 C 13.646136 29.140063 15.054521 28.95277 16.272137 28.577292 C 17.494637 28.195267 18.44678 27.479062 19.123682 26.435222 C 19.806298 25.390551 20.147906 23.846897 20.148505 21.804261 C 20.148171 19.715074 19.785695 18.145416 19.065961 17.088741 C 18.35111 16.025519 17.371695 15.31007 16.122831 14.948939 C 14.873136 14.582093 13.458115 14.402692 11.870391 14.400136 L 6.799337 14.402225 Z M 6.800323 29.137614 " stroke="#1e337d" stroke-width="2.835098" stroke-opacity="1" stroke-miterlimit="4"/><path stroke-linecap="butt" transform="matrix(0.631908, 0.241247, -0.241247, 0.631908, 214.733222, 84.098322)" fill="none" stroke-linejoin="miter" d="M 2.724527 34.99795 C 2.768524 33.639729 2.801637 32.155849 2.816411 30.542973 C 2.82579 28.932157 2.842132 27.355773 2.854647 25.81794 C 2.867162 24.280107 2.868781 22.95661 2.872353 21.848727 C 2.868178 20.688166 2.864109 19.317387 2.849356 17.740511 C 2.842057 16.166971 2.827795 14.558999 2.816084 12.925326 C 2.802314 11.286258 2.770683 9.827095 2.724528 8.540383 L 6.874138 8.544853 C 6.850939 9.876588 6.826065 11.38205 6.801576 13.066633 C 6.778364 14.738365 6.757012 16.49593 6.748311 18.335209 C 6.732156 20.171153 6.727575 22.021222 6.728389 23.869232 C 6.725868 25.724697 6.726881 27.492269 6.728094 29.179403 L 19.695258 29.174195 L 19.693276 34.998089 Z M 2.724527 34.99795 " stroke="#1e337d" stroke-width="2.835098" stroke-opacity="1" stroke-miterlimit="4"/><path stroke-linecap="butt" transform="matrix(0.568844, 0.365957, -0.365957, 0.568844, 232.218988, 91.270585)" fill="none" stroke-linejoin="miter" d="M 2.724185 34.997761 C 2.771958 33.641696 2.802684 32.152392 2.817754 30.542686 C 2.824843 28.931247 2.840965 27.355199 2.853283 25.815934 C 2.860745 24.279793 2.867931 22.956706 2.869986 21.849798 C 2.871328 20.688411 2.863231 19.32022 2.850553 17.7421 C 2.840999 16.168837 2.830393 14.561915 2.813877 12.924461 C 2.805343 11.288738 2.771537 9.827215 2.720442 8.541623 L 20.793575 8.540368 L 20.792434 14.398652 L 6.73054 14.401326 L 6.728151 19.649251 L 19.083882 19.652358 L 19.085765 23.167051 L 6.728302 23.171924 L 6.728585 29.139164 L 21.206873 29.143289 L 21.205731 35.001573 Z M 2.724185 34.997761 " stroke="#1e337d" stroke-width="2.835098" stroke-opacity="1" stroke-miterlimit="4"/><g fill="#1d1e22" fill-opacity="1"><g transform="translate(142.159636, 119.400437)"><g><path d="M 1.5625 -0.984375 C 0.78125 -2.273438 -0.0078125 -3.554688 -0.8125 -4.828125 C -1.613281 -6.109375 -2.394531 -7.351562 -3.15625 -8.5625 C -4.71875 -11.019531 -6.34375 -13.523438 -8.03125 -16.078125 L -1.9375 -19.96875 C -0.144531 -21.09375 1.492188 -21.535156 2.984375 -21.296875 C 4.484375 -21.054688 5.738281 -20.144531 6.75 -18.5625 C 7.832031 -16.84375 8.132812 -15.257812 7.65625 -13.8125 C 7.175781 -12.375 5.972656 -11.039062 4.046875 -9.8125 L 0.59375 -7.625 C 1.1875 -6.695312 1.765625 -5.796875 2.328125 -4.921875 C 2.890625 -4.054688 3.425781 -3.25 3.9375 -2.5 Z M -0.78125 -9.703125 L 3.046875 -12.140625 C 3.921875 -12.691406 4.523438 -13.304688 4.859375 -13.984375 C 5.191406 -14.671875 5.070312 -15.46875 4.5 -16.375 C 3.9375 -17.25 3.296875 -17.691406 2.578125 -17.703125 C 1.859375 -17.722656 1.125 -17.492188 0.375 -17.015625 L -3.75 -14.390625 Z M -0.78125 -9.703125 "/></g></g></g><g fill="#1d1e22" fill-opacity="1"><g transform="translate(155.952579, 110.651811)"><g><path d="M 12.4375 -4.34375 L 9.8125 -7.859375 L 2.828125 -5.40625 L 2.96875 -1.03125 L 0.15625 -0.0625 C 0.15625 -3.125 0.117188 -6.222656 0.046875 -9.359375 C -0.015625 -12.503906 -0.0859375 -15.679688 -0.171875 -18.890625 L 3.765625 -20.28125 C 5.710938 -17.71875 7.632812 -15.179688 9.53125 -12.671875 C 11.425781 -10.171875 13.320312 -7.722656 15.21875 -5.328125 Z M 2.71875 -9.375 L 7.4375 -11.015625 L 3.703125 -16.03125 L 2.5 -15.609375 Z M 2.71875 -9.375 "/></g></g></g><g fill="#1d1e22" fill-opacity="1"><g transform="translate(171.527132, 105.163864)"><g><path d="M 1.828125 -0.1875 C 1.703125 -1.570312 1.570312 -3.023438 1.4375 -4.546875 C 1.3125 -6.066406 1.171875 -7.570312 1.015625 -9.0625 C 0.878906 -10.507812 0.726562 -12.019531 0.5625 -13.59375 C 0.394531 -15.164062 0.226562 -16.628906 0.0625 -17.984375 L 6.046875 -18.578125 C 7.773438 -18.742188 9.300781 -18.617188 10.625 -18.203125 C 11.957031 -17.785156 13.039062 -16.960938 13.875 -15.734375 C 14.71875 -14.503906 15.25 -12.757812 15.46875 -10.5 C 15.6875 -8.363281 15.53125 -6.609375 15 -5.234375 C 14.476562 -3.867188 13.613281 -2.832031 12.40625 -2.125 C 11.207031 -1.414062 9.6875 -0.96875 7.84375 -0.78125 Z M 4.1875 -4.40625 L 7.71875 -4.765625 C 8.789062 -4.867188 9.722656 -5.085938 10.515625 -5.421875 C 11.316406 -5.765625 11.910156 -6.304688 12.296875 -7.046875 C 12.691406 -7.785156 12.816406 -8.84375 12.671875 -10.21875 C 12.535156 -11.632812 12.1875 -12.671875 11.625 -13.328125 C 11.070312 -13.992188 10.363281 -14.410156 9.5 -14.578125 C 8.644531 -14.742188 7.679688 -14.773438 6.609375 -14.671875 L 3.203125 -14.328125 Z M 4.1875 -4.40625 "/></g></g></g><g fill="#1d1e22" fill-opacity="1"><g transform="translate(188.901008, 103.449607)"><g><path d="M 1.828125 0.265625 C 2.035156 -1.117188 2.257812 -2.5625 2.5 -4.0625 C 2.738281 -5.570312 2.96875 -7.066406 3.1875 -8.546875 C 3.394531 -9.984375 3.609375 -11.484375 3.828125 -13.046875 C 4.046875 -14.617188 4.238281 -16.082031 4.40625 -17.4375 L 10.34375 -16.578125 C 12.0625 -16.328125 13.515625 -15.832031 14.703125 -15.09375 C 15.898438 -14.363281 16.753906 -13.304688 17.265625 -11.921875 C 17.785156 -10.535156 17.878906 -8.71875 17.546875 -6.46875 C 17.242188 -4.34375 16.671875 -2.675781 15.828125 -1.46875 C 14.984375 -0.269531 13.890625 0.523438 12.546875 0.921875 C 11.210938 1.328125 9.628906 1.398438 7.796875 1.140625 Z M 5.125 -3.265625 L 8.65625 -2.75 C 9.707031 -2.59375 10.660156 -2.582031 11.515625 -2.71875 C 12.378906 -2.851562 13.085938 -3.234375 13.640625 -3.859375 C 14.191406 -4.492188 14.566406 -5.5 14.765625 -6.875 C 14.972656 -8.28125 14.882812 -9.367188 14.5 -10.140625 C 14.125 -10.910156 13.535156 -11.476562 12.734375 -11.84375 C 11.941406 -12.21875 11.015625 -12.484375 9.953125 -12.640625 L 6.546875 -13.140625 Z M 5.125 -3.265625 "/></g></g></g><g fill="#1d1e22" fill-opacity="1"><g transform="translate(206.289574, 106.215105)"><g><path d="M 1.71875 0.65625 C 2.070312 -0.1875 2.445312 -1.113281 2.84375 -2.125 C 3.25 -3.144531 3.640625 -4.140625 4.015625 -5.109375 C 4.390625 -6.078125 4.710938 -6.914062 4.984375 -7.625 C 5.265625 -8.363281 5.59375 -9.226562 5.96875 -10.21875 C 6.34375 -11.207031 6.722656 -12.222656 7.109375 -13.265625 C 7.492188 -14.304688 7.820312 -15.238281 8.09375 -16.0625 L 10.71875 -15.0625 C 10.382812 -14.207031 10.007812 -13.253906 9.59375 -12.203125 C 9.175781 -11.160156 8.738281 -10.054688 8.28125 -8.890625 C 7.832031 -7.734375 7.382812 -6.570312 6.9375 -5.40625 C 6.488281 -4.238281 6.0625 -3.117188 5.65625 -2.046875 L 13.84375 1.078125 L 12.4375 4.75 Z M 1.71875 0.65625 "/></g></g></g><g fill="#1d1e22" fill-opacity="1"><g transform="translate(219.410483, 111.180119)"><g><path d="M 1.546875 1 C 2.078125 0.238281 2.640625 -0.59375 3.234375 -1.5 C 3.828125 -2.414062 4.40625 -3.304688 4.96875 -4.171875 C 5.539062 -5.046875 6.03125 -5.800781 6.4375 -6.4375 C 6.863281 -7.09375 7.359375 -7.867188 7.921875 -8.765625 C 8.492188 -9.660156 9.078125 -10.578125 9.671875 -11.515625 C 10.273438 -12.460938 10.789062 -13.304688 11.21875 -14.046875 L 21.5 -7.4375 L 19.375 -4.109375 L 11.375 -9.265625 L 9.4375 -6.265625 L 16.46875 -1.734375 L 15.1875 0.25 L 8.15625 -4.28125 L 5.96875 -0.890625 L 14.203125 4.421875 L 12.0625 7.765625 Z M 1.546875 1 "/></g></g></g><path stroke-linecap="butt" transform="matrix(0.633554, 0.23689, -0.23689, 0.633554, 159.11998, 238.362157)" fill="none" stroke-linejoin="miter" d="M 1.951191 25.001312 C 1.987184 23.415623 2.008312 21.823161 2.016599 20.229334 C 2.022863 18.630098 2.030444 17.067363 2.030546 15.550585 C 2.028775 12.462275 2.004097 9.296212 1.951102 6.054418 L 9.607999 6.052294 C 11.846666 6.053763 13.563682 6.589391 14.761069 7.664586 C 15.969275 8.735736 16.565329 10.263901 16.569505 12.253832 C 16.570152 14.399223 15.947458 15.982322 14.696014 17.005151 C 13.455388 18.023935 11.622466 18.530475 9.20468 18.528158 L 4.869964 18.527383 C 4.871557 19.685922 4.873856 20.81337 4.884293 21.913112 C 4.894729 23.012854 4.904555 24.045003 4.922565 25.000105 Z M 4.816402 15.877699 L 9.639134 15.88097 C 10.717239 15.878624 11.601549 15.671286 12.286656 15.26098 C 12.973127 14.837832 13.317918 14.061523 13.319006 12.926643 C 13.319388 11.822856 13.00311 11.059431 12.372195 10.64178 C 11.744667 10.216697 10.943897 10.004364 9.988137 10.004124 L 4.81662 10.007954 Z M 4.816402 15.877699 " stroke="#1e337d" stroke-width="2.03085" stroke-opacity="1" stroke-miterlimit="4"/><path stroke-linecap="butt" transform="matrix(0.664427, 0.12667, -0.12667, 0.664427, 168.974773, 242.183655)" fill="none" stroke-linejoin="miter" d="M 9.309833 25.35133 C 6.588087 25.352856 4.520506 24.530051 3.096825 22.890753 C 1.678817 21.250373 0.969541 18.763502 0.971159 15.441485 C 0.969818 12.196462 1.681531 9.762037 3.100626 8.139293 C 4.519721 6.516549 6.587305 5.704955 9.314724 5.702348 C 12.019451 5.704067 14.090542 6.514444 15.523405 8.140233 C 16.96086 9.759268 17.678503 12.197511 17.679844 15.442535 C 17.678226 18.764551 16.963819 21.246522 15.537705 22.894121 C 14.1151 24.529293 12.037252 25.348723 9.309833 25.35133 Z M 9.310758 21.100543 C 11.079961 21.098363 12.42253 20.677792 13.343058 19.832077 C 14.262504 18.980688 14.724218 17.516948 14.722528 15.441938 C 14.725184 13.513077 14.265434 12.119186 13.342195 11.254592 C 12.423548 10.383243 11.077327 9.952036 9.313798 9.953135 C 7.561614 9.952071 6.221208 10.383987 5.293661 11.254557 C 4.365032 12.119454 3.901685 13.512956 3.899028 15.441817 C 3.900719 17.516827 4.362102 18.980957 5.294523 19.832042 C 6.225863 20.677455 7.564248 21.098397 9.310758 21.100543 Z M 9.310758 21.100543 " stroke="#1e337d" stroke-width="2.03085" stroke-opacity="1" stroke-miterlimit="4"/><path stroke-linecap="butt" transform="matrix(0.676372, -0.00535632, 0.00535632, 0.676372, 180.088879, 244.578308)" fill="none" stroke-linejoin="miter" d="M 3.875008 25.002797 C 3.310981 21.839244 2.741133 18.681419 2.153914 15.529233 C 1.566741 12.371271 0.985343 9.213355 0.403991 6.049664 L 3.464889 6.050803 C 3.844335 8.456331 4.241151 10.856221 4.655292 13.256249 C 5.069478 15.650501 5.495169 18.050621 5.926635 20.450785 L 7.012368 20.453608 C 7.499209 18.049165 7.962903 15.650314 8.415002 13.257146 C 8.867193 10.852429 9.302013 8.453349 9.713734 6.054086 L 13.404145 6.054435 C 13.818286 8.454462 14.249752 10.854627 14.698542 13.254929 C 15.153108 15.655277 15.619269 18.049941 16.108484 20.450563 L 17.217317 20.453569 C 17.629037 18.054306 18.046533 15.655089 18.469803 13.255918 C 18.898848 10.856792 19.293289 8.451617 19.653035 6.051943 L 22.713933 6.053082 C 22.134478 9.213355 21.549294 12.367808 20.964064 15.528036 C 20.378879 18.682489 19.810974 21.842854 19.271989 24.997673 L 14.235926 24.998218 C 13.838973 22.615652 13.41892 20.232904 12.981496 17.855793 C 12.538343 15.472862 12.083732 13.078289 11.611842 10.677804 L 11.507893 10.676981 C 11.049927 13.081653 10.603649 15.469091 10.163237 17.845025 C 9.72287 20.215185 9.293962 22.596986 8.876421 25.001978 Z M 3.875008 25.002797 " stroke="#1e337d" stroke-width="2.03085" stroke-opacity="1" stroke-miterlimit="4"/><path stroke-linecap="butt" transform="matrix(0.663827, -0.129778, 0.129778, 0.663827, 194.570821, 244.350658)" fill="none" stroke-linejoin="miter" d="M 1.950015 24.997214 C 1.986589 24.027547 2.006885 22.960546 2.014354 21.808655 C 2.022932 20.651097 2.031637 19.522986 2.04047 18.424322 C 2.05041 17.31999 2.053105 16.373121 2.054221 15.584824 C 2.052866 14.748968 2.049765 13.771544 2.041467 12.640109 C 2.032061 11.514342 2.021419 10.364795 2.015209 9.192577 C 2.008999 8.020358 1.98408 6.97394 1.951787 6.055538 L 14.891785 6.05499 L 14.889568 10.250165 L 4.816172 10.246225 L 4.816602 14.006468 L 13.666769 14.006645 L 13.668618 16.525548 L 4.818451 16.525371 L 4.817725 20.80322 L 15.185592 20.805884 L 15.189043 25.002166 Z M 1.950015 24.997214 " stroke="#1e337d" stroke-width="2.03085" stroke-opacity="1" stroke-miterlimit="4"/><path stroke-linecap="butt" transform="matrix(0.634318, -0.234837, 0.234837, 0.634318, 204.417632, 242.54474)" fill="none" stroke-linejoin="miter" d="M 1.946902 24.999714 C 1.968063 24.243933 1.982587 23.356373 1.990474 22.337034 C 2.000367 21.312279 2.005236 20.217925 2.014507 19.045144 C 2.023778 17.872363 2.027633 16.697576 2.031488 15.52279 C 2.027442 13.753893 2.021205 12.107348 2.016788 10.572325 C 2.004951 9.040713 1.985093 7.530764 1.947789 6.051305 L 9.903518 6.053054 C 12.127326 6.051153 13.831507 6.571226 15.02348 7.609861 C 16.215453 8.648496 16.811169 10.149944 16.810628 12.114205 C 16.8094 13.431602 16.558212 14.459397 16.05165 15.195586 C 15.548499 15.939196 14.834313 16.487671 13.9105 16.853849 L 13.910707 16.903192 C 14.744751 17.211971 15.427795 17.778914 15.954422 18.602016 C 16.48847 19.421708 16.751191 20.658236 16.753418 22.315613 C 16.75307 22.715766 16.753529 23.147009 16.752788 23.614757 C 16.756059 24.071673 16.764745 24.530595 16.787673 25.000947 L 13.887916 24.998926 C 13.900893 24.548025 13.91046 24.089703 13.909195 23.627371 C 13.91194 23.154207 13.909062 22.629695 13.913398 22.052431 C 13.911859 21.041919 13.705761 20.251268 13.291091 19.691309 C 12.876422 19.13135 12.337417 18.740897 11.676081 18.514532 C 11.02016 18.290172 10.322134 18.179546 9.584006 18.177238 L 4.816667 18.179678 C 4.833669 19.331395 4.849473 20.519617 4.858661 21.742339 C 4.864439 22.957641 4.881834 24.041763 4.896002 25.001527 Z M 4.764988 15.691112 L 10.044002 15.6872 C 11.016003 15.689879 11.849175 15.468731 12.53068 15.025162 C 13.217601 14.583599 13.558484 13.829179 13.564159 12.765914 C 13.561422 11.791907 13.247419 11.059839 12.621553 10.587962 C 11.999697 10.105254 11.196349 9.863263 10.20409 9.865401 L 4.766218 9.865924 Z M 4.764988 15.691112 " stroke="#1e337d" stroke-width="2.03085" stroke-opacity="1" stroke-miterlimit="4"/><g fill="#1d1e22" fill-opacity="1"><g transform="translate(153.197719, 254.201013)"><g><path d="M 1.234375 0.453125 C 1.628906 -0.535156 2.019531 -1.535156 2.40625 -2.546875 C 2.789062 -3.554688 3.160156 -4.539062 3.515625 -5.5 C 4.242188 -7.445312 4.976562 -9.460938 5.71875 -11.546875 L 10.578125 -9.71875 C 11.984375 -9.195312 12.941406 -8.453125 13.453125 -7.484375 C 13.960938 -6.523438 13.984375 -5.414062 13.515625 -4.15625 C 13.015625 -2.800781 12.25 -1.941406 11.21875 -1.578125 C 10.1875 -1.222656 8.898438 -1.335938 7.359375 -1.921875 L 4.625 -2.9375 C 4.351562 -2.207031 4.085938 -1.492188 3.828125 -0.796875 C 3.578125 -0.0976562 3.34375 0.554688 3.125 1.171875 Z M 5.21875 -4.640625 L 8.265625 -3.5 C 8.953125 -3.238281 9.5625 -3.160156 10.09375 -3.265625 C 10.625 -3.367188 11.023438 -3.78125 11.296875 -4.5 C 11.554688 -5.1875 11.535156 -5.738281 11.234375 -6.15625 C 10.941406 -6.582031 10.488281 -6.910156 9.875 -7.140625 L 6.609375 -8.359375 Z M 5.21875 -4.640625 "/></g></g></g><g fill="#1d1e22" fill-opacity="1"><g transform="translate(165.808021, 258.794321)"><g><path d="M 6.140625 1.40625 C 4.328125 1.0625 3.050781 0.257812 2.3125 -1 C 1.582031 -2.269531 1.429688 -4.015625 1.859375 -6.234375 C 2.265625 -8.390625 3.039062 -9.914062 4.1875 -10.8125 C 5.34375 -11.71875 6.828125 -12 8.640625 -11.65625 C 10.441406 -11.3125 11.710938 -10.507812 12.453125 -9.25 C 13.191406 -7.988281 13.359375 -6.28125 12.953125 -4.125 C 12.523438 -1.90625 11.734375 -0.34375 10.578125 0.5625 C 9.429688 1.476562 7.953125 1.757812 6.140625 1.40625 Z M 6.6875 -1.421875 C 7.863281 -1.191406 8.8125 -1.300781 9.53125 -1.75 C 10.25 -2.195312 10.742188 -3.113281 11.015625 -4.5 C 11.253906 -5.769531 11.117188 -6.75 10.609375 -7.4375 C 10.109375 -8.132812 9.269531 -8.597656 8.09375 -8.828125 C 6.925781 -9.046875 5.976562 -8.921875 5.25 -8.453125 C 4.53125 -7.992188 4.050781 -7.128906 3.8125 -5.859375 C 3.539062 -4.472656 3.660156 -3.441406 4.171875 -2.765625 C 4.679688 -2.085938 5.519531 -1.640625 6.6875 -1.421875 Z M 6.6875 -1.421875 "/></g></g></g><g fill="#1d1e22" fill-opacity="1"><g transform="translate(180.222787, 261.487614)"><g><path d="M 2.625 -0.015625 C 2.21875 -2.148438 1.804688 -4.28125 1.390625 -6.40625 C 0.984375 -8.539062 0.582031 -10.675781 0.1875 -12.8125 L 2.25 -12.828125 C 2.519531 -11.210938 2.800781 -9.59375 3.09375 -7.96875 C 3.382812 -6.351562 3.679688 -4.734375 3.984375 -3.109375 L 4.71875 -3.109375 C 5.03125 -4.742188 5.332031 -6.375 5.625 -8 C 5.925781 -9.625 6.210938 -11.242188 6.484375 -12.859375 L 8.96875 -12.890625 C 9.257812 -11.273438 9.5625 -9.65625 9.875 -8.03125 C 10.195312 -6.40625 10.523438 -4.785156 10.859375 -3.171875 L 11.609375 -3.171875 C 11.878906 -4.796875 12.148438 -6.421875 12.421875 -8.046875 C 12.703125 -9.679688 12.960938 -11.304688 13.203125 -12.921875 L 15.265625 -12.9375 C 14.890625 -10.789062 14.507812 -8.648438 14.125 -6.515625 C 13.75 -4.378906 13.382812 -2.242188 13.03125 -0.109375 L 9.625 -0.078125 C 9.351562 -1.691406 9.054688 -3.300781 8.734375 -4.90625 C 8.421875 -6.507812 8.101562 -8.125 7.78125 -9.75 L 7.703125 -9.75 C 7.410156 -8.125 7.117188 -6.503906 6.828125 -4.890625 C 6.546875 -3.285156 6.269531 -1.671875 6 -0.046875 Z M 2.625 -0.015625 "/></g></g></g><g fill="#1d1e22" fill-opacity="1"><g transform="translate(197.815265, 260.946324)"><g><path d="M 1.28125 -0.25 C 1.1875 -0.90625 1.066406 -1.613281 0.921875 -2.375 C 0.773438 -3.144531 0.632812 -3.894531 0.5 -4.625 C 0.363281 -5.351562 0.242188 -5.984375 0.140625 -6.515625 C 0.0234375 -7.066406 -0.101562 -7.71875 -0.25 -8.46875 C -0.40625 -9.21875 -0.5625 -9.984375 -0.71875 -10.765625 C -0.875 -11.546875 -1.023438 -12.234375 -1.171875 -12.828125 L 7.4375 -14.515625 L 7.96875 -11.734375 L 1.28125 -10.421875 L 1.78125 -7.921875 L 7.65625 -9.078125 L 7.984375 -7.40625 L 2.109375 -6.25 L 2.65625 -3.421875 L 9.53125 -4.765625 L 10.078125 -1.96875 Z M 1.28125 -0.25 "/></g></g></g><g fill="#1d1e22" fill-opacity="1"><g transform="translate(210.288549, 258.402698)"><g><path d="M 1.234375 -0.453125 C 1.078125 -0.941406 0.878906 -1.507812 0.640625 -2.15625 C 0.410156 -2.8125 0.160156 -3.507812 -0.109375 -4.25 C -0.378906 -5 -0.648438 -5.742188 -0.921875 -6.484375 C -1.335938 -7.609375 -1.726562 -8.65625 -2.09375 -9.625 C -2.457031 -10.59375 -2.832031 -11.539062 -3.21875 -12.46875 L 1.828125 -14.34375 C 3.234375 -14.863281 4.4375 -14.9375 5.4375 -14.5625 C 6.445312 -14.1875 7.179688 -13.375 7.640625 -12.125 C 7.953125 -11.289062 8.03125 -10.578125 7.875 -9.984375 C 7.726562 -9.398438 7.40625 -8.882812 6.90625 -8.4375 L 6.921875 -8.390625 C 7.515625 -8.398438 8.078125 -8.207031 8.609375 -7.8125 C 9.140625 -7.414062 9.601562 -6.691406 10 -5.640625 C 10.09375 -5.378906 10.191406 -5.101562 10.296875 -4.8125 C 10.410156 -4.519531 10.53125 -4.226562 10.65625 -3.9375 L 8.8125 -3.265625 C 8.71875 -3.546875 8.613281 -3.832031 8.5 -4.125 C 8.394531 -4.425781 8.273438 -4.765625 8.140625 -5.140625 C 7.898438 -5.773438 7.582031 -6.21875 7.1875 -6.46875 C 6.789062 -6.726562 6.359375 -6.851562 5.890625 -6.84375 C 5.421875 -6.84375 4.953125 -6.753906 4.484375 -6.578125 L 1.46875 -5.46875 C 1.75 -4.726562 2.03125 -3.972656 2.3125 -3.203125 C 2.601562 -2.429688 2.867188 -1.75 3.109375 -1.15625 Z M 0.828125 -7.03125 L 4.1875 -8.265625 C 4.800781 -8.492188 5.269531 -8.828125 5.59375 -9.265625 C 5.925781 -9.710938 5.96875 -10.273438 5.71875 -10.953125 C 5.488281 -11.566406 5.125 -11.953125 4.625 -12.109375 C 4.125 -12.265625 3.5625 -12.222656 2.9375 -11.984375 L -0.53125 -10.71875 Z M 0.828125 -7.03125 "/></g></g></g><path stroke-linecap="butt" transform="matrix(0.75, 0, 0, 0.75, 100.688472, 217.623149)" fill="none" stroke-linejoin="miter" d="M -0.00129638 1.502468 L 231.498719 1.502468 " stroke="#131313" stroke-width="3" stroke-opacity="1" stroke-miterlimit="4"/><path stroke-linecap="butt" transform="matrix(0.75, -0.000000000000000186, 0.000000000000000186, 0.75, 96.843214, 135.486291)" fill="none" stroke-linejoin="miter" d="M 0.000714479 1.497445 L 241.75073 1.497445 " stroke="#000000" stroke-width="3" stroke-opacity="1" stroke-miterlimit="4"/><path fill="#ffffff" d="M 184.886719 209.851562 C 183.726562 209.851562 182.609375 209.402344 181.824219 208.621094 L 180.179688 206.972656 C 179.363281 206.15625 178.910156 205.070312 178.910156 203.910156 C 178.910156 202.753906 179.363281 201.667969 180.179688 200.851562 L 193.179688 187.851562 C 194.214844 186.816406 195.59375 186.246094 197.0625 186.246094 C 198.53125 186.246094 199.910156 186.816406 200.949219 187.851562 C 201.984375 188.886719 202.554688 190.265625 202.554688 191.738281 C 202.554688 193.207031 201.984375 194.585938 200.949219 195.621094 L 187.949219 208.621094 C 187.164062 209.402344 186.046875 209.851562 184.886719 209.851562 Z M 184.886719 209.851562 " fill-opacity="1" fill-rule="nonzero"/><path fill="#ffffff" d="M 199.558594 197.035156 L 200.957031 195.632812 C 202 194.59375 202.570312 193.210938 202.570312 191.738281 C 202.570312 190.261719 202 188.878906 200.957031 187.839844 C 199.921875 186.800781 198.535156 186.230469 197.0625 186.230469 C 195.589844 186.230469 194.207031 186.800781 193.167969 187.839844 L 191.765625 189.246094 L 190.121094 172.796875 L 216.003906 198.679688 Z M 199.558594 197.035156 " fill-opacity="1" fill-rule="nonzero"/><path fill="#1d1e22" d="M 190.113281 172.769531 L 190.125 172.425781 C 190.300781 166.230469 193.789062 158.695312 198.804688 153.679688 C 203.648438 148.835938 210.097656 146.167969 216.964844 146.167969 C 223.832031 146.167969 230.28125 148.835938 235.121094 153.679688 C 245.132812 163.691406 245.132812 179.980469 235.121094 189.996094 C 230.105469 195.011719 222.570312 198.5 216.371094 198.675781 L 216.027344 198.683594 Z M 190.113281 172.769531 " fill-opacity="1" fill-rule="nonzero"/><g clip-path="url(#467069f844)"><path fill="#1d1e22" d="M 198.230469 153.105469 C 192.949219 158.386719 189.363281 166.289062 189.304688 172.769531 L 190.921875 188.960938 L 179.605469 200.273438 C 177.601562 202.28125 177.601562 205.542969 179.605469 207.546875 L 181.25 209.195312 C 182.253906 210.195312 183.570312 210.699219 184.886719 210.699219 C 186.203125 210.699219 187.523438 210.195312 188.523438 209.195312 L 199.839844 197.878906 L 215.941406 199.492188 C 215.972656 199.492188 216 199.496094 216.03125 199.496094 C 222.511719 199.4375 230.414062 195.851562 235.695312 190.570312 C 246.023438 180.238281 246.023438 163.433594 235.695312 153.105469 C 225.363281 142.773438 208.558594 142.777344 198.230469 153.105469 Z M 187.386719 208.054688 C 186.050781 209.390625 183.722656 209.390625 182.390625 208.054688 L 180.742188 206.410156 C 180.078125 205.742188 179.707031 204.855469 179.707031 203.910156 C 179.707031 202.96875 180.078125 202.082031 180.742188 201.414062 L 193.742188 188.414062 C 194.65625 187.5 195.859375 187.042969 197.0625 187.042969 C 198.265625 187.042969 199.46875 187.5 200.382812 188.414062 C 202.214844 190.246094 202.214844 193.226562 200.382812 195.058594 Z M 201.308594 196.40625 L 201.523438 196.195312 C 203.980469 193.738281 203.980469 189.734375 201.523438 187.277344 C 199.0625 184.820312 195.0625 184.820312 192.605469 187.277344 L 192.390625 187.488281 L 191.136719 174.941406 L 213.859375 197.664062 Z M 234.558594 189.429688 C 229.644531 194.34375 222.375 197.707031 216.351562 197.878906 L 190.921875 172.449219 C 191.089844 166.425781 194.457031 159.15625 199.367188 154.242188 C 209.070312 144.542969 224.855469 144.539062 234.558594 154.242188 C 244.257812 163.945312 244.257812 179.730469 234.558594 189.429688 Z M 234.558594 189.429688 " fill-opacity="1" fill-rule="nonzero"/></g><path fill="#ffffff" d="M 190.105469 209.851562 C 191.269531 209.851562 192.382812 209.402344 193.167969 208.621094 L 194.8125 206.972656 C 195.632812 206.15625 196.082031 205.070312 196.082031 203.910156 C 196.082031 202.753906 195.632812 201.667969 194.8125 200.851562 L 181.816406 187.851562 C 180.78125 186.816406 179.398438 186.246094 177.929688 186.246094 C 176.460938 186.246094 175.082031 186.816406 174.046875 187.851562 C 173.011719 188.886719 172.4375 190.265625 172.4375 191.738281 C 172.4375 193.207031 173.011719 194.585938 174.046875 195.621094 L 187.042969 208.621094 C 187.828125 209.402344 188.945312 209.851562 190.105469 209.851562 Z M 190.105469 209.851562 " fill-opacity="1" fill-rule="nonzero"/><path fill="#ffffff" d="M 175.4375 197.035156 L 174.035156 195.632812 C 172.996094 194.59375 172.425781 193.210938 172.425781 191.738281 C 172.425781 190.261719 172.996094 188.878906 174.035156 187.839844 C 175.074219 186.800781 176.457031 186.230469 177.933594 186.230469 C 179.40625 186.230469 180.789062 186.800781 181.828125 187.839844 L 183.226562 189.246094 L 184.875 172.796875 L 158.992188 198.679688 Z M 175.4375 197.035156 " fill-opacity="1" fill-rule="nonzero"/><path fill="#5e97a9" d="M 184.878906 172.769531 L 184.871094 172.425781 C 184.695312 166.230469 181.207031 158.695312 176.1875 153.679688 C 171.347656 148.835938 164.898438 146.167969 158.03125 146.167969 C 151.164062 146.167969 144.714844 148.835938 139.871094 153.679688 C 129.863281 163.691406 129.863281 179.980469 139.871094 189.996094 C 144.890625 195.011719 152.425781 198.5 158.621094 198.675781 L 158.964844 198.683594 Z M 184.878906 172.769531 " fill-opacity="1" fill-rule="nonzero"/><g clip-path="url(#d0e6cd209e)"><path fill="#1d1e22" d="M 176.761719 153.105469 C 182.046875 158.386719 185.632812 166.289062 185.6875 172.769531 L 184.074219 188.960938 L 195.386719 200.273438 C 197.394531 202.28125 197.394531 205.542969 195.386719 207.546875 L 193.742188 209.195312 C 192.742188 210.195312 191.421875 210.699219 190.105469 210.699219 C 188.789062 210.699219 187.472656 210.195312 186.46875 209.195312 L 175.152344 197.878906 L 159.050781 199.492188 C 159.023438 199.492188 158.992188 199.496094 158.964844 199.496094 C 152.484375 199.4375 144.582031 195.851562 139.296875 190.570312 C 128.96875 180.238281 128.96875 163.433594 139.296875 153.105469 C 149.628906 142.773438 166.433594 142.777344 176.761719 153.105469 Z M 187.609375 208.054688 C 188.945312 209.390625 191.269531 209.390625 192.605469 208.054688 L 194.25 206.410156 C 194.917969 205.742188 195.285156 204.855469 195.285156 203.910156 C 195.285156 202.96875 194.917969 202.082031 194.25 201.414062 L 181.253906 188.414062 C 180.335938 187.5 179.132812 187.042969 177.929688 187.042969 C 176.730469 187.042969 175.527344 187.5 174.609375 188.414062 C 172.777344 190.246094 172.777344 193.226562 174.609375 195.058594 Z M 173.683594 196.40625 L 173.472656 196.195312 C 171.011719 193.738281 171.011719 189.734375 173.472656 187.277344 C 175.929688 184.820312 179.933594 184.820312 182.390625 187.277344 L 182.601562 187.488281 L 183.859375 174.941406 L 161.132812 197.664062 Z M 140.4375 189.429688 C 145.347656 194.34375 152.621094 197.707031 158.644531 197.878906 L 184.074219 172.449219 C 183.902344 166.425781 180.539062 159.15625 175.625 154.242188 C 165.925781 144.542969 150.136719 144.539062 140.4375 154.242188 C 130.738281 163.945312 130.734375 179.730469 140.4375 189.429688 Z M 140.4375 189.429688 " fill-opacity="1" fill-rule="nonzero"/></g><g clip-path="url(#9115130dcb)"><g clip-path="url(#c312690f11)"><path fill="#ffffff" d="M 176.148438 125.90625 L 197.375 125.90625 L 197.375 147.132812 L 176.148438 147.132812 Z M 176.148438 125.90625 " fill-opacity="1" fill-rule="nonzero"/></g></g><g clip-path="url(#1baf584bcb)"><g clip-path="url(#f168a2227f)"><path stroke-linecap="butt" transform="matrix(0.676393, 0, 0, 0.676393, 176.148787, 125.905948)" fill="none" stroke-linejoin="miter" d="M 15.684697 0.000446882 C 7.022023 0.000446882 -0.000517203 7.022987 -0.000517203 15.685661 C -0.000517203 24.354109 7.022023 31.37665 15.684697 31.37665 C 24.353145 31.37665 31.375685 24.354109 31.375685 15.685661 C 31.375685 7.022987 24.353145 0.000446882 15.684697 0.000446882 Z M 15.684697 0.000446882 " stroke="#1e337d" stroke-width="6.652933" stroke-opacity="1" stroke-miterlimit="4"/></g></g></svg>