<svg width="115" height="54" viewBox="0 0 115 54" fill="none" xmlns="http://www.w3.org/2000/svg">
<path d="M60.1941 32.6572C60.1941 33.2118 60.0641 33.7188 59.8041 34.1782C59.5528 34.6288 59.1671 34.9928 58.6471 35.2702C58.1358 35.5388 57.5074 35.6732 56.7621 35.6732H55.5011V38.7672H52.9531V29.6022H56.7621C57.4988 29.6022 58.1228 29.7322 58.6341 29.9922C59.1541 30.2522 59.5441 30.6118 59.8041 31.0712C60.0641 31.5305 60.1941 32.0592 60.1941 32.6572ZM56.5151 33.6452C57.2344 33.6452 57.5941 33.3158 57.5941 32.6572C57.5941 31.9898 57.2344 31.6562 56.5151 31.6562H55.5011V33.6452H56.5151ZM64.6107 38.8582C63.8827 38.8582 63.2284 38.7065 62.6477 38.4032C62.0757 38.0998 61.6251 37.6665 61.2957 37.1032C60.9664 36.5398 60.8017 35.8768 60.8017 35.1142C60.8017 34.3602 60.9664 33.7015 61.2957 33.1382C61.6337 32.5748 62.0887 32.1415 62.6607 31.8382C63.2414 31.5348 63.8957 31.3832 64.6237 31.3832C65.3517 31.3832 66.0017 31.5348 66.5737 31.8382C67.1544 32.1415 67.6094 32.5748 67.9387 33.1382C68.2767 33.7015 68.4457 34.3602 68.4457 35.1142C68.4457 35.8682 68.2767 36.5312 67.9387 37.1032C67.6094 37.6665 67.1544 38.0998 66.5737 38.4032C65.9931 38.7065 65.3387 38.8582 64.6107 38.8582ZM64.6107 36.6482C64.9661 36.6482 65.2607 36.5182 65.4947 36.2582C65.7374 35.9895 65.8587 35.6082 65.8587 35.1142C65.8587 34.6202 65.7374 34.2432 65.4947 33.9832C65.2607 33.7232 64.9704 33.5932 64.6237 33.5932C64.2771 33.5932 63.9867 33.7232 63.7527 33.9832C63.5187 34.2432 63.4017 34.6202 63.4017 35.1142C63.4017 35.6168 63.5144 35.9982 63.7397 36.2582C63.9651 36.5182 64.2554 36.6482 64.6107 36.6482ZM80.2594 31.4742L78.4004 38.7672H75.5404L74.5264 34.3472L73.4734 38.7672H70.6264L68.7804 31.4742H71.3154L72.1344 36.3102L73.2134 31.4742H75.9434L77.0614 36.3232L77.8674 31.4742H80.2594ZM87.9523 35.0362C87.9523 35.2355 87.9393 35.4348 87.9133 35.6342H83.0903C83.1163 36.0328 83.2247 36.3318 83.4153 36.5312C83.6147 36.7218 83.866 36.8172 84.1693 36.8172C84.594 36.8172 84.8973 36.6265 85.0793 36.2452H87.7963C87.6837 36.7478 87.4627 37.1985 87.1333 37.5972C86.8127 37.9872 86.4053 38.2948 85.9113 38.5202C85.4173 38.7455 84.8713 38.8582 84.2733 38.8582C83.554 38.8582 82.9127 38.7065 82.3493 38.4032C81.7947 38.0998 81.357 37.6665 81.0363 37.1032C80.7243 36.5398 80.5683 35.8768 80.5683 35.1142C80.5683 34.3515 80.7243 33.6928 81.0363 33.1382C81.3483 32.5748 81.7817 32.1415 82.3363 31.8382C82.8997 31.5348 83.5453 31.3832 84.2733 31.3832C84.9927 31.3832 85.6297 31.5305 86.1843 31.8252C86.739 32.1198 87.1723 32.5445 87.4843 33.0992C87.7963 33.6452 87.9523 34.2908 87.9523 35.0362ZM85.3523 34.3992C85.3523 34.0872 85.2483 33.8445 85.0403 33.6712C84.8323 33.4892 84.5723 33.3982 84.2603 33.3982C83.9483 33.3982 83.6927 33.4848 83.4933 33.6582C83.294 33.8228 83.164 34.0698 83.1033 34.3992H85.3523ZM91.5431 32.7612C91.8291 32.3452 92.1758 32.0158 92.5831 31.7732C92.9904 31.5305 93.4281 31.4092 93.8961 31.4092V34.1262H93.1811C92.6264 34.1262 92.2148 34.2345 91.9461 34.4512C91.6774 34.6678 91.5431 35.0448 91.5431 35.5822V38.7672H88.9951V31.4742H91.5431V32.7612Z" fill="white"/>
<path d="M33.6523 29.9842C35.7884 24.3813 34.7237 17.7197 30.4517 13.1754C24.7625 7.11877 15.5336 7.11877 9.8443 13.1754L6.04695 17.2156L20.3887 32.4472C23.5148 27.975 29.3057 26.8731 33.6523 29.9842ZM18.8766 35.724L3.93129 19.8586C2.08008 23.121 2.45981 27.4204 5.1044 30.2363L7.44384 32.7281L0.45942 39.1664C-0.123745 39.7066 -0.157649 40.6572 0.39161 41.2405L4.01266 45.0935C4.55514 45.6768 5.45023 45.6408 5.9588 45.0214L12.0142 37.5821L14.435 40.1531C15.7709 41.5718 17.4594 42.3496 19.2021 42.5513C18.7206 41.327 18.4562 39.9874 18.4562 38.5831C18.4494 37.5893 18.6257 36.6386 18.8766 35.724ZM28.214 31.6767C24.6201 31.6767 21.7042 34.7734 21.7042 38.5903C21.7042 42.4072 24.6201 45.504 28.214 45.504C31.8079 45.504 34.7237 42.4072 34.7237 38.5903C34.7237 34.7734 31.8079 31.6767 28.214 31.6767Z" fill="white"/>
<path d="M52.1965 12.6C52.1965 13.4533 51.9965 14.2333 51.5965 14.94C51.2099 15.6333 50.6165 16.1933 49.8165 16.62C49.0299 17.0333 48.0632 17.24 46.9165 17.24H44.9765V22H41.0565V7.9H46.9165C48.0499 7.9 49.0099 8.1 49.7965 8.5C50.5965 8.9 51.1965 9.45333 51.5965 10.16C51.9965 10.8667 52.1965 11.68 52.1965 12.6ZM46.5365 14.12C47.6432 14.12 48.1965 13.6133 48.1965 12.6C48.1965 11.5733 47.6432 11.06 46.5365 11.06H44.9765V14.12H46.5365ZM53.1314 16.38C53.1314 15.22 53.338 14.2067 53.7514 13.34C54.178 12.4733 54.7514 11.8067 55.4714 11.34C56.2047 10.8733 57.018 10.64 57.9114 10.64C58.6847 10.64 59.3514 10.7933 59.9114 11.1C60.4714 11.4067 60.9047 11.82 61.2114 12.34V10.78H65.1314V22H61.2114V20.44C60.9047 20.96 60.4647 21.3733 59.8914 21.68C59.3314 21.9867 58.6714 22.14 57.9114 22.14C57.018 22.14 56.2047 21.9067 55.4714 21.44C54.7514 20.9733 54.178 20.3067 53.7514 19.44C53.338 18.56 53.1314 17.54 53.1314 16.38ZM61.2114 16.38C61.2114 15.66 61.0114 15.0933 60.6114 14.68C60.2247 14.2667 59.7447 14.06 59.1714 14.06C58.5847 14.06 58.098 14.2667 57.7114 14.68C57.3247 15.08 57.1314 15.6467 57.1314 16.38C57.1314 17.1 57.3247 17.6733 57.7114 18.1C58.098 18.5133 58.5847 18.72 59.1714 18.72C59.7447 18.72 60.2247 18.5133 60.6114 18.1C61.0114 17.6867 61.2114 17.1133 61.2114 16.38ZM66.7251 16.38C66.7251 15.22 66.9318 14.2067 67.3451 13.34C67.7718 12.4733 68.3518 11.8067 69.0851 11.34C69.8185 10.8733 70.6318 10.64 71.5251 10.64C72.2451 10.64 72.8851 10.7933 73.4451 11.1C74.0185 11.3933 74.4651 11.8 74.7851 12.32V7.2H78.7251V22H74.7851V20.44C74.4785 20.96 74.0451 21.3733 73.4851 21.68C72.9251 21.9867 72.2651 22.14 71.5051 22.14C70.6118 22.14 69.7985 21.9067 69.0651 21.44C68.3451 20.9733 67.7718 20.3067 67.3451 19.44C66.9318 18.56 66.7251 17.54 66.7251 16.38ZM74.8051 16.38C74.8051 15.66 74.6051 15.0933 74.2051 14.68C73.8185 14.2667 73.3385 14.06 72.7651 14.06C72.1785 14.06 71.6918 14.2667 71.3051 14.68C70.9185 15.08 70.7251 15.6467 70.7251 16.38C70.7251 17.1 70.9185 17.6733 71.3051 18.1C71.6918 18.5133 72.1785 18.72 72.7651 18.72C73.3385 18.72 73.8185 18.5133 74.2051 18.1C74.6051 17.6867 74.8051 17.1133 74.8051 16.38ZM80.3189 16.38C80.3189 15.22 80.5255 14.2067 80.9389 13.34C81.3655 12.4733 81.9455 11.8067 82.6789 11.34C83.4122 10.8733 84.2255 10.64 85.1189 10.64C85.8389 10.64 86.4789 10.7933 87.0389 11.1C87.6122 11.3933 88.0589 11.8 88.3789 12.32V7.2H92.3189V22H88.3789V20.44C88.0722 20.96 87.6389 21.3733 87.0789 21.68C86.5189 21.9867 85.8589 22.14 85.0989 22.14C84.2055 22.14 83.3922 21.9067 82.6589 21.44C81.9389 20.9733 81.3655 20.3067 80.9389 19.44C80.5255 18.56 80.3189 17.54 80.3189 16.38ZM88.3989 16.38C88.3989 15.66 88.1989 15.0933 87.7989 14.68C87.4122 14.2667 86.9322 14.06 86.3589 14.06C85.7722 14.06 85.2855 14.2667 84.8989 14.68C84.5122 15.08 84.3189 15.6467 84.3189 16.38C84.3189 17.1 84.5122 17.6733 84.8989 18.1C85.2855 18.5133 85.7722 18.72 86.3589 18.72C86.9322 18.72 87.4122 18.5133 87.7989 18.1C88.1989 17.6867 88.3989 17.1133 88.3989 16.38ZM98.4726 7.2V22H94.5526V7.2H98.4726ZM111.425 16.26C111.425 16.5667 111.405 16.8733 111.365 17.18H103.945C103.985 17.7933 104.152 18.2533 104.445 18.56C104.752 18.8533 105.138 19 105.605 19C106.258 19 106.725 18.7067 107.005 18.12H111.185C111.012 18.8933 110.672 19.5867 110.165 20.2C109.672 20.8 109.045 21.2733 108.285 21.62C107.525 21.9667 106.685 22.14 105.765 22.14C104.658 22.14 103.672 21.9067 102.805 21.44C101.952 20.9733 101.278 20.3067 100.785 19.44C100.305 18.5733 100.065 17.5533 100.065 16.38C100.065 15.2067 100.305 14.1933 100.785 13.34C101.265 12.4733 101.932 11.8067 102.785 11.34C103.652 10.8733 104.645 10.64 105.765 10.64C106.872 10.64 107.852 10.8667 108.705 11.32C109.558 11.7733 110.225 12.4267 110.705 13.28C111.185 14.12 111.425 15.1133 111.425 16.26ZM107.425 15.28C107.425 14.8 107.265 14.4267 106.945 14.16C106.625 13.88 106.225 13.74 105.745 13.74C105.265 13.74 104.872 13.8733 104.565 14.14C104.258 14.3933 104.058 14.7733 103.965 15.28H107.425Z" fill="#F5F5F5"/>
</svg>
