<svg width="35" height="35" viewBox="0 0 35 35" fill="none" xmlns="http://www.w3.org/2000/svg">
<path d="M32.0834 14.9722V22.1018C32.0834 27.0926 29.1667 29.2315 24.7917 29.2315H10.2084C5.83341 29.2315 2.91675 27.0926 2.91675 22.1018V12.1204C2.91675 7.12961 5.83341 4.99072 10.2084 4.99072H20.4167" stroke="white" stroke-width="1.5" stroke-miterlimit="10" stroke-linecap="round" stroke-linejoin="round"/>
<path d="M10.2083 12.8333L14.7728 16.3981C16.2749 17.5674 18.7395 17.5674 20.2416 16.3981L21.9624 15.0578M28.4374 11.4074C29.4044 11.4074 30.3317 11.0318 31.0154 10.3633C31.6991 9.69476 32.0833 8.78803 32.0833 7.84259C32.0833 6.89714 31.6991 5.99041 31.0154 5.32188C30.3317 4.65335 29.4044 4.27777 28.4374 4.27777C27.4705 4.27777 26.5432 4.65335 25.8594 5.32188C25.1757 5.99041 24.7916 6.89714 24.7916 7.84259C24.7916 8.78803 25.1757 9.69476 25.8594 10.3633C26.5432 11.0318 27.4705 11.4074 28.4374 11.4074Z" stroke="white" stroke-width="1.5" stroke-miterlimit="10" stroke-linecap="round" stroke-linejoin="round"/>
</svg>
