<svg width="31" height="30" viewBox="0 0 31 30" fill="none" xmlns="http://www.w3.org/2000/svg">
<g clip-path="url(#clip0_81_128)">
<path d="M23.5779 30H7.43146C4.80766 30 2.41453 28.0128 1.98204 25.472L0.0646482 14.159C-0.252514 12.3989 0.62689 10.142 2.05412 9.0206L12.0447 1.14268C13.9765 -0.390323 17.0184 -0.376128 18.9646 1.15687L28.9552 9.0206C30.368 10.142 31.233 12.3989 30.9447 14.159L29.0273 25.4578C28.5948 27.9702 26.144 30 23.5779 30ZM15.4903 2.13629C14.7262 2.13629 13.9621 2.3634 13.3999 2.80343L3.40927 10.6955C2.60194 11.3343 2.02529 12.8105 2.19828 13.8183L4.11567 25.1171C4.37517 26.6075 5.8889 27.8708 7.43146 27.8708H23.5779C25.1204 27.8708 26.6342 26.6075 26.8937 25.1029L28.8111 13.8041C28.9696 12.8105 28.393 11.3059 27.6001 10.6813L17.6095 2.81762C17.0328 2.3634 16.2543 2.13629 15.4903 2.13629Z" fill="white"/>
<path d="M15.177 21.875C14.6474 21.875 14.2083 21.45 14.2083 20.9375V17.1875C14.2083 16.675 14.6474 16.25 15.177 16.25C15.7066 16.25 16.1458 16.675 16.1458 17.1875V20.9375C16.1458 21.45 15.7066 21.875 15.177 21.875Z" fill="white"/>
</g>
<defs>
<clipPath id="clip0_81_128">
<rect width="31" height="30" fill="white"/>
</clipPath>
</defs>
</svg>
