<svg width="28" height="34" viewBox="0 0 28 34" fill="none" xmlns="http://www.w3.org/2000/svg">
<path d="M25 31.3125H25.5V30.8125V29.1125C25.5 25.7044 22.8793 22.875 19.6 22.875C19.2864 22.875 18.9588 22.964 18.6413 23.0642C18.4985 23.1093 18.3618 23.1551 18.22 23.2027C18.011 23.2729 17.7908 23.3468 17.5229 23.4275C16.6769 23.6825 15.556 23.9375 14 23.9375C12.4567 23.9375 11.3342 23.6826 10.4836 23.4273C10.2146 23.3466 9.99286 23.2727 9.78255 23.2025C9.63977 23.1549 9.50226 23.109 9.35885 23.064C9.04037 22.964 8.71196 22.875 8.4 22.875C5.12073 22.875 2.5 25.7044 2.5 29.1125V30.8125V31.3125H3H25ZM14 21.75C15.543 21.75 16.5498 21.4692 17.3874 21.1937C17.4906 21.1598 17.5898 21.1266 17.686 21.0944C18.3717 20.8646 18.9001 20.6875 19.6 20.6875C23.9332 20.6875 27.5 24.4323 27.5 29.1125V30.8125C27.5 32.3251 26.352 33.5 25 33.5H3C1.64802 33.5 0.5 32.3251 0.5 30.8125V29.1125C0.5 24.4323 4.06677 20.6875 8.4 20.6875C9.10335 20.6875 9.63272 20.865 10.3188 21.0951C10.4141 21.127 10.5125 21.16 10.6148 21.1937C11.4516 21.4691 12.457 21.75 14 21.75ZM22.5 9.5625C22.5 14.5946 18.6645 18.625 14 18.625C9.33552 18.625 5.5 14.5946 5.5 9.5625C5.5 4.53036 9.33552 0.5 14 0.5C18.6645 0.5 22.5 4.53036 22.5 9.5625ZM20.5 9.5625C20.5 5.80246 17.6105 2.6875 14 2.6875C10.3895 2.6875 7.5 5.80246 7.5 9.5625C7.5 13.3225 10.3895 16.4375 14 16.4375C17.6105 16.4375 20.5 13.3225 20.5 9.5625Z" stroke="white"/>
</svg>
