{
	"asset":{
		"generator":"Khronos glTF Blender I/O v4.3.47",
		"version":"2.0"
	},
	"scene":0,
	"scenes":[
		{
			"name":"Scene",
			"nodes":[
				0,
				1,
				2,
				3,
				12,
				21,
				25
			]
		}
	],
	"nodes":[
		{
			"name":"ppb",
			"rotation":[
				-0.7032216787338257,
				-0.07402221858501434,
				-0.07402227073907852,
				0.7032216787338257
			],
			"translation":[
				-1.414223551750183,
				0.2530539035797119,
				0.014566194266080856
			]
		},
		{
			"mesh":0,
			"name":"ppb__0",
			"rotation":[
				-0.7032216787338257,
				-0.07402221858501434,
				-0.07402227073907852,
				0.7032216787338257
			],
			"translation":[
				-1.461154818534851,
				0.2530539035797119,
				0.06758520007133484
			]
		},
		{
			"name":"Plane",
			"rotation":[
				-4.802494004252367e-05,
				0.011055023409426212,
				0,
				0.9999389052391052
			],
			"scale":[
				0.08395282924175262,
				0.08395284414291382,
				0.08395285904407501
			],
			"translation":[
				-1.4130393266677856,
				0.2531219720840454,
				0.06917791068553925
			]
		},
		{
			"mesh":1,
			"name":"Plane_artengo-removebg-preview.png_0",
			"rotation":[
				-4.802494004252367e-05,
				0.011055023409426212,
				0,
				0.9999389052391052
			],
			"scale":[
				0.08395282924175262,
				0.08395284414291382,
				0.08395285904407501
			],
			"translation":[
				-1.4599705934524536,
				0.2531219720840454,
				0.12219691276550293
			]
		},
		{
			"mesh":2,
			"name":"raquette.001_Cover.002_0.001",
			"rotation":[
				-0.27510592341423035,
				0,
				0,
				0.9614139199256897
			],
			"translation":[
				-0.004570464603602886,
				-0.03678814694285393,
				0.015370000153779984
			]
		},
		{
			"mesh":3,
			"name":"raquette.001_Cover.002_0.002",
			"rotation":[
				-0.27510592341423035,
				0,
				0,
				0.9614139199256897
			],
			"translation":[
				-0.004570464603602886,
				-0.03678814694285393,
				0.015370000153779984
			]
		},
		{
			"mesh":4,
			"name":"raquette.001_Grip.002_0.001",
			"rotation":[
				-0.27510592341423035,
				0,
				0,
				0.9614139199256897
			],
			"translation":[
				-0.004570464603602886,
				-0.03678814694285393,
				0.015370000153779984
			]
		},
		{
			"mesh":5,
			"name":"raquette.001_Handle.002_0.001",
			"rotation":[
				-0.27510592341423035,
				0,
				0,
				0.9614139199256897
			],
			"translation":[
				-0.004570464603602886,
				-0.03678814694285393,
				0.015370000153779984
			]
		},
		{
			"mesh":6,
			"name":"raquette.001_Strap.002_0.001",
			"rotation":[
				-0.27510592341423035,
				0,
				0,
				0.9614139199256897
			],
			"translation":[
				-0.004570464603602886,
				-0.03678814694285393,
				0.015370000153779984
			]
		},
		{
			"children":[
				4,
				5,
				6,
				7,
				8
			],
			"name":"raquette.002",
			"rotation":[
				-0.70710688829422,
				0,
				0,
				0.7071066498756409
			],
			"scale":[
				100,
				100,
				100
			],
			"translation":[
				6.699598452541977e-05,
				-4.5418739318847656e-05,
				2.9802322387695312e-06
			]
		},
		{
			"children":[
				9
			],
			"name":"RootNode.001",
			"translation":[
				6.378057150868699e-06,
				2.86102294921875e-06,
				0
			]
		},
		{
			"children":[
				10
			],
			"name":"78196aee81834f10bd392dfb326005b6.fbx.001",
			"rotation":[
				0.7071068286895752,
				0,
				0,
				0.7071068286895752
			],
			"scale":[
				0.009999999776482582,
				0.009999999776482582,
				0.009999999776482582
			]
		},
		{
			"children":[
				11
			],
			"name":"Sketchfab_model.001",
			"rotation":[
				-0.45983317494392395,
				-0.13935048878192902,
				0.25434941053390503,
				0.8393099904060364
			],
			"translation":[
				-1.4833734035491943,
				0.016454175114631653,
				0.09826445579528809
			]
		},
		{
			"mesh":7,
			"name":"raquette.001_Cover.002_0.003",
			"rotation":[
				-0.25335460901260376,
				0.2926355302333832,
				-0.9186568260192871,
				0.07902881503105164
			],
			"translation":[
				-0.33492612838745117,
				-0.006902978755533695,
				0.009381166659295559
			]
		},
		{
			"mesh":8,
			"name":"raquette.001_Cover.002_0.004",
			"rotation":[
				-0.25335460901260376,
				0.2926355302333832,
				-0.9186568260192871,
				0.07902881503105164
			],
			"translation":[
				-0.33492612838745117,
				-0.006902978755533695,
				0.009381166659295559
			]
		},
		{
			"mesh":9,
			"name":"raquette.001_Grip.002_0.002",
			"rotation":[
				-0.25335460901260376,
				0.2926355302333832,
				-0.9186568260192871,
				0.07902881503105164
			],
			"translation":[
				-0.33492612838745117,
				-0.006902978755533695,
				0.009381166659295559
			]
		},
		{
			"mesh":10,
			"name":"raquette.001_Handle.002_0.002",
			"rotation":[
				-0.25335460901260376,
				0.2926355302333832,
				-0.9186568260192871,
				0.07902881503105164
			],
			"translation":[
				-0.33492612838745117,
				-0.006902978755533695,
				0.009381166659295559
			]
		},
		{
			"mesh":11,
			"name":"raquette.001_Strap.002_0.002",
			"rotation":[
				-0.25335460901260376,
				0.2926355302333832,
				-0.9186568260192871,
				0.07902881503105164
			],
			"translation":[
				-0.33492612838745117,
				-0.006902978755533695,
				0.009381166659295559
			]
		},
		{
			"children":[
				13,
				14,
				15,
				16,
				17
			],
			"name":"raquette.001",
			"rotation":[
				-0.70710688829422,
				0,
				0,
				0.7071066498756409
			],
			"scale":[
				100.00000762939453,
				99.99999237060547,
				99.99999237060547
			],
			"translation":[
				5.340576171875e-05,
				-4.3656582420226187e-05,
				6.949936505407095e-06
			]
		},
		{
			"children":[
				18
			],
			"name":"RootNode.002"
		},
		{
			"children":[
				19
			],
			"name":"78196aee81834f10bd392dfb326005b6.fbx.002",
			"rotation":[
				0.70710688829422,
				0,
				0,
				0.7071066498756409
			],
			"scale":[
				0.009999999776482582,
				0.010000001639127731,
				0.010000001639127731
			]
		},
		{
			"children":[
				20
			],
			"name":"Sketchfab_model.002",
			"rotation":[
				-0.892376720905304,
				0,
				0,
				0.4512912631034851
			],
			"translation":[
				-1.0952973365783691,
				0,
				0
			]
		},
		{
			"name":"raquette.004",
			"rotation":[
				-0.70710688829422,
				0,
				0,
				0.7071066498756409
			],
			"scale":[
				100,
				99.99996948242188,
				99.99996948242188
			],
			"translation":[
				5.340576171875e-05,
				-4.3656582420226187e-05,
				6.949934686417691e-06
			]
		},
		{
			"children":[
				22
			],
			"name":"RootNode.004"
		},
		{
			"children":[
				23
			],
			"name":"78196aee81834f10bd392dfb326005b6.fbx.004",
			"rotation":[
				0.70710688829422,
				0,
				0,
				0.7071066498756409
			],
			"scale":[
				0.009999999776482582,
				0.010000001639127731,
				0.010000001639127731
			]
		},
		{
			"children":[
				24
			],
			"name":"Sketchfab_model.004",
			"rotation":[
				-0.892376720905304,
				0,
				0,
				0.4512912631034851
			],
			"translation":[
				0.017766594886779785,
				0,
				0
			]
		}
	],
	"materials":[
		{
			"doubleSided":true,
			"name":"ppb__0",
			"pbrMetallicRoughness":{
				"metallicFactor":0,
				"roughnessFactor":0.6000000238418579
			}
		},
		{
			"alphaCutoff":0.4007631242275238,
			"alphaMode":"MASK",
			"doubleSided":true,
			"name":"artengo-removebg-preview.png",
			"pbrMetallicRoughness":{
				"baseColorTexture":{
					"index":0
				},
				"metallicFactor":0,
				"roughnessFactor":0.8040408492088318
			}
		},
		{
			"doubleSided":true,
			"name":"Material.002",
			"normalTexture":{
				"index":1
			},
			"pbrMetallicRoughness":{
				"baseColorTexture":{
					"index":2
				},
				"metallicFactor":0,
				"metallicRoughnessTexture":{
					"index":3
				}
			}
		},
		{
			"doubleSided":true,
			"name":"Material.001",
			"normalTexture":{
				"index":4
			},
			"pbrMetallicRoughness":{
				"baseColorTexture":{
					"index":5
				},
				"metallicFactor":0,
				"metallicRoughnessTexture":{
					"index":6
				}
			}
		},
		{
			"doubleSided":true,
			"name":"Grip.002",
			"normalTexture":{
				"index":7
			},
			"pbrMetallicRoughness":{
				"baseColorTexture":{
					"index":8
				},
				"metallicRoughnessTexture":{
					"index":9
				}
			}
		},
		{
			"doubleSided":true,
			"name":"Handle.002",
			"normalTexture":{
				"index":10
			},
			"pbrMetallicRoughness":{
				"baseColorTexture":{
					"index":11
				},
				"metallicRoughnessTexture":{
					"index":12
				}
			}
		},
		{
			"doubleSided":true,
			"name":"Strap.002",
			"pbrMetallicRoughness":{
				"baseColorTexture":{
					"index":13
				},
				"metallicRoughnessTexture":{
					"index":14
				}
			}
		}
	],
	"meshes":[
		{
			"name":"ppb__0",
			"primitives":[
				{
					"attributes":{
						"POSITION":0,
						"NORMAL":1,
						"TEXCOORD_0":2
					},
					"indices":3,
					"material":0
				}
			]
		},
		{
			"name":"Plane_artengo-removebg-preview.png_0",
			"primitives":[
				{
					"attributes":{
						"POSITION":4,
						"NORMAL":5,
						"TEXCOORD_0":6
					},
					"indices":7,
					"material":1
				}
			]
		},
		{
			"name":"raquette.001_Cover.002_0.001",
			"primitives":[
				{
					"attributes":{
						"POSITION":8,
						"NORMAL":9,
						"TEXCOORD_0":10,
						"TEXCOORD_1":11,
						"TEXCOORD_2":12
					},
					"indices":13,
					"material":2
				}
			]
		},
		{
			"name":"raquette.001_Cover.002_0.002",
			"primitives":[
				{
					"attributes":{
						"POSITION":14,
						"NORMAL":15,
						"TEXCOORD_0":16,
						"TEXCOORD_1":17,
						"TEXCOORD_2":18
					},
					"indices":19,
					"material":3
				}
			]
		},
		{
			"name":"raquette.001_Grip.002_0.001",
			"primitives":[
				{
					"attributes":{
						"POSITION":20,
						"NORMAL":21,
						"TEXCOORD_0":22,
						"TEXCOORD_1":23,
						"TEXCOORD_2":24
					},
					"indices":25,
					"material":4
				}
			]
		},
		{
			"name":"raquette.001_Handle.002_0.001",
			"primitives":[
				{
					"attributes":{
						"POSITION":26,
						"NORMAL":27,
						"TEXCOORD_0":28,
						"TEXCOORD_1":29,
						"TEXCOORD_2":30
					},
					"indices":31,
					"material":5
				}
			]
		},
		{
			"name":"raquette.001_Strap.002_0.001",
			"primitives":[
				{
					"attributes":{
						"POSITION":32,
						"NORMAL":33,
						"TEXCOORD_0":34,
						"TEXCOORD_1":35,
						"TEXCOORD_2":36
					},
					"indices":37,
					"material":6
				}
			]
		},
		{
			"name":"raquette.001_Cover.002_0.003",
			"primitives":[
				{
					"attributes":{
						"POSITION":38,
						"NORMAL":39,
						"TEXCOORD_0":40,
						"TEXCOORD_1":41,
						"TEXCOORD_2":42
					},
					"indices":13,
					"material":2
				}
			]
		},
		{
			"name":"raquette.001_Cover.002_0.004",
			"primitives":[
				{
					"attributes":{
						"POSITION":43,
						"NORMAL":44,
						"TEXCOORD_0":45,
						"TEXCOORD_1":46,
						"TEXCOORD_2":47
					},
					"indices":19,
					"material":3
				}
			]
		},
		{
			"name":"raquette.001_Grip.002_0.002",
			"primitives":[
				{
					"attributes":{
						"POSITION":48,
						"NORMAL":49,
						"TEXCOORD_0":50,
						"TEXCOORD_1":51,
						"TEXCOORD_2":52
					},
					"indices":25,
					"material":4
				}
			]
		},
		{
			"name":"raquette.001_Handle.002_0.002",
			"primitives":[
				{
					"attributes":{
						"POSITION":53,
						"NORMAL":54,
						"TEXCOORD_0":55,
						"TEXCOORD_1":56,
						"TEXCOORD_2":57
					},
					"indices":31,
					"material":5
				}
			]
		},
		{
			"name":"raquette.001_Strap.002_0.002",
			"primitives":[
				{
					"attributes":{
						"POSITION":58,
						"NORMAL":59,
						"TEXCOORD_0":60,
						"TEXCOORD_1":61,
						"TEXCOORD_2":62
					},
					"indices":37,
					"material":6
				}
			]
		}
	],
	"textures":[
		{
			"sampler":0,
			"source":0
		},
		{
			"sampler":0,
			"source":1
		},
		{
			"sampler":0,
			"source":2
		},
		{
			"sampler":0,
			"source":3
		},
		{
			"sampler":0,
			"source":1
		},
		{
			"sampler":0,
			"source":2
		},
		{
			"sampler":0,
			"source":3
		},
		{
			"sampler":0,
			"source":4
		},
		{
			"sampler":0,
			"source":5
		},
		{
			"sampler":0,
			"source":6
		},
		{
			"sampler":0,
			"source":7
		},
		{
			"sampler":0,
			"source":8
		},
		{
			"sampler":0,
			"source":9
		},
		{
			"sampler":0,
			"source":10
		},
		{
			"sampler":0,
			"source":11
		}
	],
	"images":[
		{
			"mimeType":"image/png",
			"name":"artengo-removebg-preview.png_baseColor",
			"uri":"artengo-removebg-preview_png_baseColor.png"
		},
		{
			"mimeType":"image/png",
			"name":"Cover.002_normal",
			"uri":"Cover_002_normal.png"
		},
		{
			"mimeType":"image/png",
			"name":"Cover.002_baseColor",
			"uri":"Cover_002_baseColor.png"
		},
		{
			"mimeType":"image/png",
			"name":"Cover.002_metallicRoughness",
			"uri":"Cover_002_metallicRoughness.png"
		},
		{
			"mimeType":"image/png",
			"name":"Grip.002_normal",
			"uri":"Grip_002_normal.png"
		},
		{
			"mimeType":"image/png",
			"name":"Grip.002_baseColor",
			"uri":"Grip_002_baseColor.png"
		},
		{
			"mimeType":"image/png",
			"name":"Grip.002_metallicRoughness",
			"uri":"Grip_002_metallicRoughness.png"
		},
		{
			"mimeType":"image/png",
			"name":"Handle.002_normal",
			"uri":"Handle_002_normal.png"
		},
		{
			"mimeType":"image/png",
			"name":"Handle.002_baseColor",
			"uri":"Handle_002_baseColor.png"
		},
		{
			"mimeType":"image/png",
			"name":"Handle.002_metallicRoughness",
			"uri":"Handle_002_metallicRoughness.png"
		},
		{
			"mimeType":"image/png",
			"name":"Strap.002_baseColor",
			"uri":"Strap_002_baseColor.png"
		},
		{
			"mimeType":"image/png",
			"name":"Strap.002_metallicRoughness",
			"uri":"Strap_002_metallicRoughness.png"
		}
	],
	"accessors":[
		{
			"bufferView":0,
			"componentType":5126,
			"count":559,
			"max":[
				0.038633573800325394,
				0.03863358497619629,
				0.038658104836940765
			],
			"min":[
				-0.038633596152067184,
				-0.0386335626244545,
				-0.038658104836940765
			],
			"type":"VEC3"
		},
		{
			"bufferView":1,
			"componentType":5126,
			"count":559,
			"type":"VEC3"
		},
		{
			"bufferView":2,
			"componentType":5126,
			"count":559,
			"type":"VEC2"
		},
		{
			"bufferView":3,
			"componentType":5123,
			"count":2880,
			"type":"SCALAR"
		},
		{
			"bufferView":4,
			"componentType":5126,
			"count":204,
			"max":[
				0.23100006580352783,
				0.21250006556510925,
				-0.18827815353870392
			],
			"min":[
				-0.23100003600120544,
				-0.15875005722045898,
				-0.3152579367160797
			],
			"type":"VEC3"
		},
		{
			"bufferView":5,
			"componentType":5126,
			"count":204,
			"type":"VEC3"
		},
		{
			"bufferView":6,
			"componentType":5126,
			"count":204,
			"type":"VEC2"
		},
		{
			"bufferView":7,
			"componentType":5123,
			"count":1056,
			"type":"SCALAR"
		},
		{
			"bufferView":8,
			"componentType":5126,
			"count":787,
			"max":[
				0.1782659888267517,
				-0.007040622178465128,
				0.4522072970867157
			],
			"min":[
				-0.17300646007061005,
				-0.009431936778128147,
				0.0803474560379982
			],
			"type":"VEC3"
		},
		{
			"bufferView":9,
			"componentType":5126,
			"count":787,
			"type":"VEC3"
		},
		{
			"bufferView":10,
			"componentType":5126,
			"count":787,
			"type":"VEC2"
		},
		{
			"bufferView":11,
			"componentType":5126,
			"count":787,
			"type":"VEC2"
		},
		{
			"bufferView":12,
			"componentType":5126,
			"count":787,
			"type":"VEC2"
		},
		{
			"bufferView":13,
			"componentType":5123,
			"count":1062,
			"type":"SCALAR"
		},
		{
			"bufferView":14,
			"componentType":5126,
			"count":795,
			"max":[
				0.17826849222183228,
				0.010828525759279728,
				0.45215925574302673
			],
			"min":[
				-0.1730039268732071,
				0.008437211625277996,
				0.0802994817495346
			],
			"type":"VEC3"
		},
		{
			"bufferView":15,
			"componentType":5126,
			"count":795,
			"type":"VEC3"
		},
		{
			"bufferView":16,
			"componentType":5126,
			"count":795,
			"type":"VEC2"
		},
		{
			"bufferView":17,
			"componentType":5126,
			"count":795,
			"type":"VEC2"
		},
		{
			"bufferView":18,
			"componentType":5126,
			"count":795,
			"type":"VEC2"
		},
		{
			"bufferView":19,
			"componentType":5123,
			"count":1062,
			"type":"SCALAR"
		},
		{
			"bufferView":20,
			"componentType":5126,
			"count":836,
			"max":[
				0.04110957682132721,
				0.020486559718847275,
				0.08145663887262344
			],
			"min":[
				-0.04427650570869446,
				-0.020835574716329575,
				-0.16491761803627014
			],
			"type":"VEC3"
		},
		{
			"bufferView":21,
			"componentType":5126,
			"count":836,
			"type":"VEC3"
		},
		{
			"bufferView":22,
			"componentType":5126,
			"count":836,
			"type":"VEC2"
		},
		{
			"bufferView":23,
			"componentType":5126,
			"count":836,
			"type":"VEC2"
		},
		{
			"bufferView":24,
			"componentType":5126,
			"count":836,
			"type":"VEC2"
		},
		{
			"bufferView":25,
			"componentType":5123,
			"count":2196,
			"type":"SCALAR"
		},
		{
			"bufferView":26,
			"componentType":5126,
			"count":3081,
			"max":[
				0.09935318678617477,
				0.008455902338027954,
				0.08222345262765884
			],
			"min":[
				-0.09783987700939178,
				-0.00862028170377016,
				-0.16514259576797485
			],
			"type":"VEC3"
		},
		{
			"bufferView":27,
			"componentType":5126,
			"count":3081,
			"type":"VEC3"
		},
		{
			"bufferView":28,
			"componentType":5126,
			"count":3081,
			"type":"VEC2"
		},
		{
			"bufferView":29,
			"componentType":5126,
			"count":3081,
			"type":"VEC2"
		},
		{
			"bufferView":30,
			"componentType":5126,
			"count":3081,
			"type":"VEC2"
		},
		{
			"bufferView":31,
			"componentType":5123,
			"count":13056,
			"type":"SCALAR"
		},
		{
			"bufferView":32,
			"componentType":5126,
			"count":82,
			"max":[
				0.17832469940185547,
				0.009459826163947582,
				0.4522884786128998
			],
			"min":[
				-0.1730620265007019,
				-0.008030124939978123,
				0.0802675187587738
			],
			"type":"VEC3"
		},
		{
			"bufferView":33,
			"componentType":5126,
			"count":82,
			"type":"VEC3"
		},
		{
			"bufferView":34,
			"componentType":5126,
			"count":82,
			"type":"VEC2"
		},
		{
			"bufferView":35,
			"componentType":5126,
			"count":82,
			"type":"VEC2"
		},
		{
			"bufferView":36,
			"componentType":5126,
			"count":82,
			"type":"VEC2"
		},
		{
			"bufferView":37,
			"componentType":5123,
			"count":240,
			"type":"SCALAR"
		},
		{
			"bufferView":38,
			"componentType":5126,
			"count":787,
			"max":[
				0.1782659888267517,
				-0.007040622178465128,
				0.4522072970867157
			],
			"min":[
				-0.17300646007061005,
				-0.009431936778128147,
				0.0803474560379982
			],
			"type":"VEC3"
		},
		{
			"bufferView":39,
			"componentType":5126,
			"count":787,
			"type":"VEC3"
		},
		{
			"bufferView":40,
			"componentType":5126,
			"count":787,
			"type":"VEC2"
		},
		{
			"bufferView":41,
			"componentType":5126,
			"count":787,
			"type":"VEC2"
		},
		{
			"bufferView":42,
			"componentType":5126,
			"count":787,
			"type":"VEC2"
		},
		{
			"bufferView":43,
			"componentType":5126,
			"count":795,
			"max":[
				0.17826849222183228,
				0.010828525759279728,
				0.45215925574302673
			],
			"min":[
				-0.1730039268732071,
				0.008437211625277996,
				0.0802994817495346
			],
			"type":"VEC3"
		},
		{
			"bufferView":44,
			"componentType":5126,
			"count":795,
			"type":"VEC3"
		},
		{
			"bufferView":45,
			"componentType":5126,
			"count":795,
			"type":"VEC2"
		},
		{
			"bufferView":46,
			"componentType":5126,
			"count":795,
			"type":"VEC2"
		},
		{
			"bufferView":47,
			"componentType":5126,
			"count":795,
			"type":"VEC2"
		},
		{
			"bufferView":48,
			"componentType":5126,
			"count":836,
			"max":[
				0.04110957682132721,
				0.020486559718847275,
				0.08145663887262344
			],
			"min":[
				-0.04427650570869446,
				-0.020835574716329575,
				-0.16491761803627014
			],
			"type":"VEC3"
		},
		{
			"bufferView":49,
			"componentType":5126,
			"count":836,
			"type":"VEC3"
		},
		{
			"bufferView":50,
			"componentType":5126,
			"count":836,
			"type":"VEC2"
		},
		{
			"bufferView":51,
			"componentType":5126,
			"count":836,
			"type":"VEC2"
		},
		{
			"bufferView":52,
			"componentType":5126,
			"count":836,
			"type":"VEC2"
		},
		{
			"bufferView":53,
			"componentType":5126,
			"count":3081,
			"max":[
				0.09935318678617477,
				0.008455902338027954,
				0.08222345262765884
			],
			"min":[
				-0.09783987700939178,
				-0.00862028170377016,
				-0.16514259576797485
			],
			"type":"VEC3"
		},
		{
			"bufferView":54,
			"componentType":5126,
			"count":3081,
			"type":"VEC3"
		},
		{
			"bufferView":55,
			"componentType":5126,
			"count":3081,
			"type":"VEC2"
		},
		{
			"bufferView":56,
			"componentType":5126,
			"count":3081,
			"type":"VEC2"
		},
		{
			"bufferView":57,
			"componentType":5126,
			"count":3081,
			"type":"VEC2"
		},
		{
			"bufferView":58,
			"componentType":5126,
			"count":82,
			"max":[
				0.17832469940185547,
				0.009459826163947582,
				0.4522884786128998
			],
			"min":[
				-0.1730620265007019,
				-0.008030124939978123,
				0.0802675187587738
			],
			"type":"VEC3"
		},
		{
			"bufferView":59,
			"componentType":5126,
			"count":82,
			"type":"VEC3"
		},
		{
			"bufferView":60,
			"componentType":5126,
			"count":82,
			"type":"VEC2"
		},
		{
			"bufferView":61,
			"componentType":5126,
			"count":82,
			"type":"VEC2"
		},
		{
			"bufferView":62,
			"componentType":5126,
			"count":82,
			"type":"VEC2"
		}
	],
	"bufferViews":[
		{
			"buffer":0,
			"byteLength":6708,
			"byteOffset":0,
			"target":34962
		},
		{
			"buffer":0,
			"byteLength":6708,
			"byteOffset":6708,
			"target":34962
		},
		{
			"buffer":0,
			"byteLength":4472,
			"byteOffset":13416,
			"target":34962
		},
		{
			"buffer":0,
			"byteLength":5760,
			"byteOffset":17888,
			"target":34963
		},
		{
			"buffer":0,
			"byteLength":2448,
			"byteOffset":23648,
			"target":34962
		},
		{
			"buffer":0,
			"byteLength":2448,
			"byteOffset":26096,
			"target":34962
		},
		{
			"buffer":0,
			"byteLength":1632,
			"byteOffset":28544,
			"target":34962
		},
		{
			"buffer":0,
			"byteLength":2112,
			"byteOffset":30176,
			"target":34963
		},
		{
			"buffer":0,
			"byteLength":9444,
			"byteOffset":32288,
			"target":34962
		},
		{
			"buffer":0,
			"byteLength":9444,
			"byteOffset":41732,
			"target":34962
		},
		{
			"buffer":0,
			"byteLength":6296,
			"byteOffset":51176,
			"target":34962
		},
		{
			"buffer":0,
			"byteLength":6296,
			"byteOffset":57472,
			"target":34962
		},
		{
			"buffer":0,
			"byteLength":6296,
			"byteOffset":63768,
			"target":34962
		},
		{
			"buffer":0,
			"byteLength":2124,
			"byteOffset":70064,
			"target":34963
		},
		{
			"buffer":0,
			"byteLength":9540,
			"byteOffset":72188,
			"target":34962
		},
		{
			"buffer":0,
			"byteLength":9540,
			"byteOffset":81728,
			"target":34962
		},
		{
			"buffer":0,
			"byteLength":6360,
			"byteOffset":91268,
			"target":34962
		},
		{
			"buffer":0,
			"byteLength":6360,
			"byteOffset":97628,
			"target":34962
		},
		{
			"buffer":0,
			"byteLength":6360,
			"byteOffset":103988,
			"target":34962
		},
		{
			"buffer":0,
			"byteLength":2124,
			"byteOffset":110348,
			"target":34963
		},
		{
			"buffer":0,
			"byteLength":10032,
			"byteOffset":112472,
			"target":34962
		},
		{
			"buffer":0,
			"byteLength":10032,
			"byteOffset":122504,
			"target":34962
		},
		{
			"buffer":0,
			"byteLength":6688,
			"byteOffset":132536,
			"target":34962
		},
		{
			"buffer":0,
			"byteLength":6688,
			"byteOffset":139224,
			"target":34962
		},
		{
			"buffer":0,
			"byteLength":6688,
			"byteOffset":145912,
			"target":34962
		},
		{
			"buffer":0,
			"byteLength":4392,
			"byteOffset":152600,
			"target":34963
		},
		{
			"buffer":0,
			"byteLength":36972,
			"byteOffset":156992,
			"target":34962
		},
		{
			"buffer":0,
			"byteLength":36972,
			"byteOffset":193964,
			"target":34962
		},
		{
			"buffer":0,
			"byteLength":24648,
			"byteOffset":230936,
			"target":34962
		},
		{
			"buffer":0,
			"byteLength":24648,
			"byteOffset":255584,
			"target":34962
		},
		{
			"buffer":0,
			"byteLength":24648,
			"byteOffset":280232,
			"target":34962
		},
		{
			"buffer":0,
			"byteLength":26112,
			"byteOffset":304880,
			"target":34963
		},
		{
			"buffer":0,
			"byteLength":984,
			"byteOffset":330992,
			"target":34962
		},
		{
			"buffer":0,
			"byteLength":984,
			"byteOffset":331976,
			"target":34962
		},
		{
			"buffer":0,
			"byteLength":656,
			"byteOffset":332960,
			"target":34962
		},
		{
			"buffer":0,
			"byteLength":656,
			"byteOffset":333616,
			"target":34962
		},
		{
			"buffer":0,
			"byteLength":656,
			"byteOffset":334272,
			"target":34962
		},
		{
			"buffer":0,
			"byteLength":480,
			"byteOffset":334928,
			"target":34963
		},
		{
			"buffer":0,
			"byteLength":9444,
			"byteOffset":335408,
			"target":34962
		},
		{
			"buffer":0,
			"byteLength":9444,
			"byteOffset":344852,
			"target":34962
		},
		{
			"buffer":0,
			"byteLength":6296,
			"byteOffset":354296,
			"target":34962
		},
		{
			"buffer":0,
			"byteLength":6296,
			"byteOffset":360592,
			"target":34962
		},
		{
			"buffer":0,
			"byteLength":6296,
			"byteOffset":366888,
			"target":34962
		},
		{
			"buffer":0,
			"byteLength":9540,
			"byteOffset":373184,
			"target":34962
		},
		{
			"buffer":0,
			"byteLength":9540,
			"byteOffset":382724,
			"target":34962
		},
		{
			"buffer":0,
			"byteLength":6360,
			"byteOffset":392264,
			"target":34962
		},
		{
			"buffer":0,
			"byteLength":6360,
			"byteOffset":398624,
			"target":34962
		},
		{
			"buffer":0,
			"byteLength":6360,
			"byteOffset":404984,
			"target":34962
		},
		{
			"buffer":0,
			"byteLength":10032,
			"byteOffset":411344,
			"target":34962
		},
		{
			"buffer":0,
			"byteLength":10032,
			"byteOffset":421376,
			"target":34962
		},
		{
			"buffer":0,
			"byteLength":6688,
			"byteOffset":431408,
			"target":34962
		},
		{
			"buffer":0,
			"byteLength":6688,
			"byteOffset":438096,
			"target":34962
		},
		{
			"buffer":0,
			"byteLength":6688,
			"byteOffset":444784,
			"target":34962
		},
		{
			"buffer":0,
			"byteLength":36972,
			"byteOffset":451472,
			"target":34962
		},
		{
			"buffer":0,
			"byteLength":36972,
			"byteOffset":488444,
			"target":34962
		},
		{
			"buffer":0,
			"byteLength":24648,
			"byteOffset":525416,
			"target":34962
		},
		{
			"buffer":0,
			"byteLength":24648,
			"byteOffset":550064,
			"target":34962
		},
		{
			"buffer":0,
			"byteLength":24648,
			"byteOffset":574712,
			"target":34962
		},
		{
			"buffer":0,
			"byteLength":984,
			"byteOffset":599360,
			"target":34962
		},
		{
			"buffer":0,
			"byteLength":984,
			"byteOffset":600344,
			"target":34962
		},
		{
			"buffer":0,
			"byteLength":656,
			"byteOffset":601328,
			"target":34962
		},
		{
			"buffer":0,
			"byteLength":656,
			"byteOffset":601984,
			"target":34962
		},
		{
			"buffer":0,
			"byteLength":656,
			"byteOffset":602640,
			"target":34962
		}
	],
	"samplers":[
		{
			"magFilter":9729,
			"minFilter":9987
		}
	],
	"buffers":[
		{
			"byteLength":603296,
			"uri":"paddle.bin"
		}
	]
}
