{
	"asset":{
		"generator":"Khronos glTF Blender I/O v4.3.47",
		"version":"2.0"
	},
	"scene":0,
	"scenes":[
		{
			"name":"Scene",
			"nodes":[
				0,
				1
			]
		}
	],
	"nodes":[
		{
			"mesh":0,
			"name":"piece_pawn_white_04",
			"rotation":[
				0,
				0,
				-0.5879427790641785,
				0.8089025616645813
			],
			"translation":[
				-0.0017509395256638527,
				0.03568016365170479,
				0.2243897169828415
			]
		},
		{
			"mesh":1,
			"name":"piece_king_black",
			"rotation":[
				0,
				0,
				0.09255703538656235,
				0.9957074522972107
			],
			"translation":[
				0.028944021090865135,
				0.017392585054039955,
				0.2026081383228302
			]
		}
	],
	"materials":[
		{
			"doubleSided":true,
			"name":"chess_set_pieces_white",
			"normalTexture":{
				"index":0
			},
			"pbrMetallicRoughness":{
				"baseColorTexture":{
					"index":1
				},
				"metallicFactor":0,
				"metallicRoughnessTexture":{
					"index":2
				}
			}
		},
		{
			"doubleSided":true,
			"name":"chess_set_pieces_black",
			"normalTexture":{
				"index":3
			},
			"pbrMetallicRoughness":{
				"baseColorTexture":{
					"index":4
				},
				"metallicFactor":0,
				"metallicRoughnessTexture":{
					"index":5
				}
			}
		}
	],
	"meshes":[
		{
			"name":"Cylinder.016",
			"primitives":[
				{
					"attributes":{
						"POSITION":0,
						"NORMAL":1,
						"TEXCOORD_0":2
					},
					"indices":3,
					"material":0
				}
			]
		},
		{
			"name":"Cylinder.024",
			"primitives":[
				{
					"attributes":{
						"POSITION":4,
						"NORMAL":5,
						"TEXCOORD_0":6,
						"TEXCOORD_1":7
					},
					"indices":8,
					"material":1
				}
			]
		}
	],
	"textures":[
		{
			"sampler":0,
			"source":0
		},
		{
			"sampler":0,
			"source":1
		},
		{
			"sampler":0,
			"source":2
		},
		{
			"sampler":0,
			"source":3
		},
		{
			"sampler":0,
			"source":4
		},
		{
			"sampler":0,
			"source":5
		}
	],
	"images":[
		{
			"mimeType":"image/jpeg",
			"name":"chess_set_pieces_white_nor_gl_4k",
			"uri":"chess_set_pieces_white_nor_gl_4k.jpg"
		},
		{
			"mimeType":"image/jpeg",
			"name":"chess_set_pieces_white_diff_4k",
			"uri":"chess_set_pieces_white_diff_4k.jpg"
		},
		{
			"mimeType":"image/jpeg",
			"name":"chess_set_pieces_white_arm_4k",
			"uri":"chess_set_pieces_white_arm_4k.jpg"
		},
		{
			"mimeType":"image/jpeg",
			"name":"chess_set_pieces_black_nor_gl_4k",
			"uri":"chess_set_pieces_black_nor_gl_4k.jpg"
		},
		{
			"mimeType":"image/jpeg",
			"name":"chess_set_pieces_black_diff_4k",
			"uri":"chess_set_pieces_black_diff_4k.jpg"
		},
		{
			"mimeType":"image/jpeg",
			"name":"chess_set_pieces_black_arm_4k",
			"uri":"chess_set_pieces_black_arm_4k.jpg"
		}
	],
	"accessors":[
		{
			"bufferView":0,
			"componentType":5126,
			"count":1038,
			"max":[
				0.014483553357422352,
				0.053703341633081436,
				0.01444040797650814
			],
			"min":[
				-0.014420497231185436,
				-7.083472031155225e-09,
				-0.014433925040066242
			],
			"type":"VEC3"
		},
		{
			"bufferView":1,
			"componentType":5126,
			"count":1038,
			"type":"VEC3"
		},
		{
			"bufferView":2,
			"componentType":5126,
			"count":1038,
			"type":"VEC2"
		},
		{
			"bufferView":3,
			"componentType":5123,
			"count":4920,
			"type":"SCALAR"
		},
		{
			"bufferView":4,
			"componentType":5126,
			"count":2643,
			"max":[
				0.020774858072400093,
				0.09500318765640259,
				0.02085612155497074
			],
			"min":[
				-0.02075229398906231,
				0,
				-0.02086399495601654
			],
			"type":"VEC3"
		},
		{
			"bufferView":5,
			"componentType":5126,
			"count":2643,
			"type":"VEC3"
		},
		{
			"bufferView":6,
			"componentType":5126,
			"count":2643,
			"type":"VEC2"
		},
		{
			"bufferView":7,
			"componentType":5126,
			"count":2643,
			"type":"VEC2"
		},
		{
			"bufferView":8,
			"componentType":5123,
			"count":12516,
			"type":"SCALAR"
		}
	],
	"bufferViews":[
		{
			"buffer":0,
			"byteLength":12456,
			"byteOffset":0,
			"target":34962
		},
		{
			"buffer":0,
			"byteLength":12456,
			"byteOffset":12456,
			"target":34962
		},
		{
			"buffer":0,
			"byteLength":8304,
			"byteOffset":24912,
			"target":34962
		},
		{
			"buffer":0,
			"byteLength":9840,
			"byteOffset":33216,
			"target":34963
		},
		{
			"buffer":0,
			"byteLength":31716,
			"byteOffset":43056,
			"target":34962
		},
		{
			"buffer":0,
			"byteLength":31716,
			"byteOffset":74772,
			"target":34962
		},
		{
			"buffer":0,
			"byteLength":21144,
			"byteOffset":106488,
			"target":34962
		},
		{
			"buffer":0,
			"byteLength":21144,
			"byteOffset":127632,
			"target":34962
		},
		{
			"buffer":0,
			"byteLength":25032,
			"byteOffset":148776,
			"target":34963
		}
	],
	"samplers":[
		{
			"magFilter":9729,
			"minFilter":9987
		}
	],
	"buffers":[
		{
			"byteLength":173808,
			"uri":"king_pown.bin"
		}
	]
}
