<svg width="589" height="478" viewBox="0 0 589 478" fill="none" xmlns="http://www.w3.org/2000/svg">
<g filter="url(#filter0_d_768_348)">
<rect x="4" width="581" height="470" rx="12" fill="#1D1E22" shape-rendering="crispEdges"/>
<path d="M227.349 39.32V49.952C227.349 51.216 227.677 52.168 228.333 52.808C229.005 53.448 229.933 53.768 231.117 53.768C232.317 53.768 233.245 53.448 233.901 52.808C234.573 52.168 234.909 51.216 234.909 49.952V39.32H237.645V49.904C237.645 51.264 237.349 52.416 236.757 53.36C236.165 54.304 235.373 55.008 234.381 55.472C233.389 55.936 232.293 56.168 231.093 56.168C229.893 56.168 228.797 55.936 227.805 55.472C226.829 55.008 226.053 54.304 225.477 53.36C224.901 52.416 224.613 51.264 224.613 49.904V39.32H227.349ZM245.527 56.216C244.487 56.216 243.551 56.032 242.719 55.664C241.903 55.28 241.255 54.768 240.775 54.128C240.295 53.472 240.039 52.744 240.007 51.944H242.839C242.887 52.504 243.151 52.976 243.631 53.36C244.127 53.728 244.743 53.912 245.479 53.912C246.247 53.912 246.839 53.768 247.255 53.48C247.687 53.176 247.903 52.792 247.903 52.328C247.903 51.832 247.663 51.464 247.183 51.224C246.719 50.984 245.975 50.72 244.951 50.432C243.959 50.16 243.151 49.896 242.527 49.64C241.903 49.384 241.359 48.992 240.895 48.464C240.447 47.936 240.223 47.24 240.223 46.376C240.223 45.672 240.431 45.032 240.847 44.456C241.263 43.864 241.855 43.4 242.623 43.064C243.407 42.728 244.303 42.56 245.311 42.56C246.815 42.56 248.023 42.944 248.935 43.712C249.863 44.464 250.359 45.496 250.423 46.808H247.687C247.639 46.216 247.399 45.744 246.967 45.392C246.535 45.04 245.951 44.864 245.215 44.864C244.495 44.864 243.943 45 243.559 45.272C243.175 45.544 242.983 45.904 242.983 46.352C242.983 46.704 243.111 47 243.367 47.24C243.623 47.48 243.935 47.672 244.303 47.816C244.671 47.944 245.215 48.112 245.935 48.32C246.895 48.576 247.679 48.84 248.287 49.112C248.911 49.368 249.447 49.752 249.895 50.264C250.343 50.776 250.575 51.456 250.591 52.304C250.591 53.056 250.383 53.728 249.967 54.32C249.551 54.912 248.959 55.376 248.191 55.712C247.439 56.048 246.551 56.216 245.527 56.216ZM265.188 49.064C265.188 49.56 265.156 50.008 265.092 50.408H254.988C255.068 51.464 255.46 52.312 256.164 52.952C256.868 53.592 257.732 53.912 258.756 53.912C260.228 53.912 261.268 53.296 261.876 52.064H264.828C264.428 53.28 263.7 54.28 262.644 55.064C261.604 55.832 260.308 56.216 258.756 56.216C257.492 56.216 256.356 55.936 255.348 55.376C254.356 54.8 253.572 54 252.996 52.976C252.436 51.936 252.156 50.736 252.156 49.376C252.156 48.016 252.428 46.824 252.972 45.8C253.532 44.76 254.308 43.96 255.3 43.4C256.308 42.84 257.46 42.56 258.756 42.56C260.004 42.56 261.116 42.832 262.092 43.376C263.068 43.92 263.828 44.688 264.372 45.68C264.916 46.656 265.188 47.784 265.188 49.064ZM262.332 48.2C262.316 47.192 261.956 46.384 261.252 45.776C260.548 45.168 259.676 44.864 258.636 44.864C257.692 44.864 256.884 45.168 256.212 45.776C255.54 46.368 255.14 47.176 255.012 48.2H262.332ZM270.136 44.696C270.536 44.024 271.064 43.504 271.72 43.136C272.392 42.752 273.184 42.56 274.096 42.56V45.392H273.4C272.328 45.392 271.512 45.664 270.952 46.208C270.408 46.752 270.136 47.696 270.136 49.04V56H267.4V42.776H270.136V44.696ZM291.941 52.592H284.957L283.757 56H280.901L286.877 39.296H290.045L296.021 56H293.141L291.941 52.592ZM291.173 50.36L288.461 42.608L285.725 50.36H291.173ZM297.228 49.376C297.228 48.016 297.5 46.824 298.044 45.8C298.604 44.76 299.372 43.96 300.348 43.4C301.324 42.84 302.444 42.56 303.708 42.56C305.308 42.56 306.628 42.944 307.668 43.712C308.724 44.464 309.436 45.544 309.804 46.952H306.852C306.612 46.296 306.228 45.784 305.7 45.416C305.172 45.048 304.508 44.864 303.708 44.864C302.588 44.864 301.692 45.264 301.02 46.064C300.364 46.848 300.036 47.952 300.036 49.376C300.036 50.8 300.364 51.912 301.02 52.712C301.692 53.512 302.588 53.912 303.708 53.912C305.292 53.912 306.34 53.216 306.852 51.824H309.804C309.42 53.168 308.7 54.24 307.644 55.04C306.588 55.824 305.276 56.216 303.708 56.216C302.444 56.216 301.324 55.936 300.348 55.376C299.372 54.8 298.604 54 298.044 52.976C297.5 51.936 297.228 50.736 297.228 49.376ZM315.242 45.008V52.328C315.242 52.824 315.354 53.184 315.578 53.408C315.818 53.616 316.218 53.72 316.778 53.72H318.458V56H316.298C315.066 56 314.122 55.712 313.466 55.136C312.81 54.56 312.482 53.624 312.482 52.328V45.008H310.922V42.776H312.482V39.488H315.242V42.776H318.458V45.008H315.242ZM321.892 41.024C321.396 41.024 320.98 40.856 320.644 40.52C320.308 40.184 320.14 39.768 320.14 39.272C320.14 38.776 320.308 38.36 320.644 38.024C320.98 37.688 321.396 37.52 321.892 37.52C322.372 37.52 322.78 37.688 323.116 38.024C323.452 38.36 323.62 38.776 323.62 39.272C323.62 39.768 323.452 40.184 323.116 40.52C322.78 40.856 322.372 41.024 321.892 41.024ZM323.236 42.776V56H320.5V42.776H323.236ZM331.46 53.552L335.204 42.776H338.108L333.068 56H329.804L324.788 42.776H327.716L331.46 53.552ZM341.088 41.024C340.592 41.024 340.176 40.856 339.84 40.52C339.504 40.184 339.336 39.768 339.336 39.272C339.336 38.776 339.504 38.36 339.84 38.024C340.176 37.688 340.592 37.52 341.088 37.52C341.568 37.52 341.976 37.688 342.312 38.024C342.648 38.36 342.816 38.776 342.816 39.272C342.816 39.768 342.648 40.184 342.312 40.52C341.976 40.856 341.568 41.024 341.088 41.024ZM342.432 42.776V56H339.696V42.776H342.432ZM348.737 45.008V52.328C348.737 52.824 348.849 53.184 349.073 53.408C349.313 53.616 349.713 53.72 350.273 53.72H351.953V56H349.793C348.561 56 347.617 55.712 346.961 55.136C346.305 54.56 345.977 53.624 345.977 52.328V45.008H344.417V42.776H345.977V39.488H348.737V42.776H351.953V45.008H348.737ZM365.898 42.776L357.786 62.216H354.954L357.642 55.784L352.434 42.776H355.482L359.202 52.856L363.066 42.776H365.898Z" fill="white"/>
<path d="M63.2225 424.064V415.664H64.7225L67.5665 421.256L70.3985 415.664H71.8985V424.064H70.6265V417.86L68.0585 422.864H67.0745L64.4945 417.872V424.064H63.2225ZM76.1013 424.208C75.5333 424.208 75.0213 424.08 74.5653 423.824C74.1173 423.56 73.7613 423.196 73.4973 422.732C73.2333 422.26 73.1013 421.712 73.1013 421.088C73.1013 420.464 73.2333 419.92 73.4973 419.456C73.7693 418.984 74.1333 418.62 74.5893 418.364C75.0453 418.1 75.5533 417.968 76.1133 417.968C76.6813 417.968 77.1893 418.1 77.6373 418.364C78.0933 418.62 78.4533 418.984 78.7173 419.456C78.9893 419.92 79.1253 420.464 79.1253 421.088C79.1253 421.712 78.9893 422.26 78.7173 422.732C78.4533 423.196 78.0933 423.56 77.6373 423.824C77.1813 424.08 76.6693 424.208 76.1013 424.208ZM76.1013 423.116C76.4053 423.116 76.6853 423.04 76.9413 422.888C77.2053 422.736 77.4173 422.512 77.5773 422.216C77.7373 421.912 77.8173 421.536 77.8173 421.088C77.8173 420.64 77.7373 420.268 77.5773 419.972C77.4253 419.668 77.2173 419.44 76.9533 419.288C76.6973 419.136 76.4173 419.06 76.1133 419.06C75.8093 419.06 75.5253 419.136 75.2613 419.288C75.0053 419.44 74.7973 419.668 74.6373 419.972C74.4773 420.268 74.3973 420.64 74.3973 421.088C74.3973 421.536 74.4773 421.912 74.6373 422.216C74.7973 422.512 75.0053 422.736 75.2613 422.888C75.5173 423.04 75.7973 423.116 76.1013 423.116ZM80.2609 424.064V418.112H81.3889L81.4849 419.156C81.6689 418.788 81.9369 418.5 82.2889 418.292C82.6489 418.076 83.0609 417.968 83.5249 417.968C84.2449 417.968 84.8089 418.192 85.2169 418.64C85.6329 419.088 85.8409 419.756 85.8409 420.644V424.064H84.5809V420.776C84.5809 419.624 84.1089 419.048 83.1649 419.048C82.6929 419.048 82.3009 419.216 81.9889 419.552C81.6849 419.888 81.5329 420.368 81.5329 420.992V424.064H80.2609Z" fill="white"/>
<path d="M134.223 424.064V416.696H131.739V415.664H137.967V416.696H135.495V424.064H134.223ZM140.467 424.208C139.747 424.208 139.179 423.984 138.763 423.536C138.355 423.088 138.151 422.42 138.151 421.532V418.112H139.423V421.4C139.423 422.552 139.895 423.128 140.839 423.128C141.311 423.128 141.699 422.96 142.003 422.624C142.307 422.288 142.459 421.808 142.459 421.184V418.112H143.731V424.064H142.603L142.507 423.02C142.323 423.388 142.051 423.68 141.691 423.896C141.339 424.104 140.931 424.208 140.467 424.208ZM147.894 424.208C147.31 424.208 146.79 424.08 146.334 423.824C145.886 423.56 145.534 423.196 145.278 422.732C145.022 422.268 144.894 421.728 144.894 421.112C144.894 420.488 145.018 419.94 145.266 419.468C145.522 418.996 145.874 418.628 146.322 418.364C146.778 418.1 147.306 417.968 147.906 417.968C148.49 417.968 148.998 418.1 149.43 418.364C149.862 418.62 150.198 418.964 150.438 419.396C150.678 419.828 150.798 420.304 150.798 420.824C150.798 420.904 150.794 420.992 150.786 421.088C150.786 421.176 150.782 421.276 150.774 421.388H146.142C146.182 421.964 146.37 422.404 146.706 422.708C147.05 423.004 147.446 423.152 147.894 423.152C148.254 423.152 148.554 423.072 148.794 422.912C149.042 422.744 149.226 422.52 149.346 422.24H150.618C150.458 422.8 150.138 423.268 149.658 423.644C149.186 424.02 148.598 424.208 147.894 424.208ZM147.894 419.012C147.47 419.012 147.094 419.14 146.766 419.396C146.438 419.644 146.238 420.02 146.166 420.524H149.526C149.502 420.06 149.338 419.692 149.034 419.42C148.73 419.148 148.35 419.012 147.894 419.012Z" fill="#FBFBFB"/>
<path d="M198.105 424.076L195.837 415.664H197.205L198.873 422.624L200.793 415.664H202.197L204.057 422.624L205.725 415.664H207.093L204.789 424.064H203.301L201.465 417.476L199.569 424.064L198.105 424.076ZM210.135 424.208C209.551 424.208 209.031 424.08 208.575 423.824C208.127 423.56 207.775 423.196 207.519 422.732C207.263 422.268 207.135 421.728 207.135 421.112C207.135 420.488 207.259 419.94 207.507 419.468C207.763 418.996 208.115 418.628 208.563 418.364C209.019 418.1 209.547 417.968 210.147 417.968C210.731 417.968 211.239 418.1 211.671 418.364C212.103 418.62 212.439 418.964 212.679 419.396C212.919 419.828 213.039 420.304 213.039 420.824C213.039 420.904 213.035 420.992 213.027 421.088C213.027 421.176 213.023 421.276 213.015 421.388H208.383C208.423 421.964 208.611 422.404 208.947 422.708C209.291 423.004 209.687 423.152 210.135 423.152C210.495 423.152 210.795 423.072 211.035 422.912C211.283 422.744 211.467 422.52 211.587 422.24H212.859C212.699 422.8 212.379 423.268 211.899 423.644C211.427 424.02 210.839 424.208 210.135 424.208ZM210.135 419.012C209.711 419.012 209.335 419.14 209.007 419.396C208.679 419.644 208.479 420.02 208.407 420.524H211.767C211.743 420.06 211.579 419.692 211.275 419.42C210.971 419.148 210.591 419.012 210.135 419.012ZM216.831 424.208C216.255 424.208 215.747 424.072 215.307 423.8C214.867 423.528 214.523 423.156 214.275 422.684C214.027 422.212 213.903 421.676 213.903 421.076C213.903 420.476 214.027 419.944 214.275 419.48C214.523 419.008 214.867 418.64 215.307 418.376C215.755 418.104 216.267 417.968 216.843 417.968C217.315 417.968 217.727 418.06 218.079 418.244C218.439 418.428 218.719 418.688 218.919 419.024V415.424H220.191V424.064H219.051L218.919 423.14C218.727 423.42 218.463 423.668 218.127 423.884C217.791 424.1 217.359 424.208 216.831 424.208ZM217.059 423.104C217.603 423.104 218.047 422.916 218.391 422.54C218.743 422.164 218.919 421.68 218.919 421.088C218.919 420.488 218.743 420.004 218.391 419.636C218.047 419.26 217.603 419.072 217.059 419.072C216.515 419.072 216.067 419.26 215.715 419.636C215.363 420.004 215.187 420.488 215.187 421.088C215.187 421.48 215.267 421.828 215.427 422.132C215.587 422.436 215.807 422.676 216.087 422.852C216.375 423.02 216.699 423.104 217.059 423.104Z" fill="white"/>
<path d="M267.7 424.064V416.696H265.216V415.664H271.444V416.696H268.972V424.064H267.7ZM272.346 424.064V415.424H273.618V419.072C273.818 418.728 274.094 418.46 274.446 418.268C274.806 418.068 275.202 417.968 275.634 417.968C276.346 417.968 276.906 418.192 277.314 418.64C277.722 419.088 277.926 419.756 277.926 420.644V424.064H276.666V420.776C276.666 419.624 276.206 419.048 275.286 419.048C274.806 419.048 274.406 419.216 274.086 419.552C273.774 419.888 273.618 420.368 273.618 420.992V424.064H272.346ZM281.38 424.208C280.66 424.208 280.092 423.984 279.676 423.536C279.268 423.088 279.064 422.42 279.064 421.532V418.112H280.336V421.4C280.336 422.552 280.808 423.128 281.752 423.128C282.224 423.128 282.612 422.96 282.916 422.624C283.22 422.288 283.372 421.808 283.372 421.184V418.112H284.644V424.064H283.516L283.42 423.02C283.236 423.388 282.964 423.68 282.604 423.896C282.252 424.104 281.844 424.208 281.38 424.208Z" fill="white"/>
<path d="M336.112 424.064V415.664H341.38V416.696H337.384V419.348H340.696V420.368H337.384V424.064H336.112ZM342.34 424.064V418.112H343.48L343.588 419.24C343.796 418.848 344.084 418.54 344.452 418.316C344.828 418.084 345.28 417.968 345.808 417.968V419.3H345.46C345.108 419.3 344.792 419.36 344.512 419.48C344.24 419.592 344.02 419.788 343.852 420.068C343.692 420.34 343.612 420.72 343.612 421.208V424.064H342.34ZM347.378 416.984C347.138 416.984 346.938 416.912 346.778 416.768C346.626 416.616 346.55 416.428 346.55 416.204C346.55 415.98 346.626 415.796 346.778 415.652C346.938 415.5 347.138 415.424 347.378 415.424C347.618 415.424 347.814 415.5 347.966 415.652C348.126 415.796 348.206 415.98 348.206 416.204C348.206 416.428 348.126 416.616 347.966 416.768C347.814 416.912 347.618 416.984 347.378 416.984ZM346.742 424.064V418.112H348.014V424.064H346.742Z" fill="white"/>
<path d="M403.645 424.144C403.029 424.144 402.489 424.036 402.025 423.82C401.561 423.604 401.197 423.296 400.933 422.896C400.677 422.496 400.545 422.02 400.537 421.468H401.881C401.889 421.916 402.045 422.296 402.349 422.608C402.653 422.92 403.081 423.076 403.633 423.076C404.121 423.076 404.501 422.96 404.773 422.728C405.053 422.488 405.193 422.184 405.193 421.816C405.193 421.52 405.125 421.28 404.989 421.096C404.861 420.912 404.681 420.76 404.449 420.64C404.225 420.52 403.965 420.412 403.669 420.316C403.373 420.22 403.061 420.116 402.733 420.004C402.085 419.788 401.597 419.508 401.269 419.164C400.949 418.82 400.789 418.368 400.789 417.808C400.781 417.336 400.889 416.924 401.113 416.572C401.345 416.22 401.665 415.948 402.073 415.756C402.489 415.556 402.973 415.456 403.525 415.456C404.069 415.456 404.545 415.556 404.953 415.756C405.369 415.956 405.693 416.236 405.925 416.596C406.157 416.948 406.277 417.36 406.285 417.832H404.941C404.941 417.616 404.885 417.412 404.773 417.22C404.661 417.02 404.497 416.856 404.281 416.728C404.065 416.6 403.801 416.536 403.489 416.536C403.089 416.528 402.757 416.628 402.493 416.836C402.237 417.044 402.109 417.332 402.109 417.7C402.109 418.028 402.205 418.28 402.397 418.456C402.589 418.632 402.853 418.78 403.189 418.9C403.525 419.012 403.909 419.144 404.341 419.296C404.757 419.432 405.129 419.596 405.457 419.788C405.785 419.98 406.045 420.232 406.237 420.544C406.437 420.856 406.537 421.252 406.537 421.732C406.537 422.156 406.429 422.552 406.213 422.92C405.997 423.28 405.673 423.576 405.241 423.808C404.809 424.032 404.277 424.144 403.645 424.144ZM409.656 424.144C409.152 424.144 408.736 424.06 408.408 423.892C408.08 423.724 407.836 423.504 407.676 423.232C407.516 422.952 407.436 422.648 407.436 422.32C407.436 421.744 407.66 421.288 408.108 420.952C408.556 420.616 409.196 420.448 410.028 420.448H411.588V420.34C411.588 419.876 411.46 419.528 411.204 419.296C410.956 419.064 410.632 418.948 410.232 418.948C409.88 418.948 409.572 419.036 409.308 419.212C409.052 419.38 408.896 419.632 408.84 419.968H407.568C407.608 419.536 407.752 419.168 408 418.864C408.256 418.552 408.576 418.316 408.96 418.156C409.352 417.988 409.78 417.904 410.244 417.904C411.076 417.904 411.72 418.124 412.176 418.564C412.632 418.996 412.86 419.588 412.86 420.34V424H411.756L411.648 422.98C411.48 423.308 411.236 423.584 410.916 423.808C410.596 424.032 410.176 424.144 409.656 424.144ZM409.908 423.112C410.252 423.112 410.54 423.032 410.772 422.872C411.012 422.704 411.196 422.484 411.324 422.212C411.46 421.94 411.544 421.64 411.576 421.312H410.16C409.656 421.312 409.296 421.4 409.08 421.576C408.872 421.752 408.768 421.972 408.768 422.236C408.768 422.508 408.868 422.724 409.068 422.884C409.276 423.036 409.556 423.112 409.908 423.112ZM416.482 424C415.898 424 415.434 423.86 415.09 423.58C414.746 423.292 414.574 422.784 414.574 422.056V419.116H413.554V418.048H414.574L414.73 416.536H415.846V418.048H417.526V419.116H415.846V422.056C415.846 422.384 415.914 422.612 416.05 422.74C416.194 422.86 416.438 422.92 416.782 422.92H417.466V424H416.482Z" fill="white"/>
<path d="M469.239 424.208C468.623 424.208 468.083 424.1 467.619 423.884C467.155 423.668 466.791 423.36 466.527 422.96C466.271 422.56 466.139 422.084 466.131 421.532H467.475C467.483 421.98 467.639 422.36 467.943 422.672C468.247 422.984 468.675 423.14 469.227 423.14C469.715 423.14 470.095 423.024 470.367 422.792C470.647 422.552 470.787 422.248 470.787 421.88C470.787 421.584 470.719 421.344 470.583 421.16C470.455 420.976 470.275 420.824 470.043 420.704C469.819 420.584 469.559 420.476 469.263 420.38C468.967 420.284 468.655 420.18 468.327 420.068C467.679 419.852 467.191 419.572 466.863 419.228C466.543 418.884 466.383 418.432 466.383 417.872C466.375 417.4 466.483 416.988 466.707 416.636C466.939 416.284 467.259 416.012 467.667 415.82C468.083 415.62 468.567 415.52 469.119 415.52C469.663 415.52 470.139 415.62 470.547 415.82C470.963 416.02 471.287 416.3 471.519 416.66C471.751 417.012 471.871 417.424 471.879 417.896H470.535C470.535 417.68 470.479 417.476 470.367 417.284C470.255 417.084 470.091 416.92 469.875 416.792C469.659 416.664 469.395 416.6 469.083 416.6C468.683 416.592 468.351 416.692 468.087 416.9C467.831 417.108 467.703 417.396 467.703 417.764C467.703 418.092 467.799 418.344 467.991 418.52C468.183 418.696 468.447 418.844 468.783 418.964C469.119 419.076 469.503 419.208 469.935 419.36C470.351 419.496 470.723 419.66 471.051 419.852C471.379 420.044 471.639 420.296 471.831 420.608C472.031 420.92 472.131 421.316 472.131 421.796C472.131 422.22 472.023 422.616 471.807 422.984C471.591 423.344 471.267 423.64 470.835 423.872C470.403 424.096 469.871 424.208 469.239 424.208ZM475.429 424.208C474.709 424.208 474.141 423.984 473.725 423.536C473.317 423.088 473.113 422.42 473.113 421.532V418.112H474.385V421.4C474.385 422.552 474.857 423.128 475.801 423.128C476.273 423.128 476.661 422.96 476.965 422.624C477.269 422.288 477.421 421.808 477.421 421.184V418.112H478.693V424.064H477.565L477.469 423.02C477.285 423.388 477.013 423.68 476.653 423.896C476.301 424.104 475.893 424.208 475.429 424.208ZM480.071 424.064V418.112H481.199L481.295 419.156C481.479 418.788 481.747 418.5 482.099 418.292C482.459 418.076 482.871 417.968 483.335 417.968C484.055 417.968 484.619 418.192 485.027 418.64C485.443 419.088 485.651 419.756 485.651 420.644V424.064H484.391V420.776C484.391 419.624 483.919 419.048 482.975 419.048C482.503 419.048 482.111 419.216 481.799 419.552C481.495 419.888 481.343 420.368 481.343 420.992V424.064H480.071Z" fill="white"/>
<rect x="54.5" y="228" width="55" height="161" rx="8" fill="#5E97A9"/>
<rect x="125.5" y="125" width="55" height="264" rx="8" fill="#5E97A9"/>
<rect x="196.5" y="326" width="55" height="63" rx="8" fill="#5E97A9"/>
<rect x="267.5" y="203" width="55" height="186" rx="8" fill="#5E97A9"/>
<rect x="338.5" y="326" width="55" height="63" rx="8" fill="#5E97A9"/>
<rect x="409.5" y="277" width="55" height="112" rx="8" fill="#5E97A9"/>
<rect x="480.5" y="326" width="55" height="63" rx="8" fill="#5E97A9"/>
</g>
<defs>
<filter id="filter0_d_768_348" x="0" y="0" width="589" height="478" filterUnits="userSpaceOnUse" color-interpolation-filters="sRGB">
<feFlood flood-opacity="0" result="BackgroundImageFix"/>
<feColorMatrix in="SourceAlpha" type="matrix" values="0 0 0 0 0 0 0 0 0 0 0 0 0 0 0 0 0 0 127 0" result="hardAlpha"/>
<feOffset dy="4"/>
<feGaussianBlur stdDeviation="2"/>
<feComposite in2="hardAlpha" operator="out"/>
<feColorMatrix type="matrix" values="0 0 0 0 0 0 0 0 0 0 0 0 0 0 0 0 0 0 0.25 0"/>
<feBlend mode="normal" in2="BackgroundImageFix" result="effect1_dropShadow_768_348"/>
<feBlend mode="normal" in="SourceGraphic" in2="effect1_dropShadow_768_348" result="shape"/>
</filter>
</defs>
</svg>
