<svg width="968" height="508" viewBox="0 0 968 508" fill="none" xmlns="http://www.w3.org/2000/svg">
<g filter="url(#filter0_d_768_292)">
<rect x="4" width="960" height="500" rx="12" fill="#1D1E22" shape-rendering="crispEdges"/>
<path d="M380.759 37.12C380.327 36.288 379.727 35.664 378.959 35.248C378.191 34.816 377.303 34.6 376.295 34.6C375.191 34.6 374.207 34.848 373.343 35.344C372.479 35.84 371.799 36.544 371.303 37.456C370.823 38.368 370.583 39.424 370.583 40.624C370.583 41.824 370.823 42.888 371.303 43.816C371.799 44.728 372.479 45.432 373.343 45.928C374.207 46.424 375.191 46.672 376.295 46.672C377.783 46.672 378.991 46.256 379.919 45.424C380.847 44.592 381.415 43.464 381.623 42.04H375.359V39.856H384.551V41.992C384.375 43.288 383.911 44.48 383.159 45.568C382.423 46.656 381.455 47.528 380.255 48.184C379.071 48.824 377.751 49.144 376.295 49.144C374.727 49.144 373.295 48.784 371.999 48.064C370.703 47.328 369.671 46.312 368.903 45.016C368.151 43.72 367.775 42.256 367.775 40.624C367.775 38.992 368.151 37.528 368.903 36.232C369.671 34.936 370.703 33.928 371.999 33.208C373.311 32.472 374.743 32.104 376.295 32.104C378.071 32.104 379.647 32.544 381.023 33.424C382.415 34.288 383.423 35.52 384.047 37.12H380.759ZM385.858 42.328C385.858 41 386.13 39.824 386.674 38.8C387.234 37.776 387.986 36.984 388.93 36.424C389.89 35.848 390.946 35.56 392.098 35.56C393.138 35.56 394.042 35.768 394.81 36.184C395.594 36.584 396.218 37.088 396.682 37.696V35.776H399.442V49H396.682V47.032C396.218 47.656 395.586 48.176 394.786 48.592C393.986 49.008 393.074 49.216 392.05 49.216C390.914 49.216 389.874 48.928 388.93 48.352C387.986 47.76 387.234 46.944 386.674 45.904C386.13 44.848 385.858 43.656 385.858 42.328ZM396.682 42.376C396.682 41.464 396.49 40.672 396.106 40C395.738 39.328 395.25 38.816 394.642 38.464C394.034 38.112 393.378 37.936 392.674 37.936C391.97 37.936 391.314 38.112 390.706 38.464C390.098 38.8 389.602 39.304 389.218 39.976C388.85 40.632 388.666 41.416 388.666 42.328C388.666 43.24 388.85 44.04 389.218 44.728C389.602 45.416 390.098 45.944 390.706 46.312C391.33 46.664 391.986 46.84 392.674 46.84C393.378 46.84 394.034 46.664 394.642 46.312C395.25 45.96 395.738 45.448 396.106 44.776C396.49 44.088 396.682 43.288 396.682 42.376ZM418.563 35.56C419.603 35.56 420.531 35.776 421.347 36.208C422.179 36.64 422.827 37.28 423.291 38.128C423.771 38.976 424.011 40 424.011 41.2V49H421.299V41.608C421.299 40.424 421.003 39.52 420.411 38.896C419.819 38.256 419.011 37.936 417.987 37.936C416.963 37.936 416.147 38.256 415.539 38.896C414.947 39.52 414.651 40.424 414.651 41.608V49H411.939V41.608C411.939 40.424 411.643 39.52 411.051 38.896C410.459 38.256 409.651 37.936 408.627 37.936C407.603 37.936 406.787 38.256 406.179 38.896C405.587 39.52 405.291 40.424 405.291 41.608V49H402.555V35.776H405.291V37.288C405.739 36.744 406.307 36.32 406.995 36.016C407.683 35.712 408.419 35.56 409.203 35.56C410.259 35.56 411.203 35.784 412.035 36.232C412.867 36.68 413.507 37.328 413.955 38.176C414.355 37.376 414.979 36.744 415.827 36.28C416.675 35.8 417.587 35.56 418.563 35.56ZM439.133 42.064C439.133 42.56 439.101 43.008 439.037 43.408H428.933C429.013 44.464 429.405 45.312 430.109 45.952C430.813 46.592 431.677 46.912 432.701 46.912C434.173 46.912 435.213 46.296 435.821 45.064H438.773C438.373 46.28 437.645 47.28 436.589 48.064C435.549 48.832 434.253 49.216 432.701 49.216C431.437 49.216 430.301 48.936 429.293 48.376C428.301 47.8 427.517 47 426.941 45.976C426.381 44.936 426.101 43.736 426.101 42.376C426.101 41.016 426.373 39.824 426.917 38.8C427.477 37.76 428.253 36.96 429.245 36.4C430.253 35.84 431.405 35.56 432.701 35.56C433.949 35.56 435.061 35.832 436.037 36.376C437.013 36.92 437.773 37.688 438.317 38.68C438.861 39.656 439.133 40.784 439.133 42.064ZM436.277 41.2C436.261 40.192 435.901 39.384 435.197 38.776C434.493 38.168 433.621 37.864 432.581 37.864C431.637 37.864 430.829 38.168 430.157 38.776C429.485 39.368 429.085 40.176 428.957 41.2H436.277ZM446.145 49.216C445.105 49.216 444.169 49.032 443.337 48.664C442.521 48.28 441.873 47.768 441.393 47.128C440.913 46.472 440.657 45.744 440.625 44.944H443.457C443.505 45.504 443.769 45.976 444.249 46.36C444.745 46.728 445.361 46.912 446.097 46.912C446.865 46.912 447.457 46.768 447.873 46.48C448.305 46.176 448.521 45.792 448.521 45.328C448.521 44.832 448.281 44.464 447.801 44.224C447.337 43.984 446.593 43.72 445.569 43.432C444.577 43.16 443.769 42.896 443.145 42.64C442.521 42.384 441.977 41.992 441.513 41.464C441.065 40.936 440.841 40.24 440.841 39.376C440.841 38.672 441.049 38.032 441.465 37.456C441.881 36.864 442.473 36.4 443.241 36.064C444.025 35.728 444.921 35.56 445.929 35.56C447.433 35.56 448.641 35.944 449.553 36.712C450.481 37.464 450.977 38.496 451.041 39.808H448.305C448.257 39.216 448.017 38.744 447.585 38.392C447.153 38.04 446.569 37.864 445.833 37.864C445.113 37.864 444.561 38 444.177 38.272C443.793 38.544 443.601 38.904 443.601 39.352C443.601 39.704 443.729 40 443.985 40.24C444.241 40.48 444.553 40.672 444.921 40.816C445.289 40.944 445.833 41.112 446.553 41.32C447.513 41.576 448.297 41.84 448.905 42.112C449.529 42.368 450.065 42.752 450.513 43.264C450.961 43.776 451.193 44.456 451.209 45.304C451.209 46.056 451.001 46.728 450.585 47.32C450.169 47.912 449.577 48.376 448.809 48.712C448.057 49.048 447.169 49.216 446.145 49.216ZM477.2 35.776L473.096 49H470.216L467.552 39.232L464.888 49H462.008L457.88 35.776H460.664L463.424 46.408L466.232 35.776H469.088L471.776 46.36L474.512 35.776H477.2ZM484.501 49.216C483.253 49.216 482.125 48.936 481.117 48.376C480.109 47.8 479.317 47 478.741 45.976C478.165 44.936 477.877 43.736 477.877 42.376C477.877 41.032 478.173 39.84 478.765 38.8C479.357 37.76 480.165 36.96 481.189 36.4C482.213 35.84 483.357 35.56 484.621 35.56C485.885 35.56 487.029 35.84 488.053 36.4C489.077 36.96 489.885 37.76 490.477 38.8C491.069 39.84 491.365 41.032 491.365 42.376C491.365 43.72 491.061 44.912 490.453 45.952C489.845 46.992 489.013 47.8 487.957 48.376C486.917 48.936 485.765 49.216 484.501 49.216ZM484.501 46.84C485.205 46.84 485.861 46.672 486.469 46.336C487.093 46 487.597 45.496 487.981 44.824C488.365 44.152 488.557 43.336 488.557 42.376C488.557 41.416 488.373 40.608 488.005 39.952C487.637 39.28 487.149 38.776 486.541 38.44C485.933 38.104 485.277 37.936 484.573 37.936C483.869 37.936 483.213 38.104 482.605 38.44C482.013 38.776 481.541 39.28 481.189 39.952C480.837 40.608 480.661 41.416 480.661 42.376C480.661 43.8 481.021 44.904 481.741 45.688C482.477 46.456 483.397 46.84 484.501 46.84ZM500.262 35.56C501.302 35.56 502.23 35.776 503.046 36.208C503.878 36.64 504.526 37.28 504.99 38.128C505.454 38.976 505.686 40 505.686 41.2V49H502.974V41.608C502.974 40.424 502.678 39.52 502.086 38.896C501.494 38.256 500.686 37.936 499.662 37.936C498.638 37.936 497.822 38.256 497.214 38.896C496.622 39.52 496.326 40.424 496.326 41.608V49H493.59V35.776H496.326V37.288C496.774 36.744 497.342 36.32 498.03 36.016C498.734 35.712 499.478 35.56 500.262 35.56ZM513.538 42.376C513.538 41.016 513.81 39.824 514.354 38.8C514.914 37.76 515.682 36.96 516.658 36.4C517.634 35.84 518.754 35.56 520.018 35.56C521.618 35.56 522.938 35.944 523.978 36.712C525.034 37.464 525.746 38.544 526.114 39.952H523.162C522.922 39.296 522.538 38.784 522.01 38.416C521.482 38.048 520.818 37.864 520.018 37.864C518.898 37.864 518.002 38.264 517.33 39.064C516.674 39.848 516.346 40.952 516.346 42.376C516.346 43.8 516.674 44.912 517.33 45.712C518.002 46.512 518.898 46.912 520.018 46.912C521.602 46.912 522.65 46.216 523.162 44.824H526.114C525.73 46.168 525.01 47.24 523.954 48.04C522.898 48.824 521.586 49.216 520.018 49.216C518.754 49.216 517.634 48.936 516.658 48.376C515.682 47.8 514.914 47 514.354 45.976C513.81 44.936 513.538 43.736 513.538 42.376ZM535.2 35.56C536.208 35.56 537.104 35.776 537.888 36.208C538.688 36.64 539.312 37.28 539.76 38.128C540.224 38.976 540.456 40 540.456 41.2V49H537.744V41.608C537.744 40.424 537.448 39.52 536.856 38.896C536.264 38.256 535.456 37.936 534.432 37.936C533.408 37.936 532.592 38.256 531.984 38.896C531.392 39.52 531.096 40.424 531.096 41.608V49H528.36V31.24H531.096V37.312C531.56 36.752 532.144 36.32 532.848 36.016C533.568 35.712 534.352 35.56 535.2 35.56ZM542.554 42.328C542.554 41 542.826 39.824 543.37 38.8C543.93 37.776 544.682 36.984 545.626 36.424C546.586 35.848 547.642 35.56 548.794 35.56C549.834 35.56 550.738 35.768 551.506 36.184C552.29 36.584 552.914 37.088 553.378 37.696V35.776H556.138V49H553.378V47.032C552.914 47.656 552.282 48.176 551.482 48.592C550.682 49.008 549.77 49.216 548.746 49.216C547.61 49.216 546.57 48.928 545.626 48.352C544.682 47.76 543.93 46.944 543.37 45.904C542.826 44.848 542.554 43.656 542.554 42.328ZM553.378 42.376C553.378 41.464 553.186 40.672 552.802 40C552.434 39.328 551.946 38.816 551.338 38.464C550.73 38.112 550.074 37.936 549.37 37.936C548.666 37.936 548.01 38.112 547.402 38.464C546.794 38.8 546.298 39.304 545.914 39.976C545.546 40.632 545.362 41.416 545.362 42.328C545.362 43.24 545.546 44.04 545.914 44.728C546.298 45.416 546.794 45.944 547.402 46.312C548.026 46.664 548.682 46.84 549.37 46.84C550.074 46.84 550.73 46.664 551.338 46.312C551.946 45.96 552.434 45.448 552.802 44.776C553.186 44.088 553.378 43.288 553.378 42.376ZM561.988 37.696C562.388 37.024 562.916 36.504 563.572 36.136C564.244 35.752 565.036 35.56 565.948 35.56V38.392H565.252C564.18 38.392 563.364 38.664 562.804 39.208C562.26 39.752 561.988 40.696 561.988 42.04V49H559.252V35.776H561.988V37.696ZM571.175 38.008V45.328C571.175 45.824 571.287 46.184 571.511 46.408C571.751 46.616 572.151 46.72 572.711 46.72H574.391V49H572.231C570.999 49 570.055 48.712 569.399 48.136C568.743 47.56 568.415 46.624 568.415 45.328V38.008H566.855V35.776H568.415V32.488H571.175V35.776H574.391V38.008H571.175Z" fill="white"/>
<path d="M108.421 302.963L124.141 254.465L162.319 289.246L176.916 263.773L192.637 285.817L219.586 273.081L245.412 292.186L261.133 273.081L294.819 285.817L303.802 263.773L339.734 282.878L352.086 251.036L377.912 279.449L390.264 251.036L395.878 273.081L435.179 292.186L449.777 273.081L464.374 289.246L493.569 279.449C501.804 280.429 518.497 283.074 519.395 285.817C520.294 288.561 533.244 286.96 539.607 285.817V269.161L562.065 279.449L580.031 254.465L593.506 285.817L610.349 260.834L619.332 282.878L637.298 269.161L650.773 302.963L690.074 292.186L708.04 227.032L726.006 269.161L797.87 246.137L811.345 273.081L860.752 246.137L892.27 242.868" stroke="#5E97A9" stroke-width="2" stroke-dasharray="3 3"/>
<path d="M91.124 453.699H92.311L95.3389 461.233L98.3604 453.699H99.5537L95.7959 462.941H94.8691L91.124 453.699ZM90.7368 453.699H91.7842L91.9556 459.335V462.941H90.7368V453.699ZM98.8872 453.699H99.9346V462.941H98.7158V459.335L98.8872 453.699ZM102.098 459.583V459.437C102.098 458.942 102.17 458.483 102.313 458.06C102.457 457.632 102.665 457.262 102.936 456.949C103.206 456.631 103.534 456.386 103.919 456.212C104.305 456.035 104.736 455.946 105.214 455.946C105.697 455.946 106.131 456.035 106.516 456.212C106.905 456.386 107.235 456.631 107.506 456.949C107.781 457.262 107.99 457.632 108.134 458.06C108.278 458.483 108.35 458.942 108.35 459.437V459.583C108.35 460.078 108.278 460.537 108.134 460.96C107.99 461.384 107.781 461.754 107.506 462.071C107.235 462.384 106.907 462.63 106.522 462.808C106.141 462.981 105.709 463.068 105.227 463.068C104.745 463.068 104.311 462.981 103.926 462.808C103.541 462.63 103.211 462.384 102.936 462.071C102.665 461.754 102.457 461.384 102.313 460.96C102.17 460.537 102.098 460.078 102.098 459.583ZM103.272 459.437V459.583C103.272 459.926 103.312 460.25 103.393 460.554C103.473 460.855 103.594 461.121 103.754 461.354C103.919 461.587 104.125 461.771 104.37 461.906C104.616 462.037 104.901 462.103 105.227 462.103C105.549 462.103 105.83 462.037 106.071 461.906C106.317 461.771 106.52 461.587 106.681 461.354C106.841 461.121 106.962 460.855 107.042 460.554C107.127 460.25 107.169 459.926 107.169 459.583V459.437C107.169 459.098 107.127 458.779 107.042 458.479C106.962 458.174 106.839 457.905 106.674 457.672C106.514 457.435 106.31 457.249 106.065 457.114C105.824 456.978 105.54 456.911 105.214 456.911C104.893 456.911 104.609 456.978 104.364 457.114C104.123 457.249 103.919 457.435 103.754 457.672C103.594 457.905 103.473 458.174 103.393 458.479C103.312 458.779 103.272 459.098 103.272 459.437ZM111.497 457.539V462.941H110.323V456.073H111.434L111.497 457.539ZM111.218 459.247L110.729 459.228C110.733 458.758 110.803 458.324 110.938 457.926C111.074 457.524 111.264 457.175 111.51 456.879C111.755 456.583 112.047 456.354 112.386 456.193C112.729 456.028 113.107 455.946 113.522 455.946C113.861 455.946 114.165 455.992 114.436 456.085C114.707 456.174 114.938 456.318 115.128 456.517C115.323 456.716 115.471 456.974 115.572 457.292C115.674 457.605 115.725 457.988 115.725 458.44V462.941H114.544V458.428C114.544 458.068 114.491 457.78 114.385 457.564C114.279 457.344 114.125 457.186 113.922 457.088C113.719 456.987 113.469 456.936 113.173 456.936C112.881 456.936 112.614 456.997 112.373 457.12C112.136 457.243 111.931 457.412 111.757 457.628C111.588 457.844 111.455 458.091 111.357 458.371C111.264 458.646 111.218 458.938 111.218 459.247Z" fill="#FFFEFE"/>
<path d="M232.458 453.699V462.941H231.252V453.699H232.458ZM235.429 453.699V454.702H228.288V453.699H235.429ZM240.715 461.354V456.073H241.896V462.941H240.772L240.715 461.354ZM240.937 459.907L241.426 459.894C241.426 460.351 241.377 460.774 241.28 461.164C241.187 461.549 241.034 461.883 240.823 462.167C240.611 462.45 240.334 462.672 239.991 462.833C239.648 462.99 239.232 463.068 238.741 463.068C238.406 463.068 238.1 463.019 237.82 462.922C237.545 462.825 237.308 462.674 237.109 462.471C236.91 462.268 236.756 462.004 236.646 461.678C236.54 461.352 236.487 460.96 236.487 460.503V456.073H237.662V460.516C237.662 460.825 237.695 461.081 237.763 461.284C237.835 461.483 237.93 461.642 238.049 461.76C238.172 461.875 238.307 461.955 238.455 462.001C238.607 462.048 238.764 462.071 238.925 462.071C239.424 462.071 239.82 461.976 240.112 461.786C240.404 461.591 240.613 461.331 240.74 461.005C240.871 460.675 240.937 460.309 240.937 459.907ZM247.036 463.068C246.557 463.068 246.124 462.987 245.734 462.827C245.349 462.662 245.017 462.431 244.738 462.135C244.463 461.839 244.251 461.487 244.103 461.081C243.955 460.675 243.881 460.23 243.881 459.748V459.481C243.881 458.923 243.963 458.426 244.128 457.99C244.293 457.55 244.518 457.177 244.801 456.873C245.085 456.568 245.406 456.337 245.766 456.181C246.126 456.024 246.498 455.946 246.883 455.946C247.374 455.946 247.797 456.03 248.153 456.2C248.513 456.369 248.807 456.606 249.035 456.911C249.264 457.211 249.433 457.567 249.543 457.977C249.653 458.383 249.708 458.828 249.708 459.31V459.837H244.579V458.878H248.534V458.79C248.517 458.485 248.453 458.189 248.343 457.901C248.237 457.613 248.068 457.376 247.835 457.19C247.603 457.004 247.285 456.911 246.883 456.911C246.617 456.911 246.371 456.968 246.147 457.082C245.923 457.192 245.73 457.357 245.569 457.577C245.409 457.797 245.284 458.066 245.195 458.383C245.106 458.701 245.062 459.067 245.062 459.481V459.748C245.062 460.074 245.106 460.381 245.195 460.668C245.288 460.952 245.421 461.202 245.595 461.417C245.772 461.633 245.986 461.803 246.236 461.925C246.49 462.048 246.778 462.109 247.099 462.109C247.514 462.109 247.865 462.025 248.153 461.855C248.441 461.686 248.692 461.46 248.908 461.176L249.619 461.741C249.471 461.965 249.283 462.179 249.054 462.382C248.826 462.585 248.544 462.75 248.21 462.877C247.88 463.004 247.488 463.068 247.036 463.068Z" fill="#FFFEFE"/>
<path d="M365.78 460.148L367.615 453.699H368.503L367.989 456.206L366.015 462.941H365.133L365.78 460.148ZM363.882 453.699L365.342 460.021L365.78 462.941H364.904L362.663 453.699H363.882ZM370.877 460.015L372.305 453.699H373.531L371.296 462.941H370.42L370.877 460.015ZM368.636 453.699L370.42 460.148L371.068 462.941H370.185L368.281 456.206L367.76 453.699H368.636ZM377.858 463.068C377.38 463.068 376.946 462.987 376.557 462.827C376.172 462.662 375.84 462.431 375.56 462.135C375.285 461.839 375.074 461.487 374.926 461.081C374.777 460.675 374.703 460.23 374.703 459.748V459.481C374.703 458.923 374.786 458.426 374.951 457.99C375.116 457.55 375.34 457.177 375.624 456.873C375.907 456.568 376.229 456.337 376.589 456.181C376.948 456.024 377.321 455.946 377.706 455.946C378.197 455.946 378.62 456.03 378.975 456.2C379.335 456.369 379.629 456.606 379.858 456.911C380.086 457.211 380.255 457.567 380.365 457.977C380.476 458.383 380.531 458.828 380.531 459.31V459.837H375.402V458.878H379.356V458.79C379.339 458.485 379.276 458.189 379.166 457.901C379.06 457.613 378.891 457.376 378.658 457.19C378.425 457.004 378.108 456.911 377.706 456.911C377.439 456.911 377.194 456.968 376.969 457.082C376.745 457.192 376.553 457.357 376.392 457.577C376.231 457.797 376.106 458.066 376.017 458.383C375.928 458.701 375.884 459.067 375.884 459.481V459.748C375.884 460.074 375.928 460.381 376.017 460.668C376.11 460.952 376.244 461.202 376.417 461.417C376.595 461.633 376.809 461.803 377.058 461.925C377.312 462.048 377.6 462.109 377.922 462.109C378.336 462.109 378.688 462.025 378.975 461.855C379.263 461.686 379.515 461.46 379.731 461.176L380.442 461.741C380.294 461.965 380.105 462.179 379.877 462.382C379.648 462.585 379.367 462.75 379.032 462.877C378.702 463.004 378.311 463.068 377.858 463.068ZM386.731 461.608V453.191H387.911V462.941H386.832L386.731 461.608ZM382.11 459.583V459.45C382.11 458.925 382.173 458.449 382.3 458.021C382.431 457.59 382.615 457.22 382.852 456.911C383.094 456.602 383.379 456.365 383.709 456.2C384.044 456.03 384.416 455.946 384.826 455.946C385.258 455.946 385.635 456.022 385.956 456.174C386.282 456.322 386.557 456.54 386.781 456.828C387.01 457.112 387.19 457.454 387.321 457.856C387.452 458.258 387.543 458.713 387.594 459.221V459.805C387.547 460.309 387.456 460.762 387.321 461.164C387.19 461.566 387.01 461.908 386.781 462.192C386.557 462.475 386.282 462.693 385.956 462.846C385.63 462.994 385.25 463.068 384.814 463.068C384.412 463.068 384.044 462.981 383.709 462.808C383.379 462.634 383.094 462.391 382.852 462.078C382.615 461.764 382.431 461.396 382.3 460.973C382.173 460.546 382.11 460.082 382.11 459.583ZM383.29 459.45V459.583C383.29 459.926 383.324 460.247 383.392 460.548C383.464 460.848 383.574 461.113 383.722 461.341C383.87 461.57 384.058 461.75 384.287 461.881C384.515 462.008 384.788 462.071 385.106 462.071C385.495 462.071 385.815 461.989 386.064 461.824C386.318 461.659 386.521 461.441 386.674 461.17C386.826 460.899 386.944 460.605 387.029 460.288V458.758C386.978 458.525 386.904 458.301 386.807 458.085C386.714 457.865 386.591 457.67 386.439 457.501C386.291 457.327 386.107 457.19 385.886 457.088C385.671 456.987 385.415 456.936 385.118 456.936C384.797 456.936 384.52 457.004 384.287 457.139C384.058 457.27 383.87 457.452 383.722 457.685C383.574 457.914 383.464 458.18 383.392 458.485C383.324 458.785 383.29 459.107 383.29 459.45Z" fill="#FFFEFE"/>
<path d="M505.07 453.699V462.941H503.864V453.699H505.07ZM508.041 453.699V454.702H500.899V453.699H508.041ZM510.908 453.191V462.941H509.734V453.191H510.908ZM510.629 459.247L510.14 459.228C510.144 458.758 510.214 458.324 510.35 457.926C510.485 457.524 510.675 457.175 510.921 456.879C511.166 456.583 511.458 456.354 511.797 456.193C512.14 456.028 512.518 455.946 512.933 455.946C513.272 455.946 513.576 455.992 513.847 456.085C514.118 456.174 514.349 456.318 514.539 456.517C514.734 456.716 514.882 456.974 514.983 457.292C515.085 457.605 515.136 457.988 515.136 458.44V462.941H513.955V458.428C513.955 458.068 513.902 457.78 513.796 457.564C513.691 457.344 513.536 457.186 513.333 457.088C513.13 456.987 512.88 456.936 512.584 456.936C512.292 456.936 512.025 456.997 511.784 457.12C511.547 457.243 511.342 457.412 511.168 457.628C510.999 457.844 510.866 458.091 510.769 458.371C510.675 458.646 510.629 458.938 510.629 459.247ZM521.596 461.354V456.073H522.777V462.941H521.653L521.596 461.354ZM521.818 459.907L522.307 459.894C522.307 460.351 522.258 460.774 522.161 461.164C522.068 461.549 521.916 461.883 521.704 462.167C521.493 462.45 521.215 462.672 520.873 462.833C520.53 462.99 520.113 463.068 519.622 463.068C519.288 463.068 518.981 463.019 518.702 462.922C518.427 462.825 518.19 462.674 517.991 462.471C517.792 462.268 517.637 462.004 517.527 461.678C517.422 461.352 517.369 460.96 517.369 460.503V456.073H518.543V460.516C518.543 460.825 518.577 461.081 518.645 461.284C518.716 461.483 518.812 461.642 518.93 461.76C519.053 461.875 519.188 461.955 519.336 462.001C519.489 462.048 519.645 462.071 519.806 462.071C520.306 462.071 520.701 461.976 520.993 461.786C521.285 461.591 521.495 461.331 521.622 461.005C521.753 460.675 521.818 460.309 521.818 459.907Z" fill="#FFFEFE"/>
<path d="M638.186 453.699V462.941H636.961V453.699H638.186ZM642.058 457.856V458.859H637.919V457.856H642.058ZM642.687 453.699V454.702H637.919V453.699H642.687ZM645.478 457.152V462.941H644.304V456.073H645.446L645.478 457.152ZM647.624 456.035L647.617 457.126C647.52 457.105 647.427 457.093 647.338 457.088C647.253 457.08 647.156 457.076 647.046 457.076C646.775 457.076 646.536 457.118 646.329 457.203C646.121 457.287 645.946 457.406 645.802 457.558C645.658 457.71 645.544 457.892 645.459 458.104C645.379 458.311 645.326 458.54 645.3 458.79L644.97 458.98C644.97 458.565 645.01 458.176 645.091 457.812C645.175 457.448 645.305 457.126 645.478 456.847C645.652 456.564 645.872 456.344 646.138 456.187C646.409 456.026 646.731 455.946 647.103 455.946C647.188 455.946 647.285 455.956 647.395 455.978C647.505 455.994 647.581 456.014 647.624 456.035ZM650.485 456.073V462.941H649.304V456.073H650.485ZM649.215 454.251C649.215 454.061 649.272 453.9 649.387 453.769C649.505 453.637 649.679 453.572 649.907 453.572C650.132 453.572 650.303 453.637 650.421 453.769C650.544 453.9 650.605 454.061 650.605 454.251C650.605 454.433 650.544 454.59 650.421 454.721C650.303 454.848 650.132 454.911 649.907 454.911C649.679 454.911 649.505 454.848 649.387 454.721C649.272 454.59 649.215 454.433 649.215 454.251Z" fill="#FFFEFE"/>
<path d="M769.193 460.605C769.193 460.389 769.159 460.199 769.091 460.034C769.028 459.864 768.914 459.712 768.749 459.577C768.588 459.441 768.363 459.312 768.076 459.189C767.792 459.067 767.432 458.942 766.997 458.815C766.54 458.68 766.127 458.529 765.759 458.364C765.391 458.195 765.075 458.002 764.813 457.787C764.551 457.571 764.35 457.323 764.21 457.044C764.07 456.765 764 456.445 764 456.085C764 455.726 764.075 455.394 764.223 455.089C764.371 454.784 764.582 454.52 764.857 454.295C765.137 454.067 765.469 453.889 765.854 453.762C766.239 453.635 766.669 453.572 767.143 453.572C767.837 453.572 768.425 453.705 768.907 453.972C769.394 454.234 769.764 454.579 770.018 455.006C770.272 455.43 770.399 455.882 770.399 456.365H769.18C769.18 456.018 769.106 455.711 768.958 455.444C768.81 455.174 768.586 454.962 768.285 454.81C767.985 454.653 767.604 454.575 767.143 454.575C766.707 454.575 766.347 454.64 766.063 454.771C765.78 454.903 765.568 455.08 765.429 455.305C765.293 455.529 765.226 455.785 765.226 456.073C765.226 456.267 765.266 456.445 765.346 456.606C765.431 456.763 765.56 456.909 765.733 457.044C765.911 457.179 766.135 457.304 766.406 457.418C766.681 457.533 767.009 457.643 767.39 457.749C767.915 457.897 768.368 458.062 768.749 458.244C769.129 458.426 769.443 458.631 769.688 458.859C769.938 459.084 770.122 459.34 770.24 459.627C770.363 459.911 770.424 460.233 770.424 460.592C770.424 460.969 770.348 461.31 770.196 461.614C770.043 461.919 769.826 462.179 769.542 462.395C769.258 462.611 768.918 462.778 768.52 462.896C768.126 463.011 767.686 463.068 767.2 463.068C766.772 463.068 766.351 463.009 765.937 462.89C765.526 462.772 765.152 462.594 764.813 462.357C764.479 462.12 764.21 461.828 764.007 461.481C763.808 461.13 763.708 460.723 763.708 460.262H764.927C764.927 460.58 764.989 460.853 765.111 461.081C765.234 461.305 765.401 461.492 765.613 461.64C765.829 461.788 766.072 461.898 766.343 461.97C766.618 462.037 766.903 462.071 767.2 462.071C767.627 462.071 767.989 462.012 768.285 461.894C768.581 461.775 768.806 461.606 768.958 461.386C769.115 461.166 769.193 460.905 769.193 460.605ZM776.358 461.767V458.231C776.358 457.96 776.303 457.725 776.193 457.526C776.087 457.323 775.926 457.167 775.71 457.057C775.495 456.947 775.228 456.892 774.911 456.892C774.614 456.892 774.354 456.942 774.13 457.044C773.91 457.146 773.736 457.279 773.609 457.444C773.487 457.609 773.425 457.787 773.425 457.977H772.251C772.251 457.732 772.314 457.488 772.441 457.247C772.568 457.006 772.75 456.788 772.987 456.593C773.229 456.394 773.516 456.238 773.851 456.124C774.189 456.005 774.566 455.946 774.98 455.946C775.48 455.946 775.92 456.03 776.301 456.2C776.686 456.369 776.986 456.625 777.202 456.968C777.422 457.306 777.532 457.732 777.532 458.244V461.443C777.532 461.671 777.551 461.915 777.589 462.173C777.632 462.431 777.693 462.653 777.773 462.839V462.941H776.548C776.489 462.806 776.443 462.626 776.409 462.401C776.375 462.173 776.358 461.961 776.358 461.767ZM776.561 458.777L776.574 459.602H775.387C775.052 459.602 774.754 459.63 774.492 459.685C774.229 459.735 774.009 459.814 773.832 459.919C773.654 460.025 773.518 460.159 773.425 460.319C773.332 460.476 773.286 460.66 773.286 460.872C773.286 461.087 773.334 461.284 773.432 461.462C773.529 461.64 773.675 461.781 773.87 461.887C774.069 461.989 774.312 462.04 774.6 462.04C774.959 462.04 775.277 461.963 775.552 461.811C775.827 461.659 776.045 461.472 776.206 461.252C776.371 461.032 776.459 460.819 776.472 460.611L776.974 461.176C776.944 461.354 776.864 461.551 776.732 461.767C776.601 461.982 776.426 462.19 776.206 462.389C775.99 462.583 775.732 462.746 775.431 462.877C775.135 463.004 774.801 463.068 774.428 463.068C773.963 463.068 773.554 462.977 773.203 462.795C772.856 462.613 772.585 462.37 772.391 462.065C772.2 461.756 772.105 461.411 772.105 461.03C772.105 460.662 772.177 460.338 772.321 460.059C772.465 459.776 772.672 459.541 772.943 459.354C773.214 459.164 773.54 459.02 773.92 458.923C774.301 458.826 774.727 458.777 775.196 458.777H776.561ZM782.755 456.073V456.974H779.042V456.073H782.755ZM780.298 454.403H781.473V461.24C781.473 461.472 781.509 461.648 781.581 461.767C781.653 461.885 781.746 461.963 781.86 462.001C781.974 462.04 782.097 462.059 782.228 462.059C782.325 462.059 782.427 462.05 782.533 462.033C782.643 462.012 782.725 461.995 782.78 461.982L782.787 462.941C782.694 462.971 782.571 462.998 782.418 463.023C782.27 463.053 782.09 463.068 781.879 463.068C781.591 463.068 781.327 463.011 781.085 462.896C780.844 462.782 780.652 462.592 780.508 462.325C780.368 462.054 780.298 461.69 780.298 461.233V454.403Z" fill="#FFFEFE"/>
<path d="M901.499 460.605C901.499 460.389 901.465 460.199 901.397 460.034C901.333 459.864 901.219 459.712 901.054 459.577C900.893 459.441 900.669 459.312 900.381 459.189C900.098 459.067 899.738 458.942 899.302 458.815C898.845 458.68 898.433 458.529 898.064 458.364C897.696 458.195 897.381 458.002 897.119 457.787C896.856 457.571 896.655 457.323 896.516 457.044C896.376 456.765 896.306 456.445 896.306 456.085C896.306 455.726 896.38 455.394 896.528 455.089C896.676 454.784 896.888 454.52 897.163 454.295C897.442 454.067 897.775 453.889 898.16 453.762C898.545 453.635 898.974 453.572 899.448 453.572C900.142 453.572 900.73 453.705 901.213 453.972C901.7 454.234 902.07 454.579 902.324 455.006C902.578 455.43 902.705 455.882 902.705 456.365H901.486C901.486 456.018 901.412 455.711 901.264 455.444C901.116 455.174 900.891 454.962 900.591 454.81C900.29 454.653 899.91 454.575 899.448 454.575C899.012 454.575 898.653 454.64 898.369 454.771C898.086 454.903 897.874 455.08 897.734 455.305C897.599 455.529 897.531 455.785 897.531 456.073C897.531 456.267 897.571 456.445 897.652 456.606C897.736 456.763 897.866 456.909 898.039 457.044C898.217 457.179 898.441 457.304 898.712 457.418C898.987 457.533 899.315 457.643 899.696 457.749C900.221 457.897 900.673 458.062 901.054 458.244C901.435 458.426 901.748 458.631 901.994 458.859C902.243 459.084 902.427 459.34 902.546 459.627C902.669 459.911 902.73 460.233 902.73 460.592C902.73 460.969 902.654 461.31 902.501 461.614C902.349 461.919 902.131 462.179 901.848 462.395C901.564 462.611 901.223 462.778 900.826 462.896C900.432 463.011 899.992 463.068 899.505 463.068C899.078 463.068 898.657 463.009 898.242 462.89C897.832 462.772 897.457 462.594 897.119 462.357C896.784 462.12 896.516 461.828 896.312 461.481C896.114 461.13 896.014 460.723 896.014 460.262H897.233C897.233 460.58 897.294 460.853 897.417 461.081C897.54 461.305 897.707 461.492 897.918 461.64C898.134 461.788 898.378 461.898 898.648 461.97C898.924 462.037 899.209 462.071 899.505 462.071C899.933 462.071 900.295 462.012 900.591 461.894C900.887 461.775 901.111 461.606 901.264 461.386C901.42 461.166 901.499 460.905 901.499 460.605ZM908.816 461.354V456.073H909.997V462.941H908.873L908.816 461.354ZM909.038 459.907L909.527 459.894C909.527 460.351 909.478 460.774 909.381 461.164C909.288 461.549 909.135 461.883 908.924 462.167C908.712 462.45 908.435 462.672 908.092 462.833C907.75 462.99 907.333 463.068 906.842 463.068C906.507 463.068 906.201 463.019 905.921 462.922C905.646 462.825 905.409 462.674 905.21 462.471C905.012 462.268 904.857 462.004 904.747 461.678C904.641 461.352 904.588 460.96 904.588 460.503V456.073H905.763V460.516C905.763 460.825 905.797 461.081 905.864 461.284C905.936 461.483 906.031 461.642 906.15 461.76C906.273 461.875 906.408 461.955 906.556 462.001C906.708 462.048 906.865 462.071 907.026 462.071C907.525 462.071 907.921 461.976 908.213 461.786C908.505 461.591 908.714 461.331 908.841 461.005C908.972 460.675 909.038 460.309 909.038 459.907ZM913.461 457.539V462.941H912.287V456.073H913.397L913.461 457.539ZM913.182 459.247L912.693 459.228C912.697 458.758 912.767 458.324 912.902 457.926C913.038 457.524 913.228 457.175 913.474 456.879C913.719 456.583 914.011 456.354 914.35 456.193C914.692 456.028 915.071 455.946 915.486 455.946C915.824 455.946 916.129 455.992 916.4 456.085C916.671 456.174 916.901 456.318 917.092 456.517C917.286 456.716 917.435 456.974 917.536 457.292C917.638 457.605 917.688 457.988 917.688 458.44V462.941H916.508V458.428C916.508 458.068 916.455 457.78 916.349 457.564C916.243 457.344 916.089 457.186 915.886 457.088C915.683 456.987 915.433 456.936 915.137 456.936C914.845 456.936 914.578 456.997 914.337 457.12C914.1 457.243 913.895 457.412 913.721 457.628C913.552 457.844 913.419 458.091 913.321 458.371C913.228 458.646 913.182 458.938 913.182 459.247Z" fill="#FFFEFE"/>
<path d="M45.1846 107.758V108.418L41.3569 117H40.1191L43.9404 108.723H38.9385V107.758H45.1846ZM48.5093 112.601L47.5698 112.36L48.0332 107.758H52.7749V108.843H49.0298L48.7505 111.357C48.9198 111.26 49.1335 111.169 49.3916 111.084C49.654 110.999 49.9544 110.957 50.293 110.957C50.7204 110.957 51.1034 111.031 51.4419 111.179C51.7804 111.323 52.0682 111.53 52.3052 111.801C52.5464 112.072 52.7305 112.398 52.8574 112.779C52.9844 113.16 53.0479 113.585 53.0479 114.055C53.0479 114.499 52.9865 114.907 52.8638 115.28C52.7453 115.652 52.5654 115.978 52.3242 116.257C52.083 116.532 51.7783 116.746 51.4102 116.898C51.0462 117.051 50.6167 117.127 50.1216 117.127C49.7492 117.127 49.3958 117.076 49.0615 116.975C48.7314 116.869 48.4352 116.71 48.1729 116.499C47.9147 116.283 47.7031 116.016 47.5381 115.699C47.3773 115.377 47.2757 115 47.2334 114.569H48.3506C48.4014 114.916 48.5029 115.208 48.6553 115.445C48.8076 115.682 49.0065 115.862 49.252 115.984C49.5016 116.103 49.7915 116.162 50.1216 116.162C50.4009 116.162 50.6484 116.113 50.8643 116.016C51.0801 115.919 51.262 115.779 51.4102 115.597C51.5583 115.415 51.6704 115.195 51.7466 114.937C51.827 114.679 51.8672 114.389 51.8672 114.067C51.8672 113.775 51.827 113.505 51.7466 113.255C51.6662 113.005 51.5456 112.787 51.3848 112.601C51.2282 112.415 51.0356 112.271 50.8071 112.169C50.5786 112.064 50.3162 112.011 50.02 112.011C49.6265 112.011 49.3281 112.064 49.125 112.169C48.9261 112.275 48.7209 112.419 48.5093 112.601Z" fill="#FFFEFE"/>
<path d="M40.6968 217.882L39.7573 217.641L40.2207 213.039H44.9624V214.124H41.2173L40.938 216.638C41.1073 216.54 41.321 216.449 41.5791 216.365C41.8415 216.28 42.1419 216.238 42.4805 216.238C42.9079 216.238 43.2909 216.312 43.6294 216.46C43.9679 216.604 44.2557 216.811 44.4927 217.082C44.7339 217.353 44.918 217.679 45.0449 218.06C45.1719 218.44 45.2354 218.866 45.2354 219.335C45.2354 219.78 45.174 220.188 45.0513 220.561C44.9328 220.933 44.7529 221.259 44.5117 221.538C44.2705 221.813 43.9658 222.027 43.5977 222.179C43.2337 222.332 42.8042 222.408 42.3091 222.408C41.9367 222.408 41.5833 222.357 41.249 222.255C40.9189 222.15 40.6227 221.991 40.3604 221.779C40.1022 221.564 39.8906 221.297 39.7256 220.98C39.5648 220.658 39.4632 220.281 39.4209 219.85H40.5381C40.5889 220.197 40.6904 220.489 40.8428 220.726C40.9951 220.963 41.194 221.142 41.4395 221.265C41.6891 221.384 41.979 221.443 42.3091 221.443C42.5884 221.443 42.8359 221.394 43.0518 221.297C43.2676 221.2 43.4495 221.06 43.5977 220.878C43.7458 220.696 43.8579 220.476 43.9341 220.218C44.0145 219.96 44.0547 219.67 44.0547 219.348C44.0547 219.056 44.0145 218.785 43.9341 218.536C43.8537 218.286 43.7331 218.068 43.5723 217.882C43.4157 217.696 43.2231 217.552 42.9946 217.45C42.7661 217.344 42.5037 217.292 42.2075 217.292C41.814 217.292 41.5156 217.344 41.3125 217.45C41.1136 217.556 40.9084 217.7 40.6968 217.882ZM52.8257 216.923V218.333C52.8257 219.09 52.758 219.729 52.6226 220.25C52.4871 220.77 52.2925 221.189 52.0386 221.506C51.7847 221.824 51.4779 222.054 51.1182 222.198C50.7627 222.338 50.3607 222.408 49.9121 222.408C49.5566 222.408 49.2287 222.363 48.9282 222.274C48.6278 222.186 48.3569 222.044 48.1157 221.849C47.8787 221.65 47.6756 221.392 47.5063 221.075C47.3371 220.757 47.208 220.372 47.1191 219.919C47.0303 219.467 46.9858 218.938 46.9858 218.333V216.923C46.9858 216.166 47.0535 215.531 47.189 215.019C47.3286 214.507 47.5254 214.097 47.7793 213.788C48.0332 213.474 48.3379 213.25 48.6934 213.115C49.0531 212.979 49.4551 212.912 49.8994 212.912C50.2591 212.912 50.5892 212.956 50.8896 213.045C51.1943 213.13 51.4652 213.267 51.7021 213.458C51.9391 213.644 52.1401 213.893 52.3052 214.207C52.4744 214.515 52.6035 214.894 52.6924 215.343C52.7812 215.791 52.8257 216.318 52.8257 216.923ZM51.645 218.523V216.727C51.645 216.312 51.6196 215.948 51.5688 215.635C51.5223 215.317 51.4525 215.047 51.3594 214.822C51.2663 214.598 51.1478 214.416 51.0039 214.276C50.8643 214.137 50.7013 214.035 50.5151 213.972C50.3332 213.904 50.1279 213.87 49.8994 213.87C49.6201 213.87 49.3726 213.923 49.1567 214.029C48.9409 214.13 48.759 214.293 48.6108 214.518C48.467 214.742 48.3569 215.036 48.2808 215.4C48.2046 215.764 48.1665 216.206 48.1665 216.727V218.523C48.1665 218.938 48.1898 219.304 48.2363 219.621C48.2871 219.939 48.3612 220.214 48.4585 220.446C48.5558 220.675 48.6743 220.863 48.814 221.011C48.9536 221.159 49.1144 221.269 49.2964 221.341C49.4826 221.409 49.6878 221.443 49.9121 221.443C50.1999 221.443 50.4517 221.388 50.6675 221.278C50.8833 221.168 51.0632 220.996 51.207 220.764C51.3551 220.527 51.4652 220.224 51.5371 219.856C51.609 219.484 51.645 219.039 51.645 218.523Z" fill="#FFFEFE"/>
<path d="M45.2671 326.597V327.562H39.2178V326.717L42.2456 323.347C42.618 322.932 42.9058 322.581 43.1089 322.293C43.3162 322.001 43.4601 321.741 43.5405 321.512C43.6252 321.28 43.6675 321.043 43.6675 320.801C43.6675 320.497 43.604 320.222 43.4771 319.976C43.3543 319.726 43.1724 319.528 42.9312 319.379C42.6899 319.231 42.3979 319.157 42.0552 319.157C41.6447 319.157 41.3019 319.238 41.0269 319.398C40.756 319.555 40.5529 319.775 40.4175 320.059C40.2821 320.342 40.2144 320.668 40.2144 321.036H39.04C39.04 320.516 39.1543 320.04 39.3828 319.608C39.6113 319.176 39.9499 318.834 40.3984 318.58C40.847 318.321 41.3993 318.192 42.0552 318.192C42.6392 318.192 43.1385 318.296 43.5532 318.503C43.9679 318.707 44.2853 318.994 44.5054 319.367C44.7297 319.735 44.8418 320.167 44.8418 320.662C44.8418 320.933 44.7952 321.208 44.7021 321.487C44.6133 321.762 44.4884 322.037 44.3276 322.312C44.1711 322.587 43.987 322.858 43.7754 323.125C43.568 323.391 43.3459 323.654 43.1089 323.912L40.6333 326.597H45.2671ZM48.5093 323.163L47.5698 322.921L48.0332 318.319H52.7749V319.405H49.0298L48.7505 321.919C48.9198 321.821 49.1335 321.73 49.3916 321.646C49.654 321.561 49.9544 321.519 50.293 321.519C50.7204 321.519 51.1034 321.593 51.4419 321.741C51.7804 321.885 52.0682 322.092 52.3052 322.363C52.5464 322.634 52.7305 322.96 52.8574 323.34C52.9844 323.721 53.0479 324.147 53.0479 324.616C53.0479 325.061 52.9865 325.469 52.8638 325.841C52.7453 326.214 52.5654 326.54 52.3242 326.819C52.083 327.094 51.7783 327.308 51.4102 327.46C51.0462 327.612 50.6167 327.689 50.1216 327.689C49.7492 327.689 49.3958 327.638 49.0615 327.536C48.7314 327.43 48.4352 327.272 48.1729 327.06C47.9147 326.844 47.7031 326.578 47.5381 326.26C47.3773 325.939 47.2757 325.562 47.2334 325.13H48.3506C48.4014 325.477 48.5029 325.769 48.6553 326.006C48.8076 326.243 49.0065 326.423 49.252 326.546C49.5016 326.664 49.7915 326.724 50.1216 326.724C50.4009 326.724 50.6484 326.675 50.8643 326.578C51.0801 326.48 51.262 326.341 51.4102 326.159C51.5583 325.977 51.6704 325.757 51.7466 325.499C51.827 325.24 51.8672 324.951 51.8672 324.629C51.8672 324.337 51.827 324.066 51.7466 323.816C51.6662 323.567 51.5456 323.349 51.3848 323.163C51.2282 322.976 51.0356 322.833 50.8071 322.731C50.5786 322.625 50.3162 322.572 50.02 322.572C49.6265 322.572 49.3281 322.625 49.125 322.731C48.9261 322.837 48.7209 322.981 48.5093 323.163Z" fill="#FFFEFE"/>
<path d="M45.0132 427.485V428.894C45.0132 429.652 44.9455 430.291 44.8101 430.811C44.6746 431.332 44.48 431.751 44.2261 432.068C43.9722 432.385 43.6654 432.616 43.3057 432.76C42.9502 432.899 42.5482 432.969 42.0996 432.969C41.7441 432.969 41.4162 432.925 41.1157 432.836C40.8153 432.747 40.5444 432.605 40.3032 432.411C40.0662 432.212 39.8631 431.954 39.6938 431.636C39.5246 431.319 39.3955 430.934 39.3066 430.481C39.2178 430.028 39.1733 429.499 39.1733 428.894V427.485C39.1733 426.727 39.241 426.093 39.3765 425.581C39.5161 425.069 39.7129 424.658 39.9668 424.349C40.2207 424.036 40.5254 423.812 40.8809 423.676C41.2406 423.541 41.6426 423.473 42.0869 423.473C42.4466 423.473 42.7767 423.518 43.0771 423.607C43.3818 423.691 43.6527 423.829 43.8896 424.019C44.1266 424.205 44.3276 424.455 44.4927 424.768C44.6619 425.077 44.791 425.456 44.8799 425.904C44.9688 426.353 45.0132 426.88 45.0132 427.485ZM43.8325 429.085V427.288C43.8325 426.873 43.8071 426.51 43.7563 426.196C43.7098 425.879 43.64 425.608 43.5469 425.384C43.4538 425.16 43.3353 424.978 43.1914 424.838C43.0518 424.698 42.8888 424.597 42.7026 424.533C42.5207 424.466 42.3154 424.432 42.0869 424.432C41.8076 424.432 41.5601 424.485 41.3442 424.59C41.1284 424.692 40.9465 424.855 40.7983 425.079C40.6545 425.303 40.5444 425.598 40.4683 425.961C40.3921 426.325 40.354 426.768 40.354 427.288V429.085C40.354 429.499 40.3773 429.865 40.4238 430.183C40.4746 430.5 40.5487 430.775 40.646 431.008C40.7433 431.236 40.8618 431.425 41.0015 431.573C41.1411 431.721 41.3019 431.831 41.4839 431.903C41.6701 431.971 41.8753 432.004 42.0996 432.004C42.3874 432.004 42.6392 431.949 42.855 431.839C43.0708 431.729 43.2507 431.558 43.3945 431.325C43.5426 431.088 43.6527 430.786 43.7246 430.418C43.7965 430.045 43.8325 429.601 43.8325 429.085Z" fill="#FFFEFE"/>
<g filter="url(#filter1_d_768_292)">
<rect x="534.708" y="221.5" width="35" height="25" rx="12.5" fill="#023E8A"/>
<path d="M548.268 234.455L547.618 234.288L547.938 231.102H551.221V231.853H548.628L548.435 233.593C548.552 233.526 548.7 233.463 548.879 233.404C549.061 233.346 549.269 233.316 549.503 233.316C549.799 233.316 550.064 233.368 550.298 233.47C550.533 233.57 550.732 233.713 550.896 233.901C551.063 234.088 551.19 234.314 551.278 234.578C551.366 234.841 551.41 235.136 551.41 235.461C551.41 235.769 551.368 236.051 551.283 236.309C551.201 236.567 551.076 236.792 550.909 236.986C550.742 237.176 550.531 237.324 550.276 237.43C550.024 237.535 549.727 237.588 549.384 237.588C549.126 237.588 548.882 237.553 548.65 237.482C548.422 237.409 548.217 237.299 548.035 237.153C547.856 237.003 547.71 236.819 547.596 236.599C547.484 236.376 547.414 236.116 547.385 235.817H548.158C548.193 236.057 548.264 236.259 548.369 236.423C548.475 236.587 548.612 236.712 548.782 236.797C548.955 236.879 549.156 236.92 549.384 236.92C549.578 236.92 549.749 236.886 549.898 236.819C550.048 236.751 550.174 236.655 550.276 236.529C550.379 236.403 550.457 236.25 550.509 236.072C550.565 235.893 550.593 235.692 550.593 235.47C550.593 235.268 550.565 235.08 550.509 234.907C550.454 234.734 550.37 234.583 550.259 234.455C550.15 234.326 550.017 234.226 549.859 234.156C549.701 234.083 549.519 234.046 549.314 234.046C549.042 234.046 548.835 234.083 548.694 234.156C548.557 234.229 548.415 234.329 548.268 234.455ZM557.126 235.347V236.015H552.503V235.536L555.369 231.102H556.032L555.32 232.385L553.426 235.347H557.126ZM556.234 231.102V237.5H555.421V231.102H556.234Z" fill="white"/>
</g>
</g>
<defs>
<filter id="filter0_d_768_292" x="0" y="0" width="968" height="508" filterUnits="userSpaceOnUse" color-interpolation-filters="sRGB">
<feFlood flood-opacity="0" result="BackgroundImageFix"/>
<feColorMatrix in="SourceAlpha" type="matrix" values="0 0 0 0 0 0 0 0 0 0 0 0 0 0 0 0 0 0 127 0" result="hardAlpha"/>
<feOffset dy="4"/>
<feGaussianBlur stdDeviation="2"/>
<feComposite in2="hardAlpha" operator="out"/>
<feColorMatrix type="matrix" values="0 0 0 0 0 0 0 0 0 0 0 0 0 0 0 0 0 0 0.25 0"/>
<feBlend mode="normal" in2="BackgroundImageFix" result="effect1_dropShadow_768_292"/>
<feBlend mode="normal" in="SourceGraphic" in2="effect1_dropShadow_768_292" result="shape"/>
</filter>
<filter id="filter1_d_768_292" x="512.708" y="201.5" width="79" height="69" filterUnits="userSpaceOnUse" color-interpolation-filters="sRGB">
<feFlood flood-opacity="0" result="BackgroundImageFix"/>
<feColorMatrix in="SourceAlpha" type="matrix" values="0 0 0 0 0 0 0 0 0 0 0 0 0 0 0 0 0 0 127 0" result="hardAlpha"/>
<feOffset dy="2"/>
<feGaussianBlur stdDeviation="11"/>
<feComposite in2="hardAlpha" operator="out"/>
<feColorMatrix type="matrix" values="0 0 0 0 0 0 0 0 0 0 0 0 0 0 0 0 0 0 0.17 0"/>
<feBlend mode="normal" in2="BackgroundImageFix" result="effect1_dropShadow_768_292"/>
<feBlend mode="normal" in="SourceGraphic" in2="effect1_dropShadow_768_292" result="shape"/>
</filter>
</defs>
</svg>
