<svg width="403" height="275" viewBox="0 0 403 275" fill="none" xmlns="http://www.w3.org/2000/svg">
<g filter="url(#filter0_d_70_266)">
<rect x="4" width="395" height="267" rx="12" fill="#1D1E22" shape-rendering="crispEdges"/>
<path d="M133.82 20.09C133.496 19.466 133.046 18.998 132.47 18.686C131.894 18.362 131.228 18.2 130.472 18.2C129.644 18.2 128.906 18.386 128.258 18.758C127.61 19.13 127.1 19.658 126.728 20.342C126.368 21.026 126.188 21.818 126.188 22.718C126.188 23.618 126.368 24.416 126.728 25.112C127.1 25.796 127.61 26.324 128.258 26.696C128.906 27.068 129.644 27.254 130.472 27.254C131.588 27.254 132.494 26.942 133.19 26.318C133.886 25.694 134.312 24.848 134.468 23.78H129.77V22.142H136.664V23.744C136.532 24.716 136.184 25.61 135.62 26.426C135.068 27.242 134.342 27.896 133.442 28.388C132.554 28.868 131.564 29.108 130.472 29.108C129.296 29.108 128.222 28.838 127.25 28.298C126.278 27.746 125.504 26.984 124.928 26.012C124.364 25.04 124.082 23.942 124.082 22.718C124.082 21.494 124.364 20.396 124.928 19.424C125.504 18.452 126.278 17.696 127.25 17.156C128.234 16.604 129.308 16.328 130.472 16.328C131.804 16.328 132.986 16.658 134.018 17.318C135.062 17.966 135.818 18.89 136.286 20.09H133.82ZM137.643 23.996C137.643 23 137.847 22.118 138.255 21.35C138.675 20.582 139.239 19.988 139.947 19.568C140.667 19.136 141.459 18.92 142.323 18.92C143.103 18.92 143.781 19.076 144.357 19.388C144.945 19.688 145.413 20.066 145.761 20.522V19.082H147.831V29H145.761V27.524C145.413 27.992 144.939 28.382 144.339 28.694C143.739 29.006 143.055 29.162 142.287 29.162C141.435 29.162 140.655 28.946 139.947 28.514C139.239 28.07 138.675 27.458 138.255 26.678C137.847 25.886 137.643 24.992 137.643 23.996ZM145.761 24.032C145.761 23.348 145.617 22.754 145.329 22.25C145.053 21.746 144.687 21.362 144.231 21.098C143.775 20.834 143.283 20.702 142.755 20.702C142.227 20.702 141.735 20.834 141.279 21.098C140.823 21.35 140.451 21.728 140.163 22.232C139.887 22.724 139.749 23.312 139.749 23.996C139.749 24.68 139.887 25.28 140.163 25.796C140.451 26.312 140.823 26.708 141.279 26.984C141.747 27.248 142.239 27.38 142.755 27.38C143.283 27.38 143.775 27.248 144.231 26.984C144.687 26.72 145.053 26.336 145.329 25.832C145.617 25.316 145.761 24.716 145.761 24.032ZM162.173 18.92C162.953 18.92 163.649 19.082 164.261 19.406C164.885 19.73 165.371 20.21 165.719 20.846C166.079 21.482 166.259 22.25 166.259 23.15V29H164.225V23.456C164.225 22.568 164.003 21.89 163.559 21.422C163.115 20.942 162.509 20.702 161.741 20.702C160.973 20.702 160.361 20.942 159.905 21.422C159.461 21.89 159.239 22.568 159.239 23.456V29H157.205V23.456C157.205 22.568 156.983 21.89 156.539 21.422C156.095 20.942 155.489 20.702 154.721 20.702C153.953 20.702 153.341 20.942 152.885 21.422C152.441 21.89 152.219 22.568 152.219 23.456V29H150.167V19.082H152.219V20.216C152.555 19.808 152.981 19.49 153.497 19.262C154.013 19.034 154.565 18.92 155.153 18.92C155.945 18.92 156.653 19.088 157.277 19.424C157.901 19.76 158.381 20.246 158.717 20.882C159.017 20.282 159.485 19.808 160.121 19.46C160.757 19.1 161.441 18.92 162.173 18.92ZM177.6 23.798C177.6 24.17 177.576 24.506 177.528 24.806H169.95C170.01 25.598 170.304 26.234 170.832 26.714C171.36 27.194 172.008 27.434 172.776 27.434C173.88 27.434 174.66 26.972 175.116 26.048H177.33C177.03 26.96 176.484 27.71 175.692 28.298C174.912 28.874 173.94 29.162 172.776 29.162C171.828 29.162 170.976 28.952 170.22 28.532C169.476 28.1 168.888 27.5 168.456 26.732C168.036 25.952 167.826 25.052 167.826 24.032C167.826 23.012 168.03 22.118 168.438 21.35C168.858 20.57 169.44 19.97 170.184 19.55C170.94 19.13 171.804 18.92 172.776 18.92C173.712 18.92 174.546 19.124 175.278 19.532C176.01 19.94 176.58 20.516 176.988 21.26C177.396 21.992 177.6 22.838 177.6 23.798ZM175.458 23.15C175.446 22.394 175.176 21.788 174.648 21.332C174.12 20.876 173.466 20.648 172.686 20.648C171.978 20.648 171.372 20.876 170.868 21.332C170.364 21.776 170.064 22.382 169.968 23.15H175.458ZM182.859 29.162C182.079 29.162 181.377 29.024 180.753 28.748C180.141 28.46 179.655 28.076 179.295 27.596C178.935 27.104 178.743 26.558 178.719 25.958H180.843C180.879 26.378 181.077 26.732 181.437 27.02C181.809 27.296 182.271 27.434 182.823 27.434C183.399 27.434 183.843 27.326 184.155 27.11C184.479 26.882 184.641 26.594 184.641 26.246C184.641 25.874 184.461 25.598 184.101 25.418C183.753 25.238 183.195 25.04 182.427 24.824C181.683 24.62 181.077 24.422 180.609 24.23C180.141 24.038 179.733 23.744 179.385 23.348C179.049 22.952 178.881 22.43 178.881 21.782C178.881 21.254 179.037 20.774 179.349 20.342C179.661 19.898 180.105 19.55 180.681 19.298C181.269 19.046 181.941 18.92 182.697 18.92C183.825 18.92 184.731 19.208 185.415 19.784C186.111 20.348 186.483 21.122 186.531 22.106H184.479C184.443 21.662 184.263 21.308 183.939 21.044C183.615 20.78 183.177 20.648 182.625 20.648C182.085 20.648 181.671 20.75 181.383 20.954C181.095 21.158 180.951 21.428 180.951 21.764C180.951 22.028 181.047 22.25 181.239 22.43C181.431 22.61 181.665 22.754 181.941 22.862C182.217 22.958 182.625 23.084 183.165 23.24C183.885 23.432 184.473 23.63 184.929 23.834C185.397 24.026 185.799 24.314 186.135 24.698C186.471 25.082 186.645 25.592 186.657 26.228C186.657 26.792 186.501 27.296 186.189 27.74C185.877 28.184 185.433 28.532 184.857 28.784C184.293 29.036 183.627 29.162 182.859 29.162ZM206.15 19.082L203.072 29H200.912L198.914 21.674L196.916 29H194.756L191.66 19.082H193.748L195.818 27.056L197.924 19.082H200.066L202.082 27.02L204.134 19.082H206.15ZM211.626 29.162C210.69 29.162 209.844 28.952 209.088 28.532C208.332 28.1 207.738 27.5 207.306 26.732C206.874 25.952 206.658 25.052 206.658 24.032C206.658 23.024 206.88 22.13 207.324 21.35C207.768 20.57 208.374 19.97 209.142 19.55C209.91 19.13 210.768 18.92 211.716 18.92C212.664 18.92 213.522 19.13 214.29 19.55C215.058 19.97 215.664 20.57 216.108 21.35C216.552 22.13 216.774 23.024 216.774 24.032C216.774 25.04 216.546 25.934 216.09 26.714C215.634 27.494 215.01 28.1 214.218 28.532C213.438 28.952 212.574 29.162 211.626 29.162ZM211.626 27.38C212.154 27.38 212.646 27.254 213.102 27.002C213.57 26.75 213.948 26.372 214.236 25.868C214.524 25.364 214.668 24.752 214.668 24.032C214.668 23.312 214.53 22.706 214.254 22.214C213.978 21.71 213.612 21.332 213.156 21.08C212.7 20.828 212.208 20.702 211.68 20.702C211.152 20.702 210.66 20.828 210.204 21.08C209.76 21.332 209.406 21.71 209.142 22.214C208.878 22.706 208.746 23.312 208.746 24.032C208.746 25.1 209.016 25.928 209.556 26.516C210.108 27.092 210.798 27.38 211.626 27.38ZM223.446 18.92C224.226 18.92 224.922 19.082 225.534 19.406C226.158 19.73 226.644 20.21 226.992 20.846C227.34 21.482 227.514 22.25 227.514 23.15V29H225.48V23.456C225.48 22.568 225.258 21.89 224.814 21.422C224.37 20.942 223.764 20.702 222.996 20.702C222.228 20.702 221.616 20.942 221.16 21.422C220.716 21.89 220.494 22.568 220.494 23.456V29H218.442V19.082H220.494V20.216C220.83 19.808 221.256 19.49 221.772 19.262C222.3 19.034 222.858 18.92 223.446 18.92ZM233.403 24.032C233.403 23.012 233.607 22.118 234.015 21.35C234.435 20.57 235.011 19.97 235.743 19.55C236.475 19.13 237.315 18.92 238.263 18.92C239.463 18.92 240.453 19.208 241.233 19.784C242.025 20.348 242.559 21.158 242.835 22.214H240.621C240.441 21.722 240.153 21.338 239.757 21.062C239.361 20.786 238.863 20.648 238.263 20.648C237.423 20.648 236.751 20.948 236.247 21.548C235.755 22.136 235.509 22.964 235.509 24.032C235.509 25.1 235.755 25.934 236.247 26.534C236.751 27.134 237.423 27.434 238.263 27.434C239.451 27.434 240.237 26.912 240.621 25.868H242.835C242.547 26.876 242.007 27.68 241.215 28.28C240.423 28.868 239.439 29.162 238.263 29.162C237.315 29.162 236.475 28.952 235.743 28.532C235.011 28.1 234.435 27.5 234.015 26.732C233.607 25.952 233.403 25.052 233.403 24.032ZM249.65 18.92C250.406 18.92 251.078 19.082 251.666 19.406C252.266 19.73 252.734 20.21 253.07 20.846C253.418 21.482 253.592 22.25 253.592 23.15V29H251.558V23.456C251.558 22.568 251.336 21.89 250.892 21.422C250.448 20.942 249.842 20.702 249.074 20.702C248.306 20.702 247.694 20.942 247.238 21.422C246.794 21.89 246.572 22.568 246.572 23.456V29H244.52V15.68H246.572V20.234C246.92 19.814 247.358 19.49 247.886 19.262C248.426 19.034 249.014 18.92 249.65 18.92ZM255.166 23.996C255.166 23 255.37 22.118 255.778 21.35C256.198 20.582 256.762 19.988 257.47 19.568C258.19 19.136 258.982 18.92 259.846 18.92C260.626 18.92 261.304 19.076 261.88 19.388C262.468 19.688 262.936 20.066 263.284 20.522V19.082H265.354V29H263.284V27.524C262.936 27.992 262.462 28.382 261.862 28.694C261.262 29.006 260.578 29.162 259.81 29.162C258.958 29.162 258.178 28.946 257.47 28.514C256.762 28.07 256.198 27.458 255.778 26.678C255.37 25.886 255.166 24.992 255.166 23.996ZM263.284 24.032C263.284 23.348 263.14 22.754 262.852 22.25C262.576 21.746 262.21 21.362 261.754 21.098C261.298 20.834 260.806 20.702 260.278 20.702C259.75 20.702 259.258 20.834 258.802 21.098C258.346 21.35 257.974 21.728 257.686 22.232C257.41 22.724 257.272 23.312 257.272 23.996C257.272 24.68 257.41 25.28 257.686 25.796C257.974 26.312 258.346 26.708 258.802 26.984C259.27 27.248 259.762 27.38 260.278 27.38C260.806 27.38 261.298 27.248 261.754 26.984C262.21 26.72 262.576 26.336 262.852 25.832C263.14 25.316 263.284 24.716 263.284 24.032ZM269.741 20.522C270.041 20.018 270.437 19.628 270.929 19.352C271.433 19.064 272.027 18.92 272.711 18.92V21.044H272.189C271.385 21.044 270.773 21.248 270.353 21.656C269.945 22.064 269.741 22.772 269.741 23.78V29H267.689V19.082H269.741V20.522ZM276.631 20.756V26.246C276.631 26.618 276.715 26.888 276.883 27.056C277.063 27.212 277.363 27.29 277.783 27.29H279.043V29H277.423C276.499 29 275.791 28.784 275.299 28.352C274.807 27.92 274.561 27.218 274.561 26.246V20.756H273.391V19.082H274.561V16.616H276.631V19.082H279.043V20.756H276.631Z" fill="white"/>
<path d="M70.9392 153.948L76.5999 128.973L90.3474 146.884L95.6038 133.766L101.265 145.118L110.969 138.559L120.268 148.398L125.929 138.559L138.059 145.118L141.294 133.766L154.233 143.605L158.68 127.207L167.98 141.839L172.428 127.207L174.45 138.559L188.601 148.398L193.858 138.559L199.114 146.884L209.627 141.839C212.592 142.343 218.603 143.706 218.927 145.118C219.25 146.531 223.914 145.707 226.205 145.118V136.541L234.292 141.839L240.761 128.973L245.613 145.118L251.678 132.252L254.913 143.605L261.382 136.541L266.234 153.948L280.386 148.398L286.856 114.845L293.325 136.541L319.203 124.684L324.055 138.559L341.845 124.684L353.195 123" stroke="white" stroke-width="2" stroke-dasharray="3 3"/>
<path d="M65.645 229.275H66.832L69.8599 236.81L72.8813 229.275H74.0747L70.3169 238.517H69.3901L65.645 229.275ZM65.2578 229.275H66.3052L66.4766 234.912V238.517H65.2578V229.275ZM73.4082 229.275H74.4556V238.517H73.2368V234.912L73.4082 229.275ZM76.6187 235.159V235.013C76.6187 234.518 76.6906 234.059 76.8345 233.636C76.9784 233.208 77.1857 232.838 77.4565 232.525C77.7274 232.208 78.0553 231.962 78.4404 231.789C78.8255 231.611 79.2572 231.522 79.7354 231.522C80.2178 231.522 80.6515 231.611 81.0366 231.789C81.4259 231.962 81.756 232.208 82.0269 232.525C82.3019 232.838 82.5114 233.208 82.6553 233.636C82.7992 234.059 82.8711 234.518 82.8711 235.013V235.159C82.8711 235.654 82.7992 236.114 82.6553 236.537C82.5114 236.96 82.3019 237.33 82.0269 237.648C81.756 237.961 81.4281 238.206 81.043 238.384C80.6621 238.557 80.2305 238.644 79.748 238.644C79.2656 238.644 78.8319 238.557 78.4468 238.384C78.0617 238.206 77.7316 237.961 77.4565 237.648C77.1857 237.33 76.9784 236.96 76.8345 236.537C76.6906 236.114 76.6187 235.654 76.6187 235.159ZM77.793 235.013V235.159C77.793 235.502 77.8332 235.826 77.9136 236.13C77.994 236.431 78.1146 236.698 78.2754 236.93C78.4404 237.163 78.6457 237.347 78.8911 237.483C79.1366 237.614 79.4222 237.679 79.748 237.679C80.0697 237.679 80.3511 237.614 80.5923 237.483C80.8377 237.347 81.0409 237.163 81.2017 236.93C81.3625 236.698 81.4831 236.431 81.5635 236.13C81.6481 235.826 81.6904 235.502 81.6904 235.159V235.013C81.6904 234.675 81.6481 234.355 81.5635 234.055C81.4831 233.75 81.3604 233.481 81.1953 233.249C81.0345 233.012 80.8314 232.825 80.5859 232.69C80.3447 232.555 80.0612 232.487 79.7354 232.487C79.4137 232.487 79.1302 232.555 78.8848 232.69C78.6436 232.825 78.4404 233.012 78.2754 233.249C78.1146 233.481 77.994 233.75 77.9136 234.055C77.8332 234.355 77.793 234.675 77.793 235.013ZM86.0181 233.115V238.517H84.8438V231.649H85.9546L86.0181 233.115ZM85.7388 234.823L85.25 234.804C85.2542 234.334 85.3241 233.9 85.4595 233.503C85.5949 233.101 85.7853 232.751 86.0308 232.455C86.2762 232.159 86.5682 231.93 86.9067 231.77C87.2495 231.605 87.6283 231.522 88.043 231.522C88.3815 231.522 88.6862 231.569 88.957 231.662C89.2279 231.751 89.4585 231.894 89.6489 232.093C89.8436 232.292 89.9917 232.55 90.0933 232.868C90.1948 233.181 90.2456 233.564 90.2456 234.017V238.517H89.0649V234.004C89.0649 233.644 89.012 233.357 88.9062 233.141C88.8005 232.921 88.646 232.762 88.4429 232.665C88.2397 232.563 87.9901 232.512 87.6938 232.512C87.4019 232.512 87.1353 232.574 86.894 232.696C86.6571 232.819 86.4518 232.988 86.2783 233.204C86.109 233.42 85.9757 233.668 85.8784 233.947C85.7853 234.222 85.7388 234.514 85.7388 234.823Z" fill="#FFFEFE"/>
<path d="M118.475 229.275V238.517H117.269V229.275H118.475ZM121.446 229.275V230.278H114.305V229.275H121.446ZM126.732 236.93V231.649H127.913V238.517H126.789L126.732 236.93ZM126.954 235.483L127.443 235.47C127.443 235.927 127.394 236.351 127.297 236.74C127.204 237.125 127.052 237.459 126.84 237.743C126.628 238.026 126.351 238.248 126.009 238.409C125.666 238.566 125.249 238.644 124.758 238.644C124.424 238.644 124.117 238.595 123.838 238.498C123.563 238.401 123.326 238.251 123.127 238.047C122.928 237.844 122.773 237.58 122.663 237.254C122.558 236.928 122.505 236.537 122.505 236.08V231.649H123.679V236.092C123.679 236.401 123.713 236.657 123.781 236.86C123.852 237.059 123.948 237.218 124.066 237.337C124.189 237.451 124.324 237.531 124.472 237.578C124.625 237.624 124.781 237.648 124.942 237.648C125.441 237.648 125.837 237.552 126.129 237.362C126.421 237.167 126.631 236.907 126.758 236.581C126.889 236.251 126.954 235.885 126.954 235.483ZM133.053 238.644C132.575 238.644 132.141 238.564 131.752 238.403C131.367 238.238 131.034 238.007 130.755 237.711C130.48 237.415 130.268 237.064 130.12 236.657C129.972 236.251 129.898 235.807 129.898 235.324V235.058C129.898 234.499 129.981 234.002 130.146 233.566C130.311 233.126 130.535 232.754 130.819 232.449C131.102 232.144 131.424 231.914 131.783 231.757C132.143 231.6 132.516 231.522 132.901 231.522C133.392 231.522 133.815 231.607 134.17 231.776C134.53 231.945 134.824 232.182 135.052 232.487C135.281 232.787 135.45 233.143 135.56 233.553C135.67 233.96 135.725 234.404 135.725 234.886V235.413H130.596V234.455H134.551V234.366C134.534 234.061 134.471 233.765 134.361 233.477C134.255 233.189 134.086 232.952 133.853 232.766C133.62 232.58 133.303 232.487 132.901 232.487C132.634 232.487 132.389 232.544 132.164 232.658C131.94 232.768 131.747 232.933 131.587 233.153C131.426 233.373 131.301 233.642 131.212 233.96C131.123 234.277 131.079 234.643 131.079 235.058V235.324C131.079 235.65 131.123 235.957 131.212 236.245C131.305 236.528 131.439 236.778 131.612 236.994C131.79 237.21 132.003 237.379 132.253 237.502C132.507 237.624 132.795 237.686 133.116 237.686C133.531 237.686 133.882 237.601 134.17 237.432C134.458 237.262 134.71 237.036 134.926 236.753L135.636 237.318C135.488 237.542 135.3 237.755 135.072 237.959C134.843 238.162 134.562 238.327 134.227 238.454C133.897 238.581 133.506 238.644 133.053 238.644Z" fill="#FFFEFE"/>
<path d="M163.294 235.724L165.128 229.275H166.017L165.503 231.782L163.529 238.517H162.646L163.294 235.724ZM161.396 229.275L162.856 235.597L163.294 238.517H162.418L160.177 229.275H161.396ZM168.391 235.591L169.819 229.275H171.044L168.81 238.517H167.934L168.391 235.591ZM166.15 229.275L167.934 235.724L168.582 238.517H167.699L165.795 231.782L165.274 229.275H166.15ZM175.372 238.644C174.894 238.644 174.46 238.564 174.071 238.403C173.686 238.238 173.354 238.007 173.074 237.711C172.799 237.415 172.588 237.064 172.439 236.657C172.291 236.251 172.217 235.807 172.217 235.324V235.058C172.217 234.499 172.3 234.002 172.465 233.566C172.63 233.126 172.854 232.754 173.138 232.449C173.421 232.144 173.743 231.914 174.103 231.757C174.462 231.6 174.835 231.522 175.22 231.522C175.711 231.522 176.134 231.607 176.489 231.776C176.849 231.945 177.143 232.182 177.372 232.487C177.6 232.787 177.769 233.143 177.879 233.553C177.989 233.96 178.044 234.404 178.044 234.886V235.413H172.916V234.455H176.87V234.366C176.853 234.061 176.79 233.765 176.68 233.477C176.574 233.189 176.405 232.952 176.172 232.766C175.939 232.58 175.622 232.487 175.22 232.487C174.953 232.487 174.708 232.544 174.483 232.658C174.259 232.768 174.067 232.933 173.906 233.153C173.745 233.373 173.62 233.642 173.531 233.96C173.442 234.277 173.398 234.643 173.398 235.058V235.324C173.398 235.65 173.442 235.957 173.531 236.245C173.624 236.528 173.758 236.778 173.931 236.994C174.109 237.21 174.323 237.379 174.572 237.502C174.826 237.624 175.114 237.686 175.436 237.686C175.85 237.686 176.201 237.601 176.489 237.432C176.777 237.262 177.029 237.036 177.245 236.753L177.956 237.318C177.807 237.542 177.619 237.755 177.391 237.959C177.162 238.162 176.881 238.327 176.546 238.454C176.216 238.581 175.825 238.644 175.372 238.644ZM184.245 237.184V228.767H185.425V238.517H184.346L184.245 237.184ZM179.624 235.159V235.026C179.624 234.501 179.687 234.025 179.814 233.598C179.945 233.166 180.129 232.796 180.366 232.487C180.607 232.178 180.893 231.941 181.223 231.776C181.557 231.607 181.93 231.522 182.34 231.522C182.772 231.522 183.149 231.598 183.47 231.751C183.796 231.899 184.071 232.117 184.295 232.404C184.524 232.688 184.704 233.031 184.835 233.433C184.966 233.835 185.057 234.29 185.108 234.797V235.381C185.061 235.885 184.97 236.338 184.835 236.74C184.704 237.142 184.524 237.485 184.295 237.768C184.071 238.052 183.796 238.27 183.47 238.422C183.144 238.57 182.764 238.644 182.328 238.644C181.926 238.644 181.557 238.557 181.223 238.384C180.893 238.21 180.607 237.967 180.366 237.654C180.129 237.341 179.945 236.973 179.814 236.549C179.687 236.122 179.624 235.659 179.624 235.159ZM180.804 235.026V235.159C180.804 235.502 180.838 235.824 180.906 236.124C180.978 236.425 181.088 236.689 181.236 236.918C181.384 237.146 181.572 237.326 181.801 237.457C182.029 237.584 182.302 237.648 182.62 237.648C183.009 237.648 183.328 237.565 183.578 237.4C183.832 237.235 184.035 237.017 184.188 236.746C184.34 236.475 184.458 236.181 184.543 235.864V234.334C184.492 234.101 184.418 233.877 184.321 233.661C184.228 233.441 184.105 233.247 183.953 233.077C183.805 232.904 183.62 232.766 183.4 232.665C183.185 232.563 182.929 232.512 182.632 232.512C182.311 232.512 182.034 232.58 181.801 232.715C181.572 232.847 181.384 233.029 181.236 233.261C181.088 233.49 180.978 233.756 180.906 234.061C180.838 234.362 180.804 234.683 180.804 235.026Z" fill="#FFFEFE"/>
<path d="M214.08 229.275V238.517H212.874V229.275H214.08ZM217.051 229.275V230.278H209.91V229.275H217.051ZM219.919 228.767V238.517H218.744V228.767H219.919ZM219.639 234.823L219.151 234.804C219.155 234.334 219.225 233.9 219.36 233.503C219.496 233.101 219.686 232.751 219.931 232.455C220.177 232.159 220.469 231.93 220.807 231.77C221.15 231.605 221.529 231.522 221.944 231.522C222.282 231.522 222.587 231.569 222.858 231.662C223.128 231.751 223.359 231.894 223.55 232.093C223.744 232.292 223.892 232.55 223.994 232.868C224.095 233.181 224.146 233.564 224.146 234.017V238.517H222.966V234.004C222.966 233.644 222.913 233.357 222.807 233.141C222.701 232.921 222.547 232.762 222.344 232.665C222.14 232.563 221.891 232.512 221.594 232.512C221.302 232.512 221.036 232.574 220.795 232.696C220.558 232.819 220.352 232.988 220.179 233.204C220.01 233.42 219.876 233.668 219.779 233.947C219.686 234.222 219.639 234.514 219.639 234.823ZM230.607 236.93V231.649H231.787V238.517H230.664L230.607 236.93ZM230.829 235.483L231.318 235.47C231.318 235.927 231.269 236.351 231.172 236.74C231.079 237.125 230.926 237.459 230.715 237.743C230.503 238.026 230.226 238.248 229.883 238.409C229.54 238.566 229.123 238.644 228.633 238.644C228.298 238.644 227.991 238.595 227.712 238.498C227.437 238.401 227.2 238.251 227.001 238.047C226.802 237.844 226.648 237.58 226.538 237.254C226.432 236.928 226.379 236.537 226.379 236.08V231.649H227.553V236.092C227.553 236.401 227.587 236.657 227.655 236.86C227.727 237.059 227.822 237.218 227.941 237.337C228.063 237.451 228.199 237.531 228.347 237.578C228.499 237.624 228.656 237.648 228.817 237.648C229.316 237.648 229.712 237.552 230.004 237.362C230.296 237.167 230.505 236.907 230.632 236.581C230.763 236.251 230.829 235.885 230.829 235.483Z" fill="#FFFEFE"/>
<path d="M258.693 229.275V238.517H257.468V229.275H258.693ZM262.565 233.433V234.436H258.426V233.433H262.565ZM263.193 229.275V230.278H258.426V229.275H263.193ZM265.985 232.728V238.517H264.811V231.649H265.953L265.985 232.728ZM268.13 231.611L268.124 232.703C268.027 232.682 267.934 232.669 267.845 232.665C267.76 232.656 267.663 232.652 267.553 232.652C267.282 232.652 267.043 232.694 266.835 232.779C266.628 232.864 266.452 232.982 266.309 233.134C266.165 233.287 266.05 233.469 265.966 233.68C265.885 233.888 265.833 234.116 265.807 234.366L265.477 234.556C265.477 234.142 265.517 233.752 265.598 233.388C265.682 233.024 265.811 232.703 265.985 232.423C266.158 232.14 266.378 231.92 266.645 231.763C266.916 231.602 267.237 231.522 267.61 231.522C267.694 231.522 267.792 231.533 267.902 231.554C268.012 231.571 268.088 231.59 268.13 231.611ZM270.992 231.649V238.517H269.811V231.649H270.992ZM269.722 229.827C269.722 229.637 269.779 229.476 269.894 229.345C270.012 229.214 270.186 229.148 270.414 229.148C270.638 229.148 270.81 229.214 270.928 229.345C271.051 229.476 271.112 229.637 271.112 229.827C271.112 230.009 271.051 230.166 270.928 230.297C270.81 230.424 270.638 230.487 270.414 230.487C270.186 230.487 270.012 230.424 269.894 230.297C269.779 230.166 269.722 230.009 269.722 229.827Z" fill="#FFFEFE"/>
<path d="M301.196 236.181C301.196 235.965 301.162 235.775 301.094 235.61C301.031 235.441 300.917 235.288 300.752 235.153C300.591 235.018 300.367 234.888 300.079 234.766C299.795 234.643 299.436 234.518 299 234.391C298.543 234.256 298.13 234.106 297.762 233.941C297.394 233.771 297.079 233.579 296.816 233.363C296.554 233.147 296.353 232.9 296.213 232.62C296.073 232.341 296.004 232.021 296.004 231.662C296.004 231.302 296.078 230.97 296.226 230.665C296.374 230.36 296.586 230.096 296.861 229.872C297.14 229.643 297.472 229.465 297.857 229.339C298.242 229.212 298.672 229.148 299.146 229.148C299.84 229.148 300.428 229.281 300.91 229.548C301.397 229.81 301.767 230.155 302.021 230.583C302.275 231.006 302.402 231.459 302.402 231.941H301.183C301.183 231.594 301.109 231.287 300.961 231.021C300.813 230.75 300.589 230.538 300.288 230.386C299.988 230.229 299.607 230.151 299.146 230.151C298.71 230.151 298.35 230.217 298.067 230.348C297.783 230.479 297.572 230.657 297.432 230.881C297.296 231.105 297.229 231.361 297.229 231.649C297.229 231.844 297.269 232.021 297.349 232.182C297.434 232.339 297.563 232.485 297.737 232.62C297.914 232.756 298.139 232.88 298.409 232.995C298.684 233.109 299.012 233.219 299.393 233.325C299.918 233.473 300.371 233.638 300.752 233.82C301.133 234.002 301.446 234.207 301.691 234.436C301.941 234.66 302.125 234.916 302.243 235.204C302.366 235.487 302.427 235.809 302.427 236.169C302.427 236.545 302.351 236.886 302.199 237.191C302.047 237.495 301.829 237.755 301.545 237.971C301.262 238.187 300.921 238.354 300.523 238.473C300.13 238.587 299.69 238.644 299.203 238.644C298.775 238.644 298.354 238.585 297.94 238.466C297.529 238.348 297.155 238.17 296.816 237.933C296.482 237.696 296.213 237.404 296.01 237.057C295.811 236.706 295.712 236.3 295.712 235.839H296.93C296.93 236.156 296.992 236.429 297.115 236.657C297.237 236.882 297.404 237.068 297.616 237.216C297.832 237.364 298.075 237.474 298.346 237.546C298.621 237.614 298.907 237.648 299.203 237.648C299.63 237.648 299.992 237.588 300.288 237.47C300.585 237.351 300.809 237.182 300.961 236.962C301.118 236.742 301.196 236.482 301.196 236.181ZM308.361 237.343V233.807C308.361 233.536 308.306 233.302 308.196 233.103C308.09 232.9 307.929 232.743 307.714 232.633C307.498 232.523 307.231 232.468 306.914 232.468C306.618 232.468 306.357 232.519 306.133 232.62C305.913 232.722 305.74 232.855 305.613 233.02C305.49 233.185 305.428 233.363 305.428 233.553H304.254C304.254 233.308 304.318 233.065 304.445 232.823C304.572 232.582 304.753 232.364 304.99 232.17C305.232 231.971 305.519 231.814 305.854 231.7C306.192 231.581 306.569 231.522 306.984 231.522C307.483 231.522 307.923 231.607 308.304 231.776C308.689 231.945 308.99 232.201 309.205 232.544C309.425 232.883 309.535 233.308 309.535 233.82V237.019C309.535 237.248 309.554 237.491 309.593 237.749C309.635 238.007 309.696 238.229 309.777 238.416V238.517H308.552C308.492 238.382 308.446 238.202 308.412 237.978C308.378 237.749 308.361 237.538 308.361 237.343ZM308.564 234.353L308.577 235.178H307.39C307.056 235.178 306.757 235.206 306.495 235.261C306.233 235.312 306.012 235.39 305.835 235.496C305.657 235.602 305.522 235.735 305.428 235.896C305.335 236.052 305.289 236.236 305.289 236.448C305.289 236.664 305.337 236.86 305.435 237.038C305.532 237.216 305.678 237.358 305.873 237.464C306.072 237.565 306.315 237.616 306.603 237.616C306.962 237.616 307.28 237.54 307.555 237.387C307.83 237.235 308.048 237.049 308.209 236.829C308.374 236.609 308.463 236.395 308.475 236.188L308.977 236.753C308.947 236.93 308.867 237.127 308.736 237.343C308.604 237.559 308.429 237.766 308.209 237.965C307.993 238.16 307.735 238.323 307.434 238.454C307.138 238.581 306.804 238.644 306.431 238.644C305.966 238.644 305.558 238.553 305.206 238.371C304.859 238.189 304.588 237.946 304.394 237.641C304.203 237.332 304.108 236.987 304.108 236.607C304.108 236.238 304.18 235.915 304.324 235.635C304.468 235.352 304.675 235.117 304.946 234.931C305.217 234.74 305.543 234.596 305.924 234.499C306.304 234.402 306.73 234.353 307.199 234.353H308.564ZM314.758 231.649V232.55H311.045V231.649H314.758ZM312.302 229.98H313.476V236.816C313.476 237.049 313.512 237.224 313.584 237.343C313.656 237.461 313.749 237.54 313.863 237.578C313.977 237.616 314.1 237.635 314.231 237.635C314.329 237.635 314.43 237.626 314.536 237.609C314.646 237.588 314.728 237.571 314.783 237.559L314.79 238.517C314.697 238.547 314.574 238.574 314.422 238.6C314.274 238.629 314.094 238.644 313.882 238.644C313.594 238.644 313.33 238.587 313.089 238.473C312.847 238.359 312.655 238.168 312.511 237.901C312.371 237.631 312.302 237.267 312.302 236.81V229.98Z" fill="#FFFEFE"/>
<path d="M344.999 236.181C344.999 235.965 344.965 235.775 344.897 235.61C344.833 235.441 344.719 235.288 344.554 235.153C344.393 235.018 344.169 234.888 343.881 234.766C343.598 234.643 343.238 234.518 342.802 234.391C342.345 234.256 341.933 234.106 341.564 233.941C341.196 233.771 340.881 233.579 340.619 233.363C340.356 233.147 340.155 232.9 340.016 232.62C339.876 232.341 339.806 232.021 339.806 231.662C339.806 231.302 339.88 230.97 340.028 230.665C340.176 230.36 340.388 230.096 340.663 229.872C340.942 229.643 341.275 229.465 341.66 229.339C342.045 229.212 342.474 229.148 342.948 229.148C343.642 229.148 344.23 229.281 344.713 229.548C345.2 229.81 345.57 230.155 345.824 230.583C346.078 231.006 346.205 231.459 346.205 231.941H344.986C344.986 231.594 344.912 231.287 344.764 231.021C344.616 230.75 344.391 230.538 344.091 230.386C343.79 230.229 343.41 230.151 342.948 230.151C342.512 230.151 342.153 230.217 341.869 230.348C341.586 230.479 341.374 230.657 341.234 230.881C341.099 231.105 341.031 231.361 341.031 231.649C341.031 231.844 341.071 232.021 341.152 232.182C341.236 232.339 341.366 232.485 341.539 232.62C341.717 232.756 341.941 232.88 342.212 232.995C342.487 233.109 342.815 233.219 343.196 233.325C343.721 233.473 344.173 233.638 344.554 233.82C344.935 234.002 345.248 234.207 345.494 234.436C345.743 234.66 345.927 234.916 346.046 235.204C346.169 235.487 346.23 235.809 346.23 236.169C346.23 236.545 346.154 236.886 346.001 237.191C345.849 237.495 345.631 237.755 345.348 237.971C345.064 238.187 344.723 238.354 344.326 238.473C343.932 238.587 343.492 238.644 343.005 238.644C342.578 238.644 342.157 238.585 341.742 238.466C341.332 238.348 340.957 238.17 340.619 237.933C340.284 237.696 340.016 237.404 339.812 237.057C339.614 236.706 339.514 236.3 339.514 235.839H340.733C340.733 236.156 340.794 236.429 340.917 236.657C341.04 236.882 341.207 237.068 341.418 237.216C341.634 237.364 341.878 237.474 342.148 237.546C342.424 237.614 342.709 237.648 343.005 237.648C343.433 237.648 343.795 237.588 344.091 237.47C344.387 237.351 344.611 237.182 344.764 236.962C344.92 236.742 344.999 236.482 344.999 236.181ZM352.316 236.93V231.649H353.497V238.517H352.373L352.316 236.93ZM352.538 235.483L353.027 235.47C353.027 235.927 352.978 236.351 352.881 236.74C352.788 237.125 352.635 237.459 352.424 237.743C352.212 238.026 351.935 238.248 351.592 238.409C351.25 238.566 350.833 238.644 350.342 238.644C350.007 238.644 349.701 238.595 349.421 238.498C349.146 238.401 348.909 238.251 348.71 238.047C348.512 237.844 348.357 237.58 348.247 237.254C348.141 236.928 348.088 236.537 348.088 236.08V231.649H349.263V236.092C349.263 236.401 349.297 236.657 349.364 236.86C349.436 237.059 349.531 237.218 349.65 237.337C349.773 237.451 349.908 237.531 350.056 237.578C350.208 237.624 350.365 237.648 350.526 237.648C351.025 237.648 351.421 237.552 351.713 237.362C352.005 237.167 352.214 236.907 352.341 236.581C352.472 236.251 352.538 235.885 352.538 235.483ZM356.961 233.115V238.517H355.787V231.649H356.897L356.961 233.115ZM356.682 234.823L356.193 234.804C356.197 234.334 356.267 233.9 356.402 233.503C356.538 233.101 356.728 232.751 356.974 232.455C357.219 232.159 357.511 231.93 357.85 231.77C358.192 231.605 358.571 231.522 358.986 231.522C359.324 231.522 359.629 231.569 359.9 231.662C360.171 231.751 360.401 231.894 360.592 232.093C360.786 232.292 360.935 232.55 361.036 232.868C361.138 233.181 361.188 233.564 361.188 234.017V238.517H360.008V234.004C360.008 233.644 359.955 233.357 359.849 233.141C359.743 232.921 359.589 232.762 359.386 232.665C359.183 232.563 358.933 232.512 358.637 232.512C358.345 232.512 358.078 232.574 357.837 232.696C357.6 232.819 357.395 232.988 357.221 233.204C357.052 233.42 356.919 233.668 356.821 233.947C356.728 234.222 356.682 234.514 356.682 234.823Z" fill="#FFFEFE"/>
<path d="M47.363 54.7578V55.418L43.5354 64H42.2976L46.1189 55.7227H41.1169V54.7578H47.363ZM50.6877 59.6011L49.7483 59.3599L50.2117 54.7578H54.9534V55.8433H51.2083L50.929 58.3569C51.0982 58.2596 51.3119 58.1686 51.5701 58.084C51.8324 57.9993 52.1329 57.957 52.4714 57.957C52.8988 57.957 53.2818 58.0311 53.6204 58.1792C53.9589 58.3231 54.2467 58.5304 54.4836 58.8013C54.7249 59.0721 54.9089 59.3979 55.0359 59.7788C55.1628 60.1597 55.2263 60.585 55.2263 61.0547C55.2263 61.499 55.165 61.9074 55.0422 62.2798C54.9237 62.6522 54.7439 62.978 54.5027 63.2573C54.2615 63.5324 53.9568 63.7461 53.5886 63.8984C53.2247 64.0508 52.7952 64.127 52.3 64.127C51.9277 64.127 51.5743 64.0762 51.24 63.9746C50.9099 63.8688 50.6137 63.7101 50.3513 63.4985C50.0932 63.2827 49.8816 63.0161 49.7166 62.6987C49.5557 62.3771 49.4542 62.0005 49.4119 61.5688H50.5291C50.5798 61.9159 50.6814 62.2078 50.8337 62.4448C50.9861 62.6818 51.185 62.8617 51.4304 62.9844C51.6801 63.1029 51.97 63.1621 52.3 63.1621C52.5793 63.1621 52.8269 63.1134 53.0427 63.0161C53.2585 62.9188 53.4405 62.7791 53.5886 62.5972C53.7367 62.4152 53.8489 62.1951 53.925 61.937C54.0055 61.6789 54.0457 61.389 54.0457 61.0674C54.0457 60.7754 54.0055 60.5046 53.925 60.2549C53.8446 60.0052 53.724 59.7873 53.5632 59.6011C53.4067 59.4149 53.2141 59.271 52.9856 59.1694C52.7571 59.0636 52.4947 59.0107 52.1985 59.0107C51.8049 59.0107 51.5066 59.0636 51.3035 59.1694C51.1046 59.2752 50.8993 59.4191 50.6877 59.6011Z" fill="#FFFEFE"/>
<path d="M42.8752 111.394L41.9358 111.153L42.3992 106.551H47.1409V107.636H43.3958L43.1165 110.15C43.2857 110.053 43.4994 109.962 43.7576 109.877C44.0199 109.792 44.3204 109.75 44.6589 109.75C45.0863 109.75 45.4693 109.824 45.8079 109.972C46.1464 110.116 46.4342 110.324 46.6711 110.594C46.9124 110.865 47.0964 111.191 47.2234 111.572C47.3503 111.953 47.4138 112.378 47.4138 112.848C47.4138 113.292 47.3525 113.7 47.2297 114.073C47.1112 114.445 46.9314 114.771 46.6902 115.05C46.449 115.325 46.1443 115.539 45.7761 115.692C45.4122 115.844 44.9827 115.92 44.4875 115.92C44.1152 115.92 43.7618 115.869 43.4275 115.768C43.0974 115.662 42.8012 115.503 42.5388 115.292C42.2807 115.076 42.0691 114.809 41.9041 114.492C41.7432 114.17 41.6417 113.794 41.5994 113.362H42.7166C42.7673 113.709 42.8689 114.001 43.0212 114.238C43.1736 114.475 43.3725 114.655 43.6179 114.777C43.8676 114.896 44.1575 114.955 44.4875 114.955C44.7668 114.955 45.0144 114.907 45.2302 114.809C45.446 114.712 45.628 114.572 45.7761 114.39C45.9242 114.208 46.0364 113.988 46.1125 113.73C46.193 113.472 46.2332 113.182 46.2332 112.86C46.2332 112.568 46.193 112.298 46.1125 112.048C46.0321 111.798 45.9115 111.58 45.7507 111.394C45.5942 111.208 45.4016 111.064 45.1731 110.963C44.9446 110.857 44.6822 110.804 44.386 110.804C43.9924 110.804 43.6941 110.857 43.491 110.963C43.2921 111.068 43.0868 111.212 42.8752 111.394ZM55.0042 110.436V111.845C55.0042 112.602 54.9364 113.241 54.801 113.762C54.6656 114.282 54.4709 114.701 54.217 115.019C53.9631 115.336 53.6563 115.567 53.2966 115.711C52.9412 115.85 52.5391 115.92 52.0906 115.92C51.7351 115.92 51.4071 115.876 51.1067 115.787C50.8062 115.698 50.5354 115.556 50.2942 115.361C50.0572 115.163 49.8541 114.904 49.6848 114.587C49.5155 114.27 49.3865 113.885 49.2976 113.432C49.2087 112.979 49.1643 112.45 49.1643 111.845V110.436C49.1643 109.678 49.232 109.043 49.3674 108.531C49.5071 108.019 49.7039 107.609 49.9578 107.3C50.2117 106.987 50.5164 106.762 50.8718 106.627C51.2315 106.492 51.6335 106.424 52.0779 106.424C52.4376 106.424 52.7677 106.468 53.0681 106.557C53.3728 106.642 53.6436 106.779 53.8806 106.97C54.1176 107.156 54.3186 107.406 54.4836 107.719C54.6529 108.028 54.782 108.407 54.8708 108.855C54.9597 109.304 55.0042 109.831 55.0042 110.436ZM53.8235 112.035V110.239C53.8235 109.824 53.7981 109.46 53.7473 109.147C53.7008 108.83 53.6309 108.559 53.5378 108.335C53.4447 108.11 53.3263 107.928 53.1824 107.789C53.0427 107.649 52.8798 107.547 52.6936 107.484C52.5116 107.416 52.3064 107.382 52.0779 107.382C51.7986 107.382 51.551 107.435 51.3352 107.541C51.1194 107.643 50.9374 107.806 50.7893 108.03C50.6454 108.254 50.5354 108.548 50.4592 108.912C50.3831 109.276 50.345 109.718 50.345 110.239V112.035C50.345 112.45 50.3682 112.816 50.4148 113.133C50.4656 113.451 50.5396 113.726 50.637 113.959C50.7343 114.187 50.8528 114.375 50.9924 114.524C51.1321 114.672 51.2929 114.782 51.4749 114.854C51.6611 114.921 51.8663 114.955 52.0906 114.955C52.3783 114.955 52.6301 114.9 52.8459 114.79C53.0618 114.68 53.2416 114.509 53.3855 114.276C53.5336 114.039 53.6436 113.736 53.7156 113.368C53.7875 112.996 53.8235 112.552 53.8235 112.035Z" fill="#FFFEFE"/>
<path d="M47.4456 166.621V167.586H41.3962V166.742L44.4241 163.371C44.7965 162.957 45.0842 162.605 45.2874 162.318C45.4947 162.026 45.6386 161.765 45.719 161.537C45.8036 161.304 45.8459 161.067 45.8459 160.826C45.8459 160.521 45.7825 160.246 45.6555 160.001C45.5328 159.751 45.3508 159.552 45.1096 159.404C44.8684 159.256 44.5764 159.182 44.2336 159.182C43.8232 159.182 43.4804 159.262 43.2053 159.423C42.9345 159.58 42.7314 159.8 42.5959 160.083C42.4605 160.367 42.3928 160.693 42.3928 161.061H41.2185C41.2185 160.54 41.3328 160.064 41.5613 159.633C41.7898 159.201 42.1283 158.858 42.5769 158.604C43.0255 158.346 43.5777 158.217 44.2336 158.217C44.8176 158.217 45.317 158.321 45.7317 158.528C46.1464 158.731 46.4638 159.019 46.6838 159.391C46.9081 159.76 47.0203 160.191 47.0203 160.686C47.0203 160.957 46.9737 161.232 46.8806 161.511C46.7917 161.787 46.6669 162.062 46.5061 162.337C46.3495 162.612 46.1654 162.883 45.9539 163.149C45.7465 163.416 45.5243 163.678 45.2874 163.936L42.8118 166.621H47.4456ZM50.6877 163.187L49.7483 162.946L50.2117 158.344H54.9534V159.429H51.2083L50.929 161.943C51.0982 161.846 51.3119 161.755 51.5701 161.67C51.8324 161.586 52.1329 161.543 52.4714 161.543C52.8988 161.543 53.2818 161.617 53.6204 161.765C53.9589 161.909 54.2467 162.117 54.4836 162.387C54.7249 162.658 54.9089 162.984 55.0359 163.365C55.1628 163.746 55.2263 164.171 55.2263 164.641C55.2263 165.085 55.165 165.494 55.0422 165.866C54.9237 166.238 54.7439 166.564 54.5027 166.844C54.2615 167.119 53.9568 167.332 53.5886 167.485C53.2247 167.637 52.7952 167.713 52.3 167.713C51.9277 167.713 51.5743 167.662 51.24 167.561C50.9099 167.455 50.6137 167.296 50.3513 167.085C50.0932 166.869 49.8816 166.602 49.7166 166.285C49.5557 165.963 49.4542 165.587 49.4119 165.155H50.5291C50.5798 165.502 50.6814 165.794 50.8337 166.031C50.9861 166.268 51.185 166.448 51.4304 166.571C51.6801 166.689 51.97 166.748 52.3 166.748C52.5793 166.748 52.8269 166.7 53.0427 166.602C53.2585 166.505 53.4405 166.365 53.5886 166.183C53.7367 166.001 53.8489 165.781 53.925 165.523C54.0055 165.265 54.0457 164.975 54.0457 164.654C54.0457 164.362 54.0055 164.091 53.925 163.841C53.8446 163.591 53.724 163.373 53.5632 163.187C53.4067 163.001 53.2141 162.857 52.9856 162.756C52.7571 162.65 52.4947 162.597 52.1985 162.597C51.8049 162.597 51.5066 162.65 51.3035 162.756C51.1046 162.861 50.8993 163.005 50.6877 163.187Z" fill="#FFFEFE"/>
<path d="M47.1917 214.022V215.431C47.1917 216.189 47.1239 216.828 46.9885 217.348C46.8531 217.869 46.6584 218.287 46.4045 218.605C46.1506 218.922 45.8438 219.153 45.4841 219.297C45.1287 219.436 44.7266 219.506 44.2781 219.506C43.9226 219.506 43.5946 219.462 43.2942 219.373C42.9937 219.284 42.7229 219.142 42.4817 218.948C42.2447 218.749 42.0416 218.491 41.8723 218.173C41.703 217.856 41.574 217.471 41.4851 217.018C41.3962 216.565 41.3518 216.036 41.3518 215.431V214.022C41.3518 213.264 41.4195 212.63 41.5549 212.118C41.6946 211.606 41.8914 211.195 42.1453 210.886C42.3992 210.573 42.7039 210.349 43.0593 210.213C43.419 210.078 43.821 210.01 44.2654 210.01C44.6251 210.01 44.9552 210.055 45.2556 210.143C45.5603 210.228 45.8311 210.366 46.0681 210.556C46.3051 210.742 46.5061 210.992 46.6711 211.305C46.8404 211.614 46.9695 211.993 47.0583 212.441C47.1472 212.89 47.1917 213.417 47.1917 214.022ZM46.011 215.621V213.825C46.011 213.41 45.9856 213.046 45.9348 212.733C45.8883 212.416 45.8184 212.145 45.7253 211.921C45.6322 211.696 45.5138 211.515 45.3699 211.375C45.2302 211.235 45.0673 211.134 44.8811 211.07C44.6991 211.002 44.4939 210.969 44.2654 210.969C43.9861 210.969 43.7385 211.022 43.5227 211.127C43.3069 211.229 43.1249 211.392 42.9768 211.616C42.8329 211.84 42.7229 212.134 42.6467 212.498C42.5706 212.862 42.5325 213.305 42.5325 213.825V215.621C42.5325 216.036 42.5557 216.402 42.6023 216.72C42.6531 217.037 42.7271 217.312 42.8245 217.545C42.9218 217.773 43.0403 217.962 43.1799 218.11C43.3196 218.258 43.4804 218.368 43.6624 218.44C43.8486 218.508 44.0538 218.541 44.2781 218.541C44.5658 218.541 44.8176 218.486 45.0334 218.376C45.2493 218.266 45.4291 218.095 45.573 217.862C45.7211 217.625 45.8311 217.323 45.9031 216.954C45.975 216.582 46.011 216.138 46.011 215.621Z" fill="#FFFEFE"/>
<g filter="url(#filter1_d_70_266)">
<rect x="265.208" y="79.5" width="35" height="25" rx="12.5" fill="#023E8A"/>
<path d="M278.768 92.4546L278.118 92.2876L278.438 89.1016H281.721V89.853H279.128L278.935 91.5933C279.052 91.5259 279.2 91.4629 279.379 91.4043C279.561 91.3457 279.769 91.3164 280.003 91.3164C280.299 91.3164 280.564 91.3677 280.798 91.4702C281.033 91.5698 281.232 91.7134 281.396 91.9009C281.563 92.0884 281.69 92.314 281.778 92.5776C281.866 92.8413 281.91 93.1357 281.91 93.4609C281.91 93.7686 281.868 94.0513 281.783 94.3091C281.701 94.5669 281.576 94.7925 281.409 94.9858C281.242 95.1763 281.031 95.3242 280.776 95.4297C280.524 95.5352 280.227 95.5879 279.884 95.5879C279.626 95.5879 279.382 95.5527 279.15 95.4824C278.922 95.4092 278.717 95.2993 278.535 95.1528C278.356 95.0034 278.21 94.8188 278.096 94.5991C277.984 94.3765 277.914 94.1157 277.885 93.8169H278.658C278.693 94.0571 278.764 94.2593 278.869 94.4233C278.975 94.5874 279.112 94.7119 279.282 94.7969C279.455 94.8789 279.656 94.9199 279.884 94.9199C280.078 94.9199 280.249 94.8862 280.398 94.8188C280.548 94.7515 280.674 94.6548 280.776 94.5288C280.879 94.4028 280.957 94.2505 281.009 94.0718C281.065 93.8931 281.093 93.6924 281.093 93.4697C281.093 93.2676 281.065 93.0801 281.009 92.9072C280.954 92.7344 280.87 92.5835 280.759 92.4546C280.65 92.3257 280.517 92.2261 280.359 92.1558C280.201 92.0825 280.019 92.0459 279.814 92.0459C279.542 92.0459 279.335 92.0825 279.194 92.1558C279.057 92.229 278.915 92.3286 278.768 92.4546ZM285.974 89.0664V95.5H285.161V90.0815L283.522 90.6792V89.9453L285.847 89.0664H285.974Z" fill="white"/>
</g>
</g>
<defs>
<filter id="filter0_d_70_266" x="0" y="0" width="403" height="275" filterUnits="userSpaceOnUse" color-interpolation-filters="sRGB">
<feFlood flood-opacity="0" result="BackgroundImageFix"/>
<feColorMatrix in="SourceAlpha" type="matrix" values="0 0 0 0 0 0 0 0 0 0 0 0 0 0 0 0 0 0 127 0" result="hardAlpha"/>
<feOffset dy="4"/>
<feGaussianBlur stdDeviation="2"/>
<feComposite in2="hardAlpha" operator="out"/>
<feColorMatrix type="matrix" values="0 0 0 0 0 0 0 0 0 0 0 0 0 0 0 0 0 0 0.25 0"/>
<feBlend mode="normal" in2="BackgroundImageFix" result="effect1_dropShadow_70_266"/>
<feBlend mode="normal" in="SourceGraphic" in2="effect1_dropShadow_70_266" result="shape"/>
</filter>
<filter id="filter1_d_70_266" x="243.208" y="59.5" width="79" height="69" filterUnits="userSpaceOnUse" color-interpolation-filters="sRGB">
<feFlood flood-opacity="0" result="BackgroundImageFix"/>
<feColorMatrix in="SourceAlpha" type="matrix" values="0 0 0 0 0 0 0 0 0 0 0 0 0 0 0 0 0 0 127 0" result="hardAlpha"/>
<feOffset dy="2"/>
<feGaussianBlur stdDeviation="11"/>
<feComposite in2="hardAlpha" operator="out"/>
<feColorMatrix type="matrix" values="0 0 0 0 0 0 0 0 0 0 0 0 0 0 0 0 0 0 0.17 0"/>
<feBlend mode="normal" in2="BackgroundImageFix" result="effect1_dropShadow_70_266"/>
<feBlend mode="normal" in="SourceGraphic" in2="effect1_dropShadow_70_266" result="shape"/>
</filter>
</defs>
</svg>
