<svg width="910" height="508" viewBox="0 0 910 508" fill="none" xmlns="http://www.w3.org/2000/svg">
<g filter="url(#filter0_d_1030_803)">
<rect x="4" width="872" height="500" rx="12" fill="#1D1E22" shape-rendering="crispEdges"/>
<path d="M338.759 37.12C338.327 36.288 337.727 35.664 336.959 35.248C336.191 34.816 335.303 34.6 334.295 34.6C333.191 34.6 332.207 34.848 331.343 35.344C330.479 35.84 329.799 36.544 329.303 37.456C328.823 38.368 328.583 39.424 328.583 40.624C328.583 41.824 328.823 42.888 329.303 43.816C329.799 44.728 330.479 45.432 331.343 45.928C332.207 46.424 333.191 46.672 334.295 46.672C335.783 46.672 336.991 46.256 337.919 45.424C338.847 44.592 339.415 43.464 339.623 42.04H333.359V39.856H342.551V41.992C342.375 43.288 341.911 44.48 341.159 45.568C340.423 46.656 339.455 47.528 338.255 48.184C337.071 48.824 335.751 49.144 334.295 49.144C332.727 49.144 331.295 48.784 329.999 48.064C328.703 47.328 327.671 46.312 326.903 45.016C326.151 43.72 325.775 42.256 325.775 40.624C325.775 38.992 326.151 37.528 326.903 36.232C327.671 34.936 328.703 33.928 329.999 33.208C331.311 32.472 332.743 32.104 334.295 32.104C336.071 32.104 337.647 32.544 339.023 33.424C340.415 34.288 341.423 35.52 342.047 37.12H338.759ZM343.858 42.328C343.858 41 344.13 39.824 344.674 38.8C345.234 37.776 345.986 36.984 346.93 36.424C347.89 35.848 348.946 35.56 350.098 35.56C351.138 35.56 352.042 35.768 352.81 36.184C353.594 36.584 354.218 37.088 354.682 37.696V35.776H357.442V49H354.682V47.032C354.218 47.656 353.586 48.176 352.786 48.592C351.986 49.008 351.074 49.216 350.05 49.216C348.914 49.216 347.874 48.928 346.93 48.352C345.986 47.76 345.234 46.944 344.674 45.904C344.13 44.848 343.858 43.656 343.858 42.328ZM354.682 42.376C354.682 41.464 354.49 40.672 354.106 40C353.738 39.328 353.25 38.816 352.642 38.464C352.034 38.112 351.378 37.936 350.674 37.936C349.97 37.936 349.314 38.112 348.706 38.464C348.098 38.8 347.602 39.304 347.218 39.976C346.85 40.632 346.666 41.416 346.666 42.328C346.666 43.24 346.85 44.04 347.218 44.728C347.602 45.416 348.098 45.944 348.706 46.312C349.33 46.664 349.986 46.84 350.674 46.84C351.378 46.84 352.034 46.664 352.642 46.312C353.25 45.96 353.738 45.448 354.106 44.776C354.49 44.088 354.682 43.288 354.682 42.376ZM376.563 35.56C377.603 35.56 378.531 35.776 379.347 36.208C380.179 36.64 380.827 37.28 381.291 38.128C381.771 38.976 382.011 40 382.011 41.2V49H379.299V41.608C379.299 40.424 379.003 39.52 378.411 38.896C377.819 38.256 377.011 37.936 375.987 37.936C374.963 37.936 374.147 38.256 373.539 38.896C372.947 39.52 372.651 40.424 372.651 41.608V49H369.939V41.608C369.939 40.424 369.643 39.52 369.051 38.896C368.459 38.256 367.651 37.936 366.627 37.936C365.603 37.936 364.787 38.256 364.179 38.896C363.587 39.52 363.291 40.424 363.291 41.608V49H360.555V35.776H363.291V37.288C363.739 36.744 364.307 36.32 364.995 36.016C365.683 35.712 366.419 35.56 367.203 35.56C368.259 35.56 369.203 35.784 370.035 36.232C370.867 36.68 371.507 37.328 371.955 38.176C372.355 37.376 372.979 36.744 373.827 36.28C374.675 35.8 375.587 35.56 376.563 35.56ZM397.133 42.064C397.133 42.56 397.101 43.008 397.037 43.408H386.933C387.013 44.464 387.405 45.312 388.109 45.952C388.813 46.592 389.677 46.912 390.701 46.912C392.173 46.912 393.213 46.296 393.821 45.064H396.773C396.373 46.28 395.645 47.28 394.589 48.064C393.549 48.832 392.253 49.216 390.701 49.216C389.437 49.216 388.301 48.936 387.293 48.376C386.301 47.8 385.517 47 384.941 45.976C384.381 44.936 384.101 43.736 384.101 42.376C384.101 41.016 384.373 39.824 384.917 38.8C385.477 37.76 386.253 36.96 387.245 36.4C388.253 35.84 389.405 35.56 390.701 35.56C391.949 35.56 393.061 35.832 394.037 36.376C395.013 36.92 395.773 37.688 396.317 38.68C396.861 39.656 397.133 40.784 397.133 42.064ZM394.277 41.2C394.261 40.192 393.901 39.384 393.197 38.776C392.493 38.168 391.621 37.864 390.581 37.864C389.637 37.864 388.829 38.168 388.157 38.776C387.485 39.368 387.085 40.176 386.957 41.2H394.277ZM404.145 49.216C403.105 49.216 402.169 49.032 401.337 48.664C400.521 48.28 399.873 47.768 399.393 47.128C398.913 46.472 398.657 45.744 398.625 44.944H401.457C401.505 45.504 401.769 45.976 402.249 46.36C402.745 46.728 403.361 46.912 404.097 46.912C404.865 46.912 405.457 46.768 405.873 46.48C406.305 46.176 406.521 45.792 406.521 45.328C406.521 44.832 406.281 44.464 405.801 44.224C405.337 43.984 404.593 43.72 403.569 43.432C402.577 43.16 401.769 42.896 401.145 42.64C400.521 42.384 399.977 41.992 399.513 41.464C399.065 40.936 398.841 40.24 398.841 39.376C398.841 38.672 399.049 38.032 399.465 37.456C399.881 36.864 400.473 36.4 401.241 36.064C402.025 35.728 402.921 35.56 403.929 35.56C405.433 35.56 406.641 35.944 407.553 36.712C408.481 37.464 408.977 38.496 409.041 39.808H406.305C406.257 39.216 406.017 38.744 405.585 38.392C405.153 38.04 404.569 37.864 403.833 37.864C403.113 37.864 402.561 38 402.177 38.272C401.793 38.544 401.601 38.904 401.601 39.352C401.601 39.704 401.729 40 401.985 40.24C402.241 40.48 402.553 40.672 402.921 40.816C403.289 40.944 403.833 41.112 404.553 41.32C405.513 41.576 406.297 41.84 406.905 42.112C407.529 42.368 408.065 42.752 408.513 43.264C408.961 43.776 409.193 44.456 409.209 45.304C409.209 46.056 409.001 46.728 408.585 47.32C408.169 47.912 407.577 48.376 406.809 48.712C406.057 49.048 405.169 49.216 404.145 49.216ZM435.2 35.776L431.096 49H428.216L425.552 39.232L422.888 49H420.008L415.88 35.776H418.664L421.424 46.408L424.232 35.776H427.088L429.776 46.36L432.512 35.776H435.2ZM442.501 49.216C441.253 49.216 440.125 48.936 439.117 48.376C438.109 47.8 437.317 47 436.741 45.976C436.165 44.936 435.877 43.736 435.877 42.376C435.877 41.032 436.173 39.84 436.765 38.8C437.357 37.76 438.165 36.96 439.189 36.4C440.213 35.84 441.357 35.56 442.621 35.56C443.885 35.56 445.029 35.84 446.053 36.4C447.077 36.96 447.885 37.76 448.477 38.8C449.069 39.84 449.365 41.032 449.365 42.376C449.365 43.72 449.061 44.912 448.453 45.952C447.845 46.992 447.013 47.8 445.957 48.376C444.917 48.936 443.765 49.216 442.501 49.216ZM442.501 46.84C443.205 46.84 443.861 46.672 444.469 46.336C445.093 46 445.597 45.496 445.981 44.824C446.365 44.152 446.557 43.336 446.557 42.376C446.557 41.416 446.373 40.608 446.005 39.952C445.637 39.28 445.149 38.776 444.541 38.44C443.933 38.104 443.277 37.936 442.573 37.936C441.869 37.936 441.213 38.104 440.605 38.44C440.013 38.776 439.541 39.28 439.189 39.952C438.837 40.608 438.661 41.416 438.661 42.376C438.661 43.8 439.021 44.904 439.741 45.688C440.477 46.456 441.397 46.84 442.501 46.84ZM458.262 35.56C459.302 35.56 460.23 35.776 461.046 36.208C461.878 36.64 462.526 37.28 462.99 38.128C463.454 38.976 463.686 40 463.686 41.2V49H460.974V41.608C460.974 40.424 460.678 39.52 460.086 38.896C459.494 38.256 458.686 37.936 457.662 37.936C456.638 37.936 455.822 38.256 455.214 38.896C454.622 39.52 454.326 40.424 454.326 41.608V49H451.59V35.776H454.326V37.288C454.774 36.744 455.342 36.32 456.03 36.016C456.734 35.712 457.478 35.56 458.262 35.56ZM471.538 42.376C471.538 41.016 471.81 39.824 472.354 38.8C472.914 37.76 473.682 36.96 474.658 36.4C475.634 35.84 476.754 35.56 478.018 35.56C479.618 35.56 480.938 35.944 481.978 36.712C483.034 37.464 483.746 38.544 484.114 39.952H481.162C480.922 39.296 480.538 38.784 480.01 38.416C479.482 38.048 478.818 37.864 478.018 37.864C476.898 37.864 476.002 38.264 475.33 39.064C474.674 39.848 474.346 40.952 474.346 42.376C474.346 43.8 474.674 44.912 475.33 45.712C476.002 46.512 476.898 46.912 478.018 46.912C479.602 46.912 480.65 46.216 481.162 44.824H484.114C483.73 46.168 483.01 47.24 481.954 48.04C480.898 48.824 479.586 49.216 478.018 49.216C476.754 49.216 475.634 48.936 474.658 48.376C473.682 47.8 472.914 47 472.354 45.976C471.81 44.936 471.538 43.736 471.538 42.376ZM493.2 35.56C494.208 35.56 495.104 35.776 495.888 36.208C496.688 36.64 497.312 37.28 497.76 38.128C498.224 38.976 498.456 40 498.456 41.2V49H495.744V41.608C495.744 40.424 495.448 39.52 494.856 38.896C494.264 38.256 493.456 37.936 492.432 37.936C491.408 37.936 490.592 38.256 489.984 38.896C489.392 39.52 489.096 40.424 489.096 41.608V49H486.36V31.24H489.096V37.312C489.56 36.752 490.144 36.32 490.848 36.016C491.568 35.712 492.352 35.56 493.2 35.56ZM500.554 42.328C500.554 41 500.826 39.824 501.37 38.8C501.93 37.776 502.682 36.984 503.626 36.424C504.586 35.848 505.642 35.56 506.794 35.56C507.834 35.56 508.738 35.768 509.506 36.184C510.29 36.584 510.914 37.088 511.378 37.696V35.776H514.138V49H511.378V47.032C510.914 47.656 510.282 48.176 509.482 48.592C508.682 49.008 507.77 49.216 506.746 49.216C505.61 49.216 504.57 48.928 503.626 48.352C502.682 47.76 501.93 46.944 501.37 45.904C500.826 44.848 500.554 43.656 500.554 42.328ZM511.378 42.376C511.378 41.464 511.186 40.672 510.802 40C510.434 39.328 509.946 38.816 509.338 38.464C508.73 38.112 508.074 37.936 507.37 37.936C506.666 37.936 506.01 38.112 505.402 38.464C504.794 38.8 504.298 39.304 503.914 39.976C503.546 40.632 503.362 41.416 503.362 42.328C503.362 43.24 503.546 44.04 503.914 44.728C504.298 45.416 504.794 45.944 505.402 46.312C506.026 46.664 506.682 46.84 507.37 46.84C508.074 46.84 508.73 46.664 509.338 46.312C509.946 45.96 510.434 45.448 510.802 44.776C511.186 44.088 511.378 43.288 511.378 42.376ZM519.988 37.696C520.388 37.024 520.916 36.504 521.572 36.136C522.244 35.752 523.036 35.56 523.948 35.56V38.392H523.252C522.18 38.392 521.364 38.664 520.804 39.208C520.26 39.752 519.988 40.696 519.988 42.04V49H517.252V35.776H519.988V37.696ZM529.175 38.008V45.328C529.175 45.824 529.287 46.184 529.511 46.408C529.751 46.616 530.151 46.72 530.711 46.72H532.391V49H530.231C528.999 49 528.055 48.712 527.399 48.136C526.743 47.56 526.415 46.624 526.415 45.328V38.008H524.855V35.776H526.415V32.488H529.175V35.776H532.391V38.008H529.175Z" fill="white"/>
<path d="M89.4609 302.963L104.182 254.465L139.934 289.246L153.604 263.773L168.326 285.817L193.562 273.081L217.747 292.186L232.469 273.081L264.015 285.817L272.427 263.773L306.076 282.878L317.643 251.036L341.828 279.449L353.394 251.036L358.652 273.081L395.456 292.186L409.125 273.081L422.795 289.246L450.135 279.449C457.846 280.429 473.479 283.074 474.32 285.817C475.161 288.561 487.289 286.96 493.248 285.817V269.161L514.278 279.449L531.103 254.465L543.721 285.817L559.494 260.834L567.906 282.878L584.731 269.161L597.349 302.963L634.153 292.186L650.977 227.032L667.801 269.161L735.099 246.137L747.718 273.081L793.985 246.137L823.5 242.868" stroke="#5E97A9" stroke-width="2" stroke-dasharray="3 3"/>
<path d="M73.3559 453.699H74.543L77.5708 461.233L80.5923 453.699H81.7856L78.0278 462.941H77.1011L73.3559 453.699ZM72.9687 453.699H74.0161L74.1875 459.335V462.941H72.9687V453.699ZM81.1191 453.699H82.1665V462.941H80.9477V459.335L81.1191 453.699ZM84.3296 459.583V459.437C84.3296 458.942 84.4015 458.483 84.5454 458.06C84.6893 457.632 84.8966 457.262 85.1675 456.949C85.4383 456.631 85.7663 456.386 86.1514 456.212C86.5364 456.035 86.9681 455.946 87.4463 455.946C87.9287 455.946 88.3625 456.035 88.7475 456.212C89.1369 456.386 89.4669 456.631 89.7378 456.949C90.0128 457.262 90.2223 457.632 90.3662 458.06C90.5101 458.483 90.582 458.942 90.582 459.437V459.583C90.582 460.078 90.5101 460.537 90.3662 460.96C90.2223 461.384 90.0128 461.754 89.7378 462.071C89.4669 462.384 89.139 462.63 88.7539 462.808C88.373 462.981 87.9414 463.068 87.459 463.068C86.9765 463.068 86.5428 462.981 86.1577 462.808C85.7726 462.63 85.4425 462.384 85.1675 462.071C84.8966 461.754 84.6893 461.384 84.5454 460.96C84.4015 460.537 84.3296 460.078 84.3296 459.583ZM85.5039 459.437V459.583C85.5039 459.926 85.5441 460.25 85.6245 460.554C85.7049 460.855 85.8255 461.121 85.9863 461.354C86.1514 461.587 86.3566 461.771 86.602 461.906C86.8475 462.037 87.1331 462.103 87.459 462.103C87.7806 462.103 88.062 462.037 88.3032 461.906C88.5487 461.771 88.7518 461.587 88.9126 461.354C89.0734 461.121 89.194 460.855 89.2744 460.554C89.359 460.25 89.4014 459.926 89.4014 459.583V459.437C89.4014 459.098 89.359 458.779 89.2744 458.479C89.194 458.174 89.0713 457.905 88.9062 457.672C88.7454 457.435 88.5423 457.249 88.2969 457.114C88.0556 456.978 87.7721 456.911 87.4463 456.911C87.1247 456.911 86.8411 456.978 86.5957 457.114C86.3545 457.249 86.1514 457.435 85.9863 457.672C85.8255 457.905 85.7049 458.174 85.6245 458.479C85.5441 458.779 85.5039 459.098 85.5039 459.437ZM93.729 457.539V462.941H92.5547V456.073H93.6655L93.729 457.539ZM93.4497 459.247L92.9609 459.228C92.9652 458.758 93.035 458.324 93.1704 457.926C93.3058 457.524 93.4962 457.175 93.7417 456.879C93.9871 456.583 94.2791 456.354 94.6177 456.193C94.9604 456.028 95.3392 455.946 95.7539 455.946C96.0924 455.946 96.3971 455.992 96.668 456.085C96.9388 456.174 97.1694 456.318 97.3598 456.517C97.5545 456.716 97.7026 456.974 97.8042 457.292C97.9057 457.605 97.9565 457.988 97.9565 458.44V462.941H96.7759V458.428C96.7759 458.068 96.723 457.78 96.6172 457.564C96.5114 457.344 96.3569 457.186 96.1538 457.088C95.9507 456.987 95.701 456.936 95.4048 456.936C95.1128 456.936 94.8462 456.997 94.605 457.12C94.368 457.243 94.1627 457.412 93.9892 457.628C93.82 457.844 93.6867 458.091 93.5893 458.371C93.4962 458.646 93.4497 458.938 93.4497 459.247Z" fill="#FFFEFE"/>
<path d="M205.901 453.699V462.941H204.695V453.699H205.901ZM208.872 453.699V454.702H201.731V453.699H208.872ZM214.158 461.354V456.073H215.339V462.941H214.215L214.158 461.354ZM214.38 459.907L214.869 459.894C214.869 460.351 214.82 460.774 214.723 461.164C214.63 461.549 214.477 461.883 214.266 462.167C214.054 462.45 213.777 462.672 213.434 462.833C213.092 462.99 212.675 463.068 212.184 463.068C211.85 463.068 211.543 463.019 211.263 462.922C210.988 462.825 210.751 462.674 210.552 462.471C210.354 462.268 210.199 462.004 210.089 461.678C209.983 461.352 209.93 460.96 209.93 460.503V456.073H211.105V460.516C211.105 460.825 211.139 461.081 211.206 461.284C211.278 461.483 211.373 461.642 211.492 461.76C211.615 461.875 211.75 461.955 211.898 462.001C212.051 462.048 212.207 462.071 212.368 462.071C212.867 462.071 213.263 461.976 213.555 461.786C213.847 461.591 214.056 461.331 214.183 461.005C214.315 460.675 214.38 460.309 214.38 459.907ZM220.479 463.068C220.001 463.068 219.567 462.987 219.177 462.827C218.792 462.662 218.46 462.431 218.181 462.135C217.906 461.839 217.694 461.487 217.546 461.081C217.398 460.675 217.324 460.23 217.324 459.748V459.481C217.324 458.923 217.406 458.426 217.572 457.99C217.737 457.55 217.961 457.177 218.244 456.873C218.528 456.568 218.85 456.337 219.209 456.181C219.569 456.024 219.941 455.946 220.326 455.946C220.817 455.946 221.24 456.03 221.596 456.2C221.956 456.369 222.25 456.606 222.478 456.911C222.707 457.211 222.876 457.567 222.986 457.977C223.096 458.383 223.151 458.828 223.151 459.31V459.837H218.022V458.878H221.977V458.79C221.96 458.485 221.896 458.189 221.786 457.901C221.681 457.613 221.511 457.376 221.279 457.19C221.046 457.004 220.728 456.911 220.326 456.911C220.06 456.911 219.814 456.968 219.59 457.082C219.366 457.192 219.173 457.357 219.012 457.577C218.852 457.797 218.727 458.066 218.638 458.383C218.549 458.701 218.505 459.067 218.505 459.481V459.748C218.505 460.074 218.549 460.381 218.638 460.668C218.731 460.952 218.864 461.202 219.038 461.417C219.216 461.633 219.429 461.803 219.679 461.925C219.933 462.048 220.221 462.109 220.542 462.109C220.957 462.109 221.308 462.025 221.596 461.855C221.884 461.686 222.135 461.46 222.351 461.176L223.062 461.741C222.914 461.965 222.726 462.179 222.497 462.382C222.269 462.585 221.987 462.75 221.653 462.877C221.323 463.004 220.932 463.068 220.479 463.068Z" fill="#FFFEFE"/>
<path d="M330.435 460.148L332.269 453.699H333.158L332.644 456.206L330.669 462.941H329.787L330.435 460.148ZM328.537 453.699L329.997 460.021L330.435 462.941H329.559L327.318 453.699H328.537ZM335.532 460.015L336.96 453.699H338.185L335.951 462.941H335.075L335.532 460.015ZM333.291 453.699L335.075 460.148L335.722 462.941H334.84L332.936 456.206L332.415 453.699H333.291ZM342.513 463.068C342.035 463.068 341.601 462.987 341.211 462.827C340.826 462.662 340.494 462.431 340.215 462.135C339.94 461.839 339.728 461.487 339.58 461.081C339.432 460.675 339.358 460.23 339.358 459.748V459.481C339.358 458.923 339.44 458.426 339.605 457.99C339.771 457.55 339.995 457.177 340.278 456.873C340.562 456.568 340.883 456.337 341.243 456.181C341.603 456.024 341.975 455.946 342.36 455.946C342.851 455.946 343.274 456.03 343.63 456.2C343.99 456.369 344.284 456.606 344.512 456.911C344.741 457.211 344.91 457.567 345.02 457.977C345.13 458.383 345.185 458.828 345.185 459.31V459.837H340.056V458.878H344.011V458.79C343.994 458.485 343.93 458.189 343.82 457.901C343.715 457.613 343.545 457.376 343.312 457.19C343.08 457.004 342.762 456.911 342.36 456.911C342.094 456.911 341.848 456.968 341.624 457.082C341.4 457.192 341.207 457.357 341.046 457.577C340.886 457.797 340.761 458.066 340.672 458.383C340.583 458.701 340.539 459.067 340.539 459.481V459.748C340.539 460.074 340.583 460.381 340.672 460.668C340.765 460.952 340.898 461.202 341.072 461.417C341.25 461.633 341.463 461.803 341.713 461.925C341.967 462.048 342.255 462.109 342.576 462.109C342.991 462.109 343.342 462.025 343.63 461.855C343.918 461.686 344.169 461.46 344.385 461.176L345.096 461.741C344.948 461.965 344.76 462.179 344.531 462.382C344.303 462.585 344.021 462.75 343.687 462.877C343.357 463.004 342.965 463.068 342.513 463.068ZM351.385 461.608V453.191H352.566V462.941H351.487L351.385 461.608ZM346.764 459.583V459.45C346.764 458.925 346.828 458.449 346.955 458.021C347.086 457.59 347.27 457.22 347.507 456.911C347.748 456.602 348.034 456.365 348.364 456.2C348.698 456.03 349.07 455.946 349.481 455.946C349.913 455.946 350.289 456.022 350.611 456.174C350.937 456.322 351.212 456.54 351.436 456.828C351.665 457.112 351.844 457.454 351.976 457.856C352.107 458.258 352.198 458.713 352.249 459.221V459.805C352.202 460.309 352.111 460.762 351.976 461.164C351.844 461.566 351.665 461.908 351.436 462.192C351.212 462.475 350.937 462.693 350.611 462.846C350.285 462.994 349.904 463.068 349.468 463.068C349.066 463.068 348.698 462.981 348.364 462.808C348.034 462.634 347.748 462.391 347.507 462.078C347.27 461.764 347.086 461.396 346.955 460.973C346.828 460.546 346.764 460.082 346.764 459.583ZM347.945 459.45V459.583C347.945 459.926 347.979 460.247 348.046 460.548C348.118 460.848 348.228 461.113 348.376 461.341C348.525 461.57 348.713 461.75 348.941 461.881C349.17 462.008 349.443 462.071 349.76 462.071C350.15 462.071 350.469 461.989 350.719 461.824C350.973 461.659 351.176 461.441 351.328 461.17C351.48 460.899 351.599 460.605 351.684 460.288V458.758C351.633 458.525 351.559 458.301 351.461 458.085C351.368 457.865 351.246 457.67 351.093 457.501C350.945 457.327 350.761 457.19 350.541 457.088C350.325 456.987 350.069 456.936 349.773 456.936C349.451 456.936 349.174 457.004 348.941 457.139C348.713 457.27 348.525 457.452 348.376 457.685C348.228 457.914 348.118 458.18 348.046 458.485C347.979 458.785 347.945 459.107 347.945 459.45Z" fill="#FFFEFE"/>
<path d="M460.936 453.699V462.941H459.73V453.699H460.936ZM463.906 453.699V454.702H456.765V453.699H463.906ZM466.774 453.191V462.941H465.6V453.191H466.774ZM466.495 459.247L466.006 459.228C466.01 458.758 466.08 458.324 466.216 457.926C466.351 457.524 466.541 457.175 466.787 456.879C467.032 456.583 467.324 456.354 467.663 456.193C468.006 456.028 468.384 455.946 468.799 455.946C469.138 455.946 469.442 455.992 469.713 456.085C469.984 456.174 470.215 456.318 470.405 456.517C470.6 456.716 470.748 456.974 470.849 457.292C470.951 457.605 471.002 457.988 471.002 458.44V462.941H469.821V458.428C469.821 458.068 469.768 457.78 469.662 457.564C469.557 457.344 469.402 457.186 469.199 457.088C468.996 456.987 468.746 456.936 468.45 456.936C468.158 456.936 467.891 456.997 467.65 457.12C467.413 457.243 467.208 457.412 467.034 457.628C466.865 457.844 466.732 458.091 466.635 458.371C466.541 458.646 466.495 458.938 466.495 459.247ZM477.462 461.354V456.073H478.643V462.941H477.519L477.462 461.354ZM477.684 459.907L478.173 459.894C478.173 460.351 478.124 460.774 478.027 461.164C477.934 461.549 477.782 461.883 477.57 462.167C477.358 462.45 477.081 462.672 476.739 462.833C476.396 462.99 475.979 463.068 475.488 463.068C475.154 463.068 474.847 463.019 474.568 462.922C474.293 462.825 474.056 462.674 473.857 462.471C473.658 462.268 473.503 462.004 473.393 461.678C473.288 461.352 473.235 460.96 473.235 460.503V456.073H474.409V460.516C474.409 460.825 474.443 461.081 474.51 461.284C474.582 461.483 474.678 461.642 474.796 461.76C474.919 461.875 475.054 461.955 475.202 462.001C475.355 462.048 475.511 462.071 475.672 462.071C476.171 462.071 476.567 461.976 476.859 461.786C477.151 461.591 477.361 461.331 477.488 461.005C477.619 460.675 477.684 460.309 477.684 459.907Z" fill="#FFFEFE"/>
<path d="M585.263 453.699V462.941H584.038V453.699H585.263ZM589.135 457.856V458.859H584.997V457.856H589.135ZM589.764 453.699V454.702H584.997V453.699H589.764ZM592.555 457.152V462.941H591.381V456.073H592.523L592.555 457.152ZM594.701 456.035L594.694 457.126C594.597 457.105 594.504 457.093 594.415 457.088C594.33 457.08 594.233 457.076 594.123 457.076C593.852 457.076 593.613 457.118 593.406 457.203C593.198 457.287 593.023 457.406 592.879 457.558C592.735 457.71 592.621 457.892 592.536 458.104C592.456 458.311 592.403 458.54 592.377 458.79L592.047 458.98C592.047 458.565 592.088 458.176 592.168 457.812C592.253 457.448 592.382 457.126 592.555 456.847C592.729 456.564 592.949 456.344 593.215 456.187C593.486 456.026 593.808 455.946 594.18 455.946C594.265 455.946 594.362 455.956 594.472 455.978C594.582 455.994 594.658 456.014 594.701 456.035ZM597.562 456.073V462.941H596.381V456.073H597.562ZM596.292 454.251C596.292 454.061 596.35 453.9 596.464 453.769C596.582 453.637 596.756 453.572 596.984 453.572C597.209 453.572 597.38 453.637 597.499 453.769C597.621 453.9 597.683 454.061 597.683 454.251C597.683 454.433 597.621 454.59 597.499 454.721C597.38 454.848 597.209 454.911 596.984 454.911C596.756 454.911 596.582 454.848 596.464 454.721C596.35 454.59 596.292 454.433 596.292 454.251Z" fill="#FFFEFE"/>
<path d="M707.481 460.605C707.481 460.389 707.447 460.199 707.38 460.034C707.316 459.864 707.202 459.712 707.037 459.577C706.876 459.441 706.652 459.312 706.364 459.189C706.08 459.067 705.721 458.942 705.285 458.815C704.828 458.68 704.415 458.529 704.047 458.364C703.679 458.195 703.364 458.002 703.101 457.787C702.839 457.571 702.638 457.323 702.498 457.044C702.359 456.765 702.289 456.445 702.289 456.085C702.289 455.726 702.363 455.394 702.511 455.089C702.659 454.784 702.871 454.52 703.146 454.295C703.425 454.067 703.757 453.889 704.142 453.762C704.527 453.635 704.957 453.572 705.431 453.572C706.125 453.572 706.713 453.705 707.196 453.972C707.682 454.234 708.052 454.579 708.306 455.006C708.56 455.43 708.687 455.882 708.687 456.365H707.469C707.469 456.018 707.394 455.711 707.246 455.444C707.098 455.174 706.874 454.962 706.573 454.81C706.273 454.653 705.892 454.575 705.431 454.575C704.995 454.575 704.635 454.64 704.352 454.771C704.068 454.903 703.857 455.08 703.717 455.305C703.582 455.529 703.514 455.785 703.514 456.073C703.514 456.267 703.554 456.445 703.635 456.606C703.719 456.763 703.848 456.909 704.022 457.044C704.199 457.179 704.424 457.304 704.695 457.418C704.97 457.533 705.298 457.643 705.678 457.749C706.203 457.897 706.656 458.062 707.037 458.244C707.418 458.426 707.731 458.631 707.976 458.859C708.226 459.084 708.41 459.34 708.529 459.627C708.651 459.911 708.713 460.233 708.713 460.592C708.713 460.969 708.636 461.31 708.484 461.614C708.332 461.919 708.114 462.179 707.83 462.395C707.547 462.611 707.206 462.778 706.808 462.896C706.415 463.011 705.975 463.068 705.488 463.068C705.061 463.068 704.64 463.009 704.225 462.89C703.814 462.772 703.44 462.594 703.101 462.357C702.767 462.12 702.498 461.828 702.295 461.481C702.096 461.13 701.997 460.723 701.997 460.262H703.216C703.216 460.58 703.277 460.853 703.4 461.081C703.522 461.305 703.69 461.492 703.901 461.64C704.117 461.788 704.36 461.898 704.631 461.97C704.906 462.037 705.192 462.071 705.488 462.071C705.915 462.071 706.277 462.012 706.573 461.894C706.87 461.775 707.094 461.606 707.246 461.386C707.403 461.166 707.481 460.905 707.481 460.605ZM714.646 461.767V458.231C714.646 457.96 714.591 457.725 714.481 457.526C714.375 457.323 714.215 457.167 713.999 457.057C713.783 456.947 713.516 456.892 713.199 456.892C712.903 456.892 712.642 456.942 712.418 457.044C712.198 457.146 712.025 457.279 711.898 457.444C711.775 457.609 711.714 457.787 711.714 457.977H710.539C710.539 457.732 710.603 457.488 710.73 457.247C710.857 457.006 711.039 456.788 711.276 456.593C711.517 456.394 711.805 456.238 712.139 456.124C712.477 456.005 712.854 455.946 713.269 455.946C713.768 455.946 714.208 456.03 714.589 456.2C714.974 456.369 715.275 456.625 715.49 456.968C715.711 457.306 715.821 457.732 715.821 458.244V461.443C715.821 461.671 715.84 461.915 715.878 462.173C715.92 462.431 715.981 462.653 716.062 462.839V462.941H714.837C714.777 462.806 714.731 462.626 714.697 462.401C714.663 462.173 714.646 461.961 714.646 461.767ZM714.849 458.777L714.862 459.602H713.675C713.341 459.602 713.042 459.63 712.78 459.685C712.518 459.735 712.298 459.814 712.12 459.919C711.942 460.025 711.807 460.159 711.714 460.319C711.621 460.476 711.574 460.66 711.574 460.872C711.574 461.087 711.623 461.284 711.72 461.462C711.817 461.64 711.963 461.781 712.158 461.887C712.357 461.989 712.6 462.04 712.888 462.04C713.248 462.04 713.565 461.963 713.84 461.811C714.115 461.659 714.333 461.472 714.494 461.252C714.659 461.032 714.748 460.819 714.76 460.611L715.262 461.176C715.232 461.354 715.152 461.551 715.021 461.767C714.89 461.982 714.714 462.19 714.494 462.389C714.278 462.583 714.02 462.746 713.719 462.877C713.423 463.004 713.089 463.068 712.717 463.068C712.251 463.068 711.843 462.977 711.491 462.795C711.144 462.613 710.874 462.37 710.679 462.065C710.489 461.756 710.393 461.411 710.393 461.03C710.393 460.662 710.465 460.338 710.609 460.059C710.753 459.776 710.96 459.541 711.231 459.354C711.502 459.164 711.828 459.02 712.209 458.923C712.59 458.826 713.015 458.777 713.485 458.777H714.849ZM721.043 456.073V456.974H717.33V456.073H721.043ZM718.587 454.403H719.761V461.24C719.761 461.472 719.797 461.648 719.869 461.767C719.941 461.885 720.034 461.963 720.148 462.001C720.262 462.04 720.385 462.059 720.516 462.059C720.614 462.059 720.715 462.05 720.821 462.033C720.931 462.012 721.014 461.995 721.069 461.982L721.075 462.941C720.982 462.971 720.859 462.998 720.707 463.023C720.559 463.053 720.379 463.068 720.167 463.068C719.879 463.068 719.615 463.011 719.374 462.896C719.133 462.782 718.94 462.592 718.796 462.325C718.656 462.054 718.587 461.69 718.587 461.233V454.403Z" fill="#FFFEFE"/>
<path d="M830.999 460.605C830.999 460.389 830.965 460.199 830.897 460.034C830.833 459.864 830.719 459.712 830.554 459.577C830.393 459.441 830.169 459.312 829.881 459.189C829.598 459.067 829.238 458.942 828.802 458.815C828.345 458.68 827.933 458.529 827.564 458.364C827.196 458.195 826.881 458.002 826.619 457.787C826.356 457.571 826.155 457.323 826.016 457.044C825.876 456.765 825.806 456.445 825.806 456.085C825.806 455.726 825.88 455.394 826.028 455.089C826.176 454.784 826.388 454.52 826.663 454.295C826.942 454.067 827.275 453.889 827.66 453.762C828.045 453.635 828.474 453.572 828.948 453.572C829.642 453.572 830.23 453.705 830.713 453.972C831.2 454.234 831.57 454.579 831.824 455.006C832.078 455.43 832.205 455.882 832.205 456.365H830.986C830.986 456.018 830.912 455.711 830.764 455.444C830.616 455.174 830.391 454.962 830.091 454.81C829.79 454.653 829.41 454.575 828.948 454.575C828.512 454.575 828.153 454.64 827.869 454.771C827.586 454.903 827.374 455.08 827.234 455.305C827.099 455.529 827.031 455.785 827.031 456.073C827.031 456.267 827.071 456.445 827.152 456.606C827.236 456.763 827.366 456.909 827.539 457.044C827.717 457.179 827.941 457.304 828.212 457.418C828.487 457.533 828.815 457.643 829.196 457.749C829.721 457.897 830.173 458.062 830.554 458.244C830.935 458.426 831.248 458.631 831.494 458.859C831.743 459.084 831.927 459.34 832.046 459.627C832.169 459.911 832.23 460.233 832.23 460.592C832.23 460.969 832.154 461.31 832.001 461.614C831.849 461.919 831.631 462.179 831.348 462.395C831.064 462.611 830.723 462.778 830.326 462.896C829.932 463.011 829.492 463.068 829.005 463.068C828.578 463.068 828.157 463.009 827.742 462.89C827.332 462.772 826.957 462.594 826.619 462.357C826.284 462.12 826.016 461.828 825.812 461.481C825.614 461.13 825.514 460.723 825.514 460.262H826.733C826.733 460.58 826.794 460.853 826.917 461.081C827.04 461.305 827.207 461.492 827.418 461.64C827.634 461.788 827.878 461.898 828.148 461.97C828.424 462.037 828.709 462.071 829.005 462.071C829.433 462.071 829.795 462.012 830.091 461.894C830.387 461.775 830.611 461.606 830.764 461.386C830.92 461.166 830.999 460.905 830.999 460.605ZM838.316 461.354V456.073H839.497V462.941H838.373L838.316 461.354ZM838.538 459.907L839.027 459.894C839.027 460.351 838.978 460.774 838.881 461.164C838.788 461.549 838.635 461.883 838.424 462.167C838.212 462.45 837.935 462.672 837.592 462.833C837.25 462.99 836.833 463.068 836.342 463.068C836.007 463.068 835.701 463.019 835.421 462.922C835.146 462.825 834.909 462.674 834.71 462.471C834.512 462.268 834.357 462.004 834.247 461.678C834.141 461.352 834.088 460.96 834.088 460.503V456.073H835.263V460.516C835.263 460.825 835.297 461.081 835.364 461.284C835.436 461.483 835.531 461.642 835.65 461.76C835.773 461.875 835.908 461.955 836.056 462.001C836.208 462.048 836.365 462.071 836.526 462.071C837.025 462.071 837.421 461.976 837.713 461.786C838.005 461.591 838.214 461.331 838.341 461.005C838.472 460.675 838.538 460.309 838.538 459.907ZM842.961 457.539V462.941H841.787V456.073H842.897L842.961 457.539ZM842.682 459.247L842.193 459.228C842.197 458.758 842.267 458.324 842.402 457.926C842.538 457.524 842.728 457.175 842.974 456.879C843.219 456.583 843.511 456.354 843.85 456.193C844.192 456.028 844.571 455.946 844.986 455.946C845.324 455.946 845.629 455.992 845.9 456.085C846.171 456.174 846.401 456.318 846.592 456.517C846.786 456.716 846.935 456.974 847.036 457.292C847.138 457.605 847.188 457.988 847.188 458.44V462.941H846.008V458.428C846.008 458.068 845.955 457.78 845.849 457.564C845.743 457.344 845.589 457.186 845.386 457.088C845.183 456.987 844.933 456.936 844.637 456.936C844.345 456.936 844.078 456.997 843.837 457.12C843.6 457.243 843.395 457.412 843.221 457.628C843.052 457.844 842.919 458.091 842.821 458.371C842.728 458.646 842.682 458.938 842.682 459.247Z" fill="#FFFEFE"/>
<path d="M30.163 107.758V108.418L26.3354 117H25.0976L28.9189 108.723H23.9169V107.758H30.163ZM33.4877 112.601L32.5483 112.36L33.0117 107.758H37.7534V108.843H34.0082L33.7289 111.357C33.8982 111.26 34.1119 111.169 34.3701 111.084C34.6324 110.999 34.9329 110.957 35.2714 110.957C35.6988 110.957 36.0818 111.031 36.4203 111.179C36.7589 111.323 37.0467 111.53 37.2836 111.801C37.5248 112.072 37.7089 112.398 37.8359 112.779C37.9628 113.16 38.0263 113.585 38.0263 114.055C38.0263 114.499 37.9649 114.907 37.8422 115.28C37.7237 115.652 37.5439 115.978 37.3027 116.257C37.0615 116.532 36.7568 116.746 36.3886 116.898C36.0247 117.051 35.5952 117.127 35.1 117.127C34.7276 117.127 34.3743 117.076 34.04 116.975C33.7099 116.869 33.4137 116.71 33.1513 116.499C32.8932 116.283 32.6816 116.016 32.5165 115.699C32.3557 115.377 32.2542 115 32.2119 114.569H33.329C33.3798 114.916 33.4814 115.208 33.6337 115.445C33.7861 115.682 33.985 115.862 34.2304 115.984C34.4801 116.103 34.77 116.162 35.1 116.162C35.3793 116.162 35.6269 116.113 35.8427 116.016C36.0585 115.919 36.2405 115.779 36.3886 115.597C36.5367 115.415 36.6489 115.195 36.725 114.937C36.8054 114.679 36.8456 114.389 36.8456 114.067C36.8456 113.775 36.8054 113.505 36.725 113.255C36.6446 113.005 36.524 112.787 36.3632 112.601C36.2066 112.415 36.0141 112.271 35.7856 112.169C35.5571 112.064 35.2947 112.011 34.9985 112.011C34.6049 112.011 34.3066 112.064 34.1035 112.169C33.9046 112.275 33.6993 112.419 33.4877 112.601Z" fill="#FFFEFE"/>
<path d="M25.6752 217.882L24.7358 217.641L25.1992 213.039H29.9409V214.124H26.1957L25.9164 216.638C26.0857 216.54 26.2994 216.449 26.5576 216.365C26.8199 216.28 27.1204 216.238 27.4589 216.238C27.8863 216.238 28.2693 216.312 28.6078 216.46C28.9464 216.604 29.2342 216.811 29.4711 217.082C29.7123 217.353 29.8964 217.679 30.0234 218.06C30.1503 218.44 30.2138 218.866 30.2138 219.335C30.2138 219.78 30.1524 220.188 30.0297 220.561C29.9112 220.933 29.7314 221.259 29.4902 221.538C29.249 221.813 28.9443 222.027 28.5761 222.179C28.2122 222.332 27.7827 222.408 27.2875 222.408C26.9151 222.408 26.5618 222.357 26.2275 222.255C25.8974 222.15 25.6012 221.991 25.3388 221.779C25.0807 221.564 24.8691 221.297 24.704 220.98C24.5432 220.658 24.4417 220.281 24.3994 219.85H25.5165C25.5673 220.197 25.6689 220.489 25.8212 220.726C25.9736 220.963 26.1725 221.142 26.4179 221.265C26.6676 221.384 26.9575 221.443 27.2875 221.443C27.5668 221.443 27.8144 221.394 28.0302 221.297C28.246 221.2 28.428 221.06 28.5761 220.878C28.7242 220.696 28.8364 220.476 28.9125 220.218C28.9929 219.96 29.0331 219.67 29.0331 219.348C29.0331 219.056 28.9929 218.785 28.9125 218.536C28.8321 218.286 28.7115 218.068 28.5507 217.882C28.3941 217.696 28.2016 217.552 27.9731 217.45C27.7446 217.344 27.4822 217.292 27.186 217.292C26.7924 217.292 26.4941 217.344 26.291 217.45C26.0921 217.556 25.8868 217.7 25.6752 217.882ZM37.8041 216.923V218.333C37.8041 219.09 37.7364 219.729 37.601 220.25C37.4656 220.77 37.2709 221.189 37.017 221.506C36.7631 221.824 36.4563 222.054 36.0966 222.198C35.7411 222.338 35.3391 222.408 34.8906 222.408C34.5351 222.408 34.2071 222.363 33.9067 222.274C33.6062 222.186 33.3354 222.044 33.0942 221.849C32.8572 221.65 32.6541 221.392 32.4848 221.075C32.3155 220.757 32.1865 220.372 32.0976 219.919C32.0087 219.467 31.9643 218.938 31.9643 218.333V216.923C31.9643 216.166 32.032 215.531 32.1674 215.019C32.3071 214.507 32.5038 214.097 32.7578 213.788C33.0117 213.474 33.3163 213.25 33.6718 213.115C34.0315 212.979 34.4335 212.912 34.8779 212.912C35.2376 212.912 35.5676 212.956 35.8681 213.045C36.1728 213.13 36.4436 213.267 36.6806 213.458C36.9176 213.644 37.1186 213.893 37.2836 214.207C37.4529 214.515 37.582 214.894 37.6708 215.343C37.7597 215.791 37.8041 216.318 37.8041 216.923ZM36.6235 218.523V216.727C36.6235 216.312 36.5981 215.948 36.5473 215.635C36.5008 215.317 36.4309 215.047 36.3378 214.822C36.2447 214.598 36.1262 214.416 35.9824 214.276C35.8427 214.137 35.6798 214.035 35.4936 213.972C35.3116 213.904 35.1064 213.87 34.8779 213.87C34.5986 213.87 34.351 213.923 34.1352 214.029C33.9194 214.13 33.7374 214.293 33.5893 214.518C33.4454 214.742 33.3354 215.036 33.2592 215.4C33.183 215.764 33.145 216.206 33.145 216.727V218.523C33.145 218.938 33.1682 219.304 33.2148 219.621C33.2656 219.939 33.3396 220.214 33.437 220.446C33.5343 220.675 33.6528 220.863 33.7924 221.011C33.9321 221.159 34.0929 221.269 34.2748 221.341C34.461 221.409 34.6663 221.443 34.8906 221.443C35.1783 221.443 35.4301 221.388 35.6459 221.278C35.8618 221.168 36.0416 220.996 36.1855 220.764C36.3336 220.527 36.4436 220.224 36.5156 219.856C36.5875 219.484 36.6235 219.039 36.6235 218.523Z" fill="#FFFEFE"/>
<path d="M30.2455 326.597V327.562H24.1962V326.717L27.2241 323.347C27.5965 322.932 27.8842 322.581 28.0873 322.293C28.2947 322.001 28.4386 321.741 28.519 321.512C28.6036 321.28 28.6459 321.043 28.6459 320.801C28.6459 320.497 28.5825 320.222 28.4555 319.976C28.3328 319.726 28.1508 319.528 27.9096 319.379C27.6684 319.231 27.3764 319.157 27.0336 319.157C26.6231 319.157 26.2804 319.238 26.0053 319.398C25.7345 319.555 25.5314 319.775 25.3959 320.059C25.2605 320.342 25.1928 320.668 25.1928 321.036H24.0185C24.0185 320.516 24.1328 320.04 24.3613 319.608C24.5898 319.176 24.9283 318.834 25.3769 318.58C25.8255 318.321 26.3777 318.192 27.0336 318.192C27.6176 318.192 28.117 318.296 28.5317 318.503C28.9464 318.707 29.2638 318.994 29.4838 319.367C29.7081 319.735 29.8203 320.167 29.8203 320.662C29.8203 320.933 29.7737 321.208 29.6806 321.487C29.5917 321.762 29.4669 322.037 29.3061 322.312C29.1495 322.587 28.9654 322.858 28.7538 323.125C28.5465 323.391 28.3243 323.654 28.0873 323.912L25.6118 326.597H30.2455ZM33.4877 323.163L32.5483 322.921L33.0117 318.319H37.7534V319.405H34.0082L33.7289 321.919C33.8982 321.821 34.1119 321.73 34.3701 321.646C34.6324 321.561 34.9329 321.519 35.2714 321.519C35.6988 321.519 36.0818 321.593 36.4203 321.741C36.7589 321.885 37.0467 322.092 37.2836 322.363C37.5248 322.634 37.7089 322.96 37.8359 323.34C37.9628 323.721 38.0263 324.147 38.0263 324.616C38.0263 325.061 37.9649 325.469 37.8422 325.841C37.7237 326.214 37.5439 326.54 37.3027 326.819C37.0615 327.094 36.7568 327.308 36.3886 327.46C36.0247 327.612 35.5952 327.689 35.1 327.689C34.7276 327.689 34.3743 327.638 34.04 327.536C33.7099 327.43 33.4137 327.272 33.1513 327.06C32.8932 326.844 32.6816 326.578 32.5165 326.26C32.3557 325.939 32.2542 325.562 32.2119 325.13H33.329C33.3798 325.477 33.4814 325.769 33.6337 326.006C33.7861 326.243 33.985 326.423 34.2304 326.546C34.4801 326.664 34.77 326.724 35.1 326.724C35.3793 326.724 35.6269 326.675 35.8427 326.578C36.0585 326.48 36.2405 326.341 36.3886 326.159C36.5367 325.977 36.6489 325.757 36.725 325.499C36.8054 325.24 36.8456 324.951 36.8456 324.629C36.8456 324.337 36.8054 324.066 36.725 323.816C36.6446 323.567 36.524 323.349 36.3632 323.163C36.2066 322.976 36.0141 322.833 35.7856 322.731C35.5571 322.625 35.2947 322.572 34.9985 322.572C34.6049 322.572 34.3066 322.625 34.1035 322.731C33.9046 322.837 33.6993 322.981 33.4877 323.163Z" fill="#FFFEFE"/>
<path d="M29.9916 427.485V428.894C29.9916 429.652 29.9239 430.291 29.7885 430.811C29.6531 431.332 29.4584 431.751 29.2045 432.068C28.9506 432.385 28.6438 432.616 28.2841 432.76C27.9286 432.899 27.5266 432.969 27.0781 432.969C26.7226 432.969 26.3946 432.925 26.0942 432.836C25.7937 432.747 25.5229 432.605 25.2817 432.411C25.0447 432.212 24.8416 431.954 24.6723 431.636C24.503 431.319 24.374 430.934 24.2851 430.481C24.1962 430.028 24.1518 429.499 24.1518 428.894V427.485C24.1518 426.727 24.2195 426.093 24.3549 425.581C24.4946 425.069 24.6913 424.658 24.9453 424.349C25.1992 424.036 25.5038 423.812 25.8593 423.676C26.219 423.541 26.621 423.473 27.0654 423.473C27.4251 423.473 27.7551 423.518 28.0556 423.607C28.3603 423.691 28.6311 423.829 28.8681 424.019C29.1051 424.205 29.3061 424.455 29.4711 424.768C29.6404 425.077 29.7695 425.456 29.8583 425.904C29.9472 426.353 29.9916 426.88 29.9916 427.485ZM28.811 429.085V427.288C28.811 426.873 28.7856 426.51 28.7348 426.196C28.6883 425.879 28.6184 425.608 28.5253 425.384C28.4322 425.16 28.3137 424.978 28.1699 424.838C28.0302 424.698 27.8673 424.597 27.6811 424.533C27.4991 424.466 27.2939 424.432 27.0654 424.432C26.7861 424.432 26.5385 424.485 26.3227 424.59C26.1069 424.692 25.9249 424.855 25.7768 425.079C25.6329 425.303 25.5229 425.598 25.4467 425.961C25.3705 426.325 25.3325 426.768 25.3325 427.288V429.085C25.3325 429.499 25.3557 429.865 25.4023 430.183C25.4531 430.5 25.5271 430.775 25.6245 431.008C25.7218 431.236 25.8403 431.425 25.9799 431.573C26.1196 431.721 26.2804 431.831 26.4623 431.903C26.6485 431.971 26.8538 432.004 27.0781 432.004C27.3658 432.004 27.6176 431.949 27.8334 431.839C28.0493 431.729 28.2291 431.558 28.373 431.325C28.5211 431.088 28.6311 430.786 28.7031 430.418C28.775 430.045 28.811 429.601 28.811 429.085Z" fill="#FFFEFE"/>
<g filter="url(#filter1_d_1030_803)">
<rect x="492.208" y="221.5" width="35" height="25" rx="12.5" fill="#023E8A"/>
<path d="M505.768 234.455L505.118 234.288L505.439 231.102H508.721V231.853H506.128L505.935 233.593C506.052 233.526 506.2 233.463 506.379 233.404C506.561 233.346 506.769 233.316 507.003 233.316C507.299 233.316 507.564 233.368 507.798 233.47C508.033 233.57 508.232 233.713 508.396 233.901C508.563 234.088 508.69 234.314 508.778 234.578C508.866 234.841 508.91 235.136 508.91 235.461C508.91 235.769 508.868 236.051 508.783 236.309C508.701 236.567 508.576 236.792 508.409 236.986C508.242 237.176 508.031 237.324 507.776 237.43C507.524 237.535 507.227 237.588 506.884 237.588C506.627 237.588 506.382 237.553 506.15 237.482C505.922 237.409 505.717 237.299 505.535 237.153C505.357 237.003 505.21 236.819 505.096 236.599C504.984 236.376 504.914 236.116 504.885 235.817H505.658C505.693 236.057 505.764 236.259 505.869 236.423C505.975 236.587 506.112 236.712 506.282 236.797C506.455 236.879 506.656 236.92 506.884 236.92C507.078 236.92 507.249 236.886 507.398 236.819C507.548 236.751 507.674 236.655 507.776 236.529C507.879 236.403 507.957 236.25 508.009 236.072C508.065 235.893 508.093 235.692 508.093 235.47C508.093 235.268 508.065 235.08 508.009 234.907C507.954 234.734 507.87 234.583 507.759 234.455C507.65 234.326 507.517 234.226 507.359 234.156C507.201 234.083 507.019 234.046 506.814 234.046C506.542 234.046 506.335 234.083 506.194 234.156C506.057 234.229 505.915 234.329 505.768 234.455ZM514.627 235.347V236.015H510.003V235.536L512.869 231.102H513.532L512.82 232.385L510.926 235.347H514.627ZM513.734 231.102V237.5H512.921V231.102H513.734Z" fill="white"/>
</g>
</g>
<line x1="85.5" y1="110" x2="85.5" y2="445" stroke="white" stroke-opacity="0.18"/>
<line x1="463.5" y1="110" x2="463.5" y2="445" stroke="white" stroke-opacity="0.18"/>
<line x1="837.5" y1="110" x2="837.5" y2="445" stroke="white" stroke-opacity="0.18"/>
<line x1="339.5" y1="110" x2="339.5" y2="445" stroke="white" stroke-opacity="0.18"/>
<line x1="712.5" y1="110" x2="712.5" y2="445" stroke="white" stroke-opacity="0.18"/>
<line x1="211.5" y1="110" x2="211.5" y2="445" stroke="white" stroke-opacity="0.18"/>
<line x1="589.5" y1="110" x2="589.5" y2="445" stroke="white" stroke-opacity="0.18"/>
<defs>
<filter id="filter0_d_1030_803" x="0" y="0" width="880" height="508" filterUnits="userSpaceOnUse" color-interpolation-filters="sRGB">
<feFlood flood-opacity="0" result="BackgroundImageFix"/>
<feColorMatrix in="SourceAlpha" type="matrix" values="0 0 0 0 0 0 0 0 0 0 0 0 0 0 0 0 0 0 127 0" result="hardAlpha"/>
<feOffset dy="4"/>
<feGaussianBlur stdDeviation="2"/>
<feComposite in2="hardAlpha" operator="out"/>
<feColorMatrix type="matrix" values="0 0 0 0 0 0 0 0 0 0 0 0 0 0 0 0 0 0 0.25 0"/>
<feBlend mode="normal" in2="BackgroundImageFix" result="effect1_dropShadow_1030_803"/>
<feBlend mode="normal" in="SourceGraphic" in2="effect1_dropShadow_1030_803" result="shape"/>
</filter>
<filter id="filter1_d_1030_803" x="470.208" y="201.5" width="79" height="69" filterUnits="userSpaceOnUse" color-interpolation-filters="sRGB">
<feFlood flood-opacity="0" result="BackgroundImageFix"/>
<feColorMatrix in="SourceAlpha" type="matrix" values="0 0 0 0 0 0 0 0 0 0 0 0 0 0 0 0 0 0 127 0" result="hardAlpha"/>
<feOffset dy="2"/>
<feGaussianBlur stdDeviation="11"/>
<feComposite in2="hardAlpha" operator="out"/>
<feColorMatrix type="matrix" values="0 0 0 0 0 0 0 0 0 0 0 0 0 0 0 0 0 0 0.17 0"/>
<feBlend mode="normal" in2="BackgroundImageFix" result="effect1_dropShadow_1030_803"/>
<feBlend mode="normal" in="SourceGraphic" in2="effect1_dropShadow_1030_803" result="shape"/>
</filter>
</defs>
</svg>
