<svg width="379" height="331" viewBox="0 0 379 331" fill="none" xmlns="http://www.w3.org/2000/svg">
<g clip-path="url(#clip0_833_1166)">
<rect width="379" height="331" rx="12" fill="#1D1E22"/>
<path d="M178.733 193.426V192.207L181.581 189.571C181.823 189.336 182.026 189.125 182.19 188.938C182.357 188.75 182.483 188.567 182.569 188.387C182.655 188.205 182.698 188.008 182.698 187.797C182.698 187.563 182.644 187.361 182.538 187.192C182.431 187.02 182.285 186.888 182.1 186.797C181.915 186.703 181.706 186.656 181.471 186.656C181.226 186.656 181.013 186.706 180.831 186.805C180.648 186.904 180.508 187.046 180.409 187.231C180.31 187.416 180.26 187.636 180.26 187.891H178.655C178.655 187.367 178.773 186.913 179.01 186.528C179.247 186.142 179.579 185.844 180.006 185.633C180.433 185.422 180.926 185.317 181.483 185.317C182.056 185.317 182.555 185.418 182.979 185.621C183.406 185.822 183.738 186.101 183.975 186.457C184.212 186.814 184.331 187.223 184.331 187.684C184.331 187.986 184.271 188.284 184.151 188.578C184.034 188.873 183.824 189.199 183.522 189.559C183.22 189.916 182.794 190.344 182.245 190.844L181.077 191.989V192.043H184.436V193.426H178.733ZM188.798 193.602C188.126 193.599 187.548 193.434 187.064 193.106C186.582 192.778 186.211 192.302 185.951 191.68C185.693 191.058 185.565 190.309 185.568 189.434C185.568 188.561 185.697 187.818 185.955 187.203C186.215 186.589 186.586 186.121 187.068 185.801C187.552 185.478 188.129 185.317 188.798 185.317C189.468 185.317 190.043 185.478 190.525 185.801C191.009 186.124 191.382 186.593 191.642 187.207C191.903 187.819 192.031 188.561 192.029 189.434C192.029 190.311 191.899 191.061 191.638 191.684C191.38 192.306 191.011 192.781 190.529 193.11C190.047 193.438 189.47 193.602 188.798 193.602ZM188.798 192.199C189.257 192.199 189.623 191.969 189.896 191.508C190.169 191.047 190.305 190.356 190.302 189.434C190.302 188.827 190.24 188.322 190.115 187.918C189.992 187.515 189.818 187.211 189.591 187.008C189.367 186.805 189.103 186.703 188.798 186.703C188.343 186.703 187.978 186.931 187.705 187.387C187.431 187.843 187.293 188.525 187.291 189.434C187.291 190.048 187.352 190.561 187.474 190.973C187.599 191.382 187.775 191.689 188.001 191.895C188.228 192.098 188.494 192.199 188.798 192.199Z" fill="#F1F1F1"/>
<path opacity="0.5" d="M210.961 220.98L184.477 173.963L157.993 220.98H210.961Z" stroke="#F1F1F1" stroke-width="2" stroke-linejoin="round"/>
<path d="M178.612 164.75V163.418L181.952 158.156H183.1V160H182.42L180.315 163.332V163.395H185.061V164.75H178.612ZM182.452 166.156V164.344L182.483 163.754V158.156H184.069V166.156H182.452ZM189.325 166.332C188.653 166.329 188.075 166.164 187.59 165.836C187.109 165.508 186.737 165.033 186.477 164.41C186.219 163.788 186.092 163.039 186.094 162.164C186.094 161.292 186.223 160.548 186.481 159.934C186.741 159.319 187.112 158.852 187.594 158.531C188.079 158.208 188.655 158.047 189.325 158.047C189.994 158.047 190.569 158.208 191.051 158.531C191.536 158.854 191.908 159.323 192.168 159.937C192.429 160.549 192.558 161.292 192.555 162.164C192.555 163.042 192.425 163.792 192.165 164.414C191.907 165.036 191.537 165.512 191.055 165.84C190.573 166.168 189.997 166.332 189.325 166.332ZM189.325 164.93C189.783 164.93 190.149 164.699 190.422 164.238C190.696 163.777 190.831 163.086 190.829 162.164C190.829 161.557 190.766 161.052 190.641 160.648C190.519 160.245 190.344 159.941 190.118 159.738C189.894 159.535 189.629 159.434 189.325 159.434C188.869 159.434 188.504 159.661 188.231 160.117C187.958 160.573 187.819 161.255 187.817 162.164C187.817 162.779 187.878 163.292 188 163.703C188.125 164.112 188.301 164.419 188.528 164.625C188.754 164.828 189.02 164.93 189.325 164.93Z" fill="#F1F1F1"/>
<path opacity="0.5" d="M237.446 236.966L184.934 142.932L132.422 236.966H237.446Z" stroke="#F1F1F1" stroke-width="2" stroke-linejoin="round"/>
<path d="M181.803 134.294C181.392 134.291 180.995 134.222 180.612 134.087C180.232 133.951 179.89 133.731 179.588 133.427C179.286 133.122 179.047 132.718 178.87 132.216C178.695 131.713 178.608 131.096 178.608 130.364C178.611 129.692 178.687 129.092 178.838 128.563C178.992 128.032 179.211 127.582 179.495 127.212C179.781 126.842 180.124 126.561 180.522 126.368C180.92 126.173 181.367 126.075 181.862 126.075C182.396 126.075 182.867 126.179 183.276 126.388C183.685 126.593 184.013 126.873 184.26 127.228C184.51 127.582 184.661 127.979 184.713 128.419H183.045C182.98 128.14 182.844 127.922 182.635 127.763C182.427 127.604 182.169 127.524 181.862 127.524C181.341 127.524 180.945 127.751 180.674 128.204C180.406 128.657 180.269 129.273 180.264 130.052H180.319C180.439 129.815 180.6 129.613 180.803 129.446C181.009 129.277 181.242 129.148 181.502 129.06C181.765 128.968 182.043 128.923 182.334 128.923C182.808 128.923 183.23 129.035 183.6 129.259C183.97 129.48 184.262 129.785 184.475 130.173C184.689 130.561 184.795 131.005 184.795 131.505C184.795 132.047 184.669 132.528 184.417 132.95C184.167 133.372 183.816 133.703 183.366 133.942C182.918 134.179 182.397 134.297 181.803 134.294ZM181.795 132.966C182.056 132.966 182.289 132.903 182.495 132.778C182.7 132.653 182.862 132.484 182.979 132.271C183.096 132.057 183.155 131.817 183.155 131.552C183.155 131.286 183.096 131.048 182.979 130.837C182.864 130.626 182.706 130.458 182.502 130.333C182.299 130.208 182.068 130.146 181.807 130.146C181.612 130.146 181.431 130.182 181.264 130.255C181.1 130.328 180.956 130.429 180.831 130.56C180.708 130.69 180.612 130.841 180.542 131.013C180.471 131.182 180.436 131.363 180.436 131.556C180.436 131.813 180.495 132.049 180.612 132.263C180.732 132.476 180.893 132.647 181.096 132.774C181.302 132.902 181.535 132.966 181.795 132.966ZM189.131 134.36C188.459 134.358 187.881 134.192 187.397 133.864C186.915 133.536 186.544 133.061 186.284 132.438C186.026 131.816 185.898 131.067 185.901 130.192C185.901 129.32 186.03 128.576 186.288 127.962C186.548 127.347 186.919 126.88 187.401 126.56C187.885 126.237 188.462 126.075 189.131 126.075C189.801 126.075 190.376 126.237 190.858 126.56C191.342 126.882 191.715 127.351 191.975 127.966C192.236 128.578 192.364 129.32 192.362 130.192C192.362 131.07 192.232 131.82 191.971 132.442C191.713 133.065 191.344 133.54 190.862 133.868C190.38 134.196 189.803 134.36 189.131 134.36ZM189.131 132.958C189.59 132.958 189.956 132.728 190.229 132.267C190.502 131.806 190.638 131.114 190.635 130.192C190.635 129.586 190.573 129.08 190.448 128.677C190.325 128.273 190.151 127.97 189.924 127.767C189.7 127.563 189.436 127.462 189.131 127.462C188.676 127.462 188.311 127.69 188.038 128.146C187.764 128.601 187.626 129.284 187.624 130.192C187.624 130.807 187.685 131.32 187.807 131.731C187.932 132.14 188.108 132.448 188.334 132.653C188.561 132.856 188.827 132.958 189.131 132.958Z" fill="#F1F1F1"/>
<path opacity="0.5" d="M263.93 252.011L184.934 111.9L105.938 252.011H263.93Z" stroke="#F1F1F1" stroke-width="2" stroke-linejoin="round"/>
<path d="M181.717 103.263C181.116 103.263 180.581 103.165 180.112 102.97C179.646 102.772 179.28 102.502 179.014 102.161C178.749 101.82 178.616 101.433 178.616 101.001C178.616 100.668 178.691 100.362 178.842 100.083C178.996 99.8018 179.204 99.5687 179.467 99.3838C179.73 99.1963 180.025 99.0765 180.35 99.0244V98.9697C179.923 98.8838 179.577 98.6768 179.311 98.3486C179.045 98.0179 178.913 97.6338 178.913 97.1963C178.913 96.7822 179.034 96.4137 179.276 96.0908C179.518 95.7653 179.85 95.5101 180.272 95.3252C180.696 95.1377 181.178 95.0439 181.717 95.0439C182.256 95.0439 182.737 95.1377 183.159 95.3252C183.583 95.5127 183.917 95.7692 184.159 96.0947C184.401 96.4176 184.523 96.7848 184.526 97.1963C184.523 97.6364 184.388 98.0205 184.12 98.3486C183.851 98.6768 183.508 98.8838 183.088 98.9697V99.0244C183.409 99.0765 183.699 99.1963 183.959 99.3838C184.222 99.5687 184.431 99.8018 184.584 100.083C184.741 100.362 184.82 100.668 184.823 101.001C184.82 101.433 184.686 101.82 184.42 102.161C184.155 102.502 183.788 102.772 183.319 102.97C182.853 103.165 182.319 103.263 181.717 103.263ZM181.717 102.021C181.986 102.021 182.22 101.972 182.42 101.876C182.621 101.777 182.777 101.642 182.889 101.47C183.004 101.295 183.061 101.095 183.061 100.868C183.061 100.636 183.002 100.432 182.885 100.255C182.768 100.075 182.609 99.9346 182.409 99.833C182.208 99.7288 181.978 99.6768 181.717 99.6768C181.459 99.6768 181.229 99.7288 181.026 99.833C180.823 99.9346 180.663 100.075 180.545 100.255C180.431 100.432 180.374 100.636 180.374 100.868C180.374 101.095 180.43 101.295 180.542 101.47C180.653 101.642 180.811 101.777 181.014 101.876C181.217 101.972 181.452 102.021 181.717 102.021ZM181.717 98.4463C181.941 98.4463 182.14 98.4007 182.315 98.3096C182.489 98.2184 182.626 98.0921 182.725 97.9307C182.824 97.7692 182.874 97.583 182.874 97.3721C182.874 97.1637 182.824 96.9814 182.725 96.8252C182.626 96.6663 182.491 96.5426 182.319 96.4541C182.147 96.363 181.946 96.3174 181.717 96.3174C181.491 96.3174 181.29 96.363 181.116 96.4541C180.941 96.5426 180.805 96.6663 180.706 96.8252C180.609 96.9814 180.561 97.1637 180.561 97.3721C180.561 97.583 180.611 97.7692 180.709 97.9307C180.808 98.0921 180.945 98.2184 181.12 98.3096C181.294 98.4007 181.493 98.4463 181.717 98.4463ZM189.142 103.329C188.47 103.326 187.892 103.161 187.408 102.833C186.926 102.505 186.555 102.03 186.294 101.407C186.037 100.785 185.909 100.036 185.912 99.1611C185.912 98.2887 186.041 97.5452 186.298 96.9307C186.559 96.3161 186.93 95.8486 187.412 95.5283C187.896 95.2054 188.473 95.0439 189.142 95.0439C189.811 95.0439 190.387 95.2054 190.869 95.5283C191.353 95.8512 191.725 96.32 191.986 96.9346C192.246 97.5465 192.375 98.2887 192.373 99.1611C192.373 100.039 192.242 100.789 191.982 101.411C191.724 102.034 191.354 102.509 190.873 102.837C190.391 103.165 189.814 103.329 189.142 103.329ZM189.142 101.927C189.6 101.927 189.966 101.696 190.24 101.235C190.513 100.774 190.649 100.083 190.646 99.1611C190.646 98.5544 190.583 98.0492 190.458 97.6455C190.336 97.2419 190.162 96.9385 189.935 96.7354C189.711 96.5322 189.447 96.4307 189.142 96.4307C188.686 96.4307 188.322 96.6585 188.048 97.1143C187.775 97.57 187.637 98.2523 187.634 99.1611C187.634 99.7757 187.695 100.289 187.818 100.7C187.943 101.109 188.119 101.416 188.345 101.622C188.572 101.825 188.837 101.927 189.142 101.927Z" fill="#F1F1F1"/>
<path opacity="0.5" d="M289.501 267.997L184.477 79.929L79.4531 267.997H289.501Z" stroke="#F1F1F1" stroke-width="2" stroke-linejoin="round"/>
<path d="M179.474 65.0625V73.0625H177.782V66.668H177.735L175.903 67.8164V66.3164L177.884 65.0625H179.474ZM184.512 73.2383C183.84 73.2357 183.262 73.0703 182.777 72.7422C182.296 72.4141 181.924 71.9388 181.664 71.3164C181.406 70.694 181.279 69.9453 181.281 69.0703C181.281 68.1979 181.41 67.4544 181.668 66.8398C181.928 66.2253 182.299 65.7578 182.781 65.4375C183.266 65.1146 183.842 64.9531 184.512 64.9531C185.181 64.9531 185.757 65.1146 186.238 65.4375C186.723 65.7604 187.095 66.2292 187.355 66.8437C187.616 67.4557 187.745 68.1979 187.742 69.0703C187.742 69.9479 187.612 70.6979 187.352 71.3203C187.094 71.9427 186.724 72.418 186.242 72.7461C185.76 73.0742 185.184 73.2383 184.512 73.2383ZM184.512 71.8359C184.97 71.8359 185.336 71.6055 185.609 71.1445C185.883 70.6836 186.018 69.9922 186.016 69.0703C186.016 68.4635 185.953 67.9583 185.828 67.5547C185.706 67.151 185.531 66.8477 185.305 66.6445C185.081 66.4414 184.816 66.3398 184.512 66.3398C184.056 66.3398 183.691 66.5677 183.418 67.0234C183.145 67.4792 183.007 68.1615 183.004 69.0703C183.004 69.6849 183.065 70.1979 183.188 70.6094C183.313 71.0182 183.488 71.3255 183.715 71.5312C183.941 71.7344 184.207 71.8359 184.512 71.8359ZM192.085 73.2383C191.413 73.2357 190.835 73.0703 190.351 72.7422C189.869 72.4141 189.498 71.9388 189.237 71.3164C188.979 70.694 188.852 69.9453 188.854 69.0703C188.854 68.1979 188.983 67.4544 189.241 66.8398C189.502 66.2253 189.873 65.7578 190.354 65.4375C190.839 65.1146 191.416 64.9531 192.085 64.9531C192.754 64.9531 193.33 65.1146 193.812 65.4375C194.296 65.7604 194.668 66.2292 194.929 66.8437C195.189 67.4557 195.318 68.1979 195.315 69.0703C195.315 69.9479 195.185 70.6979 194.925 71.3203C194.667 71.9427 194.297 72.418 193.815 72.7461C193.334 73.0742 192.757 73.2383 192.085 73.2383ZM192.085 71.8359C192.543 71.8359 192.909 71.6055 193.183 71.1445C193.456 70.6836 193.591 69.9922 193.589 69.0703C193.589 68.4635 193.526 67.9583 193.401 67.5547C193.279 67.151 193.104 66.8477 192.878 66.6445C192.654 66.4414 192.39 66.3398 192.085 66.3398C191.629 66.3398 191.265 66.5677 190.991 67.0234C190.718 67.4792 190.58 68.1615 190.577 69.0703C190.577 69.6849 190.638 70.1979 190.761 70.6094C190.886 71.0182 191.062 71.3255 191.288 71.5312C191.515 71.7344 191.78 71.8359 192.085 71.8359Z" fill="#F1F1F1"/>
<path d="M176.668 36L174.247 27.2727H175.632L177.332 34.0312H177.413L179.182 27.2727H180.554L182.322 34.0355H182.403L184.099 27.2727H185.489L183.064 36H181.739L179.902 29.4631H179.834L177.997 36H176.668ZM186.587 36V29.4545H187.861V36H186.587ZM187.23 28.4446C187.009 28.4446 186.819 28.3707 186.659 28.223C186.503 28.0724 186.425 27.8935 186.425 27.6861C186.425 27.4759 186.503 27.2969 186.659 27.1491C186.819 26.9986 187.009 26.9233 187.23 26.9233C187.452 26.9233 187.641 26.9986 187.797 27.1491C187.956 27.2969 188.036 27.4759 188.036 27.6861C188.036 27.8935 187.956 28.0724 187.797 28.223C187.641 28.3707 187.452 28.4446 187.23 28.4446ZM190.849 32.1136V36H189.575V29.4545H190.798V30.5199H190.879C191.03 30.1733 191.266 29.8949 191.587 29.6847C191.911 29.4744 192.318 29.3693 192.81 29.3693C193.256 29.3693 193.646 29.4631 193.982 29.6506C194.317 29.8352 194.577 30.1108 194.761 30.4773C194.946 30.8437 195.038 31.2969 195.038 31.8366V36H193.764V31.9901C193.764 31.5156 193.641 31.1449 193.393 30.8778C193.146 30.608 192.807 30.473 192.375 30.473C192.08 30.473 191.817 30.5369 191.587 30.6648C191.359 30.7926 191.179 30.9801 191.045 31.2273C190.915 31.4716 190.849 31.767 190.849 32.1136ZM201.652 31.0526L200.497 31.2571C200.449 31.1094 200.372 30.9687 200.267 30.8352C200.165 30.7017 200.026 30.5923 199.849 30.5071C199.673 30.4219 199.453 30.3793 199.189 30.3793C198.828 30.3793 198.527 30.4602 198.286 30.6222C198.044 30.7812 197.923 30.9872 197.923 31.2401C197.923 31.4588 198.004 31.6349 198.166 31.7685C198.328 31.902 198.589 32.0114 198.95 32.0966L199.99 32.3352C200.592 32.4744 201.041 32.6889 201.337 32.9787C201.632 33.2685 201.78 33.6449 201.78 34.108C201.78 34.5 201.666 34.8494 201.439 35.1562C201.214 35.4602 200.901 35.6989 200.497 35.8722C200.097 36.0455 199.632 36.1321 199.104 36.1321C198.371 36.1321 197.773 35.9759 197.31 35.6634C196.847 35.348 196.563 34.9006 196.457 34.321L197.689 34.1335C197.766 34.4545 197.923 34.6974 198.162 34.8622C198.401 35.0241 198.712 35.1051 199.095 35.1051C199.513 35.1051 199.847 35.0185 200.097 34.8452C200.347 34.669 200.472 34.4545 200.472 34.2017C200.472 33.9972 200.395 33.8253 200.241 33.6861C200.091 33.5469 199.859 33.4418 199.547 33.3707L198.439 33.1278C197.828 32.9886 197.376 32.767 197.084 32.4631C196.794 32.1591 196.649 31.7741 196.649 31.3082C196.649 30.9219 196.757 30.5838 196.973 30.294C197.189 30.0043 197.487 29.7784 197.868 29.6165C198.249 29.4517 198.685 29.3693 199.176 29.3693C199.884 29.3693 200.44 29.5227 200.847 29.8295C201.253 30.1335 201.521 30.5412 201.652 31.0526Z" fill="white"/>
<path d="M322.784 300H319.959V291.273H322.874C323.729 291.273 324.463 291.447 325.077 291.797C325.69 292.143 326.161 292.642 326.487 293.293C326.817 293.94 326.982 294.717 326.982 295.624C326.982 296.533 326.815 297.314 326.483 297.967C326.153 298.621 325.676 299.124 325.051 299.476C324.426 299.825 323.67 300 322.784 300ZM321.276 298.849H322.712C323.376 298.849 323.929 298.724 324.369 298.474C324.81 298.222 325.139 297.857 325.358 297.379C325.577 296.899 325.686 296.314 325.686 295.624C325.686 294.939 325.577 294.358 325.358 293.881C325.142 293.403 324.82 293.041 324.391 292.794C323.962 292.547 323.429 292.423 322.793 292.423H321.276V298.849ZM328.517 300V293.455H329.748V294.494H329.816C329.936 294.142 330.146 293.865 330.447 293.663C330.751 293.459 331.095 293.357 331.478 293.357C331.558 293.357 331.652 293.359 331.76 293.365C331.87 293.371 331.957 293.378 332.02 293.386V294.605C331.968 294.591 331.877 294.575 331.747 294.558C331.616 294.538 331.485 294.528 331.355 294.528C331.054 294.528 330.785 294.592 330.549 294.72C330.316 294.845 330.132 295.02 329.995 295.244C329.859 295.466 329.791 295.719 329.791 296.003V300H328.517ZM334.968 300.145C334.554 300.145 334.179 300.068 333.843 299.915C333.508 299.759 333.243 299.533 333.047 299.237C332.853 298.942 332.757 298.58 332.757 298.151C332.757 297.781 332.828 297.477 332.97 297.239C333.112 297 333.304 296.811 333.545 296.672C333.787 296.533 334.056 296.428 334.355 296.357C334.653 296.286 334.957 296.232 335.267 296.195C335.659 296.149 335.977 296.112 336.221 296.084C336.466 296.053 336.643 296.003 336.754 295.935C336.865 295.866 336.92 295.756 336.92 295.602V295.572C336.92 295.2 336.815 294.912 336.605 294.707C336.397 294.503 336.088 294.401 335.676 294.401C335.247 294.401 334.909 294.496 334.662 294.686C334.417 294.874 334.248 295.082 334.154 295.312L332.957 295.04C333.099 294.642 333.306 294.321 333.579 294.077C333.855 293.83 334.172 293.651 334.529 293.54C334.887 293.426 335.264 293.369 335.659 293.369C335.92 293.369 336.197 293.401 336.49 293.463C336.785 293.523 337.061 293.634 337.316 293.795C337.575 293.957 337.787 294.189 337.951 294.49C338.116 294.788 338.199 295.176 338.199 295.653V300H336.954V299.105H336.903C336.821 299.27 336.697 299.432 336.532 299.591C336.368 299.75 336.156 299.882 335.897 299.987C335.639 300.092 335.329 300.145 334.968 300.145ZM335.245 299.122C335.598 299.122 335.899 299.053 336.149 298.913C336.402 298.774 336.593 298.592 336.724 298.368C336.858 298.141 336.924 297.898 336.924 297.639V296.795C336.879 296.841 336.791 296.884 336.66 296.923C336.532 296.96 336.386 296.993 336.221 297.021C336.056 297.047 335.896 297.071 335.74 297.094C335.583 297.114 335.453 297.131 335.348 297.145C335.1 297.176 334.875 297.229 334.67 297.303C334.468 297.376 334.306 297.483 334.184 297.622C334.065 297.759 334.005 297.94 334.005 298.168C334.005 298.483 334.122 298.722 334.355 298.884C334.588 299.043 334.885 299.122 335.245 299.122ZM341.315 300L339.388 293.455H340.705L341.988 298.261H342.052L343.339 293.455H344.656L345.934 298.24H345.998L347.272 293.455H348.589L346.667 300H345.367L344.038 295.274H343.94L342.61 300H341.315ZM354.703 295.053L353.548 295.257C353.5 295.109 353.423 294.969 353.318 294.835C353.216 294.702 353.076 294.592 352.9 294.507C352.724 294.422 352.504 294.379 352.24 294.379C351.879 294.379 351.578 294.46 351.336 294.622C351.095 294.781 350.974 294.987 350.974 295.24C350.974 295.459 351.055 295.635 351.217 295.768C351.379 295.902 351.64 296.011 352.001 296.097L353.041 296.335C353.643 296.474 354.092 296.689 354.387 296.979C354.683 297.268 354.831 297.645 354.831 298.108C354.831 298.5 354.717 298.849 354.49 299.156C354.265 299.46 353.951 299.699 353.548 299.872C353.147 300.045 352.683 300.132 352.154 300.132C351.422 300.132 350.824 299.976 350.36 299.663C349.897 299.348 349.613 298.901 349.508 298.321L350.74 298.134C350.816 298.455 350.974 298.697 351.213 298.862C351.451 299.024 351.762 299.105 352.146 299.105C352.564 299.105 352.897 299.018 353.147 298.845C353.397 298.669 353.522 298.455 353.522 298.202C353.522 297.997 353.446 297.825 353.292 297.686C353.142 297.547 352.91 297.442 352.598 297.371L351.49 297.128C350.879 296.989 350.427 296.767 350.135 296.463C349.845 296.159 349.7 295.774 349.7 295.308C349.7 294.922 349.808 294.584 350.024 294.294C350.24 294.004 350.538 293.778 350.919 293.616C351.299 293.452 351.735 293.369 352.227 293.369C352.934 293.369 353.491 293.523 353.897 293.83C354.304 294.134 354.572 294.541 354.703 295.053Z" fill="white"/>
<path d="M24.9588 300V291.273H26.2756V298.866H30.2301V300H24.9588ZM34.3871 300.132C33.7734 300.132 33.2379 299.991 32.7805 299.71C32.3232 299.429 31.968 299.036 31.7152 298.53C31.4624 298.024 31.3359 297.433 31.3359 296.757C31.3359 296.078 31.4624 295.484 31.7152 294.976C31.968 294.467 32.3232 294.072 32.7805 293.791C33.2379 293.51 33.7734 293.369 34.3871 293.369C35.0007 293.369 35.5362 293.51 35.9936 293.791C36.451 294.072 36.8061 294.467 37.0589 294.976C37.3118 295.484 37.4382 296.078 37.4382 296.757C37.4382 297.433 37.3118 298.024 37.0589 298.53C36.8061 299.036 36.451 299.429 35.9936 299.71C35.5362 299.991 35.0007 300.132 34.3871 300.132ZM34.3913 299.062C34.7891 299.062 35.1186 298.957 35.38 298.747C35.6413 298.537 35.8345 298.257 35.9595 297.908C36.0874 297.558 36.1513 297.173 36.1513 296.753C36.1513 296.335 36.0874 295.952 35.9595 295.602C35.8345 295.25 35.6413 294.967 35.38 294.754C35.1186 294.541 34.7891 294.435 34.3913 294.435C33.9908 294.435 33.6584 294.541 33.3942 294.754C33.1328 294.967 32.9382 295.25 32.8104 295.602C32.6854 295.952 32.6229 296.335 32.6229 296.753C32.6229 297.173 32.6854 297.558 32.8104 297.908C32.9382 298.257 33.1328 298.537 33.3942 298.747C33.6584 298.957 33.9908 299.062 34.3913 299.062ZM43.7653 295.053L42.6104 295.257C42.5621 295.109 42.4854 294.969 42.3803 294.835C42.2781 294.702 42.1388 294.592 41.9627 294.507C41.7866 294.422 41.5664 294.379 41.3022 294.379C40.9414 294.379 40.6403 294.46 40.3988 294.622C40.1573 294.781 40.0366 294.987 40.0366 295.24C40.0366 295.459 40.1175 295.635 40.2795 295.768C40.4414 295.902 40.7028 296.011 41.0636 296.097L42.1033 296.335C42.7056 296.474 43.1545 296.689 43.4499 296.979C43.7454 297.268 43.8931 297.645 43.8931 298.108C43.8931 298.5 43.7795 298.849 43.5522 299.156C43.3278 299.46 43.0138 299.699 42.6104 299.872C42.2099 300.045 41.7454 300.132 41.217 300.132C40.484 300.132 39.886 299.976 39.4229 299.663C38.9599 299.348 38.6758 298.901 38.5707 298.321L39.8022 298.134C39.8789 298.455 40.0366 298.697 40.2752 298.862C40.5138 299.024 40.8249 299.105 41.2085 299.105C41.6261 299.105 41.9599 299.018 42.2099 298.845C42.4599 298.669 42.5849 298.455 42.5849 298.202C42.5849 297.997 42.5082 297.825 42.3548 297.686C42.2042 297.547 41.9727 297.442 41.6602 297.371L40.5522 297.128C39.9414 296.989 39.4897 296.767 39.1971 296.463C38.9073 296.159 38.7624 295.774 38.7624 295.308C38.7624 294.922 38.8704 294.584 39.0863 294.294C39.3022 294.004 39.6005 293.778 39.9812 293.616C40.3619 293.452 40.7979 293.369 41.2894 293.369C41.9968 293.369 42.5536 293.523 42.9599 293.83C43.3661 294.134 43.6346 294.541 43.7653 295.053ZM48.1151 300.132C47.4702 300.132 46.9148 299.994 46.4489 299.719C45.9858 299.44 45.6278 299.05 45.375 298.547C45.125 298.041 45 297.449 45 296.77C45 296.099 45.125 295.509 45.375 294.997C45.6278 294.486 45.9801 294.087 46.4318 293.8C46.8864 293.513 47.4176 293.369 48.0256 293.369C48.3949 293.369 48.7528 293.43 49.0994 293.553C49.446 293.675 49.7571 293.866 50.0327 294.128C50.3082 294.389 50.5256 294.729 50.6847 295.146C50.8438 295.561 50.9233 296.065 50.9233 296.659V297.111H45.7202V296.156H49.6747C49.6747 295.821 49.6065 295.524 49.4702 295.266C49.3338 295.004 49.142 294.798 48.8949 294.648C48.6506 294.497 48.3636 294.422 48.0341 294.422C47.6761 294.422 47.3636 294.51 47.0966 294.686C46.8324 294.859 46.6278 295.087 46.483 295.368C46.3409 295.646 46.2699 295.949 46.2699 296.276V297.021C46.2699 297.459 46.3466 297.831 46.5 298.138C46.6562 298.445 46.8736 298.679 47.152 298.841C47.4304 299 47.7557 299.08 48.1278 299.08C48.3693 299.08 48.5895 299.045 48.7884 298.977C48.9872 298.906 49.1591 298.801 49.304 298.662C49.4489 298.523 49.5597 298.351 49.6364 298.146L50.8423 298.364C50.7457 298.719 50.5724 299.03 50.3224 299.297C50.0753 299.561 49.7642 299.767 49.3892 299.915C49.017 300.06 48.5923 300.132 48.1151 300.132ZM57.2418 295.053L56.087 295.257C56.0387 295.109 55.962 294.969 55.8569 294.835C55.7546 294.702 55.6154 294.592 55.4393 294.507C55.2631 294.422 55.043 294.379 54.7788 294.379C54.418 294.379 54.1168 294.46 53.8754 294.622C53.6339 294.781 53.5131 294.987 53.5131 295.24C53.5131 295.459 53.5941 295.635 53.756 295.768C53.918 295.902 54.1793 296.011 54.5401 296.097L55.5799 296.335C56.1822 296.474 56.631 296.689 56.9265 296.979C57.2219 297.268 57.3697 297.645 57.3697 298.108C57.3697 298.5 57.256 298.849 57.0288 299.156C56.8043 299.46 56.4904 299.699 56.087 299.872C55.6864 300.045 55.2219 300.132 54.6935 300.132C53.9606 300.132 53.3626 299.976 52.8995 299.663C52.4364 299.348 52.1523 298.901 52.0472 298.321L53.2788 298.134C53.3555 298.455 53.5131 298.697 53.7518 298.862C53.9904 299.024 54.3015 299.105 54.685 299.105C55.1026 299.105 55.4364 299.018 55.6864 298.845C55.9364 298.669 56.0614 298.455 56.0614 298.202C56.0614 297.997 55.9847 297.825 55.8313 297.686C55.6808 297.547 55.4492 297.442 55.1367 297.371L54.0288 297.128C53.418 296.989 52.9663 296.767 52.6737 296.463C52.3839 296.159 52.239 295.774 52.239 295.308C52.239 294.922 52.3469 294.584 52.5629 294.294C52.7788 294.004 53.0771 293.778 53.4577 293.616C53.8384 293.452 54.2745 293.369 54.766 293.369C55.4734 293.369 56.0302 293.523 56.4364 293.83C56.8427 294.134 57.1112 294.541 57.2418 295.053Z" fill="white"/>
<path d="M315.986 283.043L184.477 48.8977L52.9688 283.043H315.986Z" stroke="#F1F1F1" stroke-width="2" stroke-linejoin="round"/>
<path opacity="0.3" d="M267.955 253.415L186.297 154.068C185.538 153.145 184.144 153.088 183.314 153.947L67.7351 273.463C66.4385 274.804 67.5208 277.033 69.3763 276.843L266.614 256.675C268.201 256.513 268.969 254.648 267.955 253.415Z" fill="#5E97A9" stroke="black"/>
<path d="M267.955 253.415L186.297 154.068C185.538 153.145 184.144 153.088 183.314 153.947L67.7351 273.463C66.4385 274.804 67.5208 277.033 69.3763 276.843L266.614 256.675C268.201 256.513 268.969 254.648 267.955 253.415Z" stroke="#5E97A9" stroke-width="4" stroke-linejoin="round"/>
<ellipse cx="184.477" cy="152.335" rx="4.56627" ry="4.7017" fill="#5E97A9"/>
<ellipse cx="270.323" cy="255.773" rx="4.56627" ry="4.7017" fill="#5E97A9"/>
<ellipse cx="63.9276" cy="277.4" rx="4.56627" ry="4.7017" fill="#5E97A9"/>
</g>
<defs>
<clipPath id="clip0_833_1166">
<rect width="379" height="331" rx="12" fill="white"/>
</clipPath>
</defs>
</svg>
