<svg width="804" height="345" viewBox="0 0 804 345" fill="none" xmlns="http://www.w3.org/2000/svg">
<g filter="url(#filter0_d_1147_803)">
<rect x="4" width="796" height="337" rx="12" fill="#1D1E22" shape-rendering="crispEdges"/>
<path d="M306.259 37.12C305.827 36.288 305.227 35.664 304.459 35.248C303.691 34.816 302.803 34.6 301.795 34.6C300.691 34.6 299.707 34.848 298.843 35.344C297.979 35.84 297.299 36.544 296.803 37.456C296.323 38.368 296.083 39.424 296.083 40.624C296.083 41.824 296.323 42.888 296.803 43.816C297.299 44.728 297.979 45.432 298.843 45.928C299.707 46.424 300.691 46.672 301.795 46.672C303.283 46.672 304.491 46.256 305.419 45.424C306.347 44.592 306.915 43.464 307.123 42.04H300.859V39.856H310.051V41.992C309.875 43.288 309.411 44.48 308.659 45.568C307.923 46.656 306.955 47.528 305.755 48.184C304.571 48.824 303.251 49.144 301.795 49.144C300.227 49.144 298.795 48.784 297.499 48.064C296.203 47.328 295.171 46.312 294.403 45.016C293.651 43.72 293.275 42.256 293.275 40.624C293.275 38.992 293.651 37.528 294.403 36.232C295.171 34.936 296.203 33.928 297.499 33.208C298.811 32.472 300.243 32.104 301.795 32.104C303.571 32.104 305.147 32.544 306.523 33.424C307.915 34.288 308.923 35.52 309.547 37.12H306.259ZM311.358 42.328C311.358 41 311.63 39.824 312.174 38.8C312.734 37.776 313.486 36.984 314.43 36.424C315.39 35.848 316.446 35.56 317.598 35.56C318.638 35.56 319.542 35.768 320.31 36.184C321.094 36.584 321.718 37.088 322.182 37.696V35.776H324.942V49H322.182V47.032C321.718 47.656 321.086 48.176 320.286 48.592C319.486 49.008 318.574 49.216 317.55 49.216C316.414 49.216 315.374 48.928 314.43 48.352C313.486 47.76 312.734 46.944 312.174 45.904C311.63 44.848 311.358 43.656 311.358 42.328ZM322.182 42.376C322.182 41.464 321.99 40.672 321.606 40C321.238 39.328 320.75 38.816 320.142 38.464C319.534 38.112 318.878 37.936 318.174 37.936C317.47 37.936 316.814 38.112 316.206 38.464C315.598 38.8 315.102 39.304 314.718 39.976C314.35 40.632 314.166 41.416 314.166 42.328C314.166 43.24 314.35 44.04 314.718 44.728C315.102 45.416 315.598 45.944 316.206 46.312C316.83 46.664 317.486 46.84 318.174 46.84C318.878 46.84 319.534 46.664 320.142 46.312C320.75 45.96 321.238 45.448 321.606 44.776C321.99 44.088 322.182 43.288 322.182 42.376ZM344.063 35.56C345.103 35.56 346.031 35.776 346.847 36.208C347.679 36.64 348.327 37.28 348.791 38.128C349.271 38.976 349.511 40 349.511 41.2V49H346.799V41.608C346.799 40.424 346.503 39.52 345.911 38.896C345.319 38.256 344.511 37.936 343.487 37.936C342.463 37.936 341.647 38.256 341.039 38.896C340.447 39.52 340.151 40.424 340.151 41.608V49H337.439V41.608C337.439 40.424 337.143 39.52 336.551 38.896C335.959 38.256 335.151 37.936 334.127 37.936C333.103 37.936 332.287 38.256 331.679 38.896C331.087 39.52 330.791 40.424 330.791 41.608V49H328.055V35.776H330.791V37.288C331.239 36.744 331.807 36.32 332.495 36.016C333.183 35.712 333.919 35.56 334.703 35.56C335.759 35.56 336.703 35.784 337.535 36.232C338.367 36.68 339.007 37.328 339.455 38.176C339.855 37.376 340.479 36.744 341.327 36.28C342.175 35.8 343.087 35.56 344.063 35.56ZM364.633 42.064C364.633 42.56 364.601 43.008 364.537 43.408H354.433C354.513 44.464 354.905 45.312 355.609 45.952C356.313 46.592 357.177 46.912 358.201 46.912C359.673 46.912 360.713 46.296 361.321 45.064H364.273C363.873 46.28 363.145 47.28 362.089 48.064C361.049 48.832 359.753 49.216 358.201 49.216C356.937 49.216 355.801 48.936 354.793 48.376C353.801 47.8 353.017 47 352.441 45.976C351.881 44.936 351.601 43.736 351.601 42.376C351.601 41.016 351.873 39.824 352.417 38.8C352.977 37.76 353.753 36.96 354.745 36.4C355.753 35.84 356.905 35.56 358.201 35.56C359.449 35.56 360.561 35.832 361.537 36.376C362.513 36.92 363.273 37.688 363.817 38.68C364.361 39.656 364.633 40.784 364.633 42.064ZM361.777 41.2C361.761 40.192 361.401 39.384 360.697 38.776C359.993 38.168 359.121 37.864 358.081 37.864C357.137 37.864 356.329 38.168 355.657 38.776C354.985 39.368 354.585 40.176 354.457 41.2H361.777ZM371.645 49.216C370.605 49.216 369.669 49.032 368.837 48.664C368.021 48.28 367.373 47.768 366.893 47.128C366.413 46.472 366.157 45.744 366.125 44.944H368.957C369.005 45.504 369.269 45.976 369.749 46.36C370.245 46.728 370.861 46.912 371.597 46.912C372.365 46.912 372.957 46.768 373.373 46.48C373.805 46.176 374.021 45.792 374.021 45.328C374.021 44.832 373.781 44.464 373.301 44.224C372.837 43.984 372.093 43.72 371.069 43.432C370.077 43.16 369.269 42.896 368.645 42.64C368.021 42.384 367.477 41.992 367.013 41.464C366.565 40.936 366.341 40.24 366.341 39.376C366.341 38.672 366.549 38.032 366.965 37.456C367.381 36.864 367.973 36.4 368.741 36.064C369.525 35.728 370.421 35.56 371.429 35.56C372.933 35.56 374.141 35.944 375.053 36.712C375.981 37.464 376.477 38.496 376.541 39.808H373.805C373.757 39.216 373.517 38.744 373.085 38.392C372.653 38.04 372.069 37.864 371.333 37.864C370.613 37.864 370.061 38 369.677 38.272C369.293 38.544 369.101 38.904 369.101 39.352C369.101 39.704 369.229 40 369.485 40.24C369.741 40.48 370.053 40.672 370.421 40.816C370.789 40.944 371.333 41.112 372.053 41.32C373.013 41.576 373.797 41.84 374.405 42.112C375.029 42.368 375.565 42.752 376.013 43.264C376.461 43.776 376.693 44.456 376.709 45.304C376.709 46.056 376.501 46.728 376.085 47.32C375.669 47.912 375.077 48.376 374.309 48.712C373.557 49.048 372.669 49.216 371.645 49.216ZM402.7 35.776L398.596 49H395.716L393.052 39.232L390.388 49H387.508L383.38 35.776H386.164L388.924 46.408L391.732 35.776H394.588L397.276 46.36L400.012 35.776H402.7ZM410.001 49.216C408.753 49.216 407.625 48.936 406.617 48.376C405.609 47.8 404.817 47 404.241 45.976C403.665 44.936 403.377 43.736 403.377 42.376C403.377 41.032 403.673 39.84 404.265 38.8C404.857 37.76 405.665 36.96 406.689 36.4C407.713 35.84 408.857 35.56 410.121 35.56C411.385 35.56 412.529 35.84 413.553 36.4C414.577 36.96 415.385 37.76 415.977 38.8C416.569 39.84 416.865 41.032 416.865 42.376C416.865 43.72 416.561 44.912 415.953 45.952C415.345 46.992 414.513 47.8 413.457 48.376C412.417 48.936 411.265 49.216 410.001 49.216ZM410.001 46.84C410.705 46.84 411.361 46.672 411.969 46.336C412.593 46 413.097 45.496 413.481 44.824C413.865 44.152 414.057 43.336 414.057 42.376C414.057 41.416 413.873 40.608 413.505 39.952C413.137 39.28 412.649 38.776 412.041 38.44C411.433 38.104 410.777 37.936 410.073 37.936C409.369 37.936 408.713 38.104 408.105 38.44C407.513 38.776 407.041 39.28 406.689 39.952C406.337 40.608 406.161 41.416 406.161 42.376C406.161 43.8 406.521 44.904 407.241 45.688C407.977 46.456 408.897 46.84 410.001 46.84ZM425.762 35.56C426.802 35.56 427.73 35.776 428.546 36.208C429.378 36.64 430.026 37.28 430.49 38.128C430.954 38.976 431.186 40 431.186 41.2V49H428.474V41.608C428.474 40.424 428.178 39.52 427.586 38.896C426.994 38.256 426.186 37.936 425.162 37.936C424.138 37.936 423.322 38.256 422.714 38.896C422.122 39.52 421.826 40.424 421.826 41.608V49H419.09V35.776H421.826V37.288C422.274 36.744 422.842 36.32 423.53 36.016C424.234 35.712 424.978 35.56 425.762 35.56ZM439.038 42.376C439.038 41.016 439.31 39.824 439.854 38.8C440.414 37.76 441.182 36.96 442.158 36.4C443.134 35.84 444.254 35.56 445.518 35.56C447.118 35.56 448.438 35.944 449.478 36.712C450.534 37.464 451.246 38.544 451.614 39.952H448.662C448.422 39.296 448.038 38.784 447.51 38.416C446.982 38.048 446.318 37.864 445.518 37.864C444.398 37.864 443.502 38.264 442.83 39.064C442.174 39.848 441.846 40.952 441.846 42.376C441.846 43.8 442.174 44.912 442.83 45.712C443.502 46.512 444.398 46.912 445.518 46.912C447.102 46.912 448.15 46.216 448.662 44.824H451.614C451.23 46.168 450.51 47.24 449.454 48.04C448.398 48.824 447.086 49.216 445.518 49.216C444.254 49.216 443.134 48.936 442.158 48.376C441.182 47.8 440.414 47 439.854 45.976C439.31 44.936 439.038 43.736 439.038 42.376ZM460.7 35.56C461.708 35.56 462.604 35.776 463.388 36.208C464.188 36.64 464.812 37.28 465.26 38.128C465.724 38.976 465.956 40 465.956 41.2V49H463.244V41.608C463.244 40.424 462.948 39.52 462.356 38.896C461.764 38.256 460.956 37.936 459.932 37.936C458.908 37.936 458.092 38.256 457.484 38.896C456.892 39.52 456.596 40.424 456.596 41.608V49H453.86V31.24H456.596V37.312C457.06 36.752 457.644 36.32 458.348 36.016C459.068 35.712 459.852 35.56 460.7 35.56ZM468.054 42.328C468.054 41 468.326 39.824 468.87 38.8C469.43 37.776 470.182 36.984 471.126 36.424C472.086 35.848 473.142 35.56 474.294 35.56C475.334 35.56 476.238 35.768 477.006 36.184C477.79 36.584 478.414 37.088 478.878 37.696V35.776H481.638V49H478.878V47.032C478.414 47.656 477.782 48.176 476.982 48.592C476.182 49.008 475.27 49.216 474.246 49.216C473.11 49.216 472.07 48.928 471.126 48.352C470.182 47.76 469.43 46.944 468.87 45.904C468.326 44.848 468.054 43.656 468.054 42.328ZM478.878 42.376C478.878 41.464 478.686 40.672 478.302 40C477.934 39.328 477.446 38.816 476.838 38.464C476.23 38.112 475.574 37.936 474.87 37.936C474.166 37.936 473.51 38.112 472.902 38.464C472.294 38.8 471.798 39.304 471.414 39.976C471.046 40.632 470.862 41.416 470.862 42.328C470.862 43.24 471.046 44.04 471.414 44.728C471.798 45.416 472.294 45.944 472.902 46.312C473.526 46.664 474.182 46.84 474.87 46.84C475.574 46.84 476.23 46.664 476.838 46.312C477.446 45.96 477.934 45.448 478.302 44.776C478.686 44.088 478.878 43.288 478.878 42.376ZM487.488 37.696C487.888 37.024 488.416 36.504 489.072 36.136C489.744 35.752 490.536 35.56 491.448 35.56V38.392H490.752C489.68 38.392 488.864 38.664 488.304 39.208C487.76 39.752 487.488 40.696 487.488 42.04V49H484.752V35.776H487.488V37.696ZM496.675 38.008V45.328C496.675 45.824 496.787 46.184 497.011 46.408C497.251 46.616 497.651 46.72 498.211 46.72H499.891V49H497.731C496.499 49 495.555 48.712 494.899 48.136C494.243 47.56 493.915 46.624 493.915 45.328V38.008H492.355V35.776H493.915V32.488H496.675V35.776H499.891V38.008H496.675Z" fill="white"/>
<path d="M96.978 186.889L109.964 148.699L141.503 176.088L153.562 156.028L166.548 173.387L188.81 163.358L210.145 178.402L223.131 163.358L250.959 173.387L258.38 156.028L288.063 171.073L298.267 145.998L319.602 168.372L329.805 145.998L334.443 163.358L366.909 178.402L378.968 163.358L391.027 176.088L415.144 168.372C421.947 169.144 435.737 171.227 436.479 173.387C437.221 175.548 447.919 174.287 453.176 173.387V160.271L471.728 168.372L486.569 148.699L497.7 173.387L511.614 153.714L519.035 171.073L533.877 160.271L545.008 186.889L577.474 178.402L592.315 127.096L607.157 160.271L666.523 142.141L677.654 163.358L718.469 142.141L744.505 139.566" stroke="#5E97A9" stroke-width="2" stroke-dasharray="3 3"/>
<path d="M82.9434 304.581H84.1304L87.1582 312.115L90.1797 304.581H91.373L87.6152 313.823H86.6885L82.9434 304.581ZM82.5562 304.581H83.6035L83.7749 310.217V313.823H82.5562V304.581ZM90.7065 304.581H91.7539V313.823H90.5352V310.217L90.7065 304.581ZM93.917 310.465V310.319C93.917 309.824 93.9889 309.365 94.1328 308.941C94.2767 308.514 94.484 308.144 94.7549 307.831C95.0257 307.513 95.3537 307.268 95.7388 307.094C96.1239 306.917 96.5555 306.828 97.0337 306.828C97.5161 306.828 97.9499 306.917 98.335 307.094C98.7243 307.268 99.0544 307.513 99.3252 307.831C99.6003 308.144 99.8097 308.514 99.9536 308.941C100.097 309.365 100.169 309.824 100.169 310.319V310.465C100.169 310.96 100.097 311.419 99.9536 311.842C99.8097 312.265 99.6003 312.636 99.3252 312.953C99.0544 313.266 98.7264 313.512 98.3413 313.689C97.9604 313.863 97.5288 313.95 97.0464 313.95C96.564 313.95 96.1302 313.863 95.7451 313.689C95.36 313.512 95.0299 313.266 94.7549 312.953C94.484 312.636 94.2767 312.265 94.1328 311.842C93.9889 311.419 93.917 310.96 93.917 310.465ZM95.0913 310.319V310.465C95.0913 310.808 95.1315 311.131 95.2119 311.436C95.2923 311.736 95.4129 312.003 95.5737 312.236C95.7388 312.469 95.944 312.653 96.1895 312.788C96.4349 312.919 96.7205 312.985 97.0464 312.985C97.368 312.985 97.6494 312.919 97.8906 312.788C98.1361 312.653 98.3392 312.469 98.5 312.236C98.6608 312.003 98.7814 311.736 98.8618 311.436C98.9465 311.131 98.9888 310.808 98.9888 310.465V310.319C98.9888 309.98 98.9465 309.661 98.8618 309.36C98.7814 309.056 98.6587 308.787 98.4937 308.554C98.3328 308.317 98.1297 308.131 97.8843 307.996C97.6431 307.86 97.3595 307.792 97.0337 307.792C96.7121 307.792 96.4285 307.86 96.1831 307.996C95.9419 308.131 95.7388 308.317 95.5737 308.554C95.4129 308.787 95.2923 309.056 95.2119 309.36C95.1315 309.661 95.0913 309.98 95.0913 310.319ZM103.316 308.421V313.823H102.142V306.955H103.253L103.316 308.421ZM103.037 310.128L102.548 310.109C102.553 309.64 102.622 309.206 102.758 308.808C102.893 308.406 103.084 308.057 103.329 307.761C103.575 307.465 103.867 307.236 104.205 307.075C104.548 306.91 104.927 306.828 105.341 306.828C105.68 306.828 105.985 306.874 106.255 306.967C106.526 307.056 106.757 307.2 106.947 307.399C107.142 307.598 107.29 307.856 107.392 308.173C107.493 308.486 107.544 308.869 107.544 309.322V313.823H106.363V309.31C106.363 308.95 106.31 308.662 106.205 308.446C106.099 308.226 105.944 308.068 105.741 307.97C105.538 307.869 105.288 307.818 104.992 307.818C104.7 307.818 104.434 307.879 104.192 308.002C103.955 308.125 103.75 308.294 103.577 308.51C103.407 308.726 103.274 308.973 103.177 309.252C103.084 309.528 103.037 309.819 103.037 310.128Z" fill="#FFFEFE"/>
<path d="M200.224 304.581V313.823H199.018V304.581H200.224ZM203.195 304.581V305.583H196.054V304.581H203.195ZM208.481 312.236V306.955H209.662V313.823H208.538L208.481 312.236ZM208.703 310.789L209.192 310.776C209.192 311.233 209.143 311.656 209.046 312.045C208.953 312.431 208.8 312.765 208.589 313.048C208.377 313.332 208.1 313.554 207.757 313.715C207.415 313.871 206.998 313.95 206.507 313.95C206.173 313.95 205.866 313.901 205.586 313.804C205.311 313.706 205.074 313.556 204.875 313.353C204.677 313.15 204.522 312.885 204.412 312.56C204.306 312.234 204.253 311.842 204.253 311.385V306.955H205.428V311.398C205.428 311.707 205.462 311.963 205.529 312.166C205.601 312.365 205.696 312.524 205.815 312.642C205.938 312.756 206.073 312.837 206.221 312.883C206.374 312.93 206.53 312.953 206.691 312.953C207.19 312.953 207.586 312.858 207.878 312.667C208.17 312.473 208.379 312.213 208.506 311.887C208.638 311.557 208.703 311.191 208.703 310.789ZM214.802 313.95C214.324 313.95 213.89 313.869 213.5 313.708C213.115 313.543 212.783 313.313 212.504 313.017C212.229 312.72 212.017 312.369 211.869 311.963C211.721 311.557 211.647 311.112 211.647 310.63V310.363C211.647 309.805 211.729 309.307 211.895 308.872C212.06 308.431 212.284 308.059 212.567 307.754C212.851 307.45 213.173 307.219 213.532 307.062C213.892 306.906 214.264 306.828 214.649 306.828C215.14 306.828 215.563 306.912 215.919 307.082C216.279 307.251 216.573 307.488 216.801 307.792C217.03 308.093 217.199 308.448 217.309 308.859C217.419 309.265 217.474 309.709 217.474 310.192V310.719H212.345V309.76H216.3V309.671C216.283 309.367 216.219 309.07 216.109 308.783C216.004 308.495 215.834 308.258 215.602 308.072C215.369 307.886 215.051 307.792 214.649 307.792C214.383 307.792 214.137 307.85 213.913 307.964C213.689 308.074 213.496 308.239 213.335 308.459C213.175 308.679 213.05 308.948 212.961 309.265C212.872 309.583 212.828 309.949 212.828 310.363V310.63C212.828 310.956 212.872 311.263 212.961 311.55C213.054 311.834 213.187 312.083 213.361 312.299C213.539 312.515 213.752 312.684 214.002 312.807C214.256 312.93 214.544 312.991 214.865 312.991C215.28 312.991 215.631 312.907 215.919 312.737C216.207 312.568 216.458 312.342 216.674 312.058L217.385 312.623C217.237 312.847 217.049 313.061 216.82 313.264C216.592 313.467 216.31 313.632 215.976 313.759C215.646 313.886 215.255 313.95 214.802 313.95Z" fill="#FFFEFE"/>
<path d="M309.493 311.03L311.327 304.581H312.216L311.702 307.088L309.728 313.823H308.845L309.493 311.03ZM307.595 304.581L309.055 310.903L309.493 313.823H308.617L306.376 304.581H307.595ZM314.59 310.896L316.018 304.581H317.243L315.009 313.823H314.133L314.59 310.896ZM312.349 304.581L314.133 311.03L314.781 313.823H313.898L311.994 307.088L311.473 304.581H312.349ZM321.571 313.95C321.093 313.95 320.659 313.869 320.27 313.708C319.885 313.543 319.552 313.313 319.273 313.017C318.998 312.72 318.787 312.369 318.638 311.963C318.49 311.557 318.416 311.112 318.416 310.63V310.363C318.416 309.805 318.499 309.307 318.664 308.872C318.829 308.431 319.053 308.059 319.337 307.754C319.62 307.45 319.942 307.219 320.302 307.062C320.661 306.906 321.034 306.828 321.419 306.828C321.91 306.828 322.333 306.912 322.688 307.082C323.048 307.251 323.342 307.488 323.571 307.792C323.799 308.093 323.968 308.448 324.078 308.859C324.188 309.265 324.243 309.709 324.243 310.192V310.719H319.115V309.76H323.069V309.671C323.052 309.367 322.989 309.07 322.879 308.783C322.773 308.495 322.604 308.258 322.371 308.072C322.138 307.886 321.821 307.792 321.419 307.792C321.152 307.792 320.907 307.85 320.682 307.964C320.458 308.074 320.266 308.239 320.105 308.459C319.944 308.679 319.819 308.948 319.73 309.265C319.641 309.583 319.597 309.949 319.597 310.363V310.63C319.597 310.956 319.641 311.263 319.73 311.55C319.823 311.834 319.957 312.083 320.13 312.299C320.308 312.515 320.522 312.684 320.771 312.807C321.025 312.93 321.313 312.991 321.635 312.991C322.049 312.991 322.4 312.907 322.688 312.737C322.976 312.568 323.228 312.342 323.444 312.058L324.155 312.623C324.006 312.847 323.818 313.061 323.59 313.264C323.361 313.467 323.08 313.632 322.745 313.759C322.415 313.886 322.024 313.95 321.571 313.95ZM330.444 312.49V304.073H331.624V313.823H330.545L330.444 312.49ZM325.823 310.465V310.332C325.823 309.807 325.886 309.331 326.013 308.903C326.144 308.472 326.328 308.101 326.565 307.792C326.806 307.484 327.092 307.247 327.422 307.082C327.756 306.912 328.129 306.828 328.539 306.828C328.971 306.828 329.348 306.904 329.669 307.056C329.995 307.204 330.27 307.422 330.494 307.71C330.723 307.993 330.903 308.336 331.034 308.738C331.165 309.14 331.256 309.595 331.307 310.103V310.687C331.26 311.191 331.169 311.643 331.034 312.045C330.903 312.447 330.723 312.79 330.494 313.074C330.27 313.357 329.995 313.575 329.669 313.728C329.343 313.876 328.962 313.95 328.527 313.95C328.125 313.95 327.756 313.863 327.422 313.689C327.092 313.516 326.806 313.273 326.565 312.959C326.328 312.646 326.144 312.278 326.013 311.855C325.886 311.428 325.823 310.964 325.823 310.465ZM327.003 310.332V310.465C327.003 310.808 327.037 311.129 327.105 311.43C327.177 311.73 327.287 311.995 327.435 312.223C327.583 312.452 327.771 312.632 328 312.763C328.228 312.89 328.501 312.953 328.819 312.953C329.208 312.953 329.527 312.871 329.777 312.706C330.031 312.541 330.234 312.323 330.386 312.052C330.539 311.781 330.657 311.487 330.742 311.169V309.64C330.691 309.407 330.617 309.183 330.52 308.967C330.427 308.747 330.304 308.552 330.152 308.383C330.003 308.209 329.819 308.072 329.599 307.97C329.384 307.869 329.128 307.818 328.831 307.818C328.51 307.818 328.233 307.886 328 308.021C327.771 308.152 327.583 308.334 327.435 308.567C327.287 308.795 327.177 309.062 327.105 309.367C327.037 309.667 327.003 309.989 327.003 310.332Z" fill="#FFFEFE"/>
<path d="M424.729 304.581V313.823H423.523V304.581H424.729ZM427.7 304.581V305.583H420.559V304.581H427.7ZM430.568 304.073V313.823H429.394V304.073H430.568ZM430.289 310.128L429.8 310.109C429.804 309.64 429.874 309.206 430.009 308.808C430.145 308.406 430.335 308.057 430.581 307.761C430.826 307.465 431.118 307.236 431.457 307.075C431.799 306.91 432.178 306.828 432.593 306.828C432.931 306.828 433.236 306.874 433.507 306.967C433.778 307.056 434.008 307.2 434.199 307.399C434.393 307.598 434.542 307.856 434.643 308.173C434.745 308.486 434.795 308.869 434.795 309.322V313.823H433.615V309.31C433.615 308.95 433.562 308.662 433.456 308.446C433.35 308.226 433.196 308.068 432.993 307.97C432.79 307.869 432.54 307.818 432.244 307.818C431.952 307.818 431.685 307.879 431.444 308.002C431.207 308.125 431.002 308.294 430.828 308.51C430.659 308.726 430.526 308.973 430.428 309.252C430.335 309.528 430.289 309.819 430.289 310.128ZM441.256 312.236V306.955H442.437V313.823H441.313L441.256 312.236ZM441.478 310.789L441.967 310.776C441.967 311.233 441.918 311.656 441.821 312.045C441.728 312.431 441.575 312.765 441.364 313.048C441.152 313.332 440.875 313.554 440.532 313.715C440.189 313.871 439.773 313.95 439.282 313.95C438.947 313.95 438.641 313.901 438.361 313.804C438.086 313.706 437.849 313.556 437.65 313.353C437.451 313.15 437.297 312.885 437.187 312.56C437.081 312.234 437.028 311.842 437.028 311.385V306.955H438.203V311.398C438.203 311.707 438.236 311.963 438.304 312.166C438.376 312.365 438.471 312.524 438.59 312.642C438.713 312.756 438.848 312.837 438.996 312.883C439.148 312.93 439.305 312.953 439.466 312.953C439.965 312.953 440.361 312.858 440.653 312.667C440.945 312.473 441.154 312.213 441.281 311.887C441.412 311.557 441.478 311.191 441.478 310.789Z" fill="#FFFEFE"/>
<path d="M533.792 304.581V313.823H532.567V304.581H533.792ZM537.665 308.738V309.741H533.526V308.738H537.665ZM538.293 304.581V305.583H533.526V304.581H538.293ZM541.084 308.034V313.823H539.91V306.955H541.053L541.084 308.034ZM543.23 306.917L543.224 308.008C543.126 307.987 543.033 307.974 542.944 307.97C542.86 307.962 542.762 307.958 542.652 307.958C542.382 307.958 542.142 308 541.935 308.084C541.728 308.169 541.552 308.288 541.408 308.44C541.264 308.592 541.15 308.774 541.065 308.986C540.985 309.193 540.932 309.422 540.907 309.671L540.577 309.862C540.577 309.447 540.617 309.058 540.697 308.694C540.782 308.33 540.911 308.008 541.084 307.729C541.258 307.445 541.478 307.225 541.745 307.069C542.015 306.908 542.337 306.828 542.709 306.828C542.794 306.828 542.891 306.838 543.001 306.859C543.111 306.876 543.188 306.895 543.23 306.917ZM546.091 306.955V313.823H544.911V306.955H546.091ZM544.822 305.133C544.822 304.942 544.879 304.782 544.993 304.65C545.112 304.519 545.285 304.454 545.514 304.454C545.738 304.454 545.909 304.519 546.028 304.65C546.151 304.782 546.212 304.942 546.212 305.133C546.212 305.315 546.151 305.471 546.028 305.603C545.909 305.729 545.738 305.793 545.514 305.793C545.285 305.793 545.112 305.729 544.993 305.603C544.879 305.471 544.822 305.315 544.822 305.133Z" fill="#FFFEFE"/>
<path d="M640.746 311.487C640.746 311.271 640.712 311.081 640.645 310.916C640.581 310.746 640.467 310.594 640.302 310.458C640.141 310.323 639.917 310.194 639.629 310.071C639.345 309.949 638.986 309.824 638.55 309.697C638.093 309.561 637.68 309.411 637.312 309.246C636.944 309.077 636.629 308.884 636.366 308.668C636.104 308.453 635.903 308.205 635.763 307.926C635.624 307.646 635.554 307.327 635.554 306.967C635.554 306.608 635.628 306.275 635.776 305.971C635.924 305.666 636.136 305.402 636.411 305.177C636.69 304.949 637.022 304.771 637.407 304.644C637.792 304.517 638.222 304.454 638.696 304.454C639.39 304.454 639.978 304.587 640.46 304.854C640.947 305.116 641.317 305.461 641.571 305.888C641.825 306.311 641.952 306.764 641.952 307.247H640.733C640.733 306.9 640.659 306.593 640.511 306.326C640.363 306.055 640.139 305.844 639.838 305.691C639.538 305.535 639.157 305.457 638.696 305.457C638.26 305.457 637.9 305.522 637.617 305.653C637.333 305.785 637.122 305.962 636.982 306.187C636.847 306.411 636.779 306.667 636.779 306.955C636.779 307.149 636.819 307.327 636.899 307.488C636.984 307.644 637.113 307.79 637.287 307.926C637.464 308.061 637.689 308.186 637.959 308.3C638.235 308.415 638.562 308.525 638.943 308.63C639.468 308.778 639.921 308.944 640.302 309.125C640.683 309.307 640.996 309.513 641.241 309.741C641.491 309.965 641.675 310.222 641.793 310.509C641.916 310.793 641.978 311.114 641.978 311.474C641.978 311.851 641.901 312.191 641.749 312.496C641.597 312.801 641.379 313.061 641.095 313.277C640.812 313.493 640.471 313.66 640.073 313.778C639.68 313.893 639.24 313.95 638.753 313.95C638.326 313.95 637.904 313.89 637.49 313.772C637.079 313.653 636.705 313.476 636.366 313.239C636.032 313.002 635.763 312.71 635.56 312.363C635.361 312.012 635.262 311.605 635.262 311.144H636.48C636.48 311.461 636.542 311.734 636.665 311.963C636.787 312.187 636.954 312.373 637.166 312.521C637.382 312.67 637.625 312.78 637.896 312.852C638.171 312.919 638.457 312.953 638.753 312.953C639.18 312.953 639.542 312.894 639.838 312.775C640.135 312.657 640.359 312.488 640.511 312.268C640.668 312.048 640.746 311.787 640.746 311.487ZM647.911 312.648V309.113C647.911 308.842 647.856 308.607 647.746 308.408C647.64 308.205 647.479 308.049 647.264 307.938C647.048 307.828 646.781 307.773 646.464 307.773C646.168 307.773 645.907 307.824 645.683 307.926C645.463 308.027 645.29 308.161 645.163 308.326C645.04 308.491 644.979 308.668 644.979 308.859H643.804C643.804 308.613 643.868 308.37 643.995 308.129C644.122 307.888 644.304 307.67 644.541 307.475C644.782 307.276 645.069 307.12 645.404 307.005C645.742 306.887 646.119 306.828 646.534 306.828C647.033 306.828 647.473 306.912 647.854 307.082C648.239 307.251 648.54 307.507 648.755 307.85C648.975 308.188 649.085 308.613 649.085 309.125V312.325C649.085 312.553 649.104 312.797 649.143 313.055C649.185 313.313 649.246 313.535 649.327 313.721V313.823H648.102C648.042 313.687 647.996 313.507 647.962 313.283C647.928 313.055 647.911 312.843 647.911 312.648ZM648.114 309.659L648.127 310.484H646.94C646.606 310.484 646.307 310.511 646.045 310.566C645.783 310.617 645.562 310.695 645.385 310.801C645.207 310.907 645.072 311.04 644.979 311.201C644.885 311.358 644.839 311.542 644.839 311.753C644.839 311.969 644.888 312.166 644.985 312.344C645.082 312.521 645.228 312.663 645.423 312.769C645.622 312.871 645.865 312.921 646.153 312.921C646.513 312.921 646.83 312.845 647.105 312.693C647.38 312.541 647.598 312.354 647.759 312.134C647.924 311.914 648.013 311.701 648.025 311.493L648.527 312.058C648.497 312.236 648.417 312.433 648.286 312.648C648.154 312.864 647.979 313.072 647.759 313.271C647.543 313.465 647.285 313.628 646.984 313.759C646.688 313.886 646.354 313.95 645.981 313.95C645.516 313.95 645.108 313.859 644.756 313.677C644.409 313.495 644.139 313.251 643.944 312.947C643.753 312.638 643.658 312.293 643.658 311.912C643.658 311.544 643.73 311.22 643.874 310.941C644.018 310.657 644.225 310.423 644.496 310.236C644.767 310.046 645.093 309.902 645.474 309.805C645.854 309.707 646.28 309.659 646.75 309.659H648.114ZM654.308 306.955V307.856H650.595V306.955H654.308ZM651.852 305.285H653.026V312.122C653.026 312.354 653.062 312.53 653.134 312.648C653.206 312.767 653.299 312.845 653.413 312.883C653.527 312.921 653.65 312.94 653.781 312.94C653.879 312.94 653.98 312.932 654.086 312.915C654.196 312.894 654.278 312.877 654.333 312.864L654.34 313.823C654.247 313.852 654.124 313.88 653.972 313.905C653.824 313.935 653.644 313.95 653.432 313.95C653.144 313.95 652.88 313.893 652.639 313.778C652.397 313.664 652.205 313.474 652.061 313.207C651.921 312.936 651.852 312.572 651.852 312.115V305.285Z" fill="#FFFEFE"/>
<path d="M748.999 311.487C748.999 311.271 748.965 311.081 748.897 310.916C748.833 310.746 748.719 310.594 748.554 310.458C748.393 310.323 748.169 310.194 747.881 310.071C747.598 309.949 747.238 309.824 746.802 309.697C746.345 309.561 745.933 309.411 745.564 309.246C745.196 309.077 744.881 308.884 744.619 308.668C744.356 308.453 744.155 308.205 744.016 307.926C743.876 307.646 743.806 307.327 743.806 306.967C743.806 306.608 743.88 306.275 744.028 305.971C744.176 305.666 744.388 305.402 744.663 305.177C744.942 304.949 745.275 304.771 745.66 304.644C746.045 304.517 746.474 304.454 746.948 304.454C747.642 304.454 748.23 304.587 748.713 304.854C749.2 305.116 749.57 305.461 749.824 305.888C750.078 306.311 750.205 306.764 750.205 307.247H748.986C748.986 306.9 748.912 306.593 748.764 306.326C748.616 306.055 748.391 305.844 748.091 305.691C747.79 305.535 747.41 305.457 746.948 305.457C746.512 305.457 746.153 305.522 745.869 305.653C745.586 305.785 745.374 305.962 745.234 306.187C745.099 306.411 745.031 306.667 745.031 306.955C745.031 307.149 745.071 307.327 745.152 307.488C745.236 307.644 745.366 307.79 745.539 307.926C745.717 308.061 745.941 308.186 746.212 308.3C746.487 308.415 746.815 308.525 747.196 308.63C747.721 308.778 748.173 308.944 748.554 309.125C748.935 309.307 749.248 309.513 749.494 309.741C749.743 309.965 749.927 310.222 750.046 310.509C750.169 310.793 750.23 311.114 750.23 311.474C750.23 311.851 750.154 312.191 750.001 312.496C749.849 312.801 749.631 313.061 749.348 313.277C749.064 313.493 748.723 313.66 748.326 313.778C747.932 313.893 747.492 313.95 747.005 313.95C746.578 313.95 746.157 313.89 745.742 313.772C745.332 313.653 744.957 313.476 744.619 313.239C744.284 313.002 744.016 312.71 743.812 312.363C743.614 312.012 743.514 311.605 743.514 311.144H744.733C744.733 311.461 744.794 311.734 744.917 311.963C745.04 312.187 745.207 312.373 745.418 312.521C745.634 312.67 745.878 312.78 746.148 312.852C746.424 312.919 746.709 312.953 747.005 312.953C747.433 312.953 747.795 312.894 748.091 312.775C748.387 312.657 748.611 312.488 748.764 312.268C748.92 312.048 748.999 311.787 748.999 311.487ZM756.316 312.236V306.955H757.497V313.823H756.373L756.316 312.236ZM756.538 310.789L757.027 310.776C757.027 311.233 756.978 311.656 756.881 312.045C756.788 312.431 756.635 312.765 756.424 313.048C756.212 313.332 755.935 313.554 755.592 313.715C755.25 313.871 754.833 313.95 754.342 313.95C754.007 313.95 753.701 313.901 753.421 313.804C753.146 313.706 752.909 313.556 752.71 313.353C752.512 313.15 752.357 312.885 752.247 312.56C752.141 312.234 752.088 311.842 752.088 311.385V306.955H753.263V311.398C753.263 311.707 753.297 311.963 753.364 312.166C753.436 312.365 753.531 312.524 753.65 312.642C753.773 312.756 753.908 312.837 754.056 312.883C754.208 312.93 754.365 312.953 754.526 312.953C755.025 312.953 755.421 312.858 755.713 312.667C756.005 312.473 756.214 312.213 756.341 311.887C756.472 311.557 756.538 311.191 756.538 310.789ZM760.961 308.421V313.823H759.787V306.955H760.897L760.961 308.421ZM760.682 310.128L760.193 310.109C760.197 309.64 760.267 309.206 760.402 308.808C760.538 308.406 760.728 308.057 760.974 307.761C761.219 307.465 761.511 307.236 761.85 307.075C762.192 306.91 762.571 306.828 762.986 306.828C763.324 306.828 763.629 306.874 763.9 306.967C764.171 307.056 764.401 307.2 764.592 307.399C764.786 307.598 764.935 307.856 765.036 308.173C765.138 308.486 765.188 308.869 765.188 309.322V313.823H764.008V309.31C764.008 308.95 763.955 308.662 763.849 308.446C763.743 308.226 763.589 308.068 763.386 307.97C763.183 307.869 762.933 307.818 762.637 307.818C762.345 307.818 762.078 307.879 761.837 308.002C761.6 308.125 761.395 308.294 761.221 308.51C761.052 308.726 760.919 308.973 760.821 309.252C760.728 309.528 760.682 309.819 760.682 310.128Z" fill="#FFFEFE"/>
<path d="M44.5205 33.7578V34.418L40.6929 43H39.4551L43.2764 34.7227H38.2744V33.7578H44.5205ZM47.8452 38.6011L46.9058 38.3599L47.3691 33.7578H52.1108V34.8433H48.3657L48.0864 37.3569C48.2557 37.2596 48.4694 37.1686 48.7275 37.084C48.9899 36.9993 49.2904 36.957 49.6289 36.957C50.0563 36.957 50.4393 37.0311 50.7778 37.1792C51.1164 37.3231 51.4041 37.5304 51.6411 37.8013C51.8823 38.0721 52.0664 38.3979 52.1934 38.7788C52.3203 39.1597 52.3838 39.585 52.3838 40.0547C52.3838 40.499 52.3224 40.9074 52.1997 41.2798C52.0812 41.6522 51.9014 41.978 51.6602 42.2573C51.4189 42.5324 51.1143 42.7461 50.7461 42.8984C50.3822 43.0508 49.9526 43.127 49.4575 43.127C49.0851 43.127 48.7318 43.0762 48.3975 42.9746C48.0674 42.8688 47.7712 42.7101 47.5088 42.4985C47.2507 42.2827 47.0391 42.0161 46.874 41.6987C46.7132 41.3771 46.6117 41.0005 46.5693 40.5688H47.6865C47.7373 40.9159 47.8389 41.2078 47.9912 41.4448C48.1436 41.6818 48.3424 41.8617 48.5879 41.9844C48.8376 42.1029 49.1274 42.1621 49.4575 42.1621C49.7368 42.1621 49.9844 42.1134 50.2002 42.0161C50.416 41.9188 50.598 41.7791 50.7461 41.5972C50.8942 41.4152 51.0063 41.1951 51.0825 40.937C51.1629 40.6789 51.2031 40.389 51.2031 40.0674C51.2031 39.7754 51.1629 39.5046 51.0825 39.2549C51.0021 39.0052 50.8815 38.7873 50.7207 38.6011C50.5641 38.4149 50.3716 38.271 50.1431 38.1694C49.9146 38.0636 49.6522 38.0107 49.356 38.0107C48.9624 38.0107 48.6641 38.0636 48.4609 38.1694C48.262 38.2752 48.0568 38.4191 47.8452 38.6011Z" fill="#FFFEFE"/>
<path d="M40.0327 120.443L39.0933 120.202L39.5566 115.6H44.2983V116.686H40.5532L40.2739 119.199C40.4432 119.102 40.6569 119.011 40.915 118.926C41.1774 118.842 41.4779 118.799 41.8164 118.799C42.2438 118.799 42.6268 118.873 42.9653 119.021C43.3039 119.165 43.5916 119.373 43.8286 119.644C44.0698 119.914 44.2539 120.24 44.3809 120.621C44.5078 121.002 44.5713 121.427 44.5713 121.897C44.5713 122.341 44.5099 122.75 44.3872 123.122C44.2687 123.494 44.0889 123.82 43.8477 124.1C43.6064 124.375 43.3018 124.588 42.9336 124.741C42.5697 124.893 42.1401 124.969 41.645 124.969C41.2726 124.969 40.9193 124.918 40.585 124.817C40.2549 124.711 39.9587 124.552 39.6963 124.341C39.4382 124.125 39.2266 123.858 39.0615 123.541C38.9007 123.219 38.7992 122.843 38.7568 122.411H39.874C39.9248 122.758 40.0264 123.05 40.1787 123.287C40.3311 123.524 40.5299 123.704 40.7754 123.827C41.0251 123.945 41.3149 124.004 41.645 124.004C41.9243 124.004 42.1719 123.956 42.3877 123.858C42.6035 123.761 42.7855 123.621 42.9336 123.439C43.0817 123.257 43.1938 123.037 43.27 122.779C43.3504 122.521 43.3906 122.231 43.3906 121.91C43.3906 121.618 43.3504 121.347 43.27 121.097C43.1896 120.847 43.069 120.63 42.9082 120.443C42.7516 120.257 42.5591 120.113 42.3306 120.012C42.1021 119.906 41.8397 119.853 41.5435 119.853C41.1499 119.853 40.8516 119.906 40.6484 120.012C40.4495 120.118 40.2443 120.261 40.0327 120.443ZM52.1616 119.485V120.894C52.1616 121.652 52.0939 122.291 51.9585 122.811C51.8231 123.332 51.6284 123.75 51.3745 124.068C51.1206 124.385 50.8138 124.616 50.4541 124.76C50.0986 124.899 49.6966 124.969 49.248 124.969C48.8926 124.969 48.5646 124.925 48.2642 124.836C47.9637 124.747 47.6929 124.605 47.4517 124.411C47.2147 124.212 47.0116 123.954 46.8423 123.636C46.673 123.319 46.5439 122.934 46.4551 122.481C46.3662 122.028 46.3218 121.499 46.3218 120.894V119.485C46.3218 118.727 46.3895 118.093 46.5249 117.581C46.6646 117.069 46.8613 116.658 47.1152 116.349C47.3691 116.036 47.6738 115.812 48.0293 115.676C48.389 115.541 48.791 115.473 49.2354 115.473C49.5951 115.473 49.9251 115.518 50.2256 115.606C50.5303 115.691 50.8011 115.829 51.0381 116.019C51.2751 116.205 51.4761 116.455 51.6411 116.768C51.8104 117.077 51.9395 117.456 52.0283 117.904C52.1172 118.353 52.1616 118.88 52.1616 119.485ZM50.981 121.084V119.288C50.981 118.873 50.9556 118.509 50.9048 118.196C50.8582 117.879 50.7884 117.608 50.6953 117.384C50.6022 117.16 50.4837 116.978 50.3398 116.838C50.2002 116.698 50.0373 116.597 49.8511 116.533C49.6691 116.465 49.4639 116.432 49.2354 116.432C48.9561 116.432 48.7085 116.485 48.4927 116.59C48.2769 116.692 48.0949 116.855 47.9468 117.079C47.8029 117.303 47.6929 117.597 47.6167 117.961C47.5405 118.325 47.5024 118.768 47.5024 119.288V121.084C47.5024 121.499 47.5257 121.865 47.5723 122.183C47.623 122.5 47.6971 122.775 47.7944 123.008C47.8918 123.236 48.0103 123.425 48.1499 123.573C48.2896 123.721 48.4504 123.831 48.6323 123.903C48.8185 123.971 49.0238 124.004 49.248 124.004C49.5358 124.004 49.7876 123.949 50.0034 123.839C50.2192 123.729 50.3991 123.558 50.543 123.325C50.6911 123.088 50.8011 122.786 50.873 122.417C50.945 122.045 50.981 121.601 50.981 121.084Z" fill="#FFFEFE"/>
<path d="M44.603 205.72V206.685H38.5537V205.841L41.5815 202.47C41.9539 202.055 42.2417 201.704 42.4448 201.416C42.6522 201.124 42.7961 200.864 42.8765 200.635C42.9611 200.403 43.0034 200.166 43.0034 199.925C43.0034 199.62 42.9399 199.345 42.813 199.099C42.6903 198.85 42.5083 198.651 42.2671 198.503C42.0259 198.355 41.7339 198.281 41.3911 198.281C40.9806 198.281 40.6379 198.361 40.3628 198.522C40.092 198.678 39.8888 198.898 39.7534 199.182C39.618 199.465 39.5503 199.791 39.5503 200.159H38.376C38.376 199.639 38.4902 199.163 38.7188 198.731C38.9473 198.3 39.2858 197.957 39.7344 197.703C40.1829 197.445 40.7352 197.316 41.3911 197.316C41.9751 197.316 42.4744 197.419 42.8892 197.627C43.3039 197.83 43.6213 198.118 43.8413 198.49C44.0656 198.858 44.1777 199.29 44.1777 199.785C44.1777 200.056 44.1312 200.331 44.0381 200.61C43.9492 200.885 43.8244 201.16 43.6636 201.435C43.507 201.71 43.3229 201.981 43.1113 202.248C42.904 202.514 42.6818 202.777 42.4448 203.035L39.9692 205.72H44.603ZM47.8452 202.286L46.9058 202.045L47.3691 197.443H52.1108V198.528H48.3657L48.0864 201.042C48.2557 200.944 48.4694 200.853 48.7275 200.769C48.9899 200.684 49.2904 200.642 49.6289 200.642C50.0563 200.642 50.4393 200.716 50.7778 200.864C51.1164 201.008 51.4041 201.215 51.6411 201.486C51.8823 201.757 52.0664 202.083 52.1934 202.464C52.3203 202.844 52.3838 203.27 52.3838 203.74C52.3838 204.184 52.3224 204.592 52.1997 204.965C52.0812 205.337 51.9014 205.663 51.6602 205.942C51.4189 206.217 51.1143 206.431 50.7461 206.583C50.3822 206.736 49.9526 206.812 49.4575 206.812C49.0851 206.812 48.7318 206.761 48.3975 206.659C48.0674 206.554 47.7712 206.395 47.5088 206.183C47.2507 205.968 47.0391 205.701 46.874 205.384C46.7132 205.062 46.6117 204.685 46.5693 204.254H47.6865C47.7373 204.601 47.8389 204.893 47.9912 205.13C48.1436 205.367 48.3424 205.546 48.5879 205.669C48.8376 205.788 49.1274 205.847 49.4575 205.847C49.7368 205.847 49.9844 205.798 50.2002 205.701C50.416 205.604 50.598 205.464 50.7461 205.282C50.8942 205.1 51.0063 204.88 51.0825 204.622C51.1629 204.364 51.2031 204.074 51.2031 203.752C51.2031 203.46 51.1629 203.189 51.0825 202.94C51.0021 202.69 50.8815 202.472 50.7207 202.286C50.5641 202.1 50.3716 201.956 50.1431 201.854C49.9146 201.748 49.6522 201.696 49.356 201.696C48.9624 201.696 48.6641 201.748 48.4609 201.854C48.262 201.96 48.0568 202.104 47.8452 202.286Z" fill="#FFFEFE"/>
<path d="M44.3491 283.17V284.579C44.3491 285.336 44.2814 285.975 44.146 286.496C44.0106 287.016 43.8159 287.435 43.562 287.753C43.3081 288.07 43.0013 288.301 42.6416 288.445C42.2861 288.584 41.8841 288.654 41.4355 288.654C41.0801 288.654 40.7521 288.61 40.4517 288.521C40.1512 288.432 39.8804 288.29 39.6392 288.095C39.4022 287.897 39.1991 287.638 39.0298 287.321C38.8605 287.004 38.7314 286.619 38.6426 286.166C38.5537 285.713 38.5093 285.184 38.5093 284.579V283.17C38.5093 282.412 38.577 281.777 38.7124 281.265C38.8521 280.753 39.0488 280.343 39.3027 280.034C39.5566 279.721 39.8613 279.497 40.2168 279.361C40.5765 279.226 40.9785 279.158 41.4229 279.158C41.7826 279.158 42.1126 279.202 42.4131 279.291C42.7178 279.376 42.9886 279.513 43.2256 279.704C43.4626 279.89 43.6636 280.14 43.8286 280.453C43.9979 280.762 44.127 281.141 44.2158 281.589C44.3047 282.038 44.3491 282.565 44.3491 283.17ZM43.1685 284.769V282.973C43.1685 282.558 43.1431 282.194 43.0923 281.881C43.0457 281.564 42.9759 281.293 42.8828 281.069C42.7897 280.844 42.6712 280.662 42.5273 280.523C42.3877 280.383 42.2248 280.281 42.0386 280.218C41.8566 280.15 41.6514 280.116 41.4229 280.116C41.1436 280.116 40.896 280.169 40.6802 280.275C40.4644 280.377 40.2824 280.54 40.1343 280.764C39.9904 280.988 39.8804 281.282 39.8042 281.646C39.728 282.01 39.6899 282.452 39.6899 282.973V284.769C39.6899 285.184 39.7132 285.55 39.7598 285.867C39.8105 286.185 39.8846 286.46 39.9819 286.693C40.0793 286.921 40.1978 287.109 40.3374 287.258C40.4771 287.406 40.6379 287.516 40.8198 287.588C41.006 287.655 41.2113 287.689 41.4355 287.689C41.7233 287.689 41.9751 287.634 42.1909 287.524C42.4067 287.414 42.5866 287.243 42.7305 287.01C42.8786 286.773 42.9886 286.47 43.0605 286.102C43.1325 285.73 43.1685 285.286 43.1685 284.769Z" fill="#FFFEFE"/>
<g filter="url(#filter1_d_1147_803)">
<rect x="460.208" y="108.5" width="35" height="25" rx="12.5" fill="#023E8A"/>
<path d="M473.768 121.455L473.118 121.288L473.438 118.102H476.721V118.853H474.128L473.935 120.593C474.052 120.526 474.2 120.463 474.379 120.404C474.561 120.346 474.769 120.316 475.003 120.316C475.299 120.316 475.564 120.368 475.798 120.47C476.033 120.57 476.232 120.713 476.396 120.901C476.563 121.088 476.69 121.314 476.778 121.578C476.866 121.841 476.91 122.136 476.91 122.461C476.91 122.769 476.868 123.051 476.783 123.309C476.701 123.567 476.576 123.792 476.409 123.986C476.242 124.176 476.031 124.324 475.776 124.43C475.524 124.535 475.227 124.588 474.884 124.588C474.626 124.588 474.382 124.553 474.15 124.482C473.922 124.409 473.717 124.299 473.535 124.153C473.356 124.003 473.21 123.819 473.096 123.599C472.984 123.376 472.914 123.116 472.885 122.817H473.658C473.693 123.057 473.764 123.259 473.869 123.423C473.975 123.587 474.112 123.712 474.282 123.797C474.455 123.879 474.656 123.92 474.884 123.92C475.078 123.92 475.249 123.886 475.398 123.819C475.548 123.751 475.674 123.655 475.776 123.529C475.879 123.403 475.957 123.25 476.009 123.072C476.065 122.893 476.093 122.692 476.093 122.47C476.093 122.268 476.065 122.08 476.009 121.907C475.954 121.734 475.87 121.583 475.759 121.455C475.65 121.326 475.517 121.226 475.359 121.156C475.201 121.083 475.019 121.046 474.814 121.046C474.542 121.046 474.335 121.083 474.194 121.156C474.057 121.229 473.915 121.329 473.768 121.455ZM482.626 122.347V123.015H478.003V122.536L480.869 118.102H481.532L480.82 119.385L478.926 122.347H482.626ZM481.734 118.102V124.5H480.921V118.102H481.734Z" fill="white"/>
</g>
</g>
<line x1="105.5" y1="64" x2="105.5" y2="291" stroke="white" stroke-opacity="0.18"/>
<line x1="483.5" y1="64" x2="483.5" y2="291" stroke="white" stroke-opacity="0.18"/>
<line x1="359.5" y1="64" x2="359.5" y2="291" stroke="white" stroke-opacity="0.18"/>
<line x1="732.5" y1="64" x2="732.5" y2="291" stroke="white" stroke-opacity="0.18"/>
<line x1="231.5" y1="64" x2="231.5" y2="291" stroke="white" stroke-opacity="0.18"/>
<line x1="609.5" y1="64" x2="609.5" y2="291" stroke="white" stroke-opacity="0.18"/>
<defs>
<filter id="filter0_d_1147_803" x="0" y="0" width="804" height="345" filterUnits="userSpaceOnUse" color-interpolation-filters="sRGB">
<feFlood flood-opacity="0" result="BackgroundImageFix"/>
<feColorMatrix in="SourceAlpha" type="matrix" values="0 0 0 0 0 0 0 0 0 0 0 0 0 0 0 0 0 0 127 0" result="hardAlpha"/>
<feOffset dy="4"/>
<feGaussianBlur stdDeviation="2"/>
<feComposite in2="hardAlpha" operator="out"/>
<feColorMatrix type="matrix" values="0 0 0 0 0 0 0 0 0 0 0 0 0 0 0 0 0 0 0.25 0"/>
<feBlend mode="normal" in2="BackgroundImageFix" result="effect1_dropShadow_1147_803"/>
<feBlend mode="normal" in="SourceGraphic" in2="effect1_dropShadow_1147_803" result="shape"/>
</filter>
<filter id="filter1_d_1147_803" x="438.208" y="88.5" width="79" height="69" filterUnits="userSpaceOnUse" color-interpolation-filters="sRGB">
<feFlood flood-opacity="0" result="BackgroundImageFix"/>
<feColorMatrix in="SourceAlpha" type="matrix" values="0 0 0 0 0 0 0 0 0 0 0 0 0 0 0 0 0 0 127 0" result="hardAlpha"/>
<feOffset dy="2"/>
<feGaussianBlur stdDeviation="11"/>
<feComposite in2="hardAlpha" operator="out"/>
<feColorMatrix type="matrix" values="0 0 0 0 0 0 0 0 0 0 0 0 0 0 0 0 0 0 0.17 0"/>
<feBlend mode="normal" in2="BackgroundImageFix" result="effect1_dropShadow_1147_803"/>
<feBlend mode="normal" in="SourceGraphic" in2="effect1_dropShadow_1147_803" result="shape"/>
</filter>
</defs>
</svg>
